<?xml version="1.0" encoding="utf-8"?>
<!-- Generator: Adobe Illustrator 27.1.1, SVG Export Plug-In . SVG Version: 6.00 Build 0)  -->
<svg version="1.1" id="Layer_1" xmlns="http://www.w3.org/2000/svg" xmlns:xlink="http://www.w3.org/1999/xlink" x="0px" y="0px"
	 viewBox="0 0 2267.72 1700.79" style="enable-background:new 0 0 2267.72 1700.79;" xml:space="preserve">
<style type="text/css">
	.st0{opacity:0.54;}
	.st1{opacity:0.54;fill:#010101;enable-background:new    ;}
	.st2{fill:#00589C;}
	.st3{fill:#56C0EE;}
	.st4{fill:#44B3E7;}
	.st5{opacity:0.2;fill:#FFFFFF;enable-background:new    ;}
	.st6{opacity:0.2;fill:#273339;enable-background:new    ;}
	.st7{opacity:0.2;fill:url(#SVGID_1_);enable-background:new    ;}
</style>
<g class="st0">
	<path class="st1" d="M1063.72,318.57h134.38c45.6,0,85.42,21.21,119.43,63.72c33.22,40.68,60.46,102.22,78.43,177.12
		c18.27,75.67,27.38,162.29,27.38,260.46c0,98.07-9.11,184.79-27.38,260.46c-17.94,74.88-45.18,136.38-78.38,177.02
		c-34.02,42.51-73.83,63.72-119.48,63.72h-134.38V318.57z M1198.1,1207.87c52.68,0,94.44-34.05,125.36-102.25
		c30.88-68.1,46.36-163.28,46.36-285.75c0-122.26-15.48-217.45-46.36-285.65c-30.88-68.2-72.68-102.15-125.36-102.15h-82.1v775.6
		h82.1V1207.87z M1504.73,1312.81c-17.36-18.72-32.01-48.09-42.29-84.73c-10.05-36.79-15.22-79.28-14.91-122.46
		c0-75.67,12.61-134.71,37.95-177.22c25.21-42.41,57.19-63.72,95.81-63.72c19.02,0,36.76,4.78,53.17,14.14
		c16.37,9.36,28.93,20.11,37.64,32.16v-43.41c0-53.17-8.27-95.88-24.86-128.14c-16.59-32.16-37.6-48.29-62.81-48.29
		c-17.87,0-34.24,8.66-49.19,25.89c-14.51,16.39-26.77,41.34-35.48,72.18L1459.97,722c12.72-43.46,30.46-78.29,51.31-100.76
		c22.58-24.69,47.4-37.17,72.5-36.44c43.13,0,77.01,25.39,101.74,76.27c24.64,50.98,36.98,120.27,36.98,207.99v452.22h-50.38
		v-102.15h-2.48c-9.11,34.55-22.82,63.82-41.09,88.11c-18.68,24.55-39.99,37.15-61.62,36.44
		C1543.79,1343.67,1523.04,1333.42,1504.73,1312.81z M1621.73,1207.87c15.3-20.51,27.56-48.09,36.71-82.64
		c9.07-34.45,13.71-72.28,13.71-113.4c-11.33-16.33-23.72-28.62-36.71-36.44c-14.99-9.46-30.48-14.15-46.05-13.94
		c-29.06,0-50.96,13.44-65.64,40.52c-14.34,25.17-22.54,64.12-22.12,105.04c0,39.13,6.64,70.89,19.91,95.18
		c13.27,24.19,30.08,36.44,50.43,36.44C1589.79,1238.63,1606.42,1228.38,1621.73,1207.87L1621.73,1207.87z M1778.32,618.35h50.43
		v113.5h2.43c7.26-41.58,20.66-76.25,37.95-98.17c17.76-23.29,37.97-35.4,58.52-35.05c9.11,0,16.76,1.49,23,4.18v121.87
		c-9.42-4.22-19.02-6.09-28.62-5.58c-26.98,0-48.83,20.11-65.6,60.24c-16.81,40.12-25.21,92.39-25.21,156.71v396.26h-52.9
		L1778.32,618.35L1778.32,618.35z M2106.71,1329.44c-21.24-17.09-38.15-54.01-46.4-101.26c-4.45-27.86-6.55-57.33-6.19-86.92V714.93
		h-55.42V607.1h55.38V405.59h52.9V607.1h77.1v107.83h-77.1v397.95c0,40.02,3.27,69.69,9.91,88.71
		c7.87,20.91,19.29,31.56,34.24,31.56c11.94,0,23.62-7.97,34.81-23.9v116.29c-6.05,6.36-12.43,11.07-18.98,14.04
		c-8.12,3.13-16.36,4.53-24.59,4.18C2130.19,1343.89,2118.11,1339.03,2106.71,1329.44L2106.71,1329.44z"/>
</g>
<path class="st2" d="M198.11,1292.99L84.57,1037.42c-13.69-31.68-21.5-73.9-21.85-118.08c0-19.91,4.95-50.98,8.71-68.8
	l104.83-491.64L198.11,1292.99L198.11,1292.99z"/>
<path class="st3" d="M586.88,408.08L473.34,152.5c-9.86-22.4-30.52-49.18-48.04-49.18c-15.04,0-29.73,6.77-39.32,19.61
	L176.31,358.89l410.62,49.18H586.88z M333.56,1597.76h275.22v-265.44l-205.33-147.55l-187.82,147.45L333.56,1597.76L333.56,1597.76z
	"/>
<path class="st4" d="M176.35,1155.4c0,78.85,4.38,98.27,21.81,137.7l17.47,39.33h393.15l-192.2-491.54L176.35,358.99v796.51V1155.4z
	"/>
<path class="st2" d="M525.75,358.89H176.31l432.43,973.43h117.93V722.6L586.88,407.98c-19.6-44.31-37.02-49.18-61.13-49.18
	L525.75,358.89z"/>
<path class="st5" d="M202.49,1302.85c-17.43-39.53-21.81-78.36-21.81-147.35V368.85l-4.42-9.96v796.51
	c0.09,69.1,0.09,88.21,26.27,147.45l13.09,29.57l-13.09-29.57H202.49z"/>
<path class="st6" d="M722.33,712.94v609.53H604.4l4.38,9.86h117.97V722.8l-4.42-9.96V712.94z"/>
<path class="st5" d="M586.88,408.08c-21.63-48.79-39.37-49.18-65.47-49.18H176.31l4.42,9.96h340.73c12.96,0,45.91-4.98,65.47,39.23
	H586.88z"/>
<radialGradient id="SVGID_1_" cx="9.0411" cy="1975.7202" r="1" gradientTransform="matrix(332.0314 0 0 -747.3524 -2607.1794 1477409.75)" gradientUnits="userSpaceOnUse">
	<stop  offset="0" style="stop-color:#FFFFFF;stop-opacity:0.1"/>
	<stop  offset="1" style="stop-color:#FFFFFF;stop-opacity:0"/>
</radialGradient>
<path class="st7" d="M722.33,712.94L586.88,407.98L473.29,152.4c-9.91-22.4-30.57-49.18-48.04-49.18
	c-15.04,0-29.77,6.77-39.32,19.61L176.26,358.79L71.43,850.44c-3.76,17.92-8.71,48.89-8.71,68.8c0,42.91,8.4,86.82,21.85,118.08
	l104.66,233.87c2.52,6.87,5.44,13.94,8.94,21.7l4.42,9.96l13.09,29.47l113.59,255.58l4.38,9.96h275.22v-265.54h117.93V722.8
	l-4.51-9.96L722.33,712.94z"/>
</svg>
