<?xml version="1.0" encoding="utf-8"?>
<!-- Generator: Adobe Illustrator 27.1.1, SVG Export Plug-In . SVG Version: 6.00 Build 0)  -->
<svg version="1.1" id="Layer_1" xmlns="http://www.w3.org/2000/svg" xmlns:xlink="http://www.w3.org/1999/xlink" x="0px" y="0px"
	 viewBox="0 0 566.93 566.93" style="enable-background:new 0 0 566.93 566.93;" xml:space="preserve">
<style type="text/css">
	.st0{fill:url(#SVGID_1_);}
	.st1{fill:url(#SVGID_00000036232958338431274180000004125858240149563555_);}
	.st2{fill:#FFFFFF;}
	.st3{opacity:0.33;fill:url(#SVGID_00000031886372049280064360000001119767484935490460_);}
</style>
<g>
	<linearGradient id="SVGID_1_" gradientUnits="userSpaceOnUse" x1="104.8313" y1="97.987" x2="473.555" y2="466.7106">
		<stop  offset="0" style="stop-color:#A3A3A2"/>
		<stop  offset="0.2064" style="stop-color:#FFFFFF"/>
		<stop  offset="0.4368" style="stop-color:#818181"/>
		<stop  offset="0.6531" style="stop-color:#FFFFFF"/>
		<stop  offset="0.8552" style="stop-color:#C8C7C6"/>
		<stop  offset="1" style="stop-color:#767676"/>
	</linearGradient>
	<ellipse class="st0" cx="283.46" cy="276.62" rx="277.85" ry="262.43"/>
	
		<radialGradient id="SVGID_00000047780613337593650210000000968662879394574984_" cx="235.9373" cy="206.1649" r="274.619" gradientTransform="matrix(0.8705 0 0 0.8222 78.0742 107.1073)" gradientUnits="userSpaceOnUse">
		<stop  offset="0" style="stop-color:#4D83C4"/>
		<stop  offset="0.8591" style="stop-color:#3C50A2"/>
		<stop  offset="1" style="stop-color:#28296F"/>
	</radialGradient>
	
		<ellipse style="fill:url(#SVGID_00000047780613337593650210000000968662879394574984_);" cx="283.46" cy="276.62" rx="239.06" ry="225.8"/>
	<path class="st2" d="M309.61,273.27l112.53-80.68c0.6,1.21,0.95,2.54,0.95,3.96V356.5L309.61,273.27z M413.12,187.13
		c0.05,0,0.09,0.01,0.13,0.01l-120.88,86.67c-5.24,3.76-12.56,3.76-17.8,0l-120.89-86.67c0.04,0,0.09-0.01,0.13-0.01H413.12z
		 M143.83,356.5V196.55c0-1.42,0.36-2.75,0.95-3.96l112.53,80.68L143.83,356.5z M153.81,366.11c-1.83,0-3.53-0.5-5.01-1.32
		l116.75-85.62l2.99,2.14c4.4,3.15,9.66,4.73,14.93,4.73c5.27,0,10.54-1.58,14.94-4.73l2.98-2.14l116.74,85.62
		c-1.48,0.82-3.18,1.32-5.01,1.32H153.81z"/>
	
		<linearGradient id="SVGID_00000062903821746848343140000003831024924552436626_" gradientUnits="userSpaceOnUse" x1="283.4647" y1="228.5029" x2="283.4647" y2="75.4991">
		<stop  offset="0" style="stop-color:#FFFFFF;stop-opacity:0"/>
		<stop  offset="1" style="stop-color:#FFFFFF"/>
	</linearGradient>
	<path style="opacity:0.33;fill:url(#SVGID_00000062903821746848343140000003831024924552436626_);" d="M477.82,187.75
		c-36.51,19.97-100.44,44.49-194.35,44.49s-157.84-24.52-194.35-44.49c34.96-68.09,108.85-115.04,194.35-115.04
		S442.86,119.66,477.82,187.75z"/>
</g>
</svg>
