<?xml version="1.0" encoding="utf-8"?>
<!-- Generator: Adobe Illustrator 27.1.1, SVG Export Plug-In . SVG Version: 6.00 Build 0)  -->
<svg version="1.1" id="Layer_1" xmlns="http://www.w3.org/2000/svg" xmlns:xlink="http://www.w3.org/1999/xlink" x="0px" y="0px"
	 viewBox="0 0 566.93 566.93" style="enable-background:new 0 0 566.93 566.93;" xml:space="preserve">
<style type="text/css">
	.st0{fill-rule:evenodd;clip-rule:evenodd;fill:url(#SVGID_1_);}
	.st1{fill-rule:evenodd;clip-rule:evenodd;fill:url(#SVGID_00000049191796389991303030000000580647223342362294_);}
	.st2{fill-rule:evenodd;clip-rule:evenodd;fill:#FFFFFF;}
</style>
<g>
	<g>
		
			<linearGradient id="SVGID_1_" gradientUnits="userSpaceOnUse" x1="-304.3525" y1="501.5778" x2="165.9832" y2="501.5778" gradientTransform="matrix(0.612 0.7908 -0.7908 0.612 749.0844 -7.8994)">
			<stop  offset="0" style="stop-color:#EE3764"/>
			<stop  offset="0.5447" style="stop-color:#EF5897"/>
			<stop  offset="1" style="stop-color:#E396C1"/>
		</linearGradient>
		<path class="st0" d="M534.85,212.71L25.72,170.83c-9.71-0.8-15.76,10.29-9.83,18.02l272.45,355.42c4.52,5.89,13.4,5.86,17.87-0.07
			l236.68-313.54C548.22,223.6,543.67,213.43,534.85,212.71z"/>
		
			<linearGradient id="SVGID_00000007398144141583618190000016586099755970758329_" gradientUnits="userSpaceOnUse" x1="-112.9516" y1="449.72" x2="357.4529" y2="449.72" gradientTransform="matrix(-0.5779 0.8161 -0.8161 -0.5779 835.4479 482.3228)">
			<stop  offset="0" style="stop-color:#EE3764"/>
			<stop  offset="0.5447" style="stop-color:#EF5897"/>
			<stop  offset="1" style="stop-color:#E396C1"/>
		</linearGradient>
		<path style="fill-rule:evenodd;clip-rule:evenodd;fill:url(#SVGID_00000007398144141583618190000016586099755970758329_);" d="
			M491.96,531.04L383.14,27.28c-2.07-9.57-14.54-12.1-20.17-4.08L105.76,389.9c-4.22,6.01-1.62,14.39,5.26,16.96l366.04,137.06
			C485.37,547.04,493.84,539.72,491.96,531.04z"/>
	</g>
	<path class="st2" d="M453.81,319.84c-0.15-7.9-1.23-15.65-2.61-23.25c-1.84-9.15-4.45-17.98-7.99-26.51
		c-3.68-8.37-7.83-16.27-13.05-24.03c-5.06-7.43-10.74-14.26-17.04-20.77c-6.29-6.2-13.36-12.24-20.73-17.2
		c-7.37-5.12-15.36-9.31-23.65-13.04c-8.29-3.55-17.35-6.36-26.1-8.06c-9.21-1.85-18.74-2.94-28.26-2.94
		c-9.37,0-18.89,1.09-28.1,2.94c-8.75,1.7-17.81,4.51-26.1,8.06c-8.29,3.73-16.43,7.92-23.8,13.04c-7.22,4.96-14.44,11-20.57,17.2
		c-6.45,6.51-12.13,13.34-17.04,20.77c-5.23,7.76-9.53,15.66-12.75,24.03c-3.84,8.53-6.45,17.37-8.29,26.51
		c-1.54,7.12-2.46,14.57-2.61,21.7c-0.31,2.16-0.31,4.34-0.31,6.82c0,9.45,0.93,18.92,2.92,28.21c1.84,9.15,4.45,17.98,8.29,26.51
		c3.22,8.37,7.52,16.28,12.75,24.03c4.91,7.29,10.59,14.27,17.04,20.78c6.14,6.51,13.36,12.24,20.57,17.2
		c7.37,4.96,15.51,9.3,23.8,12.87c8.29,3.72,17.35,6.51,26.1,8.37c9.22,2.02,18.74,2.63,28.1,2.63c9.52,0,19.04-0.61,28.26-2.63
		c8.75-1.86,17.81-4.65,26.1-8.37c8.29-3.57,16.28-7.91,23.65-12.87c7.37-4.96,14.43-10.69,20.73-17.2
		c6.3-6.51,11.98-13.49,17.04-20.78c5.23-7.75,9.37-15.66,13.05-24.03c3.54-8.53,6.14-17.35,7.99-26.51
		c1.84-9.29,2.92-18.91,2.92-28.21C454.11,323.09,454.11,321.55,453.81,319.84L453.81,319.84z M314.38,204.66
		c30.1,0,57.89,11.32,78.77,29.92c-0.31,0.47-17.35,26.51-62.19,43.56c-20.27-37.83-42.84-67.75-44.53-70.07
		C295.49,205.9,304.71,204.66,314.38,204.66L314.38,204.66z M285.97,208.07L285.97,208.07c0,0-0.15,0.15-0.46,0.15
		C285.82,208.23,285.82,208.07,285.97,208.07L285.97,208.07z M263.4,216.13c1.69,2.17,23.8,32.39,44.38,69.45
		c-57.12,15.34-106.87,14.57-109.95,14.57C205.66,262.79,230.23,231.94,263.4,216.13L263.4,216.13z M225.78,405.42
		c-19.04-21.25-30.55-49.46-30.55-80.3c0-1.55,0-2.64,0.15-3.88c1.99,0,60.96,1.39,122.38-17.22c3.38,6.68,6.61,13.65,9.68,20.62
		c-1.69,0.15-3.23,0.63-4.76,1.4c-64.49,20.77-96.89,79.22-96.89,79.22V405.42z M314.38,445.41c-27.64,0-52.97-9.62-73.24-25.58l0,0
		c0,0-1.08-0.78-2.61-2.16c0.77,0.77,1.68,1.39,2.61,2.16c0.3-0.47,23.34-50.54,93.66-75.19c0.31,0,0.46-0.15,0.77-0.15
		c16.73,44.03,23.65,80.93,25.34,91.31C346.63,441.84,330.96,445.41,314.38,445.41L314.38,445.41z M381.02,424.79
		c-1.23-7.27-7.52-42.48-23.18-85.88c38.54-6.2,71.86,4.34,74.47,5.12C426.78,377.67,407.89,406.65,381.02,424.79L381.02,424.79z
		 M350.77,319.84c-1.08-2.16-2-4.19-2.61-6.2c-2-4.35-3.84-8.38-5.68-12.72c-0.77-1.55-1.54-3.1-2.46-4.8
		c47.14-19.37,66.19-47.13,66.64-47.6c14.74,18.14,24.41,40.94,26.57,65.74c0.16,3.09,0.46,6.19,0.46,9.61
		C432,323.41,391.47,314.57,350.77,319.84L350.77,319.84z"/>
</g>
</svg>
