<?xml version="1.0" encoding="utf-8"?>
<!-- Generator: Adobe Illustrator 27.1.1, SVG Export Plug-In . SVG Version: 6.00 Build 0)  -->
<svg version="1.1" id="Layer_1" xmlns="http://www.w3.org/2000/svg" xmlns:xlink="http://www.w3.org/1999/xlink" x="0px" y="0px"
	 viewBox="0 0 566.93 566.93" style="enable-background:new 0 0 566.93 566.93;" xml:space="preserve">
<style type="text/css">
	.st0{fill:#00B585;}
	.st1{fill:#00AB4E;}
	.st2{fill-rule:evenodd;clip-rule:evenodd;fill:#FFFFFF;}
</style>
<g>
	<g>
		<path class="st0" d="M392.37,75.68c0.16,1.05-0.27,1.99-0.9,1.17C391.55,76.18,391.9,75.86,392.37,75.68z M436.02,93.33
			c-1.34-1.73-3.19,0.73-4.29,1.22C433.29,95.14,434.31,92.55,436.02,93.33z M461.12,82.04c0.65,0.73,1.36-0.2,1.57-0.91
			C462.25,81.55,461.06,81.01,461.12,82.04z M460.11,71.26c0.32-0.66,1.11-0.71,0.86-2.09C460.54,69.7,459.78,69.79,460.11,71.26z
			 M463.73,81.3c1.48-0.22,2.48-0.47,3.5-1.92C466.15,79.52,464,79.89,463.73,81.3z M476.57,88.24
			C473.85,88.21,476.14,90.31,476.57,88.24L476.57,88.24z M474.27,71.83c0.48,0.24,1.91-0.36,2.31-1.12
			C475.6,70.68,474.78,70.69,474.27,71.83z M474.15,69.1l0.93-0.27C475.02,67.43,473.52,67.86,474.15,69.1z M470.75,44.7
			c-0.53-0.14-1.06,0.26-1.07,1.23C470.01,46.33,470.9,45.8,470.75,44.7z M475.33,46.17C477.4,45.5,476.31,43.67,475.33,46.17
			L475.33,46.17z M437.08,57.98c-0.98-0.54-1.6,1.36-2.64-0.17c0.02,0.89-0.34,1.3-0.49,1.98C435,58.14,436.66,60.19,437.08,57.98z
			 M465.74,91.33c0.33,1.95-1.68,0.95-1.49,2.73c1.65-1.2,6.74-0.99,8.13-4.17c-1.87,1.84-4.07-1.39-4.48,1.28
			c-0.16-0.58-0.16-0.96-0.15-1.34c-0.79,0.26-1.12,1.09-2.13,1.07c-0.13-0.55,0.08-0.66-0.15-1.34c-0.43,0.5-0.64-0.47-1.04-0.17
			C464.66,91.45,465.42,89.97,465.74,91.33z M474.29,63.52c-0.13,0.8-0.59,1.17-0.67,2.04C474.32,66.59,474.48,63.55,474.29,63.52z
			 M74.26,269.48c-0.42,0.4-1.65-0.1-1.51,0.9C73.36,271.05,74.1,270.24,74.26,269.48z M66.43,251.41c-0.94,0.59-2.39,0.63-2.5,2.11
			C65.3,253.39,66.15,252.72,66.43,251.41z M68.68,308.04c-0.94-0.99-1.12,0.6-1.68,0.97c-0.51-0.22-1-0.47-1.56-0.45
			c-0.16,1.89-4.12,1.3-3.24,3.29C63.9,309.42,67.67,311.15,68.68,308.04z M46.26,309.23l-0.9,0.27c0.19,0.75,0.41,1.32,0.69,1.64
			C46.68,311.09,46.63,310.33,46.26,309.23z M34.56,305.84c-0.39-0.36-1.48,0.27-1.33,1.35C33.93,307.01,34.42,306.6,34.56,305.84z
			 M33.08,316.07c0.43-1.06,1.75-1.21,1.97-2.49C34.27,314.09,31.97,314.62,33.08,316.07z M32.22,307.97
			c-0.74,0.75-2.08,0.89-2.33,2.14C30.77,309.51,32.18,309.44,32.22,307.97z M29.44,310.26c-0.84,1.61-3,0.11-3.7,1.63
			C26.76,311.71,28.9,312.62,29.44,310.26z M29.36,327.46c-0.45,0.43-1.76-0.02-1.65,0.99C28.55,328.38,29.16,328.7,29.36,327.46z
			 M25.85,323c-0.73-0.16-0.4,0.78-0.99,0.78c-0.22-0.66-0.41-1.48-0.83-1.13C24.38,325.03,25.95,324.2,25.85,323z M31.17,316.21
			c-0.13,0.04-0.36-0.26-0.13-0.42c2.03-0.92-1.09-0.51-1,0.78C30.26,316.76,31.4,317.22,31.17,316.21z M22.89,322.08
			C22.89,322.08,22.89,322.09,22.89,322.08C22.89,322.09,22.89,322.09,22.89,322.08C22.89,322.09,22.89,322.09,22.89,322.08z
			 M22.89,322.09c0.93-4.57,6.54-0.46,6.94-5.45c-3.51,3.2-8.62,1.91-11.66,6.02c-0.43-0.34-0.95-0.15-1.38-0.49
			c-0.33,3.11-4.81,1.51-6.1,3.32c1.45,1.2,3.58-0.02,4.95-0.64l0.52,1.69C17.59,322.99,21.13,322.81,22.89,322.09z M22.79,322.58
			c0.02-0.18,0.06-0.33,0.09-0.49C22.64,322.14,22.38,322.46,22.79,322.58z M529.8,219C526.5,219.39,529.42,221.12,529.8,219
			L529.8,219z M525.79,203.09c0.59,0.17,2.25-0.64,2.66-1.44C527.28,201.76,526.31,201.9,525.79,203.09z M525.43,200.41l1.08-0.4
			C526.32,198.64,524.58,199.28,525.43,200.41z M524.67,177.73C527.01,176.8,525.55,175.15,524.67,177.73L524.67,177.73z
			 M525.12,194.9c-0.08,0.81-0.6,1.24-0.61,2.1C525.41,197.91,525.34,194.89,525.12,194.9z M144.81,492.3
			c0.52-0.14,0.96-0.43,1.19-1.12C145.53,490.28,144.88,491.2,144.81,492.3z M74.9,490.81c-0.42,0.65-1.24,0.64-1.17,2.07
			C74.23,492.38,75.03,492.35,74.9,490.81z M60.36,492.2l-0.98,0.22C59.27,493.85,60.85,493.5,60.36,492.2z M62.23,516.09
			c-0.29-0.42-1.22,0.06-1.18,1.18C61.56,517.45,62.11,517.07,62.23,516.09z M56.68,515.48C54.57,516.03,55.47,517.96,56.68,515.48
			L56.68,515.48z M96.02,506.21c0.9,0.64,1.84-1.25,2.62,0.42c0.14-0.91,0.56-1.3,0.83-1.99C98.14,506.23,96.81,503.97,96.02,506.21
			z M59.57,497.88c0.22-0.81,0.73-1.16,0.91-2.04C59.89,494.75,59.37,497.85,59.57,497.88z M462.56,425.83
			c0.19-1.35,0.36-2.82,0.38-3.35c-0.25,0.89-0.43,1.88-0.41,0.28c0.27-3.85,0.56-6.83,0.4-8.92c-0.23-1.01-0.72,2.39-1.17,4.76
			c-0.41,2.36-0.62,3.62-0.75-1.59c-0.94-4.84-2.77-2.51-4.69-2.81c-1.31-0.24-2.85-1.29-4.42-1.15c-1.52,0.1-2.97,1.97-4.71-0.02
			c-1.09,2.52-2.69,0.51-4.33,0.48c-4.75-0.15-8.94,5.25-15.07,3.69c-2.74,3.07-7.66,2.63-11.15,2c-3.69,3.66-8.43,1.07-12.04,2.61
			c-2.43,1.04-4.37,3.17-6.69,3.51c-0.76,0.12-1.58-0.57-2.3-0.34c-2.22,0.72-4.12,2.88-6.54,3.01c-2.25,0.13-4.56-1.92-6.5,1.06
			c-6.4-0.63-14.15,6.54-21.96,5.91c-0.55-0.05-0.97-0.65-1.5-0.6c-4.98,0.47-9.11,5.35-13.81,2.91c-5.29,2.25-11.99,3.83-17.58,4
			c-4.8,3.41-10.04,2.73-14.93,3.35c-3.65,0.45-7.42,3.36-11.26,4.35c-1.37,0.35-2.82-0.55-4.13-0.16c-1.98,0.58-3.83,2.52-5.84,2.9
			c-3.53,0.64-6.97,1.1-10.54,1.82c-3.18,0.64-6.38,3.27-9.58,3.95c-1.18,0.25-2.43-1.04-3.61-0.76c-0.77,0.18-1.52,1.41-2.18,1.74
			c-3.81,1.9-8.89,1.95-13.46,3.14c-6.38,1.67-12.14,2.81-18.78,5.81c-5-0.23-10.34,2.89-15.78,4.36
			c-6.92,1.88-14.36,3.43-21.54,5.72c-7.68,2.46-15.47,6.01-22.84,5.96c-0.3-1.02-0.77-1.6-1.29-2.08c-0.8,0.04-0.52,2.21-1.41,2.07
			c-0.7,0.45-0.38-1.64-0.87-1.7c-6.44,0.95-12.91,1.47-18.83,1.73c-1.04,0.26-0.09-1.54-0.88-1.69c-3.43,1.02-8.49,0.91-12.7,2.16
			c-1.69,0.5-3.62,0.5-5.3,0.47c-0.45-0.01-0.25,1.04-0.56,1.02c-0.54-0.04-0.25-1.03-0.67-1.25c-0.07-0.04-0.96,0.26-1.41,0.25
			c-4.33-0.06-8.37,2.52-12.7,2.74c-0.87-1.01-0.85-1.09-2.11-1c-0.97,0.07-0.78,0.41-1.54,1.21c-0.09,0.09-1,0.45-1.24,0.61
			c-0.2-0.17-0.04-1.05-0.22-1.25c-0.84-0.93-3.26,1.26-4.75,1.37c-1.82,0.13-3.97-1.05-6.09-0.21c0.39-0.36,0.76-0.78,1.1-1.23
			c-0.76-0.27-1.58-1.33-2.75-1.52c-2.06-0.34-6.76,0-8.66,2.2c-0.74,0.84-1.11,3.65-1.87,4.16c-1.65,1.12-4.24-2.1-6.05-0.74
			c-1.22,0.91-1.7,4.05-2.29,4.28c-1.71,0.67-4.51-2.65-5.37-4.6c-0.75-0.14-0.52,0.93-1.28,0.79c-2.07-2.72-5.85-3.1-9.2-2.61
			c-0.7,0.18-1.41,0.32-2.13,0.42c-0.5,0.13-0.97,0.27-1.41,0.43c-0.08,0.03-0.21,0.02-0.31,0.04c-0.65,1-1.45,1-2.41,0.91
			c0.23-0.34,0.67-0.62,1.12-0.82c-0.18-0.01-0.39-0.01-0.51-0.02c-5.5-0.49-10.76-6.13-15.76-10.45c-0.34-1.32-0.91-1.83-1.33-2.86
			c-2.23-1.37-4.21-3.72-6.44-5.15c-0.91-2.64-2.51-2.77-3.27-6.02c-1.71-2.91-3.5-4.95-5.4-7.74c-1.66-2.44-3.86-4.66-5.35-7.28
			c-2.4-4.22-3.41-10.04-6.27-14.4c-1.42-8.51-4.59-17.23-7.14-27.99c-0.34-0.87-0.89-1.07-1.08-2.47
			c1.51-4.88-1.33-11.33-1.28-17.16c0.02-1.57,0.94-2.88,1.11-4.46c0.37-3.56-0.11-7.37-0.13-10.11c5.56-7.15,6.5-19.56,10.79-28.39
			c0.1-0.21,0.92-0.24,1.19-0.8c1.68-3.51,4.6-6.32,6.59-10.15c0.67-5.04,3.93-5.23,7.32-7.97c1.17-0.95,1.65-1.8,3.49-2.77
			c2.48-1.31,4.34-4.37,6.67-5.91c2.64-1.75,5.48-0.84,8.26-1.73c1.19-0.38,2.13-2.37,3.27-2.71c2.51-0.74,4.74,3.35,6.79,3.74
			c0,0,0,0,0,0c1.42-1.28,2.78-2.63,4.63-1.73c2.21-0.95,4.47-1.96,6.64-2.44c0.21-1.76-0.5-5.14-2.31-4.4
			c0.25-1.2,0.66-0.76,1.46-0.9c-0.17-0.74-0.45-1.07-0.77-1.16c2.43-1.03,2.82-1.26,5.27-1.98c0.39-0.49,0.06-2.44-0.52-3.08
			c-1.91,1.25-4.17,0.24-6.06,0.82c-1.13,0.35-1.52,2.04-2.48,2.59c-0.46,0.27-0.74-0.64-1.34-0.52c-0.55,0.11-1,1.66-1.46,1.83
			c-0.59,0.22-1.08-0.46-1.79-0.39c-2.51,0.26-4.34,3.86-6.83,4.37c-1.93,0.39-4.5-1.98-6.41-0.39c0.06-2.99,2.06-1.81,3.47-2.43
			c4.66-2.06,9.2-7.35,13.27-8.63c-0.12-2.39-1.24-2.9-2.11-4.46c-1.18,1.12-2.14,1.09-3.17,1.88c-0.52,0.62,0.62,1.05,0.22,1.78
			c-2.98,1.12-5.39,3.14-8.8,4.5c-0.78-1.47-1.64-1.16-1.71-3.65c-0.42,0.33-0.68-0.11-1.02-0.16c-0.96,0.15,0.2,0.58,0.24,1.78
			c-1.35-2.37-1.68,1.16-2.84-0.53c-3.19,4.46-7.63,2.1-11.27,7.11c2.21-3.77,6.18-5.72,10.13-7.7c0.86-0.41-0.53-1.27-0.01-1.84
			c1.14-0.54,2.46,0.68,3.52,0.32c1.31-0.43,1.38-2.08,2.38-3.03c1.16-1.11,2.91-0.93,4.09-2.16c1.15-1.19,1.5-3.95,3.31-3.31
			c0.21-1.37-0.29-2.34,0.59-3.42c-0.22-1.54-1.8-1.91-1.34-3.3c0.64-0.92,0.51,1.42,1.02,1.08c0.72-0.58,0.71-1.96,0.94-3.06
			c2.33,0.64,4.09-0.93,6.08-2.27c0.53-0.72-1.31-0.96-0.77-2.09c1.14,0.77,3.77-0.76,3.95-2.98c2.5,0.24,3.43-1.78,6-1.83
			c-1.51-6.55-3.54-13.52-5.33-21.59c-0.3-0.88-0.73-1.12-0.94-2.52c0.98-4.71-1.48-11.28-1.69-17.03c-0.06-1.55,0.6-2.76,0.65-4.31
			c0.13-3.47-0.43-7.27-0.57-9.97c3.88-6.6,3.91-18.72,6.57-27.02c0.06-0.2,0.68-0.16,0.84-0.68c1.04-3.3,3.03-5.81,4.26-9.39
			c0.14-4.86,2.56-4.79,4.91-7.27c0.8-0.85,1.11-1.65,2.41-2.48c1.76-1.11,2.92-3.99,4.54-5.34c1.83-1.53,4.04-0.45,6.05-1.14
			c0.86-0.29,1.39-2.17,2.22-2.43c1.82-0.55,3.85,3.58,5.43,4.09c0.98-1.18,1.9-2.45,3.44-1.37c1.41,3.38,1.88,6.21,3.69,7.76
			c3,1.12,1.7-14.06,5.1-4.57c3.49,3.96,7.01,0.78,10.36,0.47c2.35-0.22,4.9,0.39,7.1-0.05c2.23-0.44,4.02-2.5,6.35-0.77
			c1.23-2.63,3.31-0.84,5.13-0.91c5.38-0.21,9.42-5.65,15.09-4.03c2.41-3,6.6-2.39,9.52-1.64c2.72-3.4,6.66-0.69,9.42-2.07
			c1.85-0.92,3.19-2.93,5.01-3.18c0.59-0.09,1.32,0.61,1.87,0.41c1.71-0.62,3-2.66,4.92-2.7c1.78-0.04,3.9,1.93,5.13-0.92
			c5.29,0.66,10.66-6.14,17.13-5.55c0.46,0.05,0.89,0.62,1.32,0.57c4.06-0.52,6.74-5.26,11-2.98c4.02-2.19,9.38-3.94,14.06-4.28
			c3.46-3.43,7.96-2.92,12.01-3.74c3.03-0.61,5.72-3.58,8.8-4.7c1.1-0.4,2.51,0.38,3.56-0.05c1.58-0.66,2.79-2.59,4.43-3.05
			c2.91-0.83,5.8-1.5,8.75-2.41c2.63-0.81,4.86-3.51,7.49-4.36c0.97-0.31,2.32,0.82,3.29,0.48c0.64-0.23,1.04-1.45,1.55-1.81
			c2.95-2.08,7.39-2.52,11.15-3.99c5.22-2.05,10.12-3.63,15.38-7.01c4.52-0.21,8.54-3.59,13.16-5.49
			c5.87-2.41,12.17-4.53,18.27-7.38c6.54-3.06,12.8-7.14,19.74-7.81c0.5,0.93,1.07,1.43,1.66,1.84c0.74-0.12,0-2.14,0.87-2.09
			c0.56-0.49,0.71,1.5,1.18,1.51c5.82-1.52,11.66-2.66,17.26-3.46c0.93-0.34,0.41,1.44,1.18,1.52c3.03-1.29,7.83-1.66,11.54-3.24
			c1.49-0.64,3.33-0.81,4.95-0.94c0.44-0.03,0.04-1.01,0.34-1.01c0.53-0.01,0.44,0.95,0.89,1.13c0.08,0.03,0.87-0.33,1.3-0.37
			c4.15-0.33,7.52-3.15,11.62-3.74c1.01,0.88,1.01,0.96,2.19,0.77c0.91-0.15,0.68-0.46,1.27-1.28c0.07-0.09,0.89-0.51,1.09-0.68
			c0.23,0.15,0.22,1,0.43,1.18c0.97,0.82,2.93-1.46,4.36-1.69c1.74-0.28,4.02,0.68,5.91-0.29c-1.6,1.91-2.54,4.67-1.69,9.7
			c2.72,2.48,5.32-2.4,8.01,0.03c3.98-3.2,9.55-5.23,14.73-6.49c0.43-0.03,0.5-0.52,0.22-1.44c5.63,0.07,10.19-4.48,16.17-5.54
			c-9.65,5.97-19.95,8.25-29.18,14.77c-2.41,0.09-8.45,1.66-11.75,3.33c-1.99,1.01-2.05,4.89,0.27,9.61
			c3.39,1.72,4.9-2.09,7.76-1.74c0.93,1.66,1.88,3.12,1.82,5.48c-4.65,4.06-11.39,3.43-14.58,8.74c-0.97-0.67-1.63,0.32-2.43,0.69
			c-0.22,1.07-0.12,2.55-0.24,3.76c0.4,0.86,0.89,1.11,1.22,2.42c5.02-1.74,10.89,4.49,15.72,1.09c1.26,1.69,2.49,3.34,3.68,4.95
			c1.54-1.02,4.11-1.57,5.92-3.53c0.43-0.44,0.59,0.79,0.89,1.13c1.04-0.61,2.04-1.23,3.04-1.83c0.01-0.02,0.02-0.03,0.02-0.05
			c0.16-3.58,1.15-6.14,2.26-6.74c1.23-0.65,1.65,1.47,3.17,1.96c1.85,0.57,6.25,0.92,8.82-0.76c0.18-0.13,0.33-0.29,0.52-0.39
			c0.92-0.93,1.99-3.43,2.84-3.82c1.27-0.57,2.4,0.77,3.63,1.51c0.2-0.23,0.43-0.43,0.62-0.68c0.16,0.48,0.19,0.8,0.15,1.02
			c0.44,0.13,0.9,0.15,1.39-0.1c1.47-0.75,2.88-3.91,3.53-4.05c1.9-0.41,3.67,3.48,3.92,5.65c0.69,0.27,0.79-0.88,1.49-0.61
			c1.68,4.38,7.8,4.66,11.87,3.96c0.61-0.1,1.62,0.16,2.09,0.29c5.21,1.59,8.38,8.46,11.6,13.95c-0.13,1.43,0.23,2.08,0.27,3.24
			c1.62,1.87,2.64,4.7,4.2,6.64c-0.08,2.92,1.34,3.38,0.89,6.91c0.54,3.36,1.44,5.85,2.16,9.14c0.63,2.88,1.79,5.64,2.17,8.67
			c0.6,4.89-0.56,11.13,0.34,16.27c-1.33,6.83-1.87,13.99-2.74,22.06c1.27-0.57,2.57-1.1,3.96-1.48c-1.35,0.89-2.71,1.73-4.09,2.53
			c-0.27,2.41-0.55,4.87-0.91,7.45c-0.02,0.97,0.35,1.31,0.03,2.8c-1.17,1.94-1.85,4.32-2.37,6.86c1.02-0.23,1.42-0.98,2.28-1.34
			c0.01,0.38,0.03,0.76,0.25,1.32c0.34-2.72,3.2,0.15,5.36-1.98c-1.27,2.86-5.86,3.73-8.43,4.81c-0.47,2.64-0.92,5.34-1.69,7.85
			c2.84,0.73,4.86,4.11,4.94,6.06c1.19,0.36,1.55-0.79,2.77-0.41c1.15,2.31,4.28,3.85,8.04,4.89c0.21-0.79,0.85-1.22,1.32-1.79
			c0.79,1.59-0.41,1.53-1.18,1.84c3.88,1.06,8.41,1.6,12.17,1.93c1.11,0.06,2.87,0.69,3.66,0.99c0.61,0.24,1.14,0.56,1.7,0.85
			c0.08-0.16,0.17-0.3,0.23-0.48l0.32,0.75c0.33,0.19,0.69,0.35,1.01,0.55c1.41-0.73,3.23-1.62,4.67-0.7
			c-0.64,0.96-2.24,1.12-3.68,1.45c5.67,4.25,8.11,11.26,10.13,17.34c-0.88,1.42-0.62,2.3-1.12,3.53c1.61,2.87,1.66,6.36,2.8,9.38
			c-1.74,2.97-0.05,4.33-2.77,7.66c-1.28,3.74-1.72,6.91-3.03,10.69c-1.13,3.3-1.75,6.8-3.58,10.09
			c-2.95,5.23-8.64,10.67-11.88,16.17c-8.46,7.86-16.43,17.01-26.92,27.36c-0.82,0.91-0.96,1.35-2.34,2.63
			c-4.95,3.46-10.99,10.37-16.41,15.49c-1.44,1.39-2.49,2.2-3.85,3.57c-3.09,3.1-6.4,6.8-8.67,9.35c-1.16,1.21-2.54,2.83-4.11,4.76
			c-0.3,0.39-0.61,0.79-0.93,1.2l-0.65,0.88c-0.49,0.65-0.93,1.28-1.35,1.92c-0.44,0.67-1.05,1.54-1.55,2.38
			c-0.09,0.16-0.2,0.34-0.44,0.75c-0.98,1.54-2.11,3.68-3.13,5.68c-0.53,1.13-1.72,3.52-2.91,6.53c-0.43,1.05-0.61,1.54-1.17,3.11
			c-0.83,2.18-1.37,4.08-2.02,6.18c-0.62,2.32-1.21,4.43-1.65,6.65c-0.22,0.95-0.41,1.93-0.55,2.82c-0.06,0.37-0.13,0.75-0.22,1.28
			C462.41,426.87,462.48,426.36,462.56,425.83z M516.84,223.74c-0.08,0.4-0.17,0.8-0.24,1.21c0.26-0.24,0.42-0.57,0.26-1.18
			C516.85,223.76,516.84,223.75,516.84,223.74z M67.2,285.81c0.2,0.04,0.36,0.28,0.45,0.8C69,286.24,67.14,283.59,67.2,285.81z
			 M62.26,293.3c0.44-0.76-0.91-2.96-0.54-3.08c1.77,1.07,3.86-1.81,5.69-2.63c-0.49-2.35-1.09-1.62-1.19-3.81
			c-1.96-0.66-1.86,1.71-4.33,1.29c-0.03,1.8-0.59,1.83-1.72,1.91c0.73,3.17-2.57,2.03-1.51,5.55
			C60.02,292.06,61.18,292.53,62.26,293.3z M71.84,320.74c-0.98-1.18-1.97-2.37-2.97-3.49c-0.62,0.38-1.39,0.73-2.2,1.08
			c0.67,1.93,1.28,3.54,2.72,4.5C70.44,323.1,71.2,322.1,71.84,320.74z M103.56,483.08c0.39-1.37,0.63-3.02,0.65-5.04
			c-0.09-0.11-0.2-0.14-0.3-0.23c-0.29,0.62-0.54,1.31-0.7,2.15C103.47,481.14,103.55,482.15,103.56,483.08z"/>
	</g>
	<path class="st1" d="M415.43,312.96c0.38,2.71,0.58,2.13,2.37,2.74c-1.73,0.81-2.35,5.23-4.21,3.36c0.27-2.31,2.27-4.45,0.61-7.04
		c1.52-1.97,1.96-2.9,3.77-2.38C417.95,311.75,416.96,311.42,415.43,312.96z M414.31,321.97c-0.26,1.28,1.13,2.9-0.38,3.92
		c2.94,2.25,0.6,3.96,0.72,6.22c0.36,1.92,1.42-0.65,1.79,1.27c-0.52-2.44,1.16-4.4,0.05-6.95c0.61-0.65,1.11-0.13,1.72-0.87
		c-1.03-0.17-1.47-2.01-1.33-3.1c0.49-0.97-0.83-0.35-0.35,0.33C415.7,323.35,415.05,322.24,414.31,321.97z M418.36,312.92
		c-0.58,1.68,0.09,3.54-0.76,5.18C418.51,318.11,420.14,314.66,418.36,312.92z M419.86,306.14c1.22-0.11,1.41-1.19,1.69-2.75
		c-0.63-0.76-1.32,0.98-1.94-0.12C419.01,304.18,420.46,305.24,419.86,306.14z M342.59,474.87c0.09,1.38,2.18,0.9,1.9-1.06
		C343.23,472.78,343.42,474.96,342.59,474.87z M415.93,288.7c0.43,0.1,0.86,0.21,1.3,0.77c1.45-1.79,0.15-3.51,0.26-5.25
		C414.49,285.09,419.21,286.53,415.93,288.7z M416.54,293.49l1.31-1.61l-1.28-1.59C415.78,291.37,415.77,292.43,416.54,293.49z
		 M384.83,424.52c0.97-1.14,1.23-3.02,2.67-3.69C386.54,419.91,384.09,423.63,384.83,424.52z M364.61,448.46
		c-0.26-1.25-0.91-2.02-1.32-3.1c-1.69,0.27-2.22,2.27-2.59,4.64C361.99,449.49,363.61,449.45,364.61,448.46z M363.23,443.05
		c0.28,1.23,0.94,2,1.34,3.08c0.83-0.27,1.11-1.39,1.22-2.7c-1.16-0.56-0.8,1.08-1.24,1.54
		C363.73,444.79,365.38,442.64,363.23,443.05z M419.12,335.32c-1.15-0.43-0.29-0.65-1.03-1.94c-0.9,0.46-0.84,1.17-1.27,1.75
		C417.62,335,418.2,336.2,419.12,335.32z M417,280.63c1.19-1.05-0.36-1.86,0.82-2.91c-0.9-0.72-1.82-1.44-2.59,0.26
		C416.5,278.79,416.18,279.75,417,280.63z M418.08,323.48c0.86,1.3,2.02-0.66,2.85,0.96c0.3-0.77,0.07-1.65-0.41-2.57
		c-1.19,1.53-0.42,1.67-1.29-0.23C418.56,322.22,418.83,322.95,418.08,323.48z M401.83,384.01c-2,1.02,0.14,4.81-2.21,5.58
		c0.33,0.7,1.2,0.08,1.86-0.05C400.32,386.81,403.06,386.71,401.83,384.01z M417.7,301.55c0.36-0.99-0.53-0.82-0.95-1.25
		c-0.36-0.81,0.77-1.58-0.6-2.42c-0.41,1.58-0.47,3.17-0.75,4.74C416.14,303.95,416.98,300.22,417.7,301.55z M399.93,186.38
		c1.37-0.01-0.21-1.69,0.68-2.94c-1.7-0.39-1.87,0.24-1.97-1.91C397.14,182.74,399.8,184.83,399.93,186.38z M412.03,236.17
		c0.78-1.84-2.38-2.98,0.13-2.6c0.51-1.33-1.26-1.08-1.57-1.09l-0.92,2.05C411.12,235.58,410.54,235.87,412.03,236.17z
		 M416.43,262.82c0.94,0.68,0.31-1.63,0.72-2.2l-2.22-2C414.7,260.76,417.29,260.22,416.43,262.82z M400.03,197.15
		c0.06,3.19,0.77,5.87,1.93,8.3C405.18,202.02,401.51,199.14,400.03,197.15z M388.11,164.54c0.45,1.63,1.03,3.13,1.62,4.61
		C390.83,168.11,389.07,165.34,388.11,164.54z M399.76,196.42c1.04-2.66-1.38-2.93,0.33-4.9c-2.17,1.21-0.83-3.26-2.84-3.61
		c0.23-1.98,2.41-0.44,1.54-2.59c-1.23,1.81-1.91,0.98-2.62-0.88C396.1,187.54,398.06,193.1,399.76,196.42z M396.64,182.14
		c-0.5-1.07-1.76-1.52-2.86-2.08C392.94,183.14,395.48,182.87,396.64,182.14z M407.64,221.32c-0.93,1.35-1.2-1.08-2.05-1.17
		c-0.27,1.88,0.96,2.71,2.47,2.7c-0.17-1.06,0.04-1.61,0.8-2.12c1.99,0.96,0.17,3.69,2.24,4.64c-0.17-0.94-0.75-1.7,0.24-3.17
		c-2.14-1.49-2.06-3.8-1.51-5.47c-1.12,0.55-1.74,2.86-3.45,1.29C405.7,220.24,408.34,218.7,407.64,221.32z M414.26,250.95
		c-0.9-0.96-1.69-1.16-2.27,0.2c0.16,0.5,0.32,1,0.85,1.41C413.36,252.38,413.84,251.82,414.26,250.95z M413.15,254.94
		c0.59,0.29,0.98-0.92,1.44-1.59l-1.12-0.95c-0.42,0.9-1.01,0.63-1.43,1.6C412.62,254.63,413.46,254,413.15,254.94z M415.57,258.47
		c0.43-1.46,1.29-3.05,0.76-4.32C415.65,254.1,414.07,257.69,415.57,258.47z M410.2,245.55c1.46,0.92,0.59,2.54,1.84,3.55
		c0.49-1.93-1.21-3.2,0.14-5.41C410.64,243.41,411.48,244.55,410.2,245.55z M408.99,239.37c-0.05,1.25,0.55,2.23,1.15,4.14
		l0.72-1.48C409.14,241.51,410.33,240,408.99,239.37z M410.24,238.93c0.82-0.34,1.93,0.71,2.97,1.48l0.7-1.51
		c-0.49-0.26-0.64-0.63-0.55-1.09c-1.19,0.4-0.74,0.7-1.8-0.62C411.19,238.12,410.59,237.91,410.24,238.93z M273.84,503.96
		c-0.03,1.38,2.38,2.2,3.15,0.15C275.89,503.22,274.9,504.32,273.84,503.96z M99.27,364.44c0.06,2.98,1.22,3.11,2.38,5.28
		C101.97,367.59,100.45,366.1,99.27,364.44z M98.38,351.38c-0.6-0.37-0.93,1.35-1.55,0.8c0.29,2.83,3.85,4.71,2.41,7.96
		C102.72,359.06,97.58,354.4,98.38,351.38z M94.66,353.12c-0.69,3.23,2.08,5.59,3.43,8.21C98.6,358.16,96.16,355.83,94.66,353.12z
		 M105.65,367.87c-1.1,1.15-1.92,1.09-2.83-0.72c-0.39,1.86,0.72,3.2,1.59,4.59C104.01,370.49,106.15,369.69,105.65,367.87z
		 M112.88,390.91c-1.29-0.12-0.58,2.32,0.66,2.29c0.24-1.16,0.68-1.65,1.39-1.2C116.02,388.93,112.69,393.51,112.88,390.91z
		 M99.24,398.99c-0.66-2.69-1.65-5.19-3.78-7.2C96.21,394.46,97.63,396.8,99.24,398.99z M107.33,379.19
		c-1.07,2.66-1.3-0.43-2.64,0.26c-0.79,1.37,2.33,1.04,1.54,2.4c0.5,0.45,1.78-2.75,1.63-0.29c0.31,0.31,0.46,0.03,0.61-0.28
		l0.44-1.05c-1.7-0.42-1.35-5.04-3.77-6.63c-0.2,0.65-0.49,0.86-0.85,0.77C105.51,375.92,105.8,377.83,107.33,379.19z
		 M101.07,402.82c-0.55,1.11-0.17,1.72-0.27,2.58c0.68,0.54,1.39-0.37,1.26,0.73C103.55,405.84,101.98,403.33,101.07,402.82z
		 M88.18,327.62c0.94,1.11,2.88-0.03,2.09,2.43c0.56,0.39,1.03-0.83,1.54-1.44c-0.33-1.1-1.63-2.16-1.47-3.32
		c-0.55-0.12-1.06,0.62-1.65-0.32C88.43,325.86,88.45,326.73,88.18,327.62z M89.82,319.73c-1.24-0.35-1.29,0.16-1.94-1.68
		c-0.98,1.48,0.69,2.89,0.69,4.32C90.14,323.08,88.61,320.42,89.82,319.73z M92.58,324.72c-0.23-1.27-1.23-4.19-2.37-2
		C91.04,324.3,91.78,323.76,92.58,324.72z M93.76,353.78c0.1-2.52,0.79-5.09-1.88-7.02C93.67,348.85,91.87,351.73,93.76,353.78z
		 M94.55,341.09c-1.31,2.78-2.97,0.04-2.4-1.76C93.32,337.98,93.89,340.07,94.55,341.09c1.45-1.37-0.86-2.14,0.41-3.46
		c-2.93-0.27-6.53-5.58-7.98-8.15c-2.29,0.39,2.2,5.75,3.59,5.74c-1.88,0.56-0.14,3.33-2.11,2.47c2.26,2.97,4.88,5.26,8.65,8.89
		C97.85,344.44,96.29,342.8,94.55,341.09z M90.87,351.8c-0.69,1.64,1.62,2.57,1.2,4.15C93.81,355.77,91.48,352.89,90.87,351.8z
		 M378.34,158.96c-0.71,0.15,0.27,1.09-0.57,1.15c4.51,0.89,4.69,6.45,7.93,8.8c-0.75-3.98-2.73-6.85-4.72-9.65
		c-0.53,0.04-0.49,1.04-0.64,1.73C379.76,160.22,378.63,160.05,378.34,158.96z M246.86,500.46c0.53,0.38,1.12,0.06,1.74-0.59
		c-0.47-0.81-0.12-1.48-0.64-2.29C247.8,498.57,247.04,499.46,246.86,500.46z M264.19,503.17c-0.29,0.28-0.16,0.57,0,0.87l0.56,0.88
		c0.76-1.27,1.52,0.18,2.28,0.06C267.18,502.63,264.96,504.34,264.19,503.17z M188.81,477.59c1.01,0.72,1.97-1.43,1.73-3.18
		C190.08,475.56,188.48,475.83,188.81,477.59z M119.38,398.62c-0.59-1.82-0.14-2.97,0.03-4.37c-1.56-0.26-1.86-0.98-3.19,0.97
		C118.33,394.32,117.78,397.89,119.38,398.62z M314.13,490.61c1.23,0.08,2.14-1.06,3.21-1.58
		C316.88,487.43,314.62,488.54,314.13,490.61z M300.35,498.44c1.32-0.38,3.66-1.78,3.58-4.4
		C302.87,495.7,300.47,496.62,300.35,498.44z M189.7,480.78c-0.98,0.26-1.57,0.8-1.98,1.49c0.29,1.12,1.84-0.69,1.91,0.97
		C190.17,482.81,189.76,481.66,189.7,480.78z M116.19,409.69c-0.04,0.49,0.29,0.74,0.13,1.32l0.86,0.36
		c-0.06-2.42,1.94,0.65,1.89-1.75C117.57,408.2,117.7,411.13,116.19,409.69z M131.69,426.98c0.14,0.85,0.72,1.29,1.51,1.54
		c0.11-0.55,0.61-0.33,0.97-0.4C134.04,426.44,132.58,427.03,131.69,426.98z M121.64,408.76c0.27-1.85-1.5-2.3-2.35-3.4
		C119.21,407.06,119.81,408.37,121.64,408.76z M118.76,403.9c-0.53-1.47-0.42-3.31-1.58-4.39
		C116.27,400.38,116.75,403.45,118.76,403.9z M119.79,408.66c1.85,4.26,4.52,5.97,7.23,9.93c-0.74-3.45-2.71-5.93-4.27-8.79
		C121.67,411.46,121.18,409.32,119.79,408.66z M125.61,425.44c0.66,1.53,1.63,1.59,2.62,0.7C128.3,424.81,126,425.08,125.61,425.44z
		 M196.16,485.63c-0.45,0.49-0.69,1.14-0.49,2.12c-1.71-1.24-2.06-1.72-4.34-2.24c1.29,2.21,3.01,3.48,5.07,3.75
		C195.78,487.65,196.41,486.97,196.16,485.63z M316.67,183.19c0.4-0.15,0.25,0.78,0.28,1.35c0.6-0.04,1.52-2.31,1.75-0.97
		c1.25-0.73-0.67-1.29,0.42-1.74c-0.63-0.32-2.86-0.46-2.82,2.08C316.59,183.83,316.64,183.51,316.67,183.19z M292.16,161.01
		c0.34,0.12,0.41,1.25,0.85,0.97c0.92-0.77,0.77-2.9,0.18-3.22C292.1,159.09,293.25,160.65,292.16,161.01z M308.03,175.7
		c0.57-0.3,0.83-1.51,1-0.72c0.29-0.1,0.31-0.43,0.32-0.76l-0.04-1.04c-0.04,0.7-2.01,2.14-1,0.72c-0.16-0.73-0.57,0.88-0.69-0.04
		C306.62,175.13,308.05,174.98,308.03,175.7z M287.13,170.17c0.64-1.11-0.3-2.71-0.91-1.36l0.36,2
		C286.77,170.22,286.97,169.63,287.13,170.17z M221.81,124.27c1.28,0.17,2.76-1.52,1.31-3.4
		C222.35,122.44,221.89,122.16,221.81,124.27z M270.15,148.39c-0.96,0.63-2.54-1.41-2.92,0.78
		C268.14,149.71,269.03,150.14,270.15,148.39z M320.06,183.84c-0.02,0.73-0.05,1.47-0.46,1.75c0.05,0.67,0.82,0.02,1.34-0.14
		l0.2-2.65c-1,0.89-0.87-0.27-1.73,0.39C319.23,184.13,319.63,184,320.06,183.84z M336.34,218.27c-0.47-0.26-0.09-1.41-1.04-1.16
		l-0.57,1.88C335.37,218.93,335.67,218.28,336.34,218.27z M335.9,219.67c1.18-0.25-0.67,2.55,1.24,1.57
		c0.95-1.99-0.41-1.69-0.58-2.57c-0.44,0.18-0.54,0.97-1.03,1.06C335.43,220.25,335.82,219.93,335.9,219.67z M209.23,122.46
		c-1.19-0.2-2.46-0.61-2.9,2.13c1.22,0.43,1.28-0.81,2.31,1.25c0.14-0.5-0.32-0.77-0.57-1.13
		C208.31,123.35,209.07,124.16,209.23,122.46z M325.21,200.09c-0.24-0.91-0.15-2.36-1.37-1.8
		C323.68,199.83,324.15,200.37,325.21,200.09z M320.7,194.48c0.34-1.67-0.56-1.29-1.55-0.71
		C319.28,194.67,319.91,194.69,320.7,194.48z M195.91,136.9c-0.53-0.12-0.77,0.58-1.33,0.36c0.06,1.25,0.75,2.1,1.58,2.84
		C196.46,138.8,195.88,138.05,195.91,136.9z M192.97,141.69c1.11,0.35,2.53,1.67,2.62-0.74
		C194.67,141.03,193.42,140.26,192.97,141.69z M193.53,138.43c-1.34-1.78-1.04,0.92-1.81,0.69
		C191.88,140.72,193.48,139.72,193.53,138.43z M129.89,173.01c3.69,2.59,5.83-2.03,8.58-3.37c0.92,1.97,2.93,0.82,4.36,0.6
		c3.1,4.27,2.85,11.75,1.97,18.13c-1.3-1-0.33-1.86-1.23-2.76c-1.8,0.92,0.02,4.06-1.82,5.55c4.05,5.02-2.23,11.6-1.17,16.06
		c-1.8,1.05-2.79,3.31-3.28,5.64c-0.41,2.39-0.29,4.87-0.14,6.34c0.56-0.66,0.02-4.26,1.85-2.58c-0.16,3.13-1.81,4.69-0.69,7.76
		c-1.33,1.85-2.87,6.14-0.99,7.72c-0.64,1.55-0.6-0.7-1.83-0.04c-0.17,1.93,1.91,5.14,0.1,6.02c-0.74-1.09,1.24-2.41-0.16-2.69
		c-0.69,1.45-2.35,3.95,0.35,4.27c-2.12,3.31-2.5,7.67-2.7,11.92c2.38,1.88,3.98,6.62,3.84,9.22c1.31,0.19,2.62,0.43,4.02,0.29
		c0.04-0.63-0.13-1.35-0.8-2.29c-1,0.37-1.83,0.04-2.47-1.04c0.77-1.92,1.49-3.82,0.96-6.34c0.71-0.38,1.12,0.17,1.81-0.15
		c-1.53-1.32-0.03-1.39-0.45-2.95c-0.36,0.01-0.8,0.27-1-0.16c0.71-0.22,1.19-0.54,1.39-1.01c0.57,1.51,0.97,5.15,2.88,5.17
		c0.24-2.87-1.7-5.29-0.12-7.11c0.98-0.45,1.1,1.66,2.19,0.88c0.82-1.32-0.15-3.69,1.52-4.5c0.44,1.15,0.9,2.22,1.79,2.06
		c1.25-0.67-0.27-3.05,2.12-3c-0.26-0.57-0.77-0.52-0.95-1.27c0.45-0.12,0.81-0.3,1.14-0.5c0.26-0.86,0.54-1.72,0.85-2.55
		c0.35,0.33,0.45,0.64,0.45,0.94c0.2-0.54,0.32-1.12,0.33-1.79c2.6,0.01,2.13-2.1,4.05-2.48c0.39,4.23-0.26,7.58-0.78,10.99
		c-0.33,3.5-0.54,7.07,0.61,11.17c-1.7,1.41-0.95,4.1,0.32,6.84c-2.03,1.02-1.8,4.63,1.02,6.6c-0.51-1.83-2.61-4.42-1.29-5.58
		c0.55,1.83,1.47,3.72,1.88,5.4c0.05-0.18,0.1-0.37,0.07-0.52l1.33,0.46c0.24,1.22-0.88,0.66-1.22,1.13
		c0.07,0.83-0.05,1.59-0.53,2.22c1.59-0.02,1.86,2.09,1.61,2.97c-0.99-0.95-1.66-3.22-2.87-3.4c0.18,2.26,3.33,3.66,4.03,6.13
		c-0.62,0.37-1.1-0.04-1.72,0.29c0.2,1.06,1.41,3.57-0.46,2.52c0.27,0.34,0.02,0.53,0.18,0.84c1.07,0.23,1.94,1.55,3,1.79
		c0.35-0.26,0.26-0.62,0.18-0.98c-0.51-0.85-1.26-0.4-1.73-1.48c1.18-0.06,0.44-0.65,0.01-1.15c-0.12-0.04-0.2-0.09-0.34-0.12
		c0.05-0.13,0.1-0.1,0.15-0.17c-0.08-0.16-0.06-0.3,0.19-0.38c0.19,0.14,0.33,0.25,0.46,0.36c0.41,0.29,0.99,0.73,1.96,0.51
		l-0.13,0.99c-0.56-0.09-0.87-0.3-1.14-0.53c0.07,0.34,0.07,0.71,0.67,1.48c0.14,0.04,0.28,0.02,0.42,0.02
		c0.16-1.31,0.35-2.61,0.54-3.91c-0.38-0.73-0.37-1.29,0.21-1.55c0.07-0.47,0.16-0.93,0.24-1.39c-0.03-0.13,0-0.25-0.02-0.38
		c-0.22-0.3-0.39-0.62-0.49-0.92c-0.4-0.04-0.81-0.06-1.18-0.22c0.79-0.42,1.36-0.91,1.12-1.69c-0.78-2.36-1.28-4.82-1.52-7.24
		c-0.5,0.38-1.04,0.74-0.61,1.73c-1.86-1.47-0.21-2.39-0.96-4.44c0.6,0.18,1.03,0.41,1.4,0.66c-0.02-0.75,0.02-1.47,0.06-2.19
		c-0.17-0.12-0.33-0.24-0.57-0.33c1.36-1.32-0.34-1.77,0.89-3.35c0.02,0.02,0.01,0.03,0.03,0.05c0.15-1.29,0.28-2.55,0.46-3.75
		c-0.35-0.48-0.89-0.77-1.77-0.4c0.22-0.81,1.02-0.62,1.02-1.81c0.25,0.2,0.6,0.45,0.98,0.7c0.06-0.39,0.12-0.78,0.18-1.16
		c-0.27-0.18-0.5-0.35-0.85-0.56c0.21-0.87,0.56-0.49,0.95-0.1c0.04-0.24,0.08-0.52,0.11-0.76c0.23,0.41,0.43,0.78,0.6,1.11
		c0.07,0,0.15,0.06,0.22,0.01c0.15-0.76-0.85-1.31-1.91-1.86c0.08-1.78,1.77-0.62,2.71-0.79c1.05,0.97-1.31-0.04-0.92,1.41
		c2.78,1.81,0.72-2.22,3.12-0.49c-1.46-1.04-0.86-2.35-0.25-3.63c-2.7-1.95-3.08,0.01-3.36-3.35c-0.82-0.52-0.86,0.57-1.9-0.39
		c1.36-0.24,2.25-0.43,1.41-2.4c0.91,1.03,1.3-1,2.35-2.13c1.3,1.07-0.08,2.32-0.3,3.5c-0.16,0.64,1.31,1.13,1.4,1.74
		c0.85-0.27,1.87-0.49,2.17,1.05c1.39,0.45-0.04-1.37,0.71-1.87c-0.49-0.08-0.69,0.43-1.46-0.21c0.4-1.76,0.67-0.62,1.7-0.41
		c0.15-1.63-1.6-3.21-1.19-4.9c-2.54-1.58-1.06,2.11-3.7,0.21c0.86-1.18,0.17-1.72,1.42-3.61c0.77,0.72,0.43,1.47,1.21,2.18
		c1.48,0.51,0.97-3.11-0.54-2.52c0.73-1.98,0.77-3.41,0.1-6.01c1.56,0.93,1.35,1.43,2.29-0.26c-1.66-0.01-0.91-2.98,0.6-3.49
		c-1.71-0.89-2.44-0.34-3.57-2.77c0.17-0.83,0.68-0.62,1.01-0.95c-1.01-0.98-1.03-0.16-1.51-1.4c0.27-0.27,0.86,0.48,1.08,0.05
		c-0.81-1.69-1.7-2.43-1.05-3.39c-0.89-0.92-1.76-1.77-2.42-1.82c-0.06,0.34,0.21,0.7,0.04,1.03c-0.34,0.95,0.87,0.14,1.5,1.41
		c-0.91,0.41-1.33,0.24-1.37,1.65c1.49,0.15,1.53,2.29,0.05,1.01c-0.08,1.27,1.25,0.43,1.36,1.7c-0.28,2.12-2.06-0.27-3.1-0.36
		c-0.51,2.27-2.13,1.31-3.66,3.14c-1.3-1.39,0.21-2.09,0.97-2.07c-0.37-1.12-1.56-2.22-1.66-3.37c-0.48-0.05-0.89,0.14-1.28,0.4
		c-0.43-0.78-0.4-1.6,0.08-2.44c1.03,0.94,1.05,0.09,1.53,1.33c0.21-0.69-0.27-1.38-1.19-2.05c0.97-0.32,1.4,0.28,1.53,1.34
		c0.8,0.79,0.78-1.09,1.24-1.4c-0.92,0.02-2.37-1.73-3.59-2.73c0.81-0.42,1.98,0.39,2.77-0.06c-0.76-2.06,1.77-3.99,1.85-6.57
		c0.95-0.22,0.65,1.32,1.29,0.77c0.18-1.31-1.25-0.5-1.27-1.82c0.4-1.39,1.39-0.34,2.06-0.56c0.13-0.57-0.33-1.2-0.13-1.76
		c-1.63-1.29-0.63,1.58-1.9,1.26c-1.24-1.49,1.2-2.74,0.15-4.24c0.74-0.41,1.89,1.14,2.74,1.3c-1.38-1.27-1.95-3.45-0.3-5.38
		c0.41,0.64-0.22,1.17-0.47,1.74c1.68,0.27,1.04-2.73,0.05-3.96c1.42-2.81,2.44-2.21,3.22-5.59c-0.94-1.48-1.46,0.04-2.46-1.87
		c1.75-1.76-0.75-3.68-0.3-6.7c0.96-1.04,1.48,0.37,1.77-1.56c-0.83-1.71-1.24,0.47-1.94,0.02c-1.26-1.09-0.04-1.77-0.56-2.74
		c0.91,0.71,1.68,0.06,2.67,1.62c0.59,0.36,0.49-1.1,1.54-1.2c-0.94-1.2-1.56,1.01-2.58-0.89c0.79-1.48,1.69-1.88,2.69-0.95
		c0.63,0.65,0.39,1.08,0.13,1.52c0.72,0.93,1.21-1.12,1.83-1.41c3.48,5.01,2.22-8.9,6.89-3.97c1.26-2.19,2.64-1.48,3.98-1.24
		c0.16-0.31-0.02-0.75,0.25-1.02c-0.58-1.52-1.04,1.63-1.62,0.14c-1.07-2.08,0.69-0.73,0.77-2.35c1.96,3.09,3.83,3.1,5.69,1.28
		c-0.98-2.17-1.97-0.95-2.97-2.44c1.09-1.49,2.17-0.75,3.27-2.37c1.49,2.35,3.01,1.21,4.5,1.8c0.33,1.31,1.23,3.21,0.98,5.06
		c2.64-0.21,5.21-0.94,7.3-2.58c-0.28,2.47,0.89,1.33,1.93,2.76c0.34-0.66,0.97-1.12,0.86-2.08c-1.88,0.08-5.4-4.84-5.92-0.33
		c-1.02-3.28-1.04,1.42-2.3-1.71c0.46-0.7,0.89-0.24,1.33-0.37c-1.73-0.86-3.43-2.43-5.1-5.85c1.01-0.99,2.02-0.52,2.95,0.42
		c0.43-0.66-0.18-1.91,0.94-2.19c-0.66,3.32,2.52,0.7,3.48,4.38c1.62-1.22,3.12-0.45,4.12-2.44c0.51,1.38,0.16,2.08,1.15,1.95
		c0.04-2.68-2.06-1.43-2.25-4.65c1.66,0.18,3.56-2.15,4.96,0.62c2.26-4.87,6.15-7.08,9.25-0.26c1.74-0.13,0.31-3.05,1.14-4.01
		c-1.12-1.38-1.91-1.3-2.73-1.09c0.15-2.35,3.05-1.43,4.16-2.23c-0.19-0.35-0.28-0.62-0.43-0.93c-0.26-0.02-0.51-0.11-0.73-0.36
		c0.1-0.24,0.22-0.36,0.35-0.48c-0.51-1.26-0.77-2.3-1.03-3.4c-0.7,0-1.31,0.36-1.67,1.73c-0.92-1.51-1.14-1.4-0.91,0.44
		c-1.09-1.44-1.59-0.68-2.3-0.74c0.62-1.57,1.76-1.27,2.35-2.98c-2.04-2.03-2.92,0.33-4.19,1.18c0.37,0.45,0.77,0.75,1.32,0.19
		c0.28,3.28,1.54,3.17,2.56,5.87c-2.9,0.71-3.61-4.67-5.77-6.65c0.13-0.16,0.25-0.23,0.36-0.3c-0.6-0.04-1.36,0.72-1.94,0.24
		c-0.29-1.56,0.93-3.86-0.14-5.03c-0.43,2.62-1.91,1.73-2.79,2.82c-0.31,2.2-0.04,1.46,0.08,3.67c-1.42-1.54-1.27-1.06-2.98-2.14
		c0.35-1.7-0.12-1.89-0.48-3.97c0.73-0.73,2.04,0.35,2.22-2.09c3.07,1.66,4.56-1.13,7.64-1.05c0.5-4.38,3-1.3,4.26-2.8
		c-0.41-0.44-0.79-0.9-0.4-1.65c1.04,1.24,1.29-0.84,2.43,0.9c0.17,1.13-0.39,2.54,0.77,3.32c0.15-0.51,0.46-0.34,0.65-0.69
		c1.08-2.04-0.87-2.98,0.24-5.03c1.3,1.22,1.48,1,2.21-1.24c0.48,0.43,0.67,0.96,0.85,1.51c0.6-0.59,0.97-2.43,1.71-2.4
		c0.88,3.32-1.79,2.11-2.88,3.26c0.59,0.84-0.36,2.23,0.86,2.84c0.87-1.85,2.25-1.19,3.16-2.9c1.21,0.13,1.11,2.29,1.83-0.17
		c0.86,0.65,0.38,1.66,1.45,2.28c0.31-1.73,0.99-1.38,1.41-2.53c0.62,0.51,1.08,3.18,1.91,2.2c-0.66-1.46-1.5-2.88-0.46-4.73
		c1.12,3.71,1.49,0.24,2.65,3.81c0.49-2.53,0.63-1.59,1.68-3c-0.83-0.85-2.58,1.31-2.78-1.15c1.46-0.91,3.2,0.24,4.71-0.13
		c-0.54-3.27,3.54-1.4,4.96-2.51c-1.54-1.64-5.71-1.9-5.11-5.83c-0.56-0.18-1.05,0.34-1.5,1.2c0.56,0.62,0.64,1.33,0.52,2.09
		c-2.32-1.13-0.77,3.59-2.8,3.25c0.55-1.15,1.05-2.29,0.38-3.17c-0.47-0.2-0.94-0.32-1.37-0.14l-0.81,1.94
		c-0.95-0.96-1.72-0.64-2.68-1.59c0.45-2.44,1.47-1.13,2.07-2.68c-0.64-0.61-1.24-0.89-1.73-0.48l-1.2,2.93
		c0.7-0.03,1.02,0.36,0.8,1.57c-1.9-1.08-3.49-0.11-5.19,0.1c-0.87,8.41-7.86,0.27-9.49,5.21c0.8-1.66,0.61-2.93,0.41-4.21
		c2.13,1.29,5.16,3.24,5.27-0.56c1.39,1.77,2.22,0.89,3.11,0.25c-0.56-1.84-1.62,0.23-1.88-2.48c-0.44,4.12-3.27-1.78-2.81,2.79
		c-2.06-2.53-3.02,0.01-4.78-0.94c0.46-1.25,1.22-1,0.31-2.37c-0.48,1.23-1.29-0.9-1.47-1.25c0.53,2.05-1.14,0.45-1.37,2.78
		c0.72-0.13,1.08,0.21,0.95,1.45c-1.42-0.61-2.1,1.6-3.93-0.47c0.16-0.85,0.7-1.88,0.24-2.43c-1.48,0.67-0.83,2.34-1.96,3.74
		c-1.72-2.88-2.68,0.23-4.72-2.71c-0.83,1.39-2.81,0.32-3.83,0.27c0.34-0.44,0-2.04-0.25-2.34c-0.93,0.57-3.64-1.26-2.17,1.15
		c-1.79,0.12-0.75-1.06-1.74-2.33c-0.2,1.64-1.62-0.31-2,0.8c0.45,2.32,0.82,0.8,2,1.11c0.5,1.5-0.47,0.89-0.64,2.83
		c-0.96-0.93-1.5-0.58-1.57,1.01c-0.61-1.73-2.53,0.16-2.18-2.43c0.48-0.07,1.96,2.48,2.53-1.17c-2.34,0.06-1.5-1.45-2.99-2.89
		c-0.34,3.07-2.97-0.14-3.67,1.95c0.08-1.89,1.08-1.32,1.18-3.22c1.72,1.31,2.52,0.14,3.43-0.79c-0.41-0.37-0.76-1.46-0.13-1.36
		c1.07,1.43,3.35-1.85,4.37-3.95c1.05,0.37,0.6,1.53,1.88,1.8c0.79-1.84,2.97-3.25,3.78-1.5c0,2.58-1.78-0.93-2.09,0.62
		c0.57,1.26-1.23,3.75,0.1,4.6c1.04-0.56,0.04-1.14,0.78-2.74c1.26,0.99,1.65-0.95,2.64-0.88c1.47,0.18-0.22,1.97,1.24,2.15
		c-0.51-2.11,1.06-3.78,2.11-3.84c-0.41-2.04-0.4-2.53-0.12-4.11c1.92,0.45,3.13-1.97,5.19-0.84c0.01,1.27-1.8,0.86-0.76,2.1
		c1.42-1.73,2.02,0.88,3.44-1.31c0.53,1.32,3.47,1.91,4.36,0.2c1.44,0.99,0.16,2.94,1.96,3.79c-0.33-2.45,1.79-1.65,1.62-4.16
		c0.83,1.27,1.13-0.38,1.84,0.26c-0.29,0.84-0.76,1.76,0.09,2.21c0.31-1.07,0.86-0.76,1.2-1.67c1.22,0.87,0.36,2.25,1.14,3.24
		c0.64-3.21,2.14-1.26,3.12-2.53c-1.2-0.86-2.33-1.12-3.46-1.36c1.78-1.97,4.29,0.97,6.07-1.01c-2.52-0.54-5.33-2.5-7.65-1.24
		c0.54,0.59,1.27,1.16,0.64,2.04c-1.32-1.34-0.79-1.59-2.16-2.03c-0.09-1.01,0.43-2.26,0.35-3.24c3.11,2.35,6.25,3.22,7.54-0.52
		c-0.43,1.37,1.41,2.02,1.52,0.09c1.35,0.86-0.3,2.42,0.44,3.42c0.66-1.04,1.58,0.03,2.3-0.51c-0.52-0.78-2.58-0.38-1.47-2.32
		c0.41-1.61,1.44,2.07,1.85,0.48c0.38-2.55,0.16-2.12,1.71-3.45c-1.3-0.76-0.68-1.91-0.61-2.95c1.35,1.72,1.41-1.78,1.89-2.52
		c1.22,1.3-0.77,3,0.4,4.31c1.18-1.37,2.52-1.11,3.84-0.89c-0.71,1.12-1.46,0.7-0.72,2.26c1.25-0.18,0.81,1.36,1.96,2.4
		c-0.15-2.53,1.7-0.54,2.7,1.03c1.16-1.46,2.06-2,1.82-4.1c1.57,1.31,1.48,2.78,1.37,4.24c1.01-2.52,3.25-0.15,3.37-2.89
		c0.6,0.39,1.23,2.75,1.79,1.74c0-4.81-5.15-2-5.47-5.79c1.51,0.45,3.02,1.37,4.51,1.88c-0.93-4.13,1.17-5.85,1.03-9.54
		c1.56,2.74,4.62-0.25,7.71-0.28c-1.33,1.09-1.43,2.04-3.1,3.39c2.73,2.8,5.31,4.59,8.08,2.47c2.36,4.61,5.2,0.42,7.41,5.39
		c0.7-1.4,1.17,0.17,1.82-0.59l1.26,2.4c1.71-0.93,3.38,0.01,4.86,1.33c1.48,1.39,2.79,3.04,3.95,3.28
		c-0.2-0.65-0.69-1.38-0.33-1.87c0.57,0.12,1.95-1.58,1.7,0.48c-0.53-1.19-0.85,1.13-0.25,1.71c0.78-0.39,3.95,2.4,4.71,2.5
		c-0.77,0.7-2.33,0.2-2.11,1.37c1.02,1.38,2.25,1.49,3.34,2.36c0.75-1.56,0.47-3.43,1.47-4.9c-0.41,3.58-0.42,8.47,3.03,7.01
		c-0.53-1.42,0.22-1.58-0.73-2.12c2.57-2.04,3.59,0.87,6.48,0.01c0.5,3.63,4.11,0.95,5.06,5.92c1.11-1.18,1.29,1.07,2.53-0.52
		c-0.11-0.69-0.49-1.52-0.07-1.92c0.76,3.5,3.83,0.32,5.37,3.54c-1.67,1.76-3.24-2.02-3.97,0.08c1.45,2.18,7.38,4.18,5,6.22
		c1.74,0.83,4.98,0.18,6.71,3.38c0.6,2.56-0.14,3.58,1.13,4.3c-0.39,2.05-1.7,1.1-2.12,2.39c0.18,0.58,0.55,0.63,0.93,0.69
		c0.9-0.48,0.98-1.59,2.22-1.82c0.58,1.92-1.51,1.86-1.6,3.28c0.57,2.44,2.27-2.3,2.93,0.22c-0.86,0.34-1.17,1.11-0.94,2.28
		c1.52,0.27,1.13-0.71,2.26-1.78c-0.25,2.04,1.33-0.23,1.07,1.81c-0.36,1.63-1.3-0.39-1.49,1.35c0.11,2.32,2.5-0.63,3.67-0.66
		c-0.93-0.38-1.72-3.19-0.08-4.08c1.63,1.82,2.73,4.67,5.06,4.93c0.05-0.47-0.08-1.13,0.3-1.3c0.62,2.68-2,2.35-1.67,4.79
		c1.84-1.39,0.78,3.15,2.21,2.6c0.33-1.51-1.18-2.8,0.93-4.43c0.37,1.75-0.09,2.75-0.14,4.12l2.82-1.05
		c0.63,2.54,2.62,2.53,3.12,5.21c-1.74,0.95,0.3-1.23-0.84-0.87c-0.57,0.34-0.42,1.39-0.75,1.96c1.61-0.48,4.15,0.28,5.23,2.49
		c0.29,1.67-1.11,1.39-0.83,3.05c0.78,1.41,0.58,2.27,2.4,1.07c0.39,1.99-0.89,2.03-1.27,3.11c0.69,0.69,1.54,1.13,2.36,1.63
		c-1.77,0.53-0.77,1.15-0.92,2.96c-1.84-2.35-3.24-5.42-4.95-8.1c-0.17,1.34-1.59,1.22-1.99,2.28c2.68,2.6,4.5,10.83,8.86,7.53
		c0.87,1.15-0.67,1.16-0.61,2.89c1.34,0.04,1.68,1.54,2.53,2.3c1.11-1.12,1.34,0.41,2.05-0.87c-0.4-1.07-0.39-2.75-1.76-2.49
		c-0.11,0.67-0.07,1.58-0.54,1.75c0.13-1.5-1.15-1-0.96-2.59c1.42-0.53,1.61-2.75,3.01-3.31c0.89,1.18-0.67,1.15-0.61,2.89
		c2.71-1.12,0.91,5.98,3.81,2.23c0.1,0.69,0.42,1.08,1.12,0.97c0.4,1.33-1.44,2.46-0.28,2.78c0.54-0.07,0.47-1.01,0.94-1.2
		c0.57,1.5,1.63,2.41,1.98,4.16c0.28-1.94,1.24,1.04,1.32-0.65c-1.28-0.49-1.2-2.63-1.6-4.23c0.9,2.32,2.07,1.74,3.4,3.01
		c-0.46,0.61-1.56,0.28-1.45,1.73c0.53-0.01,0.46,0.7,1.14,0.52c0.52-0.97,1.51-1.15,1.94-2.28c-1.36-0.47-1.12-2.82-3.01-2.61
		c-0.12-1.67,0.63-2.07,0.75-3.38c-2.23-1.48-4.61,0.4-4.62-4.04c0.59-1.47,1.62,1.19,1.75-1.32c-1.72,0.71-1.92,0.47-2.82-0.82
		c0.42-1.45,2.42,1.33,2.56-1.43c-1.52,0.76-1.79-0.87-3.75,1.02c-0.19-3.47,2.07,0.1,2.23-3.14c-2.15,0.63-2.03-1.94-2.91,0.96
		c0.42-3.35-0.62-4.43-1.97-2.45c-0.03-0.68-0.09-1.31-0.81-0.95c-0.07-1.12,1.91-2.68,0.48-3.49c-0.87,0.52-1.36,1.48-2.11,2.15
		c-0.64-0.69-2.7-1.99-1.61-3.61c0.09,1.57,1.3,1.32,1.63,2.47c-0.43-3.86-4.15-4.11-1.68-8.23c-1.78,0.24-1.52-3.05-3.36-2.67
		c0.76,0.92,0.23,4.03,2.13,2.97l0.03,2.31c-0.55,0.14-1.1,0.28-1.63,0.41c-0.03-1.78-1.03-3.19-1.77-5.33
		c0.59-0.87,1.84-1.05,1.56-2.79c-2.36,0.66-3.2-3.2-3.7-4.07c-1.23,1.57-2.64-0.11-3.21,2.28c-0.13-0.41-0.39-0.54-0.86-0.28
		c0.98-2.21-0.25-3.33,1.29-4.61c-0.99-0.86-2.29,0.97-2.75,2.2c-0.59-2.39-5.06-2.82-2.13-4.58c-0.23-1.03-2.41-1.36-1.23-3.11
		c0.71,0.12,0.84,1.54,1.84,1.05c0.23-3.18-1.68-1.67-2.17-3.31l0.83-0.36c0.03-0.48,0.25-0.81,0.75-0.93
		c0.19,0.83,0.16,2.13,0.73,2.11c0.46-0.28,1.17-0.34,1.16-1.05c-1.04-1.42-2.37-3.75-4.13-1.28c-1.36-2.24-2.98-3.98-5.12-4.35
		c-0.05,1.62-0.56,2.89-1.51,3.84c1.07-4.01-0.86-0.16-1.8-2.81c0.95-2.06,2.93-0.26,2.99-2.75c-2.03-1.48-3.44-4.85-6.48-3.51
		c-0.81-4.11-4.95-4.42-5.71-8.08c0.62-0.65,1.24,0.2,1.19-0.73c-1.12-1.49,1.33-3.26-0.52-3.61c-0.69,0.87-0.44,2.27-0.97,3.22
		c-2.12,1-3.31-1.11-5.03-1.39c0.43,1.48,1.16,3.14,0.19,3.86c-1.04-0.36-1.73-2.04-2.91-1.89c0.94-0.5-0.07-1.87,0.64-2.47
		c0.53,1.97,1.29,2.99,2.33,2.99c-1.03-1.87-1.54-0.99-0.43-3.04c-1.75-0.87-3.25-2.85-5.06-3.63c1.34-0.84,1.32-3.49,0.03-4.09
		c1.24-1.57,1.19,2.18,2.33,1.01c-0.01-2.3-1.38-4.49-3.88-2.59c0.34,2.3,0.62,2.01-0.38,3.03c1.21,1.72,1.67-1.75,2.69,0.71
		c-0.91,0.68-1.47-0.09-2.5,1.2c-2.54-1.91-5.85-5.85-8.27-3.79c-0.93-1.32,0.01-2.09-0.93-3.41c-0.38,0.34-0.63-0.02-0.97,0.16
		c-0.91,0.13-0.57,2.65-1.48,1.34c-0.72-2.61-5.75-5.57-7.36-2.55c-1.42-1.27,1.07-1.49,0.35-2.56c-0.58,0.42-0.92-0.91-1.35-1.69
		c-0.95,1.67-1.51,0.44-2.08-0.99c-0.44,0.51-0.17,1.14-0.81,1.61c-0.66-1.51-1.59-0.63-2.26-2.15c0.62-0.62,0.7-1.34,0.53-2.1
		c-0.66,0.32-1.28,0.25-1.94,0.55c0.42,1,0.98,0.64,1.42,1.55c-1.3,0.3-2.32,0.03-2.9,0.84c1.16-2.67-2.29-0.85-2.18-3.83
		c-3.33,0.9-6.45-0.4-9.62-3.31c-1.26,1.84-0.85,0.79-1.57-0.49c-2.12,0.99-5.63,1.12-6.69-1.47c-1.49,2.71-4.7-1.25-5.2-2.63
		c0.3,0.29,2.06-0.12,1.29-0.87c-0.88-0.63-1.75-0.68-2.61,0.04c0.37,0.55,0.7,1.1,0.04,1.74c-1.42-0.75-2.79,0.42-4.18,0.81
		c3.35-3.17,3.25-6.56,5.74-3.89c1.73-1.63,3.49-0.44,5.25-1.71c1.2,1.17,0.55,2.65,1.95,2.64c-0.31,1.21-2.06,0.12-1.31,1.71
		c3.04-0.13,6.84,0.24,8.2-2.8c1.27,1.36-0.46,2.58,0.8,3.95c1.73-2.92,4.1,0.65,5.13,0.64c-0.85-0.21-1.75,0.43-2.66,1.39
		c-0.86-2.24-3.52-2.17-3.52,0.11c1.82,1.82,3.81,0.49,5.6,2.35l1.03-1.17c-0.17-1.63-1.97-0.79-1.15-1.91
		c0.57,1.1,1.37-1.16,2.04-1.46c2.2,3.7,3.19-2.18,5.57-0.47c-0.54,1.57-2.38,0.78-1.81,1.91c1.92,0.28,3.76,1.22,5.73,0.95
		c1.06,1.07,0.18,1.76,0.95,2.84c1.05-0.7,2.25-1.1,3.09-1.4c0.32,1.7-2.05,2.7-2.17,4.29c0.57,1.33,1.43,0.46,2.09,1
		c-0.17-2.34,1.84-1.21,2.33-0.69c-0.07-2.46,1.52-1.03,1.63-2.21c-0.13-0.33-0.24-0.66,0.13-0.85c1.31,1.55-1.02,2.08,0.09,3.58
		c1.72,1.65,3.7-3.18,4.74-1.29c-0.94,0.61-1.38,1.37-1.06,2.36c2.1,2.77,4.57-2.01,5.32-2.35c-0.73,0.77-0.18,2.04-0.28,3.06
		c-0.95,0.82-3.29,0.51-3.29,2.05c2.75,2.54,3.32-1.27,6.09-1.37c0.49,0.96,0.03,1.53,0.45,2.45l2.35-1.75
		c-0.36-1.01-2.72-0.34-1.84-2.13c1.19,0.67,2.19,2.07,3.65,1.51c-3.3-2.48-6.78-4.53-10.32-6.18c3.71-2.29,8.51,6.84,10.48,2.61
		c1.2-0.8,2,0.19,2.87,0.76c-0.45,0.42-1.2,0.71-1.02,1.39c1.89,1.03,3.38,3.55,5.22,4.58c-0.45,0.4-1.19,0.69-1.03,1.37
		c1.2-0.75,1.49,1.87,2.76,0.92c-0.52-0.96-1.32-0.93-1.73-2.29c2.51-0.8,3.28,0.3,5.73-2.07c1.11,2.43,1.29-0.91,3.32,2.82
		c2.75-1.95,6.18,3.38,8.78,5.29c-0.48,0.31-1.23,0.45-1.14,1.16c0.36-0.02,0.62,0.27,0.7,0.99c0.46-1.93,2.23-2.43,2.84,0.05
		c0.17,0.78-0.63,0.87-0.59,1.55c1.18-0.45,0.64-1.35,1.73-0.73c0.38,1.1-0.32,1.41-0.48,2.12c0.85-0.21,0.81-1.06,1.6-1.3
		c1.98,1.08,3.71,5.55,5.59,4.16c0.83,1.96-1.87,1.23-1.3,3c4.72-1.99,6.25,2.71,6.99,6.38c-0.11-0.62-0.62-0.31-0.35,0.73
		c-1.18-1.14-3.99-0.1-4.14,2.54c1.43,0.32,1.67-1.15,2.72,0.37c0.26-1.16,0.52-2.33,1.92-2.45c0.37,1.91-1.51,1.77-1.35,3.51
		c0.66,1.09,0.07,2.28,1.65,2.57c3.92-2.76,6.86,2.29,10.19,2.88c-1.09,0.1-2.11,0.29-2.09,1.63c1.43,1.35,1.33,2.67,3.12,0.64
		c0.28,3.89,1.72-1.43,2.3,1.44c-1.51,0.01-1.82,1.35-2.54,2.25c0.12,0.65,0.53,0.85,0.92,1.05c0.5-0.76,0.71-1.85,2.14-1.56
		c-0.8,2.56,1.02,2.53,1.83,0.94c1.44,3.57,3.8,5.74,5.71,8.03c1.82,2.42,3.24,4.88,2.78,8.54c1.76-0.43,1.71,1.52,3.49,1.12
		c-0.41,3.49,1.14,3.57,2.98,2.97c1.1,2.73,0.62,4.37,2.9,3.67c0.5,2.43-1.91,0.06-1.9,1.67c-0.02,2.14,1.8,1.33,0.53,3.66
		c1.55-0.35,1.86,0.72,1.99,1.97c-0.52,0.04-1.22-0.22-1.37,0.47c2.32,2.47,4.29,6.04,6.21,9.39c1.97,3.31,3.59,6.77,5.88,8.63
		c-0.32-2.16-2.9-4.84-1.98-6.53c-0.01,0.67,0.47,1.57,0.76,0.78c-0.22-1.56-0.45-3.42-1.53-1.56c-1.04-2.4,1.23-3.31,2.74-3.09
		c-0.07,3.75-0.09,9.16,2.82,7.46c-0.86,2.05,1.47,1.35,0.77,3.26c-1.15,0.53-1.36-1.92-1.74-0.46c-0.41,1.8,0.73,2.26,1.73,2.89
		c0.19-0.42,0.24-1.14,0.67-1.04c-0.34,2.01-1.42,2.43-3.07,1.6c-0.17-1.4,0.56-2.05-1.28-2.72c-0.04,2.64-2.13,0.9-2.4,3.03
		c0.84,0.38,0.91,1.41,1.37,2.12c3.64-1.75,7.34,0.72,8.84,3.73c-1.51-0.99-1,1.95-0.56,2.29c1.99-0.63,1.71,3.88,2.2,5.8
		c-0.66-0.15-1.51-0.8-1.84-0.08c-0.16,2.38,3.16,0.86,3.08,2.44c-2.11,0.72,0.56,1.98,0.65,2.74c-0.96-0.31-0.86,2.27-1.4,3.12
		c0.84,0.21,0.75,1,1.54,1.25c-0.56-0.82-0.78-2.37,0.65-2.18c-0.26,2.12,0.39,4.13,2.05,2.77c-0.09,2.03-1.46-0.23-1.54,1.8
		c2.46,0.55,0.53,1.25,1.07,2.44c0.99,0.61,1.57-0.18,2.2-0.81c-1.57,0.57-0.76-3.18-1.38-4.54c1.02,0.93,1.19-0.7,2.02-0.31
		c0.22,1.24,0.14,2.62,1.33,3.29c1.15-0.62,0.8-1.97,1.09-3.35c0.86,3.63-0.01,4.55-1.39,7.09c1.61,1.48-0.3,4.38-0.28,6.28
		c-0.92,0.41-2.17-0.33-3.04,0.26c0.74,1.61,0.47,3.72,1.45,5.21c0.94,0.11,2.44-0.81,2.04,1.15c-1.05,0.49-1.31-1.66-2.24,0.63
		c1.85-0.02,0.77,0.55,1.19,1.96c0.74-0.2,1.54-0.12,2.23-0.58c-0.26-0.39-0.57-2.75,0.45-2.33c0.21,1.05-0.62,2.54,0.72,3.08
		c1.04-0.84-0.18-2.62,0.89-2.1c-0.24,0.88,0.71,0.93,1.18,0.78c-0.49,1.85-1.24,2.55-2.13,2.62c0.49,0.93-0.19,2.33,0.66,3.1
		c-0.66,1.57-3.12,2.73-1.85,4.07c1.31,1.47,1.66-1.78,3.04,0.09c-0.57,2.14-2.15-0.7-2.73,1.44c0.27,3.06,0.38,6.09,2.66,8.5
		c-2.08,0.28,0.25,2.59,0.17,3.6c-0.38,1.5-2.57,1.72-1.86,3.33c1.39,0.94,3.55,2.13,4.32,2.91c-0.7,0.32-1.04,1.4-1.61,2.79
		c-1.52,0.87-0.34-2.61-1.84-1.55c0.18,1.82,0.28,5.7,2.04,5.89c0.47-1.19-0.89-2.63,0.63-2.92c0.92,1.61,0.91,3.84,0.87,5.9
		c-0.1,2.07-0.18,3.95,0.8,4.97c-0.85,4.46-3.17,7.03-0.46,9.15c-0.81,0.86-2.04,1.02-1.18,2.44c0.52-0.45,1.07-0.26,1.56-1.29
		l2.05,2.23c-3.05,0.64,1.05,5.16-1.22,5.59c0.8-1.24-0.43-1.89-1.28-1.52c0.63,1.29-1.45,2.63-0.03,3.91
		c1.7-0.79,0.61,1.36,1.59,2.74c-0.67,1.75-1.28-0.97-1.95,0.77c0.18,0.39,0.62,0.78,0.31,1.17c-1.49-0.18-0.79-4.25-3.19-3.11
		c1.67,2.05-1.99,5.64,1.51,6.55c-0.56,0.8-1.09,0.37-1.64,1.08c1.33,1.26-0.06,3.38,1.53,3.53c0.97-0.84-0.96-1.85,0.39-2.68
		c1.47,3.32,0.46,5.05,2.6,6.82c-1.04,0.85-1.89-0.69-2.93,0.11c1.96-1.69-0.38-4.03-1.71-3.22c1,1.86,0.25,3.59,0.88,5.46
		c0.66-0.06,1.34-0.38,2.06-1.34c1.62,1.61,0.63,2.95,1.26,4.47c-0.88,1.47-1.56,0.39-2.36,0.85c2.25,3.24-0.57,8.11,1.53,11.26
		c-1.02,0.17-1.84-0.96-2.83-0.99c-0.92,2.38,2,1.3,0.82,3.31c-0.36-0.52-0.73-0.97-1.28-0.29c0.32,0.86,0.67,2.45,1.57,2.73
		c0.17-1.15,0.36-2.29,0.84-3.37c0.56,0.72,1.25,0.51,2.03-0.35c0.23,2.73-0.82,5.17-1.19,7.75c0.69,2.61,1.98,1.44,3.05,1.65
		c-1.43,2.18-1.15,0.38-2.91,1.62c-1.9-4.03-0.38-5.3-0.68-8.23c-1.01,1.71-1.4,1.1-2.38,2.58c-1.58-0.78-1.36-2.09-3.32-2.01
		c0.87-0.59,0.23-3.48-0.18-3.11c-1.83,1-0.28,4.57,1.34,4.17c-1.61,0.65-0.9,3.86,0.03,3.91c1.45-0.51-0.32-1.91,0.75-2.54
		c0.36,0.48,0.87,0.04,1.39-0.42c0.58,3.22-0.89,7.36-1.74,10.74c-0.84,3.2-1.23,5.76,1.39,6.75c-0.57-0.55-0.02-2.26,0.79-1.34
		c-0.02,0.59-0.82,2.89,0.1,2.5c0.66-1.81,0.01-4.12-0.91-6.44c2.61-0.87,0.24-3.4,1.79-4.65c1.14,1.3-0.46,1.74-0.14,2.78
		c0.76,0.11,1.42,0.76,2.27,0.33c0.43,2.22,1.92,2.27,0.3,3.81c-1.3-0.4-0.8-3.84-2.83-2.61c1.56,2.56,1.87,5.09,3.33,4.88
		c1.07-0.23,0.23-3.18,1.77-1.89c-0.41,0.56-0.52,1.22-0.12,2.07c-2.47,0.22-1.67,4.57-4.63,2.45c1.51,1.97,2.06,8.59-0.33,9.92
		c0.5-0.16,0.86,0.21,1.23,0.57c-0.47,0.35-0.89,0.72-0.38,1.53c-0.99,0.31-1.8-0.08-2.45-1.15c1.02-1.77,1.07-4,1.48-6.06
		c-0.86,0.27-1.17-1.77-2.25-0.53c1.67,2.09-1.24,5.42,0.21,8.86c0.97-0.64,0.85-1.73,1.81-0.4c0.06,2.68-3.15,6.56-0.6,7.9
		c-1.55-0.15-3.29-0.36-1.96,2.87c-0.75,0.51-1.11-0.16-1.85,0.27c-1.1-1.48,1.21-1.06,0.11-2.53c-2.4,1.69-0.18-1.42-1.38-1.19
		c-1.2,0.48-0.52,1.98-0.92,2.9c2.13-0.35,1.1,2.34,3.16,2.23c-1.36,0-3.76,2.24-2.03,4.06c-0.82,0.22-0.72,1.02-1.49,1.27
		c-2.56-0.68,0.18-5.12-2.41-4.49c2.94-4.08,2.12-8.53,3.09-13c-2.53,0.6-0.05,4.22-2.54,3.66c0.06,1.81,0.41,2.15,1.54,2.91
		c-1.84,2.08-0.4,1.17-2.25,0.43c0.25,1.66-0.84,2.16,0.92,2.62c-1,2.27-2.29-1.79-3.58-2.04c0.42,2.17-1.93,2.72-1.59,4.84
		c0.7,0.03,1.3,0.36,2,0.38c-0.93-1.53,0.09-1.89-0.08-2.97c0.82-0.61,2.82,0.58,1.96,1.57c0.01-1-1.61-1.93-1.19-0.7
		c0.29,1.27,0.76,2,1.31,2.47c-0.47,1.16-2.51,3.52-1.42,4.23c1.45-0.51,0.33-2.63,1.77-3.16c1.14,1.88-0.83,2.52,0.63,3.41
		c-2.74-0.73-4.84,5.44-2.29,6.82c-1.38,0.99-2.58-0.67-2.42,1.39c0.31,0.74,0.95,0.69,1.29,1.37c-1.33,0.46-0.21,1.43,0.14,2.34
		c-0.8,0.92-1.9,1.59-2.56,2.58c-0.12-3.45-0.6-7.07-2.44-9.27c-0.6,1.39,0.53,1.72,1.17,2.56c-1.87,0.23-0.87,2.56-2.38,3.03
		c-0.38-1.17-1.37-0.86-2.39-0.51c1.17,2.72-1.32,2.61-1.38,3.24c0.28,0.8,0.36,2.06,0.97,2.1c0.45-0.29,0.31-3.17,1.39-1.52
		c-0.38,0.34-0.22,3.28,0.27,2.87c-0.38-1.1,0.87-3.08,1.84-1.65c1.16,3.2-1.35,3.4-0.05,5.86c-0.83,0.34-1.02-0.56-1.54-0.83
		c-0.49,1.62-2.58,3.62-1.19,5.42c-2.88,1.07-1.09,3.68-2.03,6.17c0.03-0.07-2.21,0.28-0.58,1.84c-1.14,0.66-1.24-0.64-2.24-0.27
		c1.38,2.24-1.64,3.66-1.83,5.9c-0.23-0.98-0.92-1.23-1.89-1.02c-1.61,0.86,0.65,1.57-0.16,2.28c-0.26-0.7-0.7-1.13-1.45-1.08
		c0.91,1.98-1.43,0.4-1.1,1.74c0.01,1.31,1.33,0.59,1.49,1.66c-1.75,1.36-1.32,5.25-3.27,6.39c-0.06-0.99-0.47-1.48-1.02-1.74
		c0.13,2.79-0.42,3.98-1.93,2.28c-0.6,2.87-1.53,6.45-4.03,5.34c0.28,2.16-1.27,1.89-1.6,3.25c0.61,1.27-0.16,1.67,0.53,3.51
		c-1.27-0.66-1.5-0.92-2.14,0.31c-0.93-1.34,0.45-2.18,0.77-3.35c-1.48-0.51-1.66-2.67-2.3-4.26c-1.11,0.7-2.02,1.64-1.12,3.8
		c-1.55,1.09-3.75,1.05-3.28,5.16c-1.08,0.51-1.32-2.51-1.71-0.94c-0.01,0.56,0.34,0.75,0.42,1.22c-3.23-0.21-4.89,6.3-8.3,7.54
		c1.9,0.47,1.65,0,3.34,0.96c-0.44-2,1.39-0.08,0.94-2.06c-0.47-0.19-0.69,0.65-0.84-0.23c1.64-3.15,3.7-2.15,5.28-4.99
		c-0.15,1.28-1.14,2.41,0.81,2.46c-0.24,1.96-0.98,2.22-2.2,1.21c-0.17,1.29-1.45,5.56-3.26,6.14c0.01-0.92,0.15-1.98-0.76-1.96
		c-1.08-0.24-0.78,1.96-1.4,2.53l1.26,0.36c-2.21,2.17-4.21,4.75-6.26,7.35c-1.24,0.03-1-1.2-2.04-1.35l-0.25,2.27
		c-0.84-0.15-0.74-1.08-1.12-1.62c-0.14,1.12-1.21,0.27-1.09,1.93c0.47,0.28,1.19,0.37,1.17,1.07c-0.99,0.05-1.18,1.82-2.35,1.45
		c0.08-0.91,0.31-1.95-0.6-2.05c-0.01,1.44-0.9,0.91-0.78,2.66c0.71,0.28,0.99,0.9,1.08,1.67c-2.73-1.93-2.62,2.59-4.4,2.83
		c-0.51-0.63,0.3-2.16-0.44-2.62c-4.01,0.04-6.94,7.97-12.54,5.85c-0.17,0.86,0.9,1.07,0.4,2.11c-1.36,0.71-0.1-1.07-1.43-1.57
		c-1.36,0.72,0.52,0.84-0.14,2.39c-0.99-0.41-0.61-1.54-1.81-1.84c-0.73,1.83-2.3,0.94-3,2.93c0.67,0.44,0.87,1.1,0.86,1.88
		c-0.47-0.22-0.64,0.56-0.82,1.34c-2.61-1.49-2.85,2.37-4.59,1.82c-0.58-2.55,1.52-1.71,2.18-2.93c-0.38-0.28-0.33-0.77-0.6-1.09
		c-1.84,1.15-3.78,1.99-5.75,2.63c1.45,0.8,2.76,0.9,3.74-0.25c-0.41,0.97,0.19,1.45,0.27,2.18c-2.57-1.49-1.14,0.97-2.66,1.17
		c-0.72-0.97-2.32-2.13-3.28-1.47c0.85,1.8,1.27,1.67,1.85,2.91c-1.12-1.02-1.61,0.73-2.91-1.16c0.22,1.63-1.41,3.02-2.15,0.78
		c-1.54,3.31-3.87,2.91-5.96,3.44c-1.11,1.07-0.37,3.85-1.43,3.45c0.15-2.59-1.23-0.32-2.2-3c-1.36,4.6-4.8,2.17-5.4,6.52
		c-1.02-1.32-1.61,0.93-2.48,0.98c0.29-2.68-1.1-2.59-2.75-1.81c-1.66,0.75-3.6,2.35-4.29,3.22c-0.81-2.76,1.91-1.91,1.74-3.24
		c-0.92-0.86-1.85-1.97-2.67-1.9c0.85,2.27-0.33,0.8-1.05,0.98c0.31,2.02,0.05,2.06-0.34,3.52c-1.24-1.05,0.42-2.36-0.22-3.46
		c-1.2-1.35-2.56-1-2.46-4.13c-0.54,1.94-0.44,3.82-1.1,5.76c-0.76-2.14-2.63-1.62-3.45-3.21c-0.21,1.91,1.96,3.62,2.14,5.5
		c-2,0.97-2.61-5.39-5.11-1.64c2.86,0.75,2.45,3.74,5.51,4.65c-1.15,0.02-3.79,0.94-4.03-0.73c0.29,0.24,0.58,0.15,0.85-0.42
		c-1.29-2.6-2.51-3.1-3.72-3.11c0.36-1.39,1.09-1.4-0.02-3.47c-0.64,0.34-1.28-0.76-1.93,0.38c0.42,1.24,1.66,0.2,0.55,1.75
		c-1.43-0.61-2.2-1.97-3.08,1.2c-1.14-2.97-4.07-2.07-3.65,0.28l-1.05-1.78c-0.56,2.32-1.17,0.95-2.3,1.45
		c-0.8-1.84-0.13-2.79-1.47-3.71c-1.25,1.47-2.65,3.1-4.27,1.51c0.69-1.29,2.57-0.01,2.39-2.24c-1.08,0.21-1.32-1.61-1.81-1.6
		c-1.91,1.55-2.47,1-3.65,3.77c-2.43-3.05-6.08,3.53-8.2-1.95c-0.25,1.1-0.59,1.46-1.33,1.4c-1.18-1.28,0.52-3.94-1.11-3.89
		c-0.94,0.76,0.53,2.24-0.73,2.9c-1.85-0.22-3-1.92-4.65,0.37c-1.24-1.28,1.06-1.45,0.46-2.54c-1.41-0.46-3.22-2.08-4.42,0.59
		c-1.11-0.76-2.03-2.28-3.57-1.06c-0.41-1.24,0.11-2.07-0.66-3.47c-1.49,2.23-1.5-1.8-2.82-0.33c-0.08,1.19-0.79,2.08-1.35,3.07
		c-0.58-2.24,2.02-3.07,1.08-5.48c-0.66,0.74-0.93-0.13-1.4-0.17c-0.09,1.03-0.05,2.12-1.01,2.76c-0.67-1.51,0.86-2.4-0.4-2.93
		c-1.18,0.97-1.02,2.59-1.09,4.09c-0.38-2.77-0.76,1.46-1.41-0.3c0.57-0.67-0.27-0.65-0.44-1.66c0.58-0.67,1.16,0.14,1.11-0.79
		c-0.38-2.21-1.64-1.18-2.56-1.45c0.15,1.9,1.45-0.22,1.45,2.24c-2.09,1.86-2.81-1.59-3.92,2.01c0.48-1.95-0.26-2.4-0.07-3.82
		c0.44-0.06,1.5-0.98,1.62-2.37c-0.93-0.61-2.68-3.43-3.67-0.72c1.11-0.75,2.04,1.15,1.54,2.8c-1.99,0.53-3.31-1.02-5.67,0.45
		c-0.67-2.78-3.3-0.49-2.13-3.71c-1.83,0.55-2.52-0.67-3.85,0.16c1.06-2.55-2.23-0.8-2.28-3.17c1.36-1.01,1.32,1.52,2.67,0.49
		c-0.96-3.98,1.87,0.29,2.15-2.38c-0.67-1.44-1.51-1.18-1.63-2.19c-2.15,1.73-4.25,0.74-6.53,2.05c0.08-1.44,1.71-1.7,1.68-3.21
		c0.95-0.94,2.15,1.28,2.46-0.64c-1.61-0.36-3.43-0.36-3.87-3.46c-1.53,0.16-3.58,1.32-3.56-1.99c-1.77-1.03-4.32,3.59-4.98,0.14
		c1.34,0.4,1.72-1.02,2.73-2.21c-2.91,0.16-5.32-4.75-7.3-2.65c-0.15,2.68,1.08-1.24,0.93,1.43l-2.08,0.68
		c0.78-2.5-0.52-3.22-1.49-4.2c-1.88,2.22-2.37-0.39-4.14-0.14c-0.52-1.86,0.25-2.54-0.47-3.38c-2.5,0.71,0.8,5.47-2.03,4.54
		c1.37-2.3-0.22-7.75-2.16-8.26c0.01,0.99-0.34,1.54-0.86,1.89c-0.34-1.56,0.6-1.6,0.44-2.94c-1.83-1.38-2.98,0.89-2.92-2.31
		c-0.85,0.27-0.88,1.68-1.73,1.96c-0.28-1.62,0.65-1.58,0.54-2.98c-1.83,0.08-3.17-0.64-3.16-3.14c-1.42-0.32-0.67,2.4-2.22,1.91
		c-0.37-1.13-1.51-1.22-1.99-2.19c0.96,0.11,1.61-0.23,1.78-1.26c-2.12-2-3.9-3.71-5.58-5.58c-1.61-1.98-3.07-4.19-4.64-7.02
		c-0.14,0.7-0.31,1.35-1.01,1.1c0.63-1.82-0.94-1.28-0.97-2.39c0.57-0.19,0.98-0.67,1.1-1.64c-1.41-0.78-1.39-3-3.43-3.18
		c0.08-1.07,0.69-1.19,0.8-2.19c-2.99,0.11-1.95-3.71-3.88-4.67c-0.12,0.57-0.48,0.61-0.65,1.05c0.87,0.6,0.92,1.95,1.13,3.16
		c-1.08-1.03-2.32-2.21-4.12-1.38c-0.17-2.53,2.22,0.35,2.46-1.29c-2.68-3.68-11.03-7.62-11.3-13.53c-1.58,0.34-1.17-0.56-1.79-1.85
		c2.04-1.61,3.3,3.62,4.74,1.01c-1.2-2.96-3.28-5.9-6.19-8.86c0.29-2.06,1.32-1.66,0.42,0.17c0.77-0.82,2.98,2.37,4.33,1
		c-1.1-2.13-4.11-4.56-5.18-4.35c0.52,0.1,0.72-0.67,0.93-1.43c-3.9-3.32-5.17-8.19-11.51-10.75c0.62-1.53,1.68-1.43,2.64-1.71
		c-0.19,0.98-1.12,1.01-0.6,1.56c0.36,0.92,0.78,1.11,1.42,0.14c-0.45-1.18-0.18-2.71-1.03-3.71c-0.39,0.68-1.12,0.09-1.63,0.35
		c-0.66-0.83,1.23-2.81,0.43-3.56c-0.49-0.2-1.07-0.79-1.39-0.22c0.63,1.97,0.76,1.52-0.67,2.85c0.89,0.87,1.02,2.08,1.23,3.25
		c-1.49-0.67,0.28,2.55-1.21,1.88c-0.67-1.52-0.19-0.93,0.59-2.87c-0.67-3.88-3.42-3.89-4.32-6.63c2,0.42,4.23,1.91,5.66-0.3
		c0.47-2.54-3.22-3.35-3.54-5.61c1.49-2.24-0.1-3.27-0.3-4.86c-1.38,0.68-4.15-3.12-2.79-4c0.19,1.21,1.38,3.1,2.19,0.92
		c-1.34-0.64-1.18-1.8-1.85-2.68c-0.43,0.75-1.16-0.36-1.51,0.88c-1.59-3.15-0.95-2.08-3.06-5.35c2.44-4.26-3.06-4.19-0.14-8.66
		c-1.3-0.83-0.82-2.02-2.31-2.83c2.36-0.22,3.9,0.27,6.05,1.21c-1.26-4.88-1.29-10.46-5.96-12.32c0.06-4.11-0.62-10.17-4.52-12.78
		c-3.3,5.14,4.96,10.95,2.69,14.67c0.41-1.06,2.55,0.22,2.04,1.36c-0.56-0.27-1.09-0.16-1.58,0.64c1.07,2.35,5.33,2.65,5.13,6.47
		c-2.55-1.08-7.25-3.97-7.81-7.76c0.82-0.64,1.89,2.48,2.63,0.47c-1.94-2.54-2.7-4.86-5.91-6.42c0.69-2.61,0.54-5.13,0.92-7.67
		c-2.7-2.47-1.72-4.9-4.89-5.38c0.87-1.8,1.72,1.18,2.59-0.89c0.09-2.9-0.27-1.41,1.64-2.13l-2.87-3.86
		c0.81-1.4,0.84-2.81,0.07-4.28c-1.41,0.79-0.31,1.7-0.69,2.54c-0.84-1.67-1.7-2.11-2.56-1.84c0.27-1.44-0.92-2.97,0.74-4.31
		c0.84,0.92,1.69,1.85,2.59,0.19c-1.83-1.83-3.5-3.98-5.19-6.11c2.8-1.72-2.84-4.5-0.18-6.24c1.41,0.44,0.68,2.11,2.16,1.62
		c-0.89,1.06,0.5,2.41,0.37,3.56c0.57-0.39,1.09-0.09,1.71-1.11l-1.73-2.84c2.36-0.4,0.2-2.87,1.36-4.6
		c1.75,3.7,0.21,8.19,4.76,9.64c1.13-3.35-4.9-10.88,0.33-11.78c0.08-0.98-0.59-2.09-1.33-3.23c-0.47,0.34-0.98,1.1-1.36,0.59
		c1.35-5.98-0.68-12.95,1.37-18.84c-0.61,0.32-0.98-0.77-1.51-0.91c1.63-0.81-0.1-2.71,0.95-3.7c1.2,1.59,0.27,3.5,1.85,2.81
		c0.38-2.51,0.99-4.92,0.81-7.66c0.96-1.26,1.36-0.01,2.24-0.93c-0.42-0.62-0.99-0.59-1.28-1.82c0.95-0.69,1.56,0.06,2.64-1.17
		c-0.77-2-0.16-1.82-1.29-3.2c1.43-0.32,2.47,1.06,3.89,0.77c-0.18-1.82-0.94-3.94,0.53-5.03l0.42,1.06
		c0.26-0.12,0.5-0.22,0.61,0.28c-1.49,0.11-1.38,3.11-0.35,2.89c0.55-3.03,1.05-5-0.11-7.95c1.86,0.37,0.94-1.93,2.48-1.43
		c-0.79-0.41-1.24-1.69-0.32-2.38c0.75,2.12,1.96,2.71,3.62,1.86c-0.02,1.72-0.25,3.33-0.07,5.12c1.05-0.56,1.33,1.99,2.63,0.41
		c-2.09-2.93-1.46-5.4-1.02-8.21c-1.29-0.46-3.19-2.6-1.45-4.32c0.43,1.28-0.19,1.97,0.67,3.46c1.02,0.28,2.25-0.85,2.5-1.25
		c-0.34-0.57-2.37-1.21-1.32-2.49c0.1,0.72,1.83,1.28,1.43-0.06c-0.51-1.7-1.82-0.91-2.07-3.41c0.86-0.69,2.81,0.62,2.68-0.63
		c-0.98,0.04-2.89-2.62-2.21-4.05c1.37-0.01,0.84,1.73,1.52,1.84c-0.48-2,2.16,0.18,1.49-1.29c-2.77-0.45-2.22-6.03-0.68-7.72
		c-0.64-0.86-1.41-1.4-2.31-1.58c1.19-0.89,1.28-2.07-0.11-2.45c1.16-0.44,0.51-2.17,1.77-2.54c1.06,2.21,1.24,6.52,0.79,8.97
		c0.43-0.17,0.64,0.25,1.02,0.22c0.11-7.53,2.68-10.56,2.05-19.22c1.35,0.14,1.01-1.12,2.13-1.17c0.99,3.51-0.38,7.72,2.01,11.57
		l0.86-0.26c-0.55-5.57-2.19-12.56,2.14-14.28c0.52-4.2,1.2-10.69,4.17-10.99c-0.69-0.7-0.51-1.75,0.16-2.39
		c0.04,1.53,0.45,2.46,1.61,2.15c0.32-1.02,1.07-1.61,2.55-1.41c-0.11-1.44,0.66-1.88-0.7-2.27c0,0.69,0.25,1.63-0.26,1.78
		C128.62,177.53,130.56,175.78,129.89,173.01z M347.8,460.26c0.88,1.12,1.71-0.87,1.69,0.61c0.68,0.04-0.29-1.11,0.52-0.98
		C349.8,458.55,347.62,458.77,347.8,460.26z M368.21,431.32c-1.6,0.66-2.76,1.82-2.7,4.69C366.11,434.06,368.2,434.03,368.21,431.32
		z M369.94,431.48c-0.12-0.65,0.03-0.98,0.36-1.07c-0.15-0.61-0.89-0.45-0.94-1.17c-0.55,0.14-0.61,0.91-1.22,0.98
		C368.3,431.2,368.96,431.56,369.94,431.48z M385.26,410.06c-0.19-1.65-1.29-1.58-1.49-3.21c-1.56,1.14-2.67,2.62-2.47,5.43
		c0.42,0.45,1.22,0.2,1.47,0.98C383.96,412.54,384.16,410.88,385.26,410.06z M376.57,421.5c0.56-0.99,1.84-1.22,1.8-2.84
		C376.81,417.14,375.92,419.18,376.57,421.5z M370.37,431.52c1.05,1.63,2.54-0.55,2.37-2.13
		C371.24,429.24,371.55,431.3,370.37,431.52z M368.88,435.28c-1.21,0.92-2.67,2.24-1.49,4.92
		C368.88,439.9,369.04,437.76,368.88,435.28z M376.35,427.15c-0.38-0.3-0.76-0.59-1.35-0.57c0.08,0.56,0.57,0.45,0.92,0.57
		c-0.28,1.01-1.66,0.72-1,2.85C376.02,429.78,376,428.22,376.35,427.15z M383.4,414.33l-1.28,0.15c0.1,0.81,0.2,1.61,0.71,1.65
		c0.05,0.68-0.7,0.57-1.2,0.68c0.08,1.45,0.22,2.79,1.62,2.13c-0.15-0.45-0.52-0.52-0.59-1.08c0.77-0.13,1.03,0.62,1.83,0.41
		C383.47,416.51,383.66,417.12,383.4,414.33z M387.75,406.79c-1.61,1.02-2.03,3.07-2.62,5.01c0.77,0.1,0.73-0.55,0.66-1.25
		c0.48-0.17,0.79,0.01,0.96,0.43C387.43,409.65,387.12,408.84,387.75,406.79z M386.7,399.61c1.08,0.86,0.76,2.51,0.81,3.8
		c0.79-0.08,0.78-0.84,1.62-0.87c-0.48,0.94-0.3,2.46-1.18,3.06c1.5,0.84,2-3.12,3.23-4.06
		C389.82,400.65,388.34,399.99,386.7,399.61z M382.48,404.78c0.93,1.5,2.01,2.7,3.97,2.23c-0.18-2.44-2.17-1.39-2.8-2.96
		C383.37,404.39,383.07,404.72,382.48,404.78z M360.14,438c-1.9-0.45-2.28,1.24-2.36,3.5c0.88-0.05,1.11,0.61,1.68,0.91
		C358.91,441.5,359.22,439.42,360.14,438z M392.08,389.07c-0.88,0.65-1.49,1.46-0.95,3.16c1.38-0.27,1.58-1.43,1.52-2.75
		C392.32,389.68,392.19,389.39,392.08,389.07z M394.09,383.26c0.73,2.18,2.55,2.67,3.01,0.71c-0.35-0.63-0.99-0.57-1.32-1.29
		c0.31-0.03,1.05-1.7,1.53-1.12c0.2-0.63-0.45-1.61-0.66-3.34C395.4,379.64,395.1,381.67,394.09,383.26z M407.4,367.81
		c0.16,0.65-0.6,0.83-1.06,1.16c0.43,0.87,1.14,0.84,2.04,0.19l-0.94-2.61C407.04,366.78,407.35,367.36,407.4,367.81z
		 M400.84,368.61c-0.9-1.68-2.03,0.63-1.68,1.97C400.99,370.62,399.44,368.81,400.84,368.61z M404.32,360.1
		c1.38,1.4,1.5,2.35,0.09,3.72c0.41,0.62,1.18-0.12,1.81-0.38C405.99,361.84,406.35,359.74,404.32,360.1z M407.01,350.3
		c-0.46,1.84-1.05,3.61-0.38,5.93C408.1,354.8,407.5,352.49,407.01,350.3z M403.62,351.77c-4.3-3.58-0.34,6.28-1.93,7.93
		c0.65,1.02,2.27-0.78,2.38-1.34c-0.29-1.15-0.86-1.17-1.27-1.77c1.77-1.21,2.14,3.33,3.91,2.12c-0.77-1.04-1.49-3.33-3.34-3.08
		c0.35-1.12,2.89-0.98,0.7-2.9c1.77-0.21,2.39-4.55,1.36-5.83C403.35,346.45,403.99,350.3,403.62,351.77z M316.14,483.61
		c1.24,1.6,1.53-0.24,2.32-0.23C318.28,481.54,316.33,482.09,316.14,483.61z M403.71,345.52c0.99-0.95,1.96-1.94,0.73-3.64
		C403.46,342.85,403.25,344.05,403.71,345.52z M378.13,337.7c0.16-1.63-2.08-2.16-1.02-3.19
		C374.54,333.55,375.91,338.77,378.13,337.7z M250.9,74.19c0.19-1.01,0.55-2.03-0.32-3.05c0.36,1.26-1.56,2.3-0.98,0.42
		c-0.93,0.15-1.5,1.23-1.92,2.6C249.76,74.93,249.44,73.72,250.9,74.19z M273.1,78.77c0.09-2.15-2.83-1.61-3.99-1.94
		C270.36,78.53,271.73,78.62,273.1,78.77z M277.56,81.73c0.57-1.46-1.46-3.64-2.21-3.03C274.79,80.36,276.99,80.93,277.56,81.73z
		 M298.74,92.06c-0.73-2.03-2.31-0.25-3.68,0.75C296.01,93.84,297.33,93.06,298.74,92.06z M304.67,87.77
		c-0.35-3.81-3.07,0.03-5.2-0.4c0.88,1.84,1.81,1.21,1.81,3.5C302.5,89.47,302.78,87.67,304.67,87.77z M303.85,91.05
		c0.83,0.22,1.53,0.88,2.58,0.22c-0.8-1.57,0.05-2.41-0.95-4.07C304.37,88.24,304.76,89.93,303.85,91.05z M306.48,97.27
		c-0.49-1-0.48-1.75,0.26-2.18c-0.57-2.33-1.81-2.23-2.9-2.66c-0.92,2.09,1.74,0.72,1.92,2.68c0.11,1.8-1.74,1.05-2.37,1.7
		C304.22,97.72,305.23,97.89,306.48,97.27z M308.92,94.31c0.46-0.59-0.99-4.39-2.3-2.49C307.24,93.22,308.01,93.98,308.92,94.31z
		 M319.09,103.41c0.27-2.79-3.08-3.56-5.29-2.14c-0.07,2,0.36,3.09,1.46,3.69c1.4-1.34-0.49-1.97,0.06-3.28
		c2.15-1.02,1.47,1.38,2.53,2.42C318.59,103.83,318.67,102.56,319.09,103.41z M323.07,106.41c-0.37-1.45-1.1-1.97-2.18-1.45
		c0.19,1.37,0.59,2.11,1.07,2.63C322.23,107.13,322.49,106.66,323.07,106.41z M328.85,101.22c-0.75-2.65-2.33-3.24-4.04-3.37
		C326.16,98.98,327.2,100.9,328.85,101.22z M325.01,113.74c-0.57-0.81-0.6-3.1-1.79-2.3C323.54,112.97,323.54,115.23,325.01,113.74z
		 M334.77,112.6c-0.03-2.09-1.75-0.32-2.12-1.62c-0.42-1.48,2.51-0.43,1.4-2.44c-1.66,2-2.82,0.2-3.85,1.6
		C331.52,111.44,332.6,113.26,334.77,112.6z M332.13,118.59c-0.33-1.29-1.9,0.46-2.09,0.9C330.69,121.34,331.6,119.51,332.13,118.59
		z M339.13,117.87c-1.03-0.68-2.7,1.42-2.17,3.79C338.37,121.02,339.05,119.72,339.13,117.87z M339.15,130l-2.08,0.71
		c-0.03,0.98,0.49,0.86,0.57,1.59C338.41,131.78,339.42,131.49,339.15,130z M344.23,123.63c-0.39-0.42-0.6-1.18-0.68-2.23
		c-1.82,0.46-2.02-2.27-3.77-1.9c0.33,2.31,2.07,1.22,1.33,3.85C343.08,121.67,342.59,123.38,344.23,123.63z M347.02,130.02
		c-0.7-1.66-0.92-0.06-2.25-0.56c-0.08,1.27,0.42,1.45,0.62,2.19C346.59,131.75,346.17,130.27,347.02,130.02z M348.41,131.5
		c2.36-3.63-2.71-5.23-4.06-6.7C343.69,128.1,348.33,127.46,348.41,131.5z M356.48,140.68c0.29-1.85-1.21-0.93-0.92-2.79
		c-0.56,0.3-0.66,1.14-1.28,1.39C354.6,140.39,355.45,140.64,356.48,140.68z M365.88,156.22c0.52-2.26-1.83-0.86-1.09-3.44
		l-2.58,0.15C363.21,154.31,364.09,155.82,365.88,156.22z M196.93,111.18c-0.69-0.54-1.03,0.11-1.74-0.51
		c-0.5,1.03-0.15,1.63-0.23,2.45C196.12,114.18,196.55,112.8,196.93,111.18z M202.34,110.34c1.21-3.24-3.31-2.3-2.42,0.27
		C201.28,111.1,201.14,107.71,202.34,110.34z M212.92,110.3c-1.71,0.23-3.15-4.77-4.43-1.07c1.47-0.6,0.89,1.57,2.03,2.39
		C210.86,108.97,212.49,112.49,212.92,110.3z M221.93,111.9c-1.55-1.36-3.74,2.49-2.33,4.61c0.23-1.86,1.05-3.47,1.46-1.3
		C221.62,114.84,222.2,113.51,221.93,111.9z M209.11,132.03c0.08-2.75-1.13-0.85-1.9-0.93
		C207.36,133.54,208.42,130.97,209.11,132.03z M213.33,132.65c0.14-0.8-0.98-1.14-0.74-1.98c-1.14-0.37-1.02,1.6-2.05-0.59
		c-0.47,0.92-0.15,1.55-0.24,2.34l1.06,0.96C212.01,131.21,212.07,132.86,213.33,132.65z M164.6,189.3c-0.52,1.2-1.76-0.56-1.44,1.2
		C164.49,192.33,164.82,190.42,164.6,189.3z M168.53,191.76c-0.68,0.8-1.21,1.63-0.04,2.77C169.48,193.8,169.1,192.8,168.53,191.76z
		 M161.45,214.74c-0.87,0.79,0.07,1.58,0.48,2.37l0.65-1.34L161.45,214.74z M267.03,167.54c0.22-2.16-1.42-1.65-2.01-1.71
		C264.87,167.49,266.47,167.17,267.03,167.54z M301.39,183.54c-0.62-2.23-1.66-3.53-3.26-3.1
		C299.24,181.92,299.86,182.52,301.39,183.54z M307.28,188.5c0.52,0.4,1.04,0.81,1.56,1.22c0.11-0.52,0.17-1.09,0.14-1.75
		c-1.02,0.95-0.68-1.1-1.89,0.29C307.2,188.3,307.22,188.42,307.28,188.5z M342.31,233.56c0.11-0.17,0.21-0.37,0.27-0.6
		c-0.22-0.1-0.4-0.11-0.57-0.07C342.12,233.12,342.21,233.34,342.31,233.56z M342.9,234.9c0.38-0.25,0.67-0.48,0.14-0.56
		c-0.18-0.06-0.31-0.08-0.43-0.09C342.71,234.46,342.81,234.68,342.9,234.9z M345.65,239.85c-0.14,0.16-0.31,0.25-0.47,0.35
		c0.19,0.48,0.38,0.95,0.57,1.43c1.55,0.14-0.02,2.29,1.63,2.38c-0.11,0.31-0.26,0.55-0.42,0.78c0.07,0.18,0.13,0.37,0.2,0.56
		c0.67,0.06,0.57,0.57,0.4,1.13c0.16,0.44,0.32,0.88,0.47,1.33c0.11,0,0.19,0.03,0.34,0.01c0.22-2.03,0.07-3.9-0.4-5.56
		c-0.52-1.63-1.25-3.13-2-4.61C345.8,238.44,345.28,239.45,345.65,239.85z M370.31,219.43c-0.92,1.48,0.05,1.66-0.13,2.63
		c0.76,0.44,2.9-2.49,2.16,0.02c0.3,0.19,0.45-0.09,0.58-0.38l0.8,0.21c-0.15-0.51-0.01-1.21,0.34-2.07
		C372.73,219.51,371.77,220.14,370.31,219.43z M377.93,212.66c-1.56-0.08-0.63-1.87-2.11-2.82c-1.17,2.68,1.02,2.92,1.01,4.75
		C377.43,214.57,377.6,213.39,377.93,212.66z M375.94,217.09c-1.84,2.66-1.05,6.6,0.94,7.96c-0.85,0.25-1.78,1.14-1.42,2.3
		c2.01-0.26,1.19,0.42,1.45,2.75c1.6,0.11,1.68,1.63,2.71,1.04c0.68-1.35-0.14-3.16-1.12-1.56c-0.41-1.16,0.66-1.83-1.12-1.55
		c0.46-0.4,1.11-0.17,1.4-1.16c-0.49-1.3-0.62-1.36-1.93-0.71c0.62-1.09,1.28-1.97,2.19-2.04
		C377.47,222.93,375.53,220.58,375.94,217.09z M391.41,201.23c0.3-1.23-1.7-0.85-2.34-1.41
		C388.65,201.33,390.66,201.79,391.41,201.23z M379.6,255.25c0.77-2.04-0.73-3.26,0.3-5.44c-0.48,0.14-1.41,0.15-1.11-0.57
		C377.96,250.37,377.82,254,379.6,255.25z M374.69,250.54c-1.69,0.91-0.57,3.42-0.45,4.66C376.4,254.19,374.16,252.04,374.69,250.54
		z M379.75,232.88c-2.09,0.04-0.89,1.95-0.31,2.66C381.3,235.13,378.47,234.18,379.75,232.88z M387.11,216.18
		c0.76,1.14,0.96,2.63,1.79,3.74C390.34,218.97,387.98,215.76,387.11,216.18z M380.6,223.58c-1.95-0.38-0.78,2.64-1.41,2.32
		c0.21,0.99,0.8,1.75,1.7,2.36C380.85,226.69,380.47,225.29,380.6,223.58z M290.54,175.2c0.66-2-0.89-2.25-1.75-1.03
		C289.01,175.89,290.33,173.43,290.54,175.2z M165.33,253.51c-0.11,0.02-0.14,0.03-0.23,0.04c0.04,0.09,0.07,0.18,0.12,0.28
		C165.25,253.72,165.27,253.62,165.33,253.51z M131.15,412.61l0.41-1.65l-1.66-0.52C130.05,411.36,129.63,412.74,131.15,412.61z
		 M134.22,416.88c0.12-2.36-1.31-3.42-1.96-5.14C131.53,414.53,132.36,416.16,134.22,416.88z M137.13,419.85
		c0.07-1.72-2.24-1.41-1.93-3.34C133.74,417.61,135.22,420.13,137.13,419.85z M175.04,464.14c-1.16-0.23-1.04-2.64-2.54-2.3
		C172.8,463.55,173.49,464.6,175.04,464.14z M203.07,481.24c-0.71-1.76-1.3,1.02-2.22-0.57
		C199.59,483.06,202.99,482.36,203.07,481.24z M205.67,485.18c-0.24-1.1,0.89-1.38,0.28-2.69c-1.29,1.39-2.25,0.34-2.69,1.72
		C203.95,484.84,204.53,485.86,205.67,485.18z M234.17,495.96c0.9-3.59-1.24-0.44-2.06-2.86
		C231.48,495.3,233.68,494.77,234.17,495.96z M242.94,495.35l-0.65-1.5c-1.11,0.04-2.2,0.02-3.54,1.67c0.51,1.75,1.3,1.47,1.94,2.32
		C241.59,495.6,241.31,495.91,242.94,495.35z M382.98,303.06c-0.66,0.32-1.28-0.77-1.96,0.53c2.09,0.5,2.12,1.46,1.11,3.18
		c1.22,0.11,0.33,0.78,1.47,1.7l1.4-1.15c-2.28-0.34-0.32-2.39-1.41-3.59c1.78-0.38,1.38-3.23,1.11-4.73
		c-0.47,2.53-1.4,0.94-3.3,2.44L382.98,303.06z M402.51,271.16c0.66,0.18,1.2-1.58,1.88-1.06c0.36-2.06-1.72-0.38-2.36-1.46
		C401.14,269.67,401.52,270.45,402.51,271.16z M406.63,275.07c0.89-1,0.5-1.86-0.48-2.6C405.26,273.49,405.65,274.31,406.63,275.07z
		 M382.13,310.22c-2.52-1.62-0.02-0.78-0.06-2.83c-0.51-0.34-1.08-0.03-1.59-0.44C379.02,307.87,380.05,311.72,382.13,310.22z
		 M375.85,317.65c-1.15,0.7-0.47,1.71,0.04,2.71C376.83,319.64,376.88,318.72,375.85,317.65z M381.08,311.04
		c-0.94,0.41,0.06,1.05-0.47,1.5c1.09,1.04,2.12,2.79,3.45,1.4C381.76,312.88,383.12,312.4,381.08,311.04z M405.25,265.39
		c-0.96,2.08,1.12,3.58,2.1,5.36c0.78-1.02,1.5-2.05,0.78-2.83c1.27-0.73,2.44,0.58,2.97,0.67
		C412.34,264.64,407.11,267.92,405.25,265.39z M407.36,263.81c1.55-1.35-0.4-1.99,0.27-3.17
		C406.26,260.49,406.29,263.23,407.36,263.81z M405.08,261.22c0.08,1.27-0.77,2.71,1.09,3.61
		C406.78,263.41,405.57,262.38,405.08,261.22z M254.15,495.93c-0.96,2.59,1.08,1.25,1.76,3.31
		C256.41,497.33,254.54,497.5,254.15,495.93z M377.48,302.5c1.35-0.65-0.12-1.41,0.39-2.1C376.64,299.93,376.08,301.91,377.48,302.5
		z M382.28,288.28c-0.37,0.97-0.3,1.89,0.99,2.78C384.97,289.98,383.49,288.22,382.28,288.28z M382.38,282.91
		c1.5,0.54,1.15-0.27,2.33,1.35c1.38-2.28-2.81-1.96-1.16-4.04C381.71,279.53,382.25,282,382.38,282.91z M380.25,278.79
		c0.06,2.07-1.43,5.68,0.62,6.49c1.06-1.9-1.27-3.38,1.37-5.52C381.54,278.7,380.93,279.57,380.25,278.79z M376.75,280.23
		c-0.23,0.85-0.45,1.67,0.75,2.33C378.15,281.59,377.78,280.07,376.75,280.23z M384.83,270.26c1.78-1.38-0.58-4.7,0.79-7.17
		C382.29,263.84,385.31,268.1,384.83,270.26z M380.35,268.34c-0.31,0.92,0.19,1.65,0.92,2.35
		C382.22,269.54,381.3,268.1,380.35,268.34z M385.23,259.82c1.25-2.19-1.73-3.09-0.74-5.21
		C381.5,255.03,385.11,258.22,385.23,259.82z M384.01,248.58c-0.13,1.79-0.49,2.88-2.13,2.85l-0.5,0.85c0.52-0.14,1.11,0,1.74,0.4
		C384.34,250.84,385.81,249.88,384.01,248.58z M400.51,219.32l-0.81-0.42c-0.82,1.55,0.79,1.83-0.39,3.55
		c0.87,0.66,1.59,0.74,2.23,0.55C401.32,221.01,399.64,221.04,400.51,219.32z M400.63,213.7c1.13,1.11,1.56-0.21,2.42-0.04
		c0.8,1.34-1.92,0.44-1.97,2.8c0.63,1.58,2.41-0.1,3.26,1.72c1.03-2.84-0.9-4.16-1.13-6.37
		C402.26,212.16,401.21,212.14,400.63,213.7z M398.44,214.51c-0.12,1.49,0.1,2.76,1.66,3.34
		C400.45,216.24,399.11,215.54,398.44,214.51z M397.25,208.33c-0.72,1.58,0.65,1.91,0.33,3.25c0.63,0.16,0.7-1.55,1.37-1.24
		C399.3,209.12,398.33,208.68,397.25,208.33z M379.6,236.16c-0.72,2.37,1.48,2.37-1,3.98c0.95,0.57,1.47-0.51,2.06-1.31
		c0.93,2.34,1.5,5.56,2.84,7.17c0.65-3.67-2.84-6.22-0.12-9.89C381.38,237.65,381.11,236.71,379.6,236.16z M395.08,201.38
		c0.85,2.11,0.87,4.71,2.33,6.41c0.14-2.27-1.18-3.63-1.06-5.93L395.08,201.38z M394.22,196.15c-1.3,0.52,0.02,2.95-0.24,4.2
		c0.42-0.17,0.85-0.32,1.42-0.08C396.16,198.11,393.88,198.03,394.22,196.15z M392.88,190.73c-1.67,1.15,0.04,3.61,0.09,4.96
		c1.35-0.05,0.69-0.67,1.01-2.1c1.4,0.06,0.98,1.42,2.38,1.5C396.44,192.08,394.28,191.61,392.88,190.73z M389.51,187.34
		c0.74,0.33,2.31,0.04,1.49,1.6c1.9-0.53,2.59,1.85,3.42-0.79c-0.61-0.95-3.89-0.11-3.56-2.84
		C390.07,185.25,389.67,186.03,389.51,187.34z M372.63,212.92c0.15,1.69,1.24,0.92,2.6,1.22c-0.18-0.91-0.71-1.55-0.89-2.44
		C373.47,211.3,373.4,213.06,372.63,212.92z M373.53,204.8c0.38,1.45,0.31,3.21,1.82,3.78c0.73-1.12-0.68-2.6,0.43-2.71
		C375.46,205,374.16,204.27,373.53,204.8z M371.24,193.96c-1.6,1.06,0.42,2.39,0.98,2.94C372.58,195.32,371.35,195.12,371.24,193.96
		z M376.49,181.59c-0.42,1.48,0.2,1.95,1.34,1.98C378.25,182.11,377.61,181.6,376.49,181.59z M362.67,191.49
		c-0.58,2.35,2.63,0.54,0.65,2.69c0.63,0.34,2.03,0.19,3.45-0.78c1.55,1.76,2.91,3.78,2.3,7.42l2.04,0.3
		c0.08,1.55-2.9,5.5-0.53,6.39c0.27-0.87,0.09-1.37-0.37-1.66c1.66-2.34,2.29,1.46,2.59,2.67c0.93-0.83,0.37-5.67-1.74-4.15
		c0.81-2.43,3.94-1.93,3.85,0.14c1.69-1.48-1.35-2.69-0.92-4.56c-0.84,0.26-0.32,0.95-0.42,1.58c-1.39-0.36-1.58-1.71-2.86-2.12
		c0.23-1.16,1.51-0.02,2.19-0.2c-1.4-2.23-5.58-3.17-4.13-7.26C366.53,192.52,365.06,191.79,362.67,191.49z M358.71,201.42
		l-0.42,1.56l1.56,0.1C360.34,201.71,359.76,201.33,358.71,201.42z M368.7,188.57c0-1.31-1.1-1.54-1.14-2.82
		C366.05,186.88,367.63,188.55,368.7,188.57z M366.03,180.16c-0.77,1.72,0.43,1.37,0.46,2.24
		C367.45,182.22,367.6,179.18,366.03,180.16z M362.06,183.93c1.26-0.01,1.4,1.18,2.17,1.68c-0.55,0.95-1.79,0.66-1.74,2.66
		c1.32,1.19,1.64-0.65,3.1-0.98c0.08-2.13-1.85-2.18-1.18-4.97C363.25,182.18,362.18,182.22,362.06,183.93z M361.11,193.05
		l0.44-2.11c-0.29,0.15-1.83,1.3-1.63-0.01C358.48,191.91,359.87,193.43,361.11,193.05z M361.36,189.87
		c-0.66-1.66,1.58-3.74-0.5-3.77C359.92,187.23,360.42,189.41,361.36,189.87z M370.57,166.08c-0.28,1.79,1.18,2.69,1.92,1.87
		C372.23,166.91,371.94,165.88,370.57,166.08z M368.62,160.18c0.12-1.87-1.88-1.19-2.91-1.64
		C365.53,160.5,367.18,160.18,368.62,160.18z M370.64,165.5c-0.5-1.95-1.18-3.76-2.5-4.74C367.11,162.77,369.31,164.63,370.64,165.5
		z M362.99,175.62c-0.24-0.82-0.01-2.2-1.4-1.7l-0.24,1.7H362.99z M361.02,177.86c-1.23-0.47-1.62,0.51-2.2,1.14
		C358.67,180.83,361.15,180.05,361.02,177.86z M357.46,177.38c0.01,1.06-0.22,2.39,0.87,2.18c0.6-0.84,0.85-2.29,1.64-2.8
		C359.9,175.59,358.32,177.59,357.46,177.38z M357.57,181.79c1.09-1.14-1.56-1.77-1-3.81C354.21,179.58,356.9,180.98,357.57,181.79z
		 M323.11,187.47c1.1-0.24,1.32,0.99,2.7,0.34c0.46-2.63-1.42-1.47-1.8-2.74C323.37,185.46,323.12,186.32,323.11,187.47z
		 M335.86,159.82c1,2.89,0.47,3.43,0.23,5.43C337.8,163.8,338.34,159.13,335.86,159.82z M339.84,150.7c0.28,2.06-1.1,3.66,0.8,3.19
		C341.26,152.87,341.35,149.79,339.84,150.7z M336.68,156.2l1.96-0.6c0.65-2.42-1.7,0.31-1.56-1.22
		C336.62,154.61,336.75,155.52,336.68,156.2z M332.2,150.54c1.11,1.87,2.43,3.26,4.49,3.4C336,151.29,334.11,147.38,332.2,150.54z
		 M332.35,154.96c0.04-1.99-0.66-2.66-2.04-1.97c0.28-2.92-2.04-0.77-2.1-3.06c-0.88,1.86,0.36,4.47,2.1,3.06
		c-0.28,0.63-0.37,1.43-0.31,2.37C331.46,153.6,330.64,155.92,332.35,154.96z M315.16,172.6c0.74,1.11,1.5,2.12,3.12,1.42
		C317.53,172.96,316.8,171.76,315.16,172.6z M332.38,145.91c-0.16,1.26-1.04,2.26-0.26,2.95c1.14-1.83,1.66-1.49,3.57-1.92
		c-0.13,1.13-1.1,1.44-0.69,3.08c0.84-0.07,1.05-0.77,1.59-1.14c-0.22-2.05-0.11-4.01-1.85-4.45c-0.69,0.68,0,1.04,0.09,1.69
		C333.98,146.11,333.61,145.15,332.38,145.91z M329.6,146.46c0.7,0.26,0.75,1.81,2.05,0.89
		C331.68,145.48,330.41,144.78,329.6,146.46z M326.91,142.38c0.01,1.97,1.75,0.22,2.46,0.7
		C328.93,142.05,328.09,141.84,326.91,142.38z M326,141.02c0.02-1.39-0.26-2.13-0.67-2.6C324.16,139.08,324.66,142.18,326,141.02z
		 M316.71,138.34c-0.22,0.66-0.23,1.48-0.08,2.43c1.53-1.04,1.6-0.21,1.4,1.56c1.4-0.85,0.99-1.23,2.26-1.27
		c-0.46-0.8-1.23-0.81-1.18-2.9C318.29,138.29,317.86,137.38,316.71,138.34z M312.16,132.61c-0.9,0.4-1.41,1.04-1.75,1.79
		c0.24,1.39,0.39,0.47,0.84,0.03c1.87,0.76,2.8,3.1,4.61,0.79C314.84,133.74,312.89,134.89,312.16,132.61z M297.4,156.08
		c-0.58,1.39,0.6,0.93-0.07,1.86c0.87,0.47,2.54-1.62,2.7,1.17C300.56,156.67,298.77,154.91,297.4,156.08z M310.35,141.05
		c-0.13-1.46-0.52-2.2-1.45-1.36C309.04,141.16,309.42,141.89,310.35,141.05z M315.34,126.92c0.12,1.88,1.28,0.9,1.62,2.17
		C317.67,128.15,316.29,126.02,315.34,126.92z M314.08,127.09c0.73,1.16,2.05-1.2,1.21-2.61
		C313.96,124.79,315.13,126.61,314.08,127.09z M293.13,150.88c0.2,1.42,0.57,2.07,1.37,1.09
		C294.33,150.57,293.93,149.9,293.13,150.88z M305.27,120.47c0.47,2.12,1.58,1.9,2.88,1.19
		C307.28,120.99,306.54,119.8,305.27,120.47z M281.4,145.43c-0.78,1.45-1.11,0.19-1.88,1.64
		C280.02,148.44,282.25,147.8,281.4,145.43z M295,115.53c0.17,1.74,0.92,0.94,1.17,2.34c1.63-2.5,2.03,0.28,3.34-0.81
		c-0.54-1.72-1.63-1.17-2.01-3.64C296.16,114.91,296.5,114.61,295,115.53z M289.72,110.58c-1.3,2.36,3.24,4.74,3.72,2.92
		C292.59,110.65,290.63,113.24,289.72,110.58z M262.79,141.38c0.88,2.19,1.9,1.23,2.92,0.93c0.02-0.72-0.17-1.49-0.54-2.28
		C264.27,142.04,263.65,139.52,262.79,141.38z M265.34,129.58c0.79,1.72,1.73,1.01,2.58,1.75
		C268.1,129.9,266.2,128.03,265.34,129.58z M267.27,119.84l2.35-3.12c-1.14-1.4-3.45,0.12-3.32,2.08
		C266.59,119.68,266.97,119.25,267.27,119.84z M251.08,138.42c1.06,2.18,2.04,2.32,3.03,0.56
		C253.1,137.71,252.06,137.14,251.08,138.42z M264.98,110.29c2.48,1.87,0.29,6.78-1.26,8.11c2.1,1.79,1.81-3.28,4.07-5.48
		c1.21-0.35,2.19,1.76,3.42,1.01c-0.21-2.65-2.82-0.49-1.37-2.86c-1.15-1.18-2.81,0.39-3.12-2.26
		C265.96,109.36,265.05,108.72,264.98,110.29z M258.16,121.78c0.92,0.68,1.87-0.07,2.82-0.29
		C260.07,121.03,259.15,119.73,258.16,121.78z M255.12,118.17l-1.05,1.7c0.59,1.68,1.21-0.32,1.79,1.37
		C256.04,120.23,255.43,119.2,255.12,118.17z M248.18,129.29c-0.65,1.06-0.13-1.34-1.05-1.67c-0.19,1.6-1.72,3.32-0.53,4.83
		c0.64-0.92,0.01-1.74,0.86-2.68c0.53,0.54,0.31,1.14,0.07,1.73c0.6,0.86,1.12-0.28,1.65-1.37c-0.66-0.74-0.16-1.44,0.19-2.16
		l-1.05-1.75C247.92,127.26,248.58,128.23,248.18,129.29z M229.55,139.43c-0.64,0.01-1.27,0.13-1.91,0.18
		c-0.36,2.28,1.64,1.49,1.05,3.08c0.31,1.21,1.38-0.28,1.75,0.69c0.69-0.1,0.89-0.79,0.61-2.08c1.77-2.51,5.11,0.93,7.54,1.02
		c0.6,0.02,1.36-0.63,2.14-0.53c0.68-0.55,1.69-0.85,2.3-1.67c-0.35,1.26-0.32,1.5-0.55,2.89c0.63,0.72,1.2,1.49,2.62,1.83
		c3.42,0.76,6.42,2.97,8.45,6.44c0.71,0.21,0.59-1.15,1.43-0.68c2.32,3.69,4.29,7.62,5.93,11.89c0.06-0.14,0.13-0.26,0.16-0.47
		c0.04,0.44,0.04,0.72,0.01,0.92c0.24,0.65,0.51,1.27,0.74,1.94c0.29-0.06,0.54-0.42,0.58-1.3c0.66,2.24,1.04-0.22,1.25,2.42
		c0.87-0.46,1.76-1.02,1.77-3.16c1.02-0.38-0.19,2.92,0.82,2.35c0.03-1.58,0.54-2.8,1.69-1.43c0.26,0.78-0.55,1.36-0.37,2.12
		c0.78,0.14,0.38-0.98,0.77-2.05c0.24,0.98,0.61,0.6,0.85,1.49c0.05,2.2-1.3-0.25-1.15,1.97c0.96,1.28,2.38-0.37,2.25-3.07
		c0.37,2.39,1.39,4.88,1.83,1.42c0.77,0.27,0.17,1.13,0.32,2.33c2.61-0.63,3.57,1.77,6.25,0.28c0.59,1.24-0.05,2.07,0.06,3.15
		c1.45-0.52,2.69-3.1,2.7,0.21c1.12-1.5,1.59,0.33,2.15-0.83c-0.3,0.48-0.14,1.16,0.01,1.85c0.66-1.08,4.38-2.92,3.42,0.69
		c1.38-1.4,3.01-1.8,3.86-3.17c0.16,4.58,5.14,2.41,2.98,5.66c0.56,1.58,1.44-2.05,1.69,0.58c0.06,1.78-1.12-1.08-1.19,1.17
		c0.56,1.21,2.1,2.65,2.88-0.59c-0.52,0.25-1.68-0.76-1.14-1.67c1.09,1.37,2.94,1.78,2.96,4.35c1.01-0.2,0.14-1.89,1.16-2.09
		c0.24,2.45,0.78,0.61,1.36,1.59c-0.1-1.25-0.17-2.48,0.16-3.4c-1.01,0.35-1.85,0.32-1.79-2.37c1.03-0.64,0.86,2.12,2.05,1.06
		c0.54,1.89-0.74,4.93,0.55,4.45c0.93-0.61,0.92-1.96,1.86-2.56l0.04,1.04c0.2-0.13,0.38-0.22,0.34,0.27
		c-1.01,0.71-1.91,1.5-2.18,2.8c1.24,0.14,0,1.23-0.56,2.58c0.6,1.48,1.39-0.93,2.54-1c0.36,2.44,2.33,4.24,3.94,0.63
		c0.08,2.23-1.74,2.57-1.97,4.49c0.73-1.06,1.92-1.68,2.58-2.82c0.29,1.52,0.8,2.48,2.2,1.63c0.03,1.83-1.9,1.71-1.45,3.96l2.3-1.49
		c-1.2,2.4,0.23,2.19,0.39,4.17c0.43-0.29,0.51-0.94,1.04-1.12c0.38,2.05,1.65,3.63,3.76,1.26c-0.88,1.99,0.42,3.16,1.42,1.72
		c-1.11,4.19,1.81,1.58,1.78,3.92c0.94-1.37,0.37-0.05,0.98,0.02c0.08-0.68,0.31-1.18,0.55-1.67c0.8,0.05,1.98-0.44,1.84,1.08
		c-0.96,0.42-1.36-1.38-2.12,0.94c1.42,0.31,0.95,3.44,1.53,4.98c0.19,0.22,0.38,0.45,0.57,0.68c0.79,0.12,1.49-0.32,2.18-1.76
		c0.06-2.97-2.02,1.52-2.15-0.61c1.45-0.42,1.84-2.43,2.88-3.46c-1.18,2.41,0.03,2.79,0.23,4.21c-0.9,0.67-1.82,1.28-2.15,2.8
		c0.06,0.08,0.13,0.15,0.19,0.23c0.6-0.37,1.46-1.69,1.47-0.53c-0.37,0.31-0.69,0.69-1,1.09c0.23,0.29,0.48,0.57,0.72,0.86
		c0.48,0.26,0.95,0.52,1.33,0.91c-0.1,0.23-0.12,0.41-0.17,0.61c0.28,0.36,0.55,0.74,0.83,1.1c0.67-1.99,2.33-3.97,2.37-1.75
		c-0.45,0.2-1.01,0.22-1.2,0.81c1.7,0.4,2.7,1.72,3.58,3.17c-2.34,1.06-2.36-1.44-4.42-1.8c0.64,0.87,1.28,1.73,1.91,2.62
		c0.14-0.09,0.27-0.19,0.38-0.33c0.05,0.3,0.01,0.71,0.07,1c0.05,0.07,0.09,0.14,0.14,0.2c0.13,0.14,0.33,0.19,0.81-0.07
		c-0.15,0.31-0.24,0.53-0.33,0.77c0.48,0.71,0.97,1.4,1.44,2.12c0.24,0.08,0.48,0.17,0.65,0.36c-0.15,0.09-0.18,0.17-0.26,0.26
		c1.29,2.01,2.51,4.06,3.69,6.15c0.11-0.24,0.2-0.51,0.29-0.79l1.8-0.17c-0.29,1.17-1.01,1.33-1.56,1.91
		c0.53,0.95,1.07,1.89,1.58,2.85c0.45-0.99,0.24-2.19-0.15-2.48c1.87-0.68,0.23,2.73,2.03,1.21c-0.39,0.94-0.98,1.42-1.58,1.87
		c0.8,1.54,1.58,3.09,2.32,4.66c0.31-0.21,0.63-0.45,1-0.83c-1.3-0.32-1.91-1.17-2.42-2.12c1.34-1.08,0.64,1.27,2.03-0.52
		c-0.08,2.33,2.58,4.05,1.88,5.86c0.15-0.5-0.09-0.71-0.32-0.92c-0.6,1.02-0.28,1.62-0.71,1.77c0.24,0.54,0.49,1.07,0.72,1.61
		c0-0.36,0.04-0.75,0.06-1.12c1.83-0.82,0.28,0.68,1.98,0.58c0.04-1.48-0.95-2.2-0.91-3.69c0.45-0.05,0.99,0.14,1.28-0.38
		c-0.39-0.79-0.71-1.34-1.81-0.1c0.2-1.81-0.11-3.16-1.23-3.17c1.11-0.2,0.58-1.42-0.39-0.88c0.23-0.62,0.57-0.99,0.9-1.36
		c-0.29-0.37-0.76-0.58-1.68-0.4c1.39-2.73-0.12-3-1.19-3.56c0.71-0.11,0.8-1.6,1.41-1.92c-2.7,0.08-0.61-6.07-3.92-4.24
		c0.93-1.93-0.64-1.32-1.28-1.62c0.16-1.41,0.88-1.81,1.2-2.95c-2.52,1.64-0.95-3.89-2.23-4.77c-0.55,0.22-0.82,0.94-1.34,1.21
		c-0.36-1.38-0.53-1.69-1.33-2.98c0.76-1.1,1.37,0.46,2.07-1.46c-4.34,2.17-4.23-3.82-5.49-5.55c-0.44,0.84-0.83,1.78-1.7,1.99
		c0.18-1.65-1.02-1.35-1.23-2.46c0.91-0.37,1.73-0.86,2.3-1.75c-0.9-2.34-2.85-3.67-4.54-5.19c-1.68-1.55-3.09-3.29-3.27-6.37
		c0.24,0.63,0.38,1.42,1.27,0.94c-0.16-1.36,0.62-1.59,0.57-2.8c-2.33,1.75-0.93-2.06-1.53-2.39c-1.06,0.14-1.09,1.41-2.16,1.61
		c0.6-2.33-0.05-2.17-0.21-3.45c-0.69,0.22-0.72,1.08-1.1,1.62c-0.29-1.27-2.85-0.56-1.99-2.49c0.59,0.16,0.52,1.61,1.71,0.59
		c-1.2-1.85,0.31-1.98,0.79-4.6c-1.12,0.16-1.34,1.2-1.77,2.03c-1.32-0.23-2.5-2.85-3.78-4.73c-0.77,1.73-1.68,0.98-2.74,1.81
		c-0.32-1.6,1.37-1.61,0.93-3.3c-1.65,1.57-2.43,1.18-3.44,1.33c-0.09,1,0.56,0.98,0.07,1.57c-0.23-1.55-1.48,0.01-1.65,1.22
		c-0.27-1.27-1.42-0.27-1.46-2.15c0.99-1.38,0.84,0.22,1.36,0.06c-0.32-1.58,0.63-1.35,0.96-1.26c-0.77-0.66-1.19-1.68-0.99-3.19
		c0.06,0.88,1.27,0.07,1.1-0.73c-0.82-2.3-3.31-0.08-4.58-1.05c0.84-0.69,2.08-1.06,1.48-2.86c-1.33,1.84-3.89,3.79-3.82,0.88
		c-0.02,0.72,1.14,0.98,1.04-0.32c-0.97-0.56-1.8-1.64-3.03-1.39c-0.26-1.11-0.23-2.04-0.05-2.89c-1.09,0.3-0.73,0.59-1.9,1.71
		c-0.08-1.05-0.52-0.84-0.63-1.81c-0.11-0.7,0.47-0.99,0.46-1.63c-1.87-3.06-4.18-0.78-6.37-1.05c0.57-1.26,1.1-2.55,1.41-3.94
		c-0.88,0.11-1.41-1.3-2.59,0.19c0.35,1.31,2.4-0.44,1.16,1.91c-1.06,0.22-1.61-1.59-2.35-3.83c-1.67,1.49,0.4,1.84-0.31,3.52
		c-2.06-3.03-5-1.73-7.08-1.54c0.67-1.33,0.84,0.26,1.41-0.43c-0.63-1.25,0.52-1.93-0.12-3.17c-3.31,3.75-5.12-1.8-7.89-1.58
		c0.79-0.65,0.91-1.51,0.31-2.57c-1.01,1.48-1.95,2.55-2.74,2.36c0.26-0.54,0.22-1.14,0.18-1.73c-2.2,1.26-4.07-1.56-6.31,0.6
		c0.44-0.65,0.49-1.38,0.36-2.13c-3.4,0.75-2.88-0.62-5.56-2.16c0.6-0.84,0.86-1.69,0.54-2.58c-1.2,2.22-0.79-1.42-1.84-0.1
		c-0.63,0.84-0.88,1.69-0.97,2.56c-0.44-0.78-0.9-1.21-1.36-0.94c-0.38,0.7,0.49,1.47,0.21,2.18c-1.69-1.17-0.88-1.61-2.72-1.87
		c0.36,0.88,1.37,1.8,0.47,2.62c-1.84-3.57-5.93-1.61-4.71-6.26c-1.21-1.12-2.29,1.08-3.48,0.63c0.21-0.6,0.65-1.21,0.38-1.77
		c-1.28,1.41-1.37-2.09-2.68-1.09c-0.39,1.91,0.49,3.72,0.13,5.64c-0.61-2.56-3.14-4.2-3.3-0.6
		C236.95,138.97,233.28,139.28,229.55,139.43z M230.32,132c0.98,1.62,1.46-0.28,2.04-1.75C231.41,128.8,231.02,131.7,230.32,132z
		 M251.93,111.12c-1.47-1.62-2.88,0.72-4.37-0.96c-0.22,0.58,0.39,1.17,0.05,1.74C249.1,113.87,250.46,110.7,251.93,111.12z
		 M242.27,125.83c1.17,1.07,2.25-2.02,2.83,1.06C245.66,123.49,242.66,121.87,242.27,125.83z M240.15,121.24
		c-1.08,0.7-2.08,2.11-3.16,2.49c0.83,0.59,1.69,1.66,2.48,1.93l1.1-2.27C239.92,122.72,239.71,122.01,240.15,121.24z
		 M246.22,123.77c1.49,1.13,1.88-0.14,2.21-2.32C246.7,121.18,247.92,123.72,246.22,123.77z M259.37,98.34
		c-0.62,0.99,0.05,2.03,0.75,3.08C261.03,100.26,259.94,98.33,259.37,98.34z M250.36,92.42c0.77-0.86-0.55-1.75-0.02-2.6
		C248.9,89.09,248.96,92.95,250.36,92.42z M250.73,100.67c0.34-0.71-0.77-1.45-0.31-2.17c1.44,0.02,2.03,0.54,2.88,2.67
		c1.16-1.26,2.25,1.81,3.43-0.75c0.31,1.65,2,0.61,1.37,2.23c1.56,0.72,0.59-2.25,0.37-3.03c-0.93-1.22-1.9-0.29-2.83-2.72
		c0.7-1.24,1.33,1.39,2.04-0.36c-0.42-1.25-1.75-0.21-0.54-1.76c-0.96-0.56-1.94-0.99-2.93-0.97c-0.3-0.85,0.5-0.36,0.91-1.28
		c-0.67-1.77-1.37-1.3-2.08-1.34c0.38,2.3-0.41,0.77-1.49,2.14c0.03,0.73,0.35,1.46,0.88,2.19c-0.48,0.51-0.98-1.16-1.46-0.46
		c-0.12-0.73,0.36-1.44-0.31-2.18C249.54,96.47,248.16,98.25,250.73,100.67z M228.31,115.27l0.85-1.95
		c-1.29-1.81-0.99,0.84-1.62,0.37C227.35,114.32,227.96,114.76,228.31,115.27z M232.94,112.51c0.36-2.53-3.63-0.08-1.78-3.59
		c-0.72-1.37-1.1,0.22-1.75-0.5c0.19,1.28,0.57,2.52,0.2,3.92l-0.65-0.73C229.55,114.83,231.7,111.47,232.94,112.51z M237.76,111.03
		c-1.26,1.37-2.87-1.18-4.14,0.03c0.47,0.53,0.93,1.05,0.72,1.66C235.99,112.66,236.78,113.01,237.76,111.03z M239.21,108.28
		c-0.73-1.08-1.34-0.54-2.04-1.09C236.51,109.18,238.55,109.9,239.21,108.28z M243.99,103.48c-1.98-1.18-3.07-0.58-4.48-3.5
		c-1.31,0.59-2.74-0.22-3.81,3.02c0.04-1.31,0.39-2.66-0.04-3.92c-0.8-0.28-1.58-0.2-2.32,0.27c-0.26,1.04-0.86,2.14-0.57,3.12
		c-1.3-0.19-0.75,1.36-2.27,0.45c1.61,3.84,5.44,1.86,6.72,1.22c-0.65,1.51-0.1,2.19,1.57,2.01c0.17-0.74,0.12-1.46-0.44-2.13
		C240.15,104.34,243.25,105.81,243.99,103.48z M239.88,113.86c0.11-1.95-2-2.67-2.53-1.04C238.27,114.02,239,113,239.88,113.86z
		 M243.67,108.73c-0.56-0.68-0.31-1.43-0.93-2.1l-1.01,1.83C242.44,109.67,243.09,110.06,243.67,108.73z M245.54,107.27l1.31-2.28
		c-1.43-1.1-0.1-3.08-1.51-2.93c-1.25,1.26,1.02,2.24,0.69,3.44c-0.64,0.21-1.34-0.8-1.97-0.28
		C243.56,106.9,245.18,106.26,245.54,107.27z M245.21,112.52c-1.24-0.77,0.6-1.79-0.66-2.56c-0.72,0.02-1.58,1.6-1.5,2.74
		C243.83,113.69,244.54,113.64,245.21,112.52z M233.63,126.01c-0.55,0.99,0.64,1.63,0.29,2.58l-0.59,1.44l0.89,1.14
		c0.77-1.63,0.4-3.01,1-4.6C234.52,124.74,234.34,127.83,233.63,126.01z M221.11,140.36c0.2,0.6,0.38,1.22,0.5,1.82
		c1.77,2.62,4.1,2.57,5.08,8.15c0.28-2.08-0.22-1.49,1.05-0.99c0.21-0.19,0.17-0.7,0.47-0.79c-1.33-2.06-0.86-6.59-2.84-8.71
		C223.96,140.01,222.53,140.15,221.11,140.36z M219.52,137.11c0.3,0.4,0.59,0.9,0.86,1.46c0.2-0.44,0.54-0.61-0.09-1.67
		C220.12,137.43,219.77,137.06,219.52,137.11z M222.2,130.87l0.96,1.02c0.23-0.65,0.47-1.31,0.69-1.95
		C223.23,129.8,222.46,128.94,222.2,130.87z M212.7,138.56c0.4,0.26,0.82,0.65,1.24,1.17c0.76-0.35,1.46-1.02,1.86-2.14
		C214.63,137.32,213.67,137.95,212.7,138.56z M214.06,134.62c1.22,1.46,1.67-0.36,2.44-0.88
		C215.36,132.53,214.4,132.28,214.06,134.62z M213.05,139.99c-0.11-0.44-0.22-0.89-0.38-1.41c-0.53,0.34-1.07,0.67-1.64,0.84
		C211.5,139.88,212.26,140.09,213.05,139.99z M217.38,149.3c0.74-3.97,2.94,1.5,4.86-0.28c-1.66-0.18-2.17-3.35-3.39-3.01
		c0.01-1.14,0.05-2.28,1.07-2.43c-0.28-1.05-0.57-2.04-0.89-2.95c-0.24,0.03-0.48,0.07-0.73,0.1c0.08-0.6,0.25-0.83,0.44-0.9
		c-0.46-1.12-0.99-1.93-1.68-2.1c0.06-0.23,0.13-0.34,0.2-0.52c-0.35-0.02-0.69-0.01-0.99,0.2c-0.01,0.75,0.03,1.49,0.24,2.16
		c1.58,1.12,1.93,2.64,2.66,4c-0.81-0.64-1.08,1.1-2.03-0.18c0.16-0.95,1.02-2.16-0.11-2.66c-0.59,0.7-1.41,0.51-2.25,0.26
		c0.21,0.35,0.42,0.72,0.64,1.13c0.02-0.15,0.06-0.21,0.07-0.39c0.63,0.63,0.76,1.31,0.64,1.88c0.47,1.09,0.94,2.29,1.37,3.68
		c-0.55-0.39-1.01-1.28-1.67-1.16C215.52,147.71,216.89,147.79,217.38,149.3z M171.85,204.32c0.92,0.98,1.84,1.98,2.3,1.09
		c-0.49-0.53-0.68-1.02-0.86-1.5C172.84,204.15,172.31,204.08,171.85,204.32z M167.86,208.1c1.18-1.4,0.91,0.43,1.45,1.51
		c0.08-0.89,0.93-3.39,0.19-3.3c-0.66,1.38-1.16,0.8-1.98-0.59c-0.22,0.53-0.81,1.03-0.38,1.64
		C167.95,206.09,167.41,207.54,167.86,208.1z M168.41,211.15c-0.35-0.65-0.68-3.88-1.47-2.48
		C168.1,209.39,166.69,211.46,168.41,211.15z M167.72,213.37c-0.76,0.55-0.82,1.13-1.29-0.77c-0.23,0.44-0.56,0.52-0.9,0.58
		c1.14,0.74,0.41,1.35,1.15,2.07C166.7,214.03,168.64,214.85,167.72,213.37z M172.88,209.47c0.15-1.38,0.99-0.11,1.42-0.41
		c-0.96-1.95-1.27-1.51-2.65-2.43c0.1-0.17-0.08-0.66-0.35-0.39C171.56,207.72,172.18,207.64,172.88,209.47z M169.5,220.66
		c0.31-0.57,0.04-0.93-0.6-1.01c0.35-0.84-0.15-1.75-0.35-2.64C167.87,218.18,168.25,219.4,169.5,220.66z M175.73,212.56
		c-1.94-1.22-2.52-3.19-3.91-2.28c0.5,0.51,0.71,0.98,0.9,1.44C173.31,211.11,174.5,212.74,175.73,212.56z M170.91,226.77
		c0.66-0.7-0.78-3.16-1.86-2.93c1.03,1.21,1.06,2.04-0.21,1.58c0.54,0.44,0.78,0.87,1.01,1.3
		C170.07,226.38,170.31,226.09,170.91,226.77z M170.86,232.61c-0.35-1.34-4.16-2.97-2.53-0.34
		C169.03,232.01,170.04,232.52,170.86,232.61z M170.71,239.31c0.24-1.79,1.68-2.41,0.41-3.66c-0.08,1.17-1.33-0.24-1.41,0.94
		c3,1.95-1.34,0.71,0.08,2.45C169.98,238.44,170.34,238.61,170.71,239.31z M167.96,245.21c-0.26,0.74-1.06,0.47-1.1,1.62
		C168.03,248.07,168.59,245.62,167.96,245.21z M164.51,252.1c0.63,0.22,1.17,0.25,1.54,0.02c0.04-0.3,0.04-0.62,0.07-0.92
		c-0.91,0.11-1.54-0.06-2.19-0.46C164.17,251.25,164.35,251.69,164.51,252.1z M165.35,265.04c0.01-0.02,0.01-0.05,0.02-0.07
		c-0.02,0.01-0.04-0.01-0.07,0C165.32,265,165.32,265.02,165.35,265.04z M160.55,282.54c-1.06,1.66,0.19,3.31,1.35,4.68
		c0.05-0.54,0.11-1.08,0.16-1.61C161.57,284.69,161.16,283.68,160.55,282.54z M106.27,346.27c0.58,1.48,0.61,3.1,2.51,4.22
		C109.26,348.83,107.57,346.29,106.27,346.27z M140.6,263.89c1.19-0.44,0.5-2.09-0.42-2.43C138.56,262.3,139.89,262.51,140.6,263.89
		z M135.32,263.23c0.55,0.66,2.63,2.02,2.05,2.74c0.81,0.35,2.01,0.2,2.16-0.53c-2.27-0.06-1.69-1.27-1.67-2.91
		c-0.49,0.15-0.63,0.42-0.54,0.79C136.63,263.44,136.26,262.14,135.32,263.23z M93.06,317.08c0.04,0.7,0.38,1.4,0.96,2.08
		c1.72-2.69,3.92-1.99,3.88,0.67c1.47-1.56-0.04-2.99-0.31-4.5C96.07,318.35,94.58,314.89,93.06,317.08z M104.08,273.55
		c1.44-0.58-0.33-1.98,0.74-2.65C103.69,269.98,102.78,272.5,104.08,273.55z M106.62,260.07c-1.39,1.58,0.15,4.13-0.03,6.08
		C107.9,264.54,107.29,262.35,106.62,260.07z M102.94,249.47c0.96,0.53,0.87,0.93-0.37,1.57c0.39,0.27,0.77,0.56,1.07,1.27
		C104.87,252.08,104.36,248.11,102.94,249.47z M108.26,255.75c1.49-0.53,1.09-1.77,0.71-3.02
		C107.97,253.44,107.73,254.46,108.26,255.75z M110.12,243.69c-1.19-2.51-4.06-4.17-5.49-1.25c1.37-0.03,2.94-0.84,3.68,1.68
		c-1.88,0.02-2.02,0.24-3.63,0.93c0.67,1.3,1.21,2.51-0.34,2.85c1.53,2.83,1.79,3.21,2.02,5.88c1.22,0.41,1.57-1.82,1.11-3.32
		c1.29-0.23,0.03,2.36,1.68,1.52C110.79,249.82,107.23,245.33,110.12,243.69z M136.23,198.93c0.5-0.85,0.66-3-0.31-3.93
		C134.68,195.17,135.5,198.28,136.23,198.93z M196.02,124.66c1.66,1.4,2.65,0.8,3.37-0.8C198.5,124.84,196.61,122.64,196.02,124.66z
		 M255.32,98.18c1.01-0.84-1.55-1.79-0.54-2.62c-0.49-0.47-0.98,0.69-1.48,1.25C253.98,97.99,254.66,97.52,255.32,98.18z
		 M225.78,140.91c-0.34-0.05-0.67-0.08-1.08-0.58c0.1,0.72-0.02,1.5-0.3,2.34C225.28,144.37,225.33,141.63,225.78,140.91z
		 M247.84,144.1c0.34-1.04,0.06-2.03,0.09-3.05c-0.4-0.43-0.73,0.78-1.08,1.38C247.69,142.52,247.16,143.01,247.84,144.1z
		 M174.06,123.91c2.01-0.52,1.39-1.75,1.91-2.85c-0.02-0.92-0.59-0.02-1.28-0.58C175.3,121.86,174.05,121.74,174.06,123.91z
		 M339.03,139.46c1.29-2.25-2.02-0.47-2.06,0.71C337.64,142.25,338.83,137.81,339.03,139.46z M375.14,149.14
		c-1.08-0.36-0.85-2.32-2.61-1.82c0.94,1.8,3.26,1.96,3.34,4.79c2.96-2.95,2.46,5.75,5.19,6.56c0.43-0.43,0.43-1.61,1.07-1.69
		c-1.08-1.18-3.17-1.16-2.29-4.53c-2.17-1.01-2.78-3.75-4.13-5.68C375.08,146.94,375.26,148.25,375.14,149.14z M344.39,163.47
		C344.39,163.47,344.39,163.47,344.39,163.47C344.39,163.47,344.39,163.47,344.39,163.47C344.39,163.47,344.39,163.47,344.39,163.47
		z M179.81,116c-0.86,1.61-2.13,2.2-2.45,5.08C178.35,120.97,179.11,119.06,179.81,116z M341.24,141.05
		c-0.44-1.06-1.33-1.33-2.58-0.89C339.08,141.27,339.78,141.82,341.24,141.05z M348.28,157.05c-0.48,0.19-0.73,0.04-0.81-0.38
		c-0.26-1.01-0.66,0.75-0.02,0.56c-0.3,0.81-0.91,1.24-1.67,1.5C346.15,159.87,348.51,158.55,348.28,157.05z M347.18,163.9
		c0.78-0.38,0.83-1.76,2.08-1.49C348.67,160.82,345.89,162.07,347.18,163.9z M344.39,163.47c0.37,0.47,0.72,0.95,1.14,1.35
		C346.65,164.07,345.44,162.63,344.39,163.47z M370.43,143.74c2.1-1.51,2.68,1.72,4.39,2.41c-0.28-0.18-1.87-6.23-3.42-4.83
		c0.09-2.45-0.84-3.61-2.16-4.21C369,140.24,370.4,141.09,370.43,143.74z M230.22,71.85c0.55,0.51,1.08,1.02,0.8,1.64
		c0.58,0.39,1.03-0.86,1.53-1.5c-0.93-0.55-1.79-0.27-2.7-0.53C229.6,72.07,230.06,72.11,230.22,71.85z M342.35,118.71l1.3-0.38
		c0-1.4,0.07-2.85,1.24-0.97c1.11-0.46-0.72-0.86-0.29-2.38c-0.75,1.24-0.57,0.1-1.75,0.5C343.4,117.21,341.45,116.65,342.35,118.71
		z M380.65,147.6c-1.79-3.19-5.87-5.89-5.1-10.52C373.44,140.75,378.56,147.37,380.65,147.6z M280.63,72.79
		c-1.12,0.13-2.1-0.98-3.33,0.11C278.23,74.37,279.32,74.3,280.63,72.79z M240.46,71.98c-1.24,0.55-3.69,0.25-3.81,2.14
		C238.01,75.06,239.23,73.92,240.46,71.98z M305.49,107.9c0.31,1.86,1.43,0.77,1.91,2C307.99,109.18,306.61,106.22,305.49,107.9z
		 M302.89,108.49c0.46-0.55-0.1-1.57-0.29-2.42l-1.51,1.16C301.54,108.23,302.44,107.48,302.89,108.49z M307.79,106.35
		c-0.41,1.51,2.02,2.36,2.75,3.45c-1.01,2.23,0.63,5.15,1.14,6.33c0.65-2.3,0.62-5,0.82-7.57c-1.44,3.94-1.52-1.59-3.4-2.41
		C308.72,107.14,308.33,107.37,307.79,106.35z M294.64,100.81c-0.82-0.93-1.66-1.88-2.81-1.16
		C292.71,100.36,293.4,101.88,294.64,100.81z M282.48,89.69c-1.44-0.07-2.98,0.79-4.19-1.15C278.16,90.71,281.94,92.35,282.48,89.69
		z M264.92,82.35c-1.19-1.18-2.59,1.89-3.72-0.46c-0.54,0.99,3.86,3.82,5.52,1.59C266.28,83.03,264.24,84.34,264.92,82.35z
		 M315.86,114.81c0.51-0.5,0.01-1.58-0.12-2.45c-1.03,0.54-1.73,0.12-2.13-1.26c-1.4,0.4-0.33,1.48,0.27,1.11
		c0.25,0.94,0.05,1.62-0.38,2.15c0.31,0.64,0.9,0.44,1.18,1.18C314.41,114.57,314.92,111.72,315.86,114.81z M277.1,88.23
		c-1.44,0.59,0.54,1.84-0.9,2.46c1.16,1.01,1.33,4.39,3.32,2.61C279.61,89.83,276.35,91.91,277.1,88.23z M266.54,86.07
		c-0.67-0.76-1.5,1.14-2.11-0.73c-0.71,3.02-2.3,0.23-3.78,2.19c1.25,1.45,2.64,0.05,3.8,2.62c0.59-0.93-0.08-2.04-0.12-3.07
		C265.22,86.37,266.43,88.12,266.54,86.07z M314.13,119.01c-0.2,1.86,2.6,2.54,3.48,4.14c1.25-0.89-1.48-1.92-0.14-3.05
		C316.84,120.28,314.87,120.94,314.13,119.01z M326.02,121.94c-0.27-0.67-0.87-0.55-1.1-1.32c-1.31,0.19-0.51,1.93-1.81,2.13
		C323.97,123.2,324.35,122.25,326.02,121.94z M320.63,120.91c-0.4,0.36-0.06,1.27-0.58,1.55c0.95,0.26,1.51,1.54,2.76,1.05
		C322.14,122.49,321.16,122.3,320.63,120.91z M317.83,115.52c1.15,1.48,2.57,4.04,4.26,1.52
		C320.52,116.95,320.15,113.49,317.83,115.52z M318.17,121.6c0.89,1.24,1.81-1.59,1.64-2.76
		C318.55,117.92,318.78,120.59,318.17,121.6z M324.17,129.52c-1.47,0.38-1.82,1.62-2.59,2.53
		C323.94,132.85,323.93,134.52,324.17,129.52z M143.2,240.02c0.43-1.22,1.85-4.92,1.68-7.02
		C144.18,234.76,142.48,238.19,143.2,240.02z M160.38,193.08c0.21,1.57-1.94,2.96-1.53,4.55
		C159.24,196.57,161.75,195.01,160.38,193.08z M142.11,240.37c0-0.36,0.22-0.81-0.19-1.04c0.12,1.68-1.59,5.9,0.85,5.55
		c-1.49-1.93,0.5-1.72,1.23-2.58C142.42,241.41,142.78,240.8,142.11,240.37z M153.2,221.95c1.01-1.71,1.53-1.23,2.7-1.26
		c-1.35-0.79-0.91-1.64-1.97-1.57C154.39,220.77,152.5,220.47,153.2,221.95z M140.24,241.74c0.43-0.13,1.96-2.22,0.29-2.69
		C140.56,239.9,139.31,241.19,140.24,241.74z M154.68,179.28l-0.95,1.42C154.87,182.51,156.18,180.57,154.68,179.28z M155.94,180.15
		c0.43,0.67,0.19,1.26,0.56,1.92c1.36-0.15,1.57-0.68,2.23-2.34C156.86,177.37,157.33,181.43,155.94,180.15z M200.78,146.84
		c1.48,0.35,1.35-0.08,2.7,0.32c-1.44-4.09-3.44-4.45-5.48-4.67C197.9,144.94,200.17,143.37,200.78,146.84z M187.29,150.73
		c1.13,1.31,2.16,3.88,3.39,3c-0.29-0.68,0.03-1.02-0.43-1.8C188.73,153.48,189.07,148.49,187.29,150.73z M193.22,148.89
		c0.98,0.25,1.93,0.79,2.87,1.34c-0.7-2.15-1.51-3.27-2.44-3.08C194.02,148.02,192.96,148.06,193.22,148.89z M173.45,163.51
		c1.65,1.04,1.58-0.42,2.96-0.91c-0.35-0.64-0.05-1.04-0.58-1.74C174.83,162.71,172.91,160.86,173.45,163.51z M164.92,218.82
		c-0.95,0.58-2.72,0.73-1.8,2.62c0.25-0.85,0.68-1.16,1.4-0.65c-0.13,2.57-2.6,3.25-1.14,5.86c0.76-2.65,1.44-1.91,2.68-2.27
		C165.45,222.55,165.82,220.72,164.92,218.82z M152.77,229.67c2.25,2.57-0.98,2.09-0.69,4.58c2.81,0.78,1.54-3.72,3.14-4.26
		C153.95,228.78,153.6,229.81,152.77,229.67z"/>
	<g>
		<path class="st2" d="M330.12,207.47c-17.28-23.91-40.25-37.08-64.73-37.09c-50.43,0-91.48,56.74-91.5,126.49
			c0,22.3,4.21,44.07,12.22,63.25l-12.98,65.56l48.51-17.6c13.36,10.09,28.41,15.39,43.73,15.4h0.04
			c50.43,0,91.48-56.75,91.5-126.51C356.91,263.17,347.4,231.39,330.12,207.47 M265.4,402.11h-0.03
			c-13.65-0.01-27.03-5.07-38.71-14.65l-2.78-2.29l-28.79,10.45l7.68-38.81l-1.81-3.97c-7.61-16.74-11.63-36.09-11.63-55.96
			c0.02-57.97,34.14-105.13,76.09-105.13c20.32,0.01,39.41,10.96,53.77,30.83c14.36,19.87,22.26,46.29,22.25,74.38
			C341.43,354.95,307.32,402.11,265.4,402.11"/>
		<path class="st2" d="M307.11,323.36c-2.29-1.59-13.52-9.23-15.62-10.29c-2.1-1.04-3.62-1.58-5.14,1.59
			c-1.53,3.16-5.91,10.28-7.24,12.39c-1.33,2.11-2.67,2.37-4.95,0.79c-2.29-1.58-9.65-4.92-18.39-15.68
			c-6.79-8.38-11.38-18.74-12.71-21.9c-1.34-3.16-0.15-4.87,1-6.45c1.03-1.41,2.29-3.69,3.43-5.54c1.14-1.84,1.52-3.16,2.29-5.27
			c0.76-2.11,0.38-3.96-0.19-5.54c-0.57-1.58-5.14-17.13-7.05-23.47c-1.85-6.17-3.74-5.33-5.14-5.43c-1.33-0.09-2.86-0.11-4.38-0.11
			c-1.52,0-4,0.79-6.1,3.96c-2.09,3.16-8,10.81-8,26.36c0,15.57,8.19,30.59,9.34,32.7c1.14,2.11,16.12,34.04,39.05,47.73
			c5.45,3.26,9.71,5.21,13.03,6.67c5.47,2.4,10.46,2.06,14.4,1.25c4.39-0.91,13.53-7.65,15.43-15.03
			c1.91-7.38,1.91-13.71,1.33-15.03C310.92,325.73,309.4,324.95,307.11,323.36"/>
	</g>
</g>
</svg>
