<?xml version="1.0" encoding="utf-8"?>
<!-- Generator: Adobe Illustrator 27.1.1, SVG Export Plug-In . SVG Version: 6.00 Build 0)  -->
<svg version="1.1" id="Layer_1" xmlns="http://www.w3.org/2000/svg" xmlns:xlink="http://www.w3.org/1999/xlink" x="0px" y="0px"
	 viewBox="0 0 566.93 566.93" style="enable-background:new 0 0 566.93 566.93;" xml:space="preserve">
<style type="text/css">
	.st0{fill:#00B585;}
	.st1{fill:#00AB4E;}
	.st2{fill-rule:evenodd;clip-rule:evenodd;fill:#FFFFFF;}
</style>
<g>
	<g>
		<path class="st0" d="M389.35,103.51c0.15,0.83-0.26,1.58-0.86,0.94C388.57,103.9,388.91,103.65,389.35,103.51z M430.96,117.56
			c-1.28-1.38-3.04,0.58-4.09,0.97C428.36,119.01,429.34,116.94,430.96,117.56z M454.89,108.57c0.62,0.59,1.29-0.16,1.49-0.72
			C455.97,108.18,454.84,107.75,454.89,108.57z M453.93,99.99c0.3-0.52,1.06-0.56,0.82-1.66C454.35,98.74,453.62,98.81,453.93,99.99
			z M457.38,107.98c1.41-0.17,2.37-0.38,3.34-1.53C459.7,106.56,457.64,106.86,457.38,107.98z M469.62,113.51
			C467.04,113.48,469.22,115.16,469.62,113.51L469.62,113.51z M467.43,100.44c0.45,0.19,1.82-0.29,2.2-0.89
			C468.7,99.52,467.92,99.53,467.43,100.44z M467.32,98.26l0.89-0.21C468.15,96.94,466.72,97.28,467.32,98.26z M464.08,78.83
			c-0.51-0.11-1.01,0.21-1.02,0.98C463.37,80.13,464.22,79.7,464.08,78.83z M468.44,80C470.42,79.47,469.38,78,468.44,80L468.44,80z
			 M431.98,89.4c-0.94-0.43-1.53,1.08-2.51-0.14c0.01,0.71-0.32,1.04-0.46,1.58C429.99,89.53,431.57,91.17,431.98,89.4z
			 M459.3,115.97c0.31,1.55-1.6,0.76-1.42,2.17c1.58-0.96,6.42-0.79,7.75-3.32c-1.78,1.46-3.88-1.11-4.27,1.02
			c-0.15-0.47-0.15-0.77-0.14-1.07c-0.75,0.21-1.07,0.87-2.03,0.85c-0.13-0.44,0.08-0.53-0.14-1.07c-0.41,0.4-0.61-0.37-0.99-0.13
			C458.27,116.06,458.99,114.89,459.3,115.97z M467.45,93.82c-0.12,0.64-0.56,0.93-0.64,1.62
			C467.48,96.26,467.63,93.84,467.45,93.82z M86.07,257.89c-0.4,0.31-1.57-0.08-1.44,0.72C85.21,259.14,85.91,258.49,86.07,257.89z
			 M78.6,243.49c-0.9,0.47-2.28,0.5-2.38,1.68C77.53,245.07,78.34,244.53,78.6,243.49z M80.75,288.6c-0.9-0.79-1.07,0.48-1.6,0.77
			c-0.48-0.17-0.95-0.38-1.49-0.36c-0.16,1.51-3.93,1.04-3.09,2.62C76.2,289.7,79.79,291.08,80.75,288.6z M59.38,289.55l-0.86,0.21
			c0.18,0.6,0.4,1.05,0.66,1.31C59.78,291.03,59.73,290.43,59.38,289.55z M48.22,286.85c-0.38-0.29-1.41,0.21-1.27,1.08
			C47.62,287.79,48.09,287.46,48.22,286.85z M46.81,295c0.41-0.84,1.67-0.96,1.88-1.98C47.95,293.43,45.75,293.84,46.81,295z
			 M45.99,288.55c-0.71,0.6-1.98,0.71-2.23,1.7C44.61,289.77,45.95,289.72,45.99,288.55z M43.34,290.37
			c-0.8,1.28-2.86,0.09-3.53,1.3C40.79,291.53,42.82,292.25,43.34,290.37z M43.26,304.07c-0.43,0.34-1.68-0.02-1.57,0.79
			C42.49,304.81,43.08,305.06,43.26,304.07z M39.92,300.52c-0.7-0.12-0.38,0.62-0.94,0.62c-0.21-0.53-0.39-1.18-0.79-0.9
			C38.51,302.14,40.01,301.48,39.92,300.52z M44.99,295.11c-0.12,0.03-0.34-0.21-0.12-0.34c1.93-0.73-1.04-0.41-0.95,0.62
			C44.12,295.55,45.21,295.92,44.99,295.11z M37.09,299.79C37.09,299.79,37.09,299.79,37.09,299.79
			C37.09,299.79,37.09,299.79,37.09,299.79C37.09,299.79,37.09,299.79,37.09,299.79z M37.09,299.79c0.88-3.64,6.23-0.36,6.62-4.34
			c-3.34,2.55-8.22,1.53-11.12,4.79c-0.41-0.27-0.91-0.12-1.31-0.39c-0.32,2.48-4.59,1.21-5.81,2.64c1.39,0.95,3.41-0.02,4.72-0.51
			l0.5,1.35C32.04,300.51,35.41,300.37,37.09,299.79z M37,300.18c0.02-0.15,0.06-0.26,0.09-0.39
			C36.86,299.84,36.61,300.09,37,300.18z M520.38,217.67C517.23,217.98,520.02,219.36,520.38,217.67L520.38,217.67z M516.55,205
			c0.56,0.14,2.14-0.51,2.54-1.15C517.97,203.94,517.05,204.05,516.55,205z M516.21,202.87l1.03-0.32
			C517.06,201.46,515.4,201.97,516.21,202.87z M515.49,184.79C517.71,184.06,516.32,182.75,515.49,184.79L515.49,184.79z
			 M515.91,198.47c-0.07,0.64-0.57,0.99-0.58,1.67C516.19,200.88,516.13,198.47,515.91,198.47z M153.33,435.38
			c0.5-0.11,0.92-0.34,1.13-0.89C154.02,433.77,153.4,434.51,153.33,435.38z M86.68,434.2c-0.4,0.52-1.18,0.51-1.12,1.65
			C86.04,435.45,86.8,435.42,86.68,434.2z M72.81,435.3l-0.93,0.18C71.78,436.62,73.29,436.34,72.81,435.3z M74.6,454.33
			c-0.28-0.34-1.16,0.05-1.13,0.94C73.96,455.42,74.48,455.12,74.6,454.33z M69.31,453.85C67.29,454.28,68.16,455.82,69.31,453.85
			L69.31,453.85z M106.81,446.46c0.86,0.51,1.76-0.99,2.5,0.33c0.13-0.73,0.54-1.04,0.79-1.58
			C108.83,446.49,107.57,444.68,106.81,446.46z M72.06,439.83c0.21-0.65,0.7-0.93,0.87-1.63C72.37,437.34,71.88,439.8,72.06,439.83z
			 M456.27,382.44c0.18-1.07,0.34-2.25,0.36-2.67c-0.24,0.71-0.41,1.5-0.39,0.23c0.25-3.06,0.53-5.44,0.38-7.11
			c-0.22-0.81-0.69,1.9-1.11,3.8c-0.39,1.88-0.59,2.89-0.72-1.27c-0.89-3.85-2.64-2-4.47-2.24c-1.25-0.19-2.72-1.03-4.21-0.92
			c-1.45,0.08-2.83,1.57-4.5-0.02c-1.04,2.01-2.56,0.41-4.12,0.38c-4.53-0.12-8.52,4.18-14.37,2.94c-2.61,2.44-7.3,2.09-10.63,1.6
			c-3.51,2.91-8.04,0.85-11.47,2.08c-2.31,0.82-4.16,2.52-6.38,2.79c-0.72,0.09-1.5-0.46-2.19-0.27c-2.12,0.57-3.93,2.3-6.23,2.4
			c-2.14,0.11-4.35-1.53-6.2,0.85c-6.1-0.5-13.49,5.21-20.93,4.71c-0.52-0.04-0.92-0.52-1.43-0.48c-4.75,0.38-8.69,4.26-13.17,2.32
			c-5.04,1.79-11.43,3.05-16.76,3.18c-4.57,2.72-9.57,2.17-14.23,2.67c-3.48,0.36-7.08,2.68-10.73,3.46
			c-1.3,0.28-2.69-0.44-3.94-0.13c-1.89,0.47-3.65,2.01-5.57,2.31c-3.36,0.51-6.64,0.88-10.05,1.45c-3.04,0.51-6.08,2.61-9.13,3.14
			c-1.13,0.2-2.32-0.83-3.45-0.6c-0.74,0.14-1.45,1.12-2.08,1.39c-3.63,1.51-8.47,1.56-12.83,2.5c-6.08,1.33-11.57,2.24-17.91,4.62
			c-4.76-0.18-9.86,2.3-15.05,3.47c-6.6,1.5-13.69,2.73-20.53,4.56c-7.32,1.96-14.75,4.79-21.78,4.75
			c-0.28-0.81-0.74-1.27-1.23-1.66c-0.77,0.03-0.49,1.76-1.35,1.65c-0.67,0.36-0.36-1.3-0.83-1.35c-6.14,0.76-12.31,1.17-17.95,1.38
			c-0.99,0.2-0.09-1.22-0.84-1.35c-3.27,0.81-8.09,0.72-12.1,1.72c-1.62,0.4-3.45,0.4-5.05,0.38c-0.43-0.01-0.24,0.83-0.54,0.81
			c-0.51-0.03-0.24-0.82-0.64-1c-0.07-0.03-0.92,0.2-1.35,0.2c-4.13-0.05-7.98,2.01-12.11,2.18c-0.83-0.8-0.81-0.87-2.01-0.8
			c-0.92,0.05-0.75,0.33-1.47,0.96c-0.08,0.07-0.96,0.36-1.18,0.49c-0.19-0.14-0.04-0.84-0.21-1c-0.8-0.74-3.11,1-4.53,1.09
			c-1.74,0.11-3.78-0.84-5.81-0.17c0.38-0.29,0.72-0.62,1.05-0.98c-0.73-0.21-1.5-1.06-2.63-1.21c-1.97-0.27-6.45,0-8.26,1.75
			c-0.7,0.67-1.06,2.91-1.78,3.32c-1.57,0.89-4.04-1.67-5.77-0.59c-1.16,0.73-1.63,3.22-2.19,3.41c-1.63,0.53-4.3-2.11-5.12-3.66
			c-0.72-0.11-0.5,0.74-1.22,0.63c-1.98-2.17-5.57-2.47-8.77-2.08c-0.67,0.15-1.34,0.26-2.03,0.34c-0.47,0.1-0.93,0.22-1.35,0.34
			c-0.08,0.02-0.2,0.02-0.29,0.03c-0.62,0.79-1.38,0.79-2.3,0.73c0.22-0.27,0.64-0.5,1.07-0.65c-0.17-0.01-0.37-0.01-0.49-0.01
			c-5.25-0.39-10.25-4.88-15.02-8.32c-0.33-1.05-0.87-1.46-1.27-2.28c-2.13-1.09-4.01-2.96-6.14-4.1c-0.87-2.1-2.4-2.21-3.11-4.8
			c-1.63-2.31-3.33-3.94-5.15-6.16c-1.59-1.94-3.68-3.71-5.1-5.8c-2.29-3.36-3.25-8-5.98-11.47c-1.36-6.78-4.38-13.73-6.81-22.3
			c-0.33-0.69-0.85-0.85-1.03-1.97c1.44-3.88-1.26-9.03-1.22-13.67c0.02-1.25,0.9-2.29,1.06-3.56c0.36-2.83-0.11-5.87-0.12-8.05
			c5.3-5.69,6.19-15.58,10.28-22.62c0.1-0.17,0.88-0.19,1.13-0.63c1.6-2.79,4.38-5.04,6.29-8.09c0.64-4.02,3.74-4.17,6.98-6.35
			c1.11-0.75,1.58-1.43,3.33-2.21c2.36-1.04,4.14-3.48,6.36-4.71c2.52-1.39,5.22-0.67,7.88-1.38c1.13-0.3,2.03-1.89,3.11-2.16
			c2.39-0.59,4.52,2.67,6.48,2.98c0,0,0,0,0,0c1.36-1.02,2.65-2.1,4.41-1.38c2.11-0.76,4.27-1.56,6.33-1.94
			c0.2-1.4-0.48-4.09-2.21-3.5c0.24-0.96,0.63-0.6,1.39-0.72c-0.17-0.59-0.43-0.85-0.74-0.92c2.32-0.82,2.69-1,5.03-1.57
			c0.37-0.39,0.05-1.95-0.5-2.46c-1.82,0.99-3.98,0.19-5.78,0.66c-1.08,0.28-1.45,1.63-2.36,2.07c-0.44,0.22-0.71-0.51-1.28-0.42
			c-0.52,0.09-0.95,1.33-1.4,1.46c-0.57,0.18-1.03-0.36-1.7-0.31c-2.4,0.2-4.13,3.07-6.51,3.48c-1.84,0.31-4.29-1.57-6.11-0.31
			c0.06-2.39,1.96-1.44,3.31-1.94c4.45-1.64,8.77-5.85,12.66-6.87c-0.11-1.91-1.18-2.31-2.01-3.55c-1.12,0.89-2.04,0.87-3.03,1.5
			c-0.5,0.49,0.6,0.83,0.21,1.42c-2.84,0.89-5.13,2.5-8.39,3.59c-0.75-1.17-1.57-0.93-1.63-2.91c-0.4,0.26-0.65-0.09-0.97-0.13
			c-0.92,0.12,0.19,0.46,0.23,1.42c-1.29-1.89-1.6,0.93-2.71-0.42c-3.04,3.56-7.27,1.67-10.74,5.67c2.11-3,5.89-4.55,9.66-6.13
			c0.82-0.32-0.51-1.01-0.01-1.47c1.09-0.43,2.35,0.54,3.36,0.26c1.25-0.34,1.32-1.66,2.27-2.41c1.11-0.88,2.77-0.74,3.9-1.72
			c1.09-0.95,1.43-3.15,3.15-2.64c0.2-1.09-0.27-1.87,0.56-2.73c-0.21-1.23-1.71-1.52-1.28-2.63c0.61-0.73,0.49,1.13,0.97,0.86
			c0.69-0.46,0.67-1.56,0.9-2.44c2.22,0.51,3.9-0.74,5.8-1.81c0.5-0.57-1.25-0.77-0.73-1.66c1.09,0.61,3.6-0.61,3.77-2.37
			c2.38,0.19,3.27-1.41,5.72-1.46c-1.44-5.22-3.38-10.77-5.09-17.2c-0.29-0.7-0.7-0.89-0.89-2.01c0.94-3.75-1.41-8.99-1.62-13.56
			c-0.05-1.23,0.57-2.2,0.62-3.44c0.12-2.77-0.41-5.79-0.55-7.94c3.7-5.26,3.73-14.91,6.26-21.52c0.06-0.16,0.65-0.13,0.8-0.54
			c0.99-2.63,2.89-4.63,4.06-7.48c0.14-3.87,2.44-3.81,4.68-5.79c0.77-0.68,1.06-1.32,2.3-1.97c1.68-0.89,2.78-3.18,4.33-4.25
			c1.75-1.22,3.85-0.36,5.77-0.91c0.82-0.23,1.33-1.73,2.12-1.93c1.73-0.44,3.67,2.85,5.18,3.26c0.93-0.94,1.81-1.95,3.28-1.09
			c1.34,2.69,1.79,4.95,3.52,6.18c2.86,0.89,1.62-11.2,4.86-3.64c3.33,3.15,6.68,0.62,9.88,0.38c2.24-0.17,4.67,0.31,6.77-0.04
			c2.12-0.35,3.83-1.99,6.05-0.61c1.17-2.09,3.16-0.67,4.89-0.73c5.13-0.17,8.98-4.5,14.39-3.21c2.29-2.39,6.29-1.91,9.07-1.3
			c2.6-2.71,6.35-0.55,8.98-1.65c1.76-0.73,3.04-2.33,4.78-2.53c0.57-0.07,1.25,0.49,1.79,0.33c1.63-0.49,2.86-2.12,4.69-2.15
			c1.69-0.03,3.72,1.54,4.89-0.74c5.05,0.52,10.16-4.89,16.33-4.42c0.44,0.04,0.85,0.5,1.26,0.45c3.87-0.41,6.42-4.19,10.48-2.38
			c3.83-1.75,8.94-3.13,13.4-3.41c3.3-2.73,7.59-2.33,11.45-2.98c2.89-0.48,5.45-2.85,8.39-3.75c1.05-0.32,2.39,0.31,3.39-0.04
			c1.51-0.52,2.66-2.06,4.23-2.43c2.78-0.66,5.53-1.19,8.35-1.92c2.51-0.65,4.63-2.8,7.14-3.47c0.93-0.25,2.22,0.65,3.14,0.38
			c0.61-0.18,1-1.15,1.48-1.44c2.81-1.65,7.04-2.01,10.63-3.18c4.98-1.63,9.64-2.89,14.67-5.59c4.31-0.17,8.14-2.86,12.55-4.37
			c5.59-1.92,11.6-3.61,17.41-5.88c6.24-2.44,12.21-5.69,18.82-6.22c0.48,0.74,1.02,1.14,1.58,1.46c0.71-0.09,0-1.7,0.83-1.66
			c0.53-0.39,0.68,1.2,1.12,1.21c5.55-1.21,11.12-2.12,16.45-2.76c0.88-0.27,0.39,1.15,1.13,1.21c2.89-1.03,7.46-1.32,11-2.58
			c1.42-0.51,3.17-0.65,4.72-0.75c0.42-0.02,0.04-0.81,0.32-0.81c0.5-0.01,0.42,0.76,0.85,0.9c0.07,0.02,0.83-0.26,1.24-0.29
			c3.96-0.26,7.17-2.51,11.08-2.98c0.97,0.7,0.96,0.77,2.09,0.61c0.87-0.12,0.64-0.36,1.21-1.02c0.06-0.07,0.85-0.41,1.04-0.55
			c0.22,0.12,0.21,0.8,0.41,0.94c0.93,0.65,2.8-1.17,4.16-1.35c1.66-0.22,3.83,0.54,5.64-0.23c-1.53,1.52-2.42,3.72-1.61,7.73
			c2.59,1.97,5.07-1.91,7.63,0.03c3.79-2.55,9.1-4.17,14.04-5.17c0.41-0.03,0.48-0.41,0.21-1.15c5.37,0.05,9.71-3.57,15.42-4.41
			c-9.2,4.76-19.02,6.57-27.82,11.76c-2.29,0.07-8.05,1.32-11.2,2.66c-1.9,0.81-1.95,3.89,0.26,7.65c3.24,1.37,4.67-1.66,7.4-1.39
			c0.89,1.32,1.79,2.49,1.73,4.37c-4.44,3.23-10.86,2.73-13.9,6.96c-0.93-0.54-1.55,0.25-2.32,0.55c-0.21,0.86-0.11,2.03-0.23,2.99
			c0.38,0.69,0.85,0.88,1.16,1.93c4.79-1.38,10.39,3.57,14.99,0.87c1.2,1.35,2.37,2.66,3.51,3.94c1.47-0.81,3.92-1.25,5.64-2.81
			c0.41-0.35,0.56,0.63,0.85,0.9c0.99-0.49,1.95-0.98,2.9-1.46c0.01-0.01,0.02-0.02,0.02-0.04c0.15-2.85,1.09-4.89,2.15-5.37
			c1.17-0.52,1.58,1.17,3.02,1.56c1.76,0.45,5.96,0.74,8.41-0.6c0.17-0.1,0.31-0.23,0.5-0.31c0.88-0.74,1.9-2.74,2.7-3.04
			c1.21-0.46,2.29,0.61,3.46,1.2c0.19-0.18,0.41-0.35,0.59-0.54c0.15,0.38,0.18,0.63,0.14,0.81c0.42,0.1,0.86,0.12,1.33-0.08
			c1.4-0.6,2.74-3.12,3.37-3.23c1.82-0.33,3.5,2.77,3.74,4.5c0.66,0.21,0.76-0.7,1.42-0.49c1.6,3.49,7.44,3.71,11.31,3.16
			c0.59-0.08,1.55,0.12,1.99,0.23c4.97,1.26,7.99,6.74,11.06,11.11c-0.12,1.14,0.22,1.65,0.26,2.58c1.54,1.49,2.52,3.74,4,5.29
			c-0.07,2.33,1.28,2.69,0.85,5.51c0.51,2.68,1.37,4.66,2.06,7.28c0.6,2.29,1.71,4.49,2.07,6.91c0.58,3.89-0.54,8.87,0.33,12.96
			c-1.26,5.44-1.79,11.14-2.62,17.57c1.21-0.46,2.45-0.88,3.78-1.18c-1.28,0.71-2.58,1.38-3.9,2.02c-0.25,1.92-0.52,3.88-0.86,5.94
			c-0.02,0.77,0.33,1.04,0.02,2.23c-1.12,1.54-1.76,3.44-2.26,5.46c0.97-0.18,1.35-0.78,2.18-1.06c0.01,0.3,0.03,0.6,0.24,1.05
			c0.32-2.17,3.05,0.12,5.11-1.57c-1.21,2.28-5.59,2.97-8.04,3.83c-0.45,2.1-0.88,4.25-1.61,6.25c2.71,0.58,4.64,3.28,4.71,4.83
			c1.13,0.29,1.48-0.63,2.64-0.33c1.09,1.84,4.08,3.07,7.67,3.9c0.2-0.63,0.81-0.97,1.26-1.43c0.76,1.27-0.39,1.22-1.12,1.47
			c3.7,0.84,8.02,1.28,11.61,1.54c1.05,0.05,2.73,0.55,3.49,0.79c0.59,0.19,1.08,0.45,1.62,0.67c0.07-0.13,0.16-0.24,0.22-0.38
			l0.3,0.6c0.32,0.15,0.66,0.28,0.96,0.44c1.34-0.58,3.08-1.29,4.45-0.56c-0.61,0.77-2.14,0.89-3.51,1.15
			c5.41,3.38,7.73,8.97,9.66,13.82c-0.84,1.13-0.59,1.83-1.07,2.81c1.54,2.28,1.58,5.07,2.67,7.47c-1.66,2.36-0.05,3.45-2.64,6.1
			c-1.22,2.98-1.64,5.51-2.89,8.51c-1.08,2.63-1.67,5.42-3.41,8.04c-2.81,4.17-8.24,8.5-11.32,12.88
			c-8.07,6.26-15.66,13.55-25.66,21.8c-0.78,0.72-0.92,1.07-2.23,2.09c-4.72,2.75-10.48,8.26-15.64,12.34
			c-1.37,1.11-2.38,1.75-3.67,2.85c-2.95,2.47-6.1,5.42-8.27,7.45c-1.11,0.97-2.43,2.26-3.92,3.79c-0.29,0.31-0.58,0.63-0.89,0.96
			l-0.62,0.7c-0.47,0.52-0.89,1.02-1.29,1.53c-0.42,0.53-1,1.22-1.48,1.9c-0.09,0.13-0.19,0.27-0.42,0.6
			c-0.93,1.22-2.01,2.93-2.98,4.53c-0.5,0.9-1.64,2.81-2.78,5.2c-0.41,0.84-0.58,1.23-1.11,2.47c-0.79,1.74-1.31,3.25-1.92,4.93
			c-0.59,1.85-1.15,3.53-1.57,5.3c-0.21,0.76-0.39,1.54-0.53,2.24c-0.06,0.3-0.13,0.6-0.21,1.02
			C456.12,383.27,456.19,382.86,456.27,382.44z M508.02,221.45c-0.08,0.32-0.16,0.64-0.23,0.96c0.25-0.19,0.4-0.46,0.24-0.94
			C508.03,221.46,508.02,221.46,508.02,221.45z M79.34,270.9c0.19,0.03,0.34,0.23,0.43,0.63C81.05,271.23,79.28,269.12,79.34,270.9z
			 M74.63,276.86c0.42-0.6-0.87-2.36-0.52-2.45c1.69,0.85,3.68-1.44,5.42-2.09c-0.46-1.87-1.04-1.29-1.14-3.03
			c-1.87-0.52-1.77,1.37-4.13,1.03c-0.03,1.44-0.56,1.45-1.64,1.52c0.7,2.53-2.45,1.62-1.44,4.42
			C72.49,275.88,73.6,276.25,74.63,276.86z M83.76,298.72c-0.94-0.94-1.87-1.89-2.83-2.78c-0.59,0.3-1.33,0.58-2.1,0.86
			c0.63,1.53,1.22,2.82,2.6,3.59C82.42,300.6,83.15,299.81,83.76,298.72z M114,428.04c0.37-1.09,0.6-2.41,0.62-4.02
			c-0.09-0.09-0.19-0.11-0.28-0.18c-0.28,0.49-0.51,1.05-0.66,1.72C113.92,426.49,113.99,427.3,114,428.04z"/>
	</g>
	<path class="st1" d="M411.34,292.52c0.36,2.16,0.55,1.7,2.26,2.18c-1.65,0.64-2.24,4.16-4.01,2.68c0.25-1.84,2.16-3.55,0.58-5.61
		c1.45-1.57,1.87-2.31,3.6-1.9C413.74,291.56,412.79,291.3,411.34,292.52z M410.27,299.7c-0.25,1.02,1.07,2.31-0.36,3.12
		c2.8,1.79,0.58,3.16,0.69,4.95c0.35,1.53,1.35-0.52,1.7,1.01c-0.5-1.95,1.11-3.5,0.05-5.54c0.58-0.52,1.06-0.1,1.64-0.7
		c-0.98-0.13-1.4-1.6-1.27-2.47c0.47-0.77-0.79-0.28-0.34,0.26C411.59,300.8,410.98,299.91,410.27,299.7z M414.13,292.49
		c-0.56,1.34,0.08,2.82-0.73,4.12C414.28,296.62,415.83,293.88,414.13,292.49z M415.56,287.09c1.16-0.09,1.35-0.95,1.61-2.19
		c-0.6-0.61-1.26,0.78-1.85-0.1C414.75,285.53,416.14,286.37,415.56,287.09z M341.89,421.5c0.08,1.1,2.08,0.72,1.81-0.84
		C342.5,419.83,342.68,421.58,341.89,421.5z M411.81,273.2c0.41,0.08,0.82,0.16,1.24,0.61c1.38-1.42,0.15-2.79,0.25-4.18
		C410.44,270.32,414.94,271.47,411.81,273.2z M412.39,277.01l1.25-1.28l-1.22-1.27C411.67,275.33,411.66,276.17,412.39,277.01z
		 M382.16,381.4c0.93-0.91,1.17-2.4,2.55-2.94C383.79,377.72,381.46,380.68,382.16,381.4z M362.88,400.46
		c-0.25-0.99-0.87-1.61-1.26-2.47c-1.62,0.22-2.12,1.81-2.47,3.7C360.38,401.28,361.94,401.25,362.88,400.46z M361.57,396.15
		c0.27,0.98,0.9,1.59,1.28,2.45c0.8-0.22,1.06-1.11,1.16-2.15c-1.11-0.45-0.76,0.86-1.18,1.23
		C362.05,397.54,363.62,395.83,361.57,396.15z M414.85,310.34c-1.09-0.34-0.28-0.52-0.98-1.54c-0.86,0.37-0.8,0.93-1.21,1.39
		C413.42,310.08,413.98,311.04,414.85,310.34z M412.83,266.77c1.13-0.84-0.35-1.48,0.78-2.32c-0.86-0.57-1.73-1.14-2.47,0.21
		C412.36,265.3,412.05,266.07,412.83,266.77z M413.87,300.91c0.82,1.04,1.93-0.53,2.72,0.77c0.28-0.62,0.06-1.32-0.39-2.05
		c-1.13,1.22-0.4,1.33-1.23-0.18C414.32,299.9,414.58,300.48,413.87,300.91z M398.37,349.12c-1.91,0.81,0.13,3.83-2.11,4.44
		c0.32,0.56,1.14,0.06,1.77-0.04C396.93,351.36,399.54,351.27,398.37,349.12z M413.5,283.43c0.34-0.79-0.5-0.65-0.9-0.99
		c-0.34-0.65,0.73-1.26-0.57-1.93c-0.39,1.26-0.44,2.52-0.71,3.78C412.01,285.35,412.81,282.37,413.5,283.43z M396.56,191.69
		c1.31-0.01-0.2-1.34,0.65-2.34c-1.62-0.31-1.78,0.19-1.88-1.52C393.9,188.79,396.43,190.46,396.56,191.69z M408.1,231.35
		c0.75-1.47-2.27-2.38,0.13-2.07c0.49-1.06-1.21-0.86-1.5-0.87l-0.88,1.63C407.23,230.88,406.67,231.11,408.1,231.35z
		 M412.29,252.58c0.9,0.54,0.29-1.3,0.69-1.75l-2.12-1.59C410.64,250.94,413.11,250.51,412.29,252.58z M396.66,200.27
		c0.05,2.54,0.73,4.68,1.84,6.61C401.57,204.14,398.07,201.85,396.66,200.27z M385.29,174.29c0.43,1.3,0.98,2.5,1.55,3.68
		C387.88,177.14,386.21,174.93,385.29,174.29z M396.39,199.69c0.99-2.12-1.32-2.34,0.32-3.91c-2.07,0.97-0.79-2.6-2.71-2.88
		c0.22-1.58,2.3-0.35,1.47-2.06c-1.17,1.45-1.82,0.78-2.49-0.7C392.91,192.61,394.78,197.05,396.39,199.69z M393.42,188.31
		c-0.47-0.85-1.68-1.21-2.72-1.66C389.9,189.11,392.32,188.89,393.42,188.31z M403.91,219.52c-0.89,1.07-1.15-0.86-1.95-0.93
		c-0.26,1.5,0.92,2.16,2.35,2.15c-0.16-0.84,0.03-1.29,0.76-1.68c1.9,0.76,0.16,2.94,2.13,3.7c-0.16-0.75-0.72-1.35,0.23-2.52
		c-2.04-1.18-1.97-3.03-1.44-4.36c-1.07,0.44-1.66,2.28-3.29,1.03C402.06,218.66,404.58,217.44,403.91,219.52z M410.23,243.13
		c-0.85-0.77-1.61-0.92-2.17,0.16c0.15,0.4,0.31,0.79,0.81,1.12C409.36,244.27,409.82,243.82,410.23,243.13z M409.16,246.3
		c0.56,0.23,0.93-0.74,1.37-1.27l-1.06-0.76c-0.4,0.72-0.96,0.51-1.36,1.28C408.66,246.06,409.45,245.56,409.16,246.3z
		 M411.47,249.12c0.41-1.17,1.23-2.43,0.73-3.44C411.54,245.63,410.04,248.5,411.47,249.12z M406.35,238.82
		c1.39,0.73,0.56,2.03,1.76,2.83c0.46-1.54-1.15-2.55,0.13-4.31C406.77,237.12,407.57,238.02,406.35,238.82z M405.19,233.9
		c-0.05,0.99,0.53,1.78,1.09,3.3l0.69-1.18C405.34,235.61,406.48,234.4,405.19,233.9z M406.39,233.55c0.78-0.27,1.84,0.57,2.84,1.18
		l0.67-1.2c-0.47-0.21-0.61-0.5-0.52-0.87c-1.14,0.32-0.71,0.56-1.72-0.49C407.3,232.91,406.73,232.74,406.39,233.55z
		 M276.35,444.67c-0.03,1.1,2.27,1.76,3,0.12C278.3,444.08,277.36,444.96,276.35,444.67z M109.91,333.53
		c0.06,2.37,1.16,2.47,2.27,4.21C112.49,336.04,111.04,334.85,109.91,333.53z M109.07,323.13c-0.57-0.3-0.88,1.08-1.47,0.63
		c0.27,2.26,3.67,3.75,2.29,6.34C113.2,329.25,108.3,325.54,109.07,323.13z M105.52,324.52c-0.66,2.57,1.99,4.45,3.27,6.54
		C109.28,328.53,106.95,326.67,105.52,324.52z M116,336.26c-1.05,0.91-1.83,0.86-2.7-0.57c-0.38,1.48,0.68,2.55,1.52,3.65
		C114.44,338.35,116.47,337.71,116,336.26z M122.89,354.61c-1.23-0.1-0.55,1.85,0.63,1.82c0.23-0.93,0.65-1.31,1.33-0.96
		C125.89,353.04,122.71,356.69,122.89,354.61z M109.89,361.06c-0.63-2.14-1.57-4.13-3.6-5.74
		C107,357.44,108.35,359.31,109.89,361.06z M117.6,345.28c-1.02,2.12-1.24-0.34-2.51,0.21c-0.75,1.09,2.22,0.83,1.47,1.91
		c0.48,0.36,1.69-2.19,1.56-0.23c0.29,0.25,0.44,0.02,0.58-0.22l0.42-0.83c-1.62-0.34-1.29-4.02-3.6-5.28
		c-0.19,0.51-0.47,0.69-0.81,0.61C115.86,342.68,116.14,344.2,117.6,345.28z M111.63,364.1c-0.52,0.89-0.17,1.37-0.26,2.05
		c0.65,0.43,1.32-0.29,1.2,0.58C114,366.51,112.5,364.51,111.63,364.1z M99.34,304.2c0.9,0.88,2.75-0.02,1.99,1.93
		c0.54,0.31,0.98-0.66,1.47-1.14c-0.31-0.88-1.55-1.72-1.4-2.64c-0.53-0.09-1.01,0.49-1.57-0.25
		C99.58,302.79,99.6,303.49,99.34,304.2z M100.91,297.92c-1.18-0.28-1.23,0.12-1.85-1.34c-0.93,1.18,0.66,2.3,0.66,3.44
		C101.21,300.58,99.75,298.47,100.91,297.92z M103.54,301.89c-0.22-1.01-1.17-3.34-2.26-1.59
		C102.07,301.56,102.77,301.13,103.54,301.89z M104.66,325.04c0.09-2,0.76-4.05-1.79-5.6C104.58,321.11,102.86,323.4,104.66,325.04z
		 M105.41,314.93c-1.25,2.21-2.83,0.03-2.29-1.4C104.24,312.45,104.78,314.11,105.41,314.93c1.39-1.09-0.82-1.7,0.39-2.76
		c-2.8-0.22-6.23-4.44-7.6-6.49c-2.18,0.31,2.1,4.58,3.42,4.57c-1.79,0.44-0.14,2.65-2.01,1.96c2.15,2.36,4.66,4.19,8.25,7.08
		C108.56,317.6,107.07,316.29,105.41,314.93z M101.9,323.46c-0.65,1.31,1.55,2.05,1.15,3.31
		C104.71,326.63,102.49,324.33,101.9,323.46z M375.98,169.85c-0.68,0.12,0.26,0.87-0.54,0.91c4.3,0.71,4.47,5.14,7.56,7.01
		c-0.71-3.17-2.6-5.46-4.5-7.68c-0.5,0.03-0.47,0.83-0.61,1.38C377.33,170.85,376.25,170.72,375.98,169.85z M250.63,441.88
		c0.5,0.31,1.07,0.05,1.66-0.47c-0.45-0.64-0.12-1.18-0.61-1.82C251.52,440.38,250.8,441.09,250.63,441.88z M267.15,444.04
		c-0.28,0.22-0.15,0.45,0,0.69l0.53,0.7c0.73-1.01,1.45,0.14,2.18,0.05C269.99,443.62,267.88,444.98,267.15,444.04z M195.28,423.67
		c0.96,0.57,1.88-1.14,1.65-2.54C196.49,422.05,194.97,422.26,195.28,423.67z M129.09,360.76c-0.57-1.45-0.13-2.37,0.03-3.48
		c-1.48-0.21-1.77-0.78-3.04,0.78C128.08,357.34,127.57,360.18,129.09,360.76z M314.76,434.04c1.17,0.07,2.04-0.84,3.06-1.26
		C317.38,431.5,315.22,432.39,314.76,434.04z M301.62,440.28c1.26-0.3,3.49-1.42,3.41-3.5
		C304.03,438.09,301.74,438.83,301.62,440.28z M196.13,426.21c-0.93,0.21-1.49,0.64-1.89,1.19c0.28,0.89,1.76-0.55,1.82,0.77
		C196.57,427.82,196.18,426.91,196.13,426.21z M126.05,369.58c-0.03,0.39,0.27,0.59,0.12,1.05l0.82,0.28
		c-0.05-1.93,1.85,0.52,1.8-1.39C127.36,368.39,127.48,370.73,126.05,369.58z M140.83,383.35c0.13,0.67,0.69,1.03,1.44,1.23
		c0.11-0.44,0.58-0.26,0.92-0.31C143.06,382.92,141.67,383.39,140.83,383.35z M131.24,368.83c0.25-1.47-1.43-1.83-2.24-2.71
		C128.93,367.49,129.49,368.52,131.24,368.83z M128.5,364.96c-0.51-1.17-0.4-2.64-1.51-3.49
		C126.13,362.16,126.58,364.6,128.5,364.96z M129.48,368.75c1.77,3.39,4.31,4.75,6.89,7.91c-0.7-2.75-2.58-4.72-4.07-7
		C131.27,370.99,130.81,369.28,129.48,368.75z M135.02,382.13c0.63,1.22,1.56,1.27,2.5,0.56
		C137.59,381.63,135.4,381.84,135.02,382.13z M202.29,430.07c-0.43,0.39-0.66,0.91-0.47,1.68c-1.63-0.99-1.97-1.37-4.14-1.78
		c1.23,1.76,2.87,2.77,4.83,2.99C201.92,431.68,202.53,431.14,202.29,430.07z M317.18,189.14c0.38-0.12,0.24,0.62,0.26,1.08
		c0.57-0.03,1.45-1.84,1.67-0.78c1.19-0.58-0.64-1.03,0.4-1.39c-0.6-0.26-2.72-0.36-2.69,1.65
		C317.11,189.66,317.15,189.4,317.18,189.14z M293.81,171.48c0.32,0.1,0.39,1,0.81,0.78c0.87-0.61,0.74-2.31,0.17-2.57
		C293.76,169.95,294.85,171.19,293.81,171.48z M308.94,183.18c0.54-0.24,0.79-1.2,0.95-0.57c0.27-0.08,0.3-0.34,0.3-0.6l-0.04-0.83
		c-0.04,0.56-1.92,1.7-0.96,0.58c-0.15-0.58-0.54,0.7-0.66-0.03C307.6,182.73,308.96,182.61,308.94,183.18z M289.02,178.77
		c0.61-0.89-0.29-2.16-0.87-1.08l0.34,1.6C288.67,178.81,288.86,178.34,289.02,178.77z M226.74,142.21
		c1.22,0.13,2.63-1.21,1.25-2.71C227.26,140.76,226.82,140.53,226.74,142.21z M272.83,161.42c-0.92,0.5-2.42-1.13-2.79,0.62
		C270.91,162.48,271.77,162.82,272.83,161.42z M320.41,189.66c-0.02,0.58-0.05,1.17-0.44,1.39c0.05,0.53,0.79,0.02,1.28-0.11
		l0.19-2.11c-0.96,0.71-0.83-0.21-1.65,0.31C319.62,189.9,320,189.79,320.41,189.66z M335.93,217.09c-0.45-0.21-0.09-1.12-0.99-0.92
		l-0.54,1.5C335,217.62,335.3,217.1,335.93,217.09z M335.52,218.21c1.13-0.2-0.64,2.03,1.19,1.25c0.91-1.59-0.39-1.35-0.55-2.05
		c-0.42,0.15-0.52,0.77-0.98,0.84C335.07,218.67,335.44,218.42,335.52,218.21z M214.75,140.77c-1.13-0.16-2.34-0.48-2.76,1.69
		c1.16,0.34,1.22-0.65,2.2,0.99c0.13-0.4-0.3-0.62-0.54-0.9C213.87,141.48,214.6,142.13,214.75,140.77z M325.32,202.61
		c-0.23-0.73-0.14-1.88-1.31-1.43C323.86,202.41,324.31,202.84,325.32,202.61z M321.03,198.14c0.33-1.33-0.53-1.03-1.47-0.56
		C319.67,198.29,320.27,198.31,321.03,198.14z M202.05,152.28c-0.51-0.1-0.73,0.46-1.27,0.29c0.06,0.99,0.71,1.67,1.51,2.27
		C202.57,153.79,202.02,153.19,202.05,152.28z M199.25,156.09c1.06,0.28,2.41,1.33,2.5-0.59
		C200.87,155.57,199.67,154.95,199.25,156.09z M199.78,153.49c-1.28-1.42-0.99,0.74-1.73,0.55
		C198.2,155.31,199.73,154.52,199.78,153.49z M139.11,181.04c3.52,2.06,5.56-1.62,8.18-2.68c0.88,1.57,2.79,0.65,4.16,0.48
		c2.96,3.4,2.71,9.36,1.87,14.44c-1.24-0.79-0.31-1.48-1.17-2.2c-1.72,0.73,0.01,3.24-1.73,4.42c3.87,4-2.12,9.24-1.11,12.79
		c-1.72,0.84-2.66,2.64-3.13,4.49c-0.39,1.91-0.28,3.88-0.13,5.05c0.53-0.52,0.02-3.39,1.77-2.05c-0.15,2.5-1.73,3.74-0.66,6.18
		c-1.27,1.48-2.74,4.89-0.95,6.15c-0.61,1.23-0.57-0.56-1.74-0.03c-0.16,1.54,1.82,4.1,0.09,4.8c-0.71-0.87,1.18-1.92-0.16-2.14
		c-0.66,1.16-2.24,3.15,0.33,3.4c-2.02,2.64-2.38,6.11-2.58,9.5c2.27,1.5,3.8,5.27,3.66,7.35c1.25,0.15,2.5,0.34,3.84,0.23
		c0.04-0.5-0.12-1.08-0.76-1.83c-0.96,0.3-1.74,0.03-2.35-0.83c0.74-1.53,1.42-3.04,0.92-5.05c0.67-0.31,1.06,0.13,1.72-0.12
		c-1.46-1.05-0.03-1.11-0.43-2.35c-0.34,0.01-0.76,0.22-0.96-0.13c0.68-0.18,1.14-0.43,1.33-0.81c0.54,1.2,0.93,4.1,2.75,4.12
		c0.22-2.29-1.63-4.21-0.11-5.67c0.93-0.36,1.05,1.32,2.09,0.7c0.78-1.05-0.15-2.94,1.45-3.59c0.42,0.92,0.86,1.77,1.71,1.64
		c1.19-0.53-0.26-2.43,2.02-2.39c-0.25-0.45-0.74-0.41-0.91-1.01c0.43-0.1,0.77-0.24,1.08-0.4c0.25-0.69,0.52-1.37,0.81-2.03
		c0.34,0.26,0.43,0.51,0.43,0.75c0.19-0.43,0.31-0.89,0.31-1.43c2.47,0.01,2.03-1.67,3.86-1.98c0.37,3.37-0.25,6.03-0.74,8.75
		c-0.31,2.79-0.52,5.63,0.58,8.9c-1.62,1.12-0.9,3.27,0.3,5.45c-1.93,0.81-1.71,3.69,0.98,5.26c-0.49-1.46-2.49-3.52-1.23-4.45
		c0.53,1.46,1.4,2.97,1.79,4.3c0.05-0.15,0.09-0.29,0.06-0.41l1.27,0.37c0.23,0.97-0.84,0.52-1.16,0.9
		c0.07,0.66-0.04,1.27-0.51,1.77c1.52-0.02,1.77,1.66,1.54,2.36c-0.95-0.76-1.58-2.56-2.73-2.71c0.17,1.8,3.18,2.92,3.84,4.88
		c-0.59,0.29-1.05-0.04-1.64,0.23c0.19,0.84,1.34,2.85-0.44,2c0.26,0.27,0.02,0.43,0.17,0.67c1.02,0.18,1.85,1.23,2.86,1.43
		c0.34-0.21,0.25-0.49,0.17-0.78c-0.48-0.67-1.2-0.32-1.65-1.18c1.13-0.05,0.42-0.52,0.01-0.92c-0.11-0.03-0.19-0.07-0.33-0.09
		c0.04-0.1,0.1-0.08,0.14-0.13c-0.07-0.13-0.06-0.24,0.18-0.3c0.18,0.11,0.31,0.2,0.44,0.29c0.39,0.23,0.94,0.58,1.87,0.4
		l-0.12,0.79c-0.53-0.07-0.83-0.24-1.09-0.42c0.07,0.27,0.07,0.57,0.64,1.18c0.14,0.03,0.26,0.01,0.4,0.02
		c0.15-1.04,0.33-2.08,0.51-3.11c-0.36-0.58-0.35-1.03,0.2-1.23c0.07-0.37,0.15-0.74,0.23-1.11c-0.03-0.11,0-0.2-0.02-0.3
		c-0.21-0.24-0.38-0.49-0.47-0.73c-0.39-0.03-0.78-0.04-1.13-0.18c0.75-0.34,1.29-0.72,1.07-1.35c-0.74-1.88-1.22-3.84-1.45-5.77
		c-0.48,0.3-0.99,0.59-0.58,1.38c-1.78-1.17-0.2-1.9-0.92-3.54c0.57,0.14,0.99,0.33,1.34,0.52c-0.02-0.59,0.02-1.17,0.05-1.75
		c-0.16-0.09-0.32-0.19-0.54-0.27c1.29-1.05-0.33-1.41,0.85-2.67c0.02,0.01,0.01,0.03,0.03,0.04c0.14-1.03,0.27-2.03,0.44-2.99
		c-0.34-0.39-0.84-0.61-1.69-0.32c0.21-0.64,0.98-0.49,0.98-1.44c0.24,0.16,0.57,0.36,0.93,0.56c0.06-0.31,0.11-0.62,0.17-0.92
		c-0.26-0.14-0.48-0.28-0.81-0.44c0.2-0.7,0.53-0.39,0.91-0.08c0.03-0.19,0.08-0.41,0.11-0.6c0.22,0.33,0.41,0.62,0.57,0.89
		c0.07,0,0.14,0.05,0.21,0.01c0.15-0.6-0.81-1.04-1.82-1.48c0.08-1.42,1.69-0.49,2.59-0.63c1,0.78-1.25-0.03-0.88,1.13
		c2.65,1.44,0.68-1.77,2.98-0.39c-1.39-0.83-0.82-1.87-0.24-2.89c-2.57-1.55-2.93,0.01-3.21-2.67c-0.78-0.42-0.82,0.45-1.81-0.31
		c1.3-0.19,2.15-0.34,1.34-1.91c0.87,0.82,1.24-0.8,2.24-1.69c1.24,0.85-0.07,1.85-0.29,2.79c-0.15,0.51,1.25,0.9,1.33,1.39
		c0.81-0.22,1.79-0.39,2.07,0.83c1.32,0.36-0.04-1.09,0.68-1.49c-0.47-0.07-0.66,0.34-1.39-0.17c0.38-1.4,0.64-0.49,1.62-0.33
		c0.14-1.3-1.53-2.55-1.14-3.9c-2.42-1.26-1.01,1.68-3.53,0.16c0.82-0.94,0.16-1.37,1.35-2.87c0.74,0.57,0.41,1.17,1.15,1.74
		c1.42,0.41,0.93-2.47-0.51-2.01c0.7-1.58,0.74-2.72,0.09-4.79c1.48,0.74,1.29,1.14,2.19-0.21c-1.58-0.01-0.86-2.38,0.57-2.78
		c-1.63-0.71-2.33-0.27-3.4-2.21c0.16-0.66,0.65-0.5,0.96-0.76c-0.97-0.78-0.98-0.13-1.44-1.11c0.26-0.21,0.82,0.38,1.03,0.04
		c-0.78-1.35-1.62-1.93-1-2.7c-0.85-0.73-1.68-1.41-2.3-1.45c-0.06,0.27,0.2,0.56,0.04,0.82c-0.33,0.76,0.83,0.11,1.43,1.13
		c-0.87,0.32-1.26,0.19-1.3,1.31c1.42,0.12,1.46,1.83,0.05,0.81c-0.08,1.01,1.19,0.35,1.29,1.35c-0.27,1.69-1.97-0.21-2.95-0.29
		c-0.49,1.81-2.03,1.05-3.49,2.5c-1.24-1.1,0.2-1.66,0.92-1.65c-0.35-0.89-1.49-1.77-1.58-2.68c-0.46-0.04-0.85,0.11-1.22,0.32
		c-0.41-0.62-0.38-1.28,0.08-1.94c0.98,0.75,1.01,0.07,1.46,1.06c0.2-0.55-0.26-1.1-1.13-1.63c0.92-0.25,1.34,0.23,1.46,1.07
		c0.77,0.63,0.74-0.86,1.18-1.12c-0.87,0.01-2.26-1.38-3.43-2.18c0.77-0.33,1.88,0.31,2.64-0.04c-0.73-1.64,1.69-3.18,1.77-5.23
		c0.91-0.17,0.62,1.05,1.23,0.61c0.17-1.04-1.2-0.4-1.21-1.45c0.39-1.11,1.32-0.27,1.97-0.44c0.12-0.45-0.32-0.95-0.13-1.4
		c-1.56-1.03-0.6,1.26-1.81,1.01c-1.19-1.18,1.14-2.18,0.14-3.38c0.7-0.33,1.8,0.91,2.62,1.04c-1.32-1.01-1.86-2.74-0.28-4.28
		c0.39,0.51-0.21,0.94-0.45,1.39c1.61,0.22,0.99-2.17,0.05-3.15c1.35-2.24,2.32-1.76,3.07-4.46c-0.89-1.18-1.39,0.03-2.35-1.49
		c1.67-1.41-0.71-2.93-0.29-5.33c0.92-0.83,1.41,0.3,1.69-1.24c-0.79-1.36-1.19,0.37-1.85,0.02c-1.2-0.87-0.04-1.41-0.54-2.18
		c0.87,0.56,1.6,0.05,2.54,1.29c0.56,0.29,0.47-0.87,1.46-0.95c-0.9-0.95-1.48,0.8-2.46-0.71c0.75-1.18,1.61-1.5,2.57-0.76
		c0.6,0.51,0.37,0.86,0.12,1.21c0.69,0.74,1.15-0.9,1.75-1.12c3.32,3.99,2.12-7.09,6.57-3.16c1.2-1.75,2.52-1.18,3.79-0.99
		c0.15-0.25-0.02-0.6,0.24-0.81c-0.55-1.21-1,1.3-1.54,0.11c-1.02-1.66,0.66-0.58,0.73-1.87c1.87,2.46,3.65,2.47,5.43,1.02
		c-0.94-1.73-1.88-0.75-2.83-1.94c1.04-1.18,2.07-0.6,3.12-1.89c1.42,1.87,2.87,0.97,4.29,1.43c0.31,1.04,1.18,2.55,0.94,4.03
		c2.52-0.17,4.97-0.75,6.96-2.06c-0.27,1.97,0.85,1.06,1.84,2.2c0.32-0.52,0.92-0.89,0.82-1.66c-1.79,0.06-5.14-3.85-5.64-0.26
		c-0.97-2.62-0.99,1.13-2.2-1.36c0.44-0.56,0.85-0.19,1.27-0.3c-1.65-0.69-3.27-1.94-4.86-4.66c0.96-0.79,1.93-0.42,2.82,0.33
		c0.41-0.52-0.17-1.52,0.9-1.74c-0.63,2.64,2.41,0.56,3.32,3.49c1.55-0.97,2.97-0.36,3.93-1.94c0.49,1.1,0.15,1.66,1.1,1.55
		c0.04-2.13-1.96-1.14-2.14-3.71c1.58,0.14,3.39-1.71,4.73,0.5c2.16-3.88,5.87-5.64,8.82-0.21c1.66-0.1,0.29-2.43,1.09-3.19
		c-1.07-1.1-1.82-1.04-2.61-0.87c0.14-1.87,2.91-1.14,3.97-1.77c-0.18-0.28-0.27-0.49-0.41-0.74c-0.25-0.02-0.49-0.09-0.7-0.28
		c0.09-0.19,0.21-0.29,0.33-0.38c-0.49-1-0.73-1.83-0.98-2.71c-0.67,0-1.25,0.29-1.59,1.38c-0.87-1.2-1.08-1.12-0.87,0.35
		c-1.04-1.15-1.51-0.54-2.2-0.59c0.59-1.25,1.68-1.01,2.24-2.38c-1.95-1.62-2.78,0.26-4,0.94c0.36,0.36,0.74,0.6,1.25,0.15
		c0.27,2.61,1.47,2.53,2.44,4.68c-2.77,0.57-3.45-3.72-5.5-5.3c0.12-0.13,0.23-0.18,0.35-0.24c-0.58-0.03-1.3,0.57-1.85,0.19
		c-0.27-1.24,0.88-3.08-0.13-4.01c-0.41,2.09-1.82,1.38-2.66,2.24c-0.3,1.75-0.04,1.16,0.07,2.93c-1.35-1.22-1.21-0.85-2.84-1.7
		c0.34-1.36-0.11-1.51-0.46-3.16c0.7-0.58,1.94,0.28,2.12-1.66c2.93,1.33,4.35-0.9,7.28-0.83c0.48-3.49,2.86-1.04,4.06-2.23
		c-0.39-0.35-0.76-0.72-0.39-1.31c0.99,0.99,1.23-0.67,2.31,0.72c0.17,0.9-0.37,2.02,0.73,2.64c0.15-0.41,0.44-0.27,0.62-0.55
		c1.03-1.63-0.83-2.38,0.22-4.01c1.24,0.97,1.41,0.8,2.11-0.99c0.46,0.34,0.64,0.77,0.81,1.2c0.57-0.47,0.92-1.93,1.63-1.91
		c0.84,2.64-1.71,1.68-2.75,2.59c0.56,0.67-0.34,1.78,0.82,2.26c0.83-1.47,2.14-0.95,3.01-2.31c1.15,0.11,1.05,1.82,1.75-0.14
		c0.82,0.52,0.37,1.32,1.38,1.82c0.3-1.38,0.94-1.1,1.34-2.01c0.59,0.41,1.03,2.53,1.83,1.75c-0.63-1.17-1.43-2.29-0.44-3.77
		c1.07,2.96,1.42,0.19,2.52,3.03c0.47-2.02,0.6-1.26,1.6-2.39c-0.79-0.67-2.46,1.04-2.65-0.92c1.4-0.72,3.05,0.19,4.49-0.11
		c-0.51-2.61,3.38-1.12,4.73-2c-1.47-1.3-5.45-1.52-4.87-4.64c-0.54-0.14-1,0.27-1.43,0.95c0.53,0.49,0.61,1.06,0.49,1.67
		c-2.21-0.9-0.73,2.86-2.67,2.59c0.52-0.92,1-1.82,0.37-2.52c-0.45-0.16-0.9-0.26-1.31-0.11l-0.77,1.55
		c-0.9-0.76-1.64-0.51-2.56-1.26c0.42-1.94,1.4-0.9,1.98-2.14c-0.61-0.49-1.18-0.71-1.65-0.38l-1.15,2.33
		c0.67-0.03,0.97,0.29,0.76,1.25c-1.81-0.86-3.32-0.09-4.95,0.08c-0.83,6.7-7.49,0.22-9.05,4.15c0.76-1.32,0.58-2.33,0.39-3.36
		c2.03,1.03,4.92,2.58,5.02-0.45c1.33,1.41,2.11,0.71,2.97,0.2c-0.53-1.46-1.54,0.18-1.79-1.98c-0.42,3.28-3.12-1.42-2.68,2.23
		c-1.97-2.01-2.88,0.01-4.56-0.75c0.44-0.99,1.16-0.8,0.29-1.89c-0.45,0.98-1.23-0.72-1.4-1c0.5,1.63-1.09,0.36-1.31,2.21
		c0.68-0.1,1.03,0.17,0.9,1.15c-1.36-0.49-2,1.27-3.75-0.38c0.15-0.68,0.67-1.5,0.23-1.94c-1.41,0.53-0.79,1.86-1.87,2.98
		c-1.64-2.29-2.56,0.19-4.5-2.16c-0.79,1.11-2.68,0.26-3.65,0.22c0.33-0.35,0-1.63-0.24-1.86c-0.89,0.45-3.47-1.01-2.07,0.91
		c-1.7,0.1-0.71-0.85-1.66-1.86c-0.19,1.31-1.55-0.25-1.91,0.64c0.43,1.85,0.78,0.63,1.91,0.89c0.48,1.2-0.45,0.71-0.61,2.25
		c-0.92-0.74-1.43-0.46-1.5,0.8c-0.58-1.37-2.41,0.13-2.08-1.94c0.46-0.06,1.86,1.97,2.42-0.93c-2.23,0.05-1.43-1.16-2.85-2.3
		c-0.32,2.44-2.83-0.11-3.5,1.55c0.08-1.51,1.03-1.05,1.13-2.56c1.64,1.04,2.4,0.11,3.27-0.63c-0.39-0.3-0.72-1.16-0.13-1.09
		c1.02,1.14,3.2-1.47,4.17-3.15c1,0.29,0.57,1.22,1.8,1.43c0.75-1.46,2.83-2.59,3.61-1.2c0,2.06-1.7-0.74-1.99,0.49
		c0.54,1-1.17,2.99,0.1,3.67c0.99-0.44,0.04-0.91,0.74-2.18c1.2,0.79,1.57-0.75,2.51-0.7c1.4,0.15-0.21,1.57,1.19,1.72
		c-0.48-1.68,1.01-3.01,2.01-3.06c-0.39-1.62-0.38-2.02-0.12-3.27c1.83,0.36,2.98-1.57,4.95-0.67c0.01,1.01-1.71,0.68-0.73,1.67
		c1.36-1.38,1.93,0.7,3.28-1.04c0.5,1.05,3.31,1.52,4.16,0.16c1.37,0.79,0.15,2.34,1.87,3.02c-0.32-1.96,1.7-1.31,1.54-3.31
		c0.79,1.01,1.08-0.31,1.76,0.21c-0.28,0.67-0.72,1.4,0.09,1.76c0.29-0.85,0.82-0.6,1.14-1.33c1.16,0.7,0.35,1.79,1.08,2.58
		c0.61-2.55,2.04-1,2.97-2.01c-1.15-0.69-2.22-0.89-3.3-1.08c1.7-1.57,4.09,0.77,5.79-0.81c-2.4-0.43-5.09-1.99-7.29-0.98
		c0.52,0.47,1.21,0.92,0.61,1.63c-1.26-1.07-0.75-1.27-2.06-1.62c-0.09-0.81,0.41-1.8,0.34-2.58c2.96,1.87,5.96,2.57,7.19-0.41
		c-0.41,1.09,1.34,1.61,1.45,0.07c1.29,0.69-0.29,1.93,0.42,2.72c0.63-0.83,1.51,0.02,2.19-0.4c-0.5-0.62-2.46-0.31-1.4-1.85
		c0.39-1.28,1.37,1.65,1.76,0.38c0.36-2.03,0.16-1.69,1.63-2.74c-1.24-0.6-0.65-1.52-0.58-2.35c1.29,1.37,1.34-1.42,1.8-2
		c1.17,1.04-0.73,2.39,0.39,3.43c1.12-1.09,2.4-0.88,3.66-0.71c-0.68,0.89-1.39,0.55-0.69,1.8c1.19-0.15,0.77,1.09,1.87,1.91
		c-0.14-2.02,1.62-0.43,2.57,0.82c1.11-1.16,1.96-1.6,1.74-3.26c1.5,1.05,1.41,2.21,1.31,3.37c0.96-2.01,3.1-0.12,3.22-2.3
		c0.57,0.31,1.18,2.19,1.7,1.39c0-3.83-4.91-1.6-5.22-4.61c1.44,0.36,2.88,1.09,4.3,1.5c-0.89-3.29,1.12-4.66,0.98-7.6
		c1.48,2.18,4.4-0.2,7.35-0.23c-1.26,0.87-1.36,1.63-2.96,2.7c2.6,2.23,5.06,3.66,7.71,1.97c2.25,3.67,4.96,0.34,7.07,4.29
		c0.67-1.12,1.11,0.13,1.74-0.47l1.2,1.91c1.63-0.74,3.22,0.01,4.63,1.06c1.41,1.11,2.66,2.42,3.76,2.61
		c-0.19-0.52-0.66-1.1-0.31-1.49c0.54,0.1,1.86-1.26,1.62,0.38c-0.5-0.95-0.81,0.9-0.24,1.36c0.75-0.31,3.76,1.91,4.49,1.99
		c-0.74,0.56-2.22,0.16-2.01,1.09c0.98,1.1,2.14,1.19,3.18,1.88c0.71-1.24,0.45-2.73,1.4-3.91c-0.4,2.86-0.4,6.75,2.89,5.58
		c-0.51-1.13,0.21-1.26-0.7-1.69c2.45-1.63,3.42,0.69,6.18,0.01c0.48,2.89,3.92,0.76,4.82,4.71c1.06-0.94,1.23,0.85,2.41-0.41
		c-0.11-0.55-0.46-1.21-0.07-1.53c0.73,2.78,3.65,0.26,5.12,2.82c-1.59,1.4-3.09-1.61-3.79,0.06c1.38,1.74,7.03,3.33,4.77,4.96
		c1.66,0.66,4.75,0.15,6.4,2.69c0.58,2.04-0.13,2.85,1.08,3.43c-0.37,1.63-1.62,0.87-2.02,1.91c0.17,0.47,0.52,0.5,0.89,0.55
		c0.86-0.38,0.93-1.27,2.12-1.45c0.55,1.53-1.44,1.48-1.52,2.61c0.54,1.95,2.16-1.83,2.8,0.18c-0.82,0.27-1.11,0.89-0.9,1.82
		c1.45,0.21,1.08-0.56,2.15-1.41c-0.24,1.63,1.27-0.18,1.02,1.44c-0.34,1.3-1.24-0.31-1.42,1.08c0.11,1.85,2.38-0.5,3.49-0.53
		c-0.88-0.3-1.64-2.54-0.07-3.25c1.55,1.45,2.6,3.72,4.82,3.93c0.05-0.38-0.08-0.9,0.29-1.03c0.59,2.13-1.91,1.87-1.59,3.81
		c1.76-1.11,0.74,2.51,2.1,2.07c0.32-1.2-1.12-2.23,0.89-3.53c0.35,1.4-0.08,2.19-0.13,3.28l2.69-0.84c0.6,2.02,2.5,2.01,2.98,4.15
		c-1.66,0.75,0.28-0.98-0.8-0.69c-0.54,0.27-0.4,1.1-0.72,1.56c1.53-0.38,3.96,0.22,4.99,1.98c0.28,1.33-1.06,1.1-0.79,2.43
		c0.74,1.13,0.56,1.81,2.28,0.85c0.37,1.58-0.85,1.62-1.21,2.48c0.66,0.55,1.46,0.9,2.25,1.3c-1.69,0.42-0.73,0.91-0.88,2.36
		c-1.76-1.87-3.09-4.31-4.72-6.45c-0.16,1.07-1.52,0.97-1.9,1.82c2.55,2.07,4.29,8.62,8.45,6c0.83,0.91-0.64,0.93-0.58,2.3
		c1.28,0.03,1.6,1.23,2.41,1.83c1.06-0.89,1.28,0.33,1.96-0.69c-0.38-0.85-0.37-2.19-1.68-1.98c-0.11,0.54-0.07,1.26-0.51,1.4
		c0.12-1.19-1.1-0.8-0.92-2.07c1.35-0.42,1.53-2.19,2.87-2.63c0.85,0.94-0.64,0.92-0.58,2.31c2.58-0.89,0.87,4.76,3.63,1.78
		c0.1,0.55,0.4,0.86,1.07,0.77c0.38,1.06-1.37,1.96-0.26,2.21c0.51-0.06,0.45-0.81,0.89-0.96c0.55,1.2,1.56,1.92,1.89,3.32
		c0.27-1.55,1.18,0.83,1.26-0.52c-1.22-0.39-1.14-2.09-1.52-3.37c0.86,1.85,1.98,1.39,3.24,2.4c-0.44,0.49-1.49,0.22-1.38,1.38
		c0.51-0.01,0.44,0.56,1.09,0.41c0.5-0.77,1.44-0.92,1.85-1.82c-1.3-0.37-1.07-2.24-2.87-2.08c-0.12-1.33,0.6-1.65,0.72-2.69
		c-2.13-1.18-4.4,0.32-4.4-3.22c0.56-1.17,1.54,0.95,1.66-1.05c-1.64,0.57-1.83,0.37-2.69-0.65c0.4-1.16,2.31,1.06,2.44-1.14
		c-1.45,0.6-1.71-0.69-3.58,0.81c-0.18-2.76,1.98,0.08,2.13-2.5c-2.05,0.5-1.94-1.54-2.78,0.76c0.4-2.67-0.59-3.53-1.88-1.95
		c-0.03-0.54-0.09-1.04-0.77-0.76c-0.06-0.89,1.83-2.14,0.46-2.78c-0.83,0.41-1.29,1.18-2.01,1.71c-0.61-0.55-2.57-1.58-1.54-2.88
		c0.08,1.25,1.24,1.05,1.55,1.97c-0.41-3.07-3.96-3.27-1.6-6.55c-1.7,0.19-1.45-2.43-3.21-2.13c0.73,0.73,0.22,3.21,2.03,2.37
		l0.03,1.84c-0.52,0.11-1.05,0.22-1.56,0.33c-0.03-1.42-0.98-2.54-1.69-4.25c0.56-0.7,1.76-0.84,1.49-2.22
		c-2.25,0.53-3.05-2.55-3.53-3.24c-1.17,1.25-2.51-0.09-3.06,1.82c-0.12-0.32-0.37-0.43-0.82-0.23c0.94-1.76-0.24-2.65,1.23-3.67
		c-0.95-0.69-2.18,0.77-2.62,1.75c-0.57-1.91-4.82-2.25-2.03-3.65c-0.22-0.82-2.29-1.08-1.17-2.48c0.68,0.1,0.8,1.22,1.75,0.84
		c0.21-2.53-1.6-1.33-2.07-2.63l0.79-0.29c0.02-0.38,0.24-0.65,0.71-0.74c0.18,0.66,0.15,1.7,0.7,1.68c0.44-0.22,1.11-0.27,1.1-0.84
		c-0.99-1.13-2.26-2.99-3.94-1.02c-1.29-1.78-2.84-3.17-4.88-3.47c-0.05,1.29-0.54,2.3-1.44,3.06c1.02-3.2-0.82-0.12-1.72-2.24
		c0.9-1.64,2.79-0.21,2.86-2.19c-1.93-1.18-3.28-3.86-6.17-2.8c-0.77-3.28-4.72-3.52-5.44-6.44c0.59-0.51,1.18,0.16,1.13-0.58
		c-1.07-1.19,1.26-2.6-0.5-2.87c-0.66,0.69-0.42,1.81-0.93,2.57c-2.02,0.79-3.15-0.88-4.79-1.11c0.41,1.18,1.1,2.5,0.18,3.07
		c-0.99-0.29-1.65-1.62-2.77-1.51c0.9-0.4-0.06-1.49,0.61-1.96c0.51,1.57,1.23,2.38,2.23,2.38c-0.98-1.49-1.47-0.79-0.41-2.42
		c-1.67-0.7-3.1-2.27-4.83-2.89c1.28-0.67,1.26-2.78,0.02-3.26c1.18-1.25,1.13,1.74,2.22,0.8c-0.01-1.84-1.31-3.58-3.7-2.06
		c0.33,1.83,0.59,1.6-0.36,2.41c1.15,1.37,1.59-1.39,2.57,0.56c-0.87,0.54-1.4-0.07-2.39,0.95c-2.42-1.52-5.58-4.66-7.88-3.02
		c-0.88-1.06,0.01-1.66-0.89-2.72c-0.36,0.27-0.6-0.01-0.92,0.13c-0.87,0.11-0.55,2.11-1.41,1.07c-0.69-2.08-5.49-4.44-7.01-2.03
		c-1.35-1.01,1.02-1.18,0.33-2.04c-0.55,0.33-0.88-0.73-1.29-1.34c-0.9,1.33-1.44,0.35-1.98-0.79c-0.42,0.41-0.16,0.91-0.78,1.28
		c-0.63-1.2-1.51-0.5-2.15-1.71c0.59-0.49,0.67-1.07,0.5-1.67c-0.63,0.25-1.22,0.2-1.85,0.44c0.4,0.79,0.94,0.51,1.35,1.23
		c-1.24,0.24-2.22,0.02-2.76,0.67c1.11-2.13-2.18-0.68-2.08-3.05c-3.18,0.71-6.15-0.32-9.17-2.63c-1.2,1.46-0.81,0.63-1.5-0.39
		c-2.02,0.79-5.37,0.89-6.38-1.17c-1.42,2.16-4.48-0.99-4.95-2.1c0.28,0.23,1.97-0.09,1.23-0.69c-0.84-0.5-1.67-0.54-2.48,0.03
		c0.36,0.44,0.66,0.88,0.04,1.39c-1.36-0.6-2.66,0.33-3.98,0.64c3.2-2.53,3.1-5.22,5.47-3.1c1.65-1.3,3.33-0.35,5.01-1.37
		c1.14,0.93,0.53,2.11,1.85,2.1c-0.29,0.97-1.96,0.09-1.25,1.36c2.89-0.11,6.52,0.19,7.82-2.23c1.21,1.08-0.44,2.06,0.76,3.15
		c1.65-2.32,3.91,0.52,4.89,0.51c-0.81-0.17-1.67,0.34-2.54,1.11c-0.82-1.78-3.36-1.73-3.35,0.09c1.73,1.45,3.63,0.39,5.34,1.87
		l0.98-0.93c-0.17-1.3-1.88-0.63-1.1-1.52c0.55,0.88,1.3-0.92,1.95-1.17c2.09,2.95,3.04-1.74,5.31-0.38
		c-0.52,1.25-2.27,0.62-1.72,1.52c1.83,0.22,3.59,0.97,5.46,0.76c1.01,0.85,0.17,1.4,0.91,2.26c1-0.56,2.14-0.87,2.94-1.12
		c0.3,1.36-1.96,2.15-2.06,3.42c0.54,1.06,1.36,0.37,2,0.8c-0.16-1.86,1.75-0.96,2.22-0.55c-0.06-1.96,1.45-0.82,1.55-1.76
		c-0.13-0.27-0.23-0.52,0.12-0.68c1.25,1.24-0.97,1.66,0.09,2.85c1.64,1.31,3.53-2.53,4.52-1.03c-0.9,0.49-1.31,1.09-1.01,1.88
		c2,2.21,4.36-1.6,5.07-1.87c-0.7,0.62-0.17,1.62-0.26,2.44c-0.91,0.65-3.14,0.41-3.13,1.63c2.62,2.02,3.17-1.01,5.81-1.09
		c0.46,0.76,0.03,1.22,0.43,1.95l2.24-1.39c-0.34-0.81-2.6-0.27-1.76-1.69c1.13,0.53,2.09,1.65,3.48,1.2
		c-3.15-1.98-6.47-3.61-9.84-4.92c3.54-1.83,8.11,5.45,9.99,2.08c1.15-0.64,1.9,0.15,2.74,0.6c-0.43,0.33-1.14,0.56-0.97,1.11
		c1.8,0.82,3.22,2.83,4.98,3.65c-0.43,0.32-1.14,0.55-0.98,1.09c1.15-0.6,1.42,1.49,2.63,0.74c-0.5-0.76-1.25-0.74-1.65-1.83
		c2.39-0.64,3.12,0.24,5.46-1.65c1.06,1.94,1.23-0.72,3.17,2.24c2.62-1.55,5.9,2.69,8.37,4.22c-0.45,0.25-1.17,0.35-1.08,0.93
		c0.35-0.01,0.59,0.22,0.67,0.79c0.44-1.54,2.12-1.93,2.71,0.04c0.16,0.62-0.6,0.69-0.57,1.23c1.13-0.36,0.61-1.07,1.65-0.58
		c0.36,0.88-0.31,1.12-0.46,1.69c0.81-0.16,0.77-0.85,1.52-1.04c1.89,0.86,3.54,4.42,5.33,3.31c0.79,1.56-1.79,0.98-1.24,2.39
		c4.5-1.59,5.96,2.16,6.67,5.08c-0.1-0.5-0.59-0.25-0.33,0.58c-1.13-0.91-3.81-0.08-3.94,2.02c1.36,0.26,1.59-0.92,2.6,0.3
		c0.25-0.93,0.5-1.85,1.84-1.95c0.35,1.52-1.44,1.41-1.28,2.79c0.63,0.87,0.06,1.82,1.58,2.05c3.74-2.2,6.54,1.82,9.71,2.29
		c-1.04,0.08-2.01,0.23-1.99,1.3c1.36,1.08,1.27,2.13,2.97,0.51c0.27,3.1,1.64-1.14,2.2,1.15c-1.44,0.01-1.73,1.08-2.42,1.79
		c0.12,0.52,0.5,0.67,0.88,0.84c0.48-0.61,0.68-1.47,2.04-1.24c-0.77,2.04,0.97,2.01,1.74,0.75c1.38,2.84,3.62,4.57,5.44,6.4
		c1.74,1.92,3.09,3.88,2.65,6.8c1.68-0.35,1.63,1.21,3.32,0.89c-0.39,2.78,1.09,2.84,2.84,2.37c1.05,2.17,0.59,3.48,2.76,2.92
		c0.48,1.93-1.82,0.05-1.81,1.33c-0.02,1.7,1.71,1.06,0.51,2.91c1.48-0.28,1.78,0.58,1.9,1.57c-0.5,0.03-1.16-0.17-1.3,0.38
		c2.22,1.96,4.09,4.81,5.92,7.48c1.87,2.64,3.42,5.39,5.6,6.87c-0.31-1.72-2.76-3.85-1.89-5.2c-0.01,0.53,0.45,1.25,0.73,0.62
		c-0.21-1.24-0.43-2.73-1.46-1.24c-0.99-1.91,1.17-2.64,2.61-2.46c-0.06,2.99-0.09,7.3,2.69,5.94c-0.82,1.63,1.41,1.08,0.73,2.6
		c-1.09,0.42-1.29-1.53-1.66-0.36c-0.39,1.44,0.69,1.8,1.65,2.3c0.18-0.34,0.23-0.91,0.63-0.83c-0.32,1.6-1.35,1.93-2.93,1.27
		c-0.16-1.12,0.53-1.63-1.22-2.17c-0.04,2.1-2.03,0.72-2.29,2.41c0.8,0.3,0.87,1.13,1.3,1.69c3.47-1.39,7,0.57,8.42,2.97
		c-1.44-0.79-0.95,1.55-0.54,1.82c1.89-0.5,1.63,3.09,2.1,4.62c-0.63-0.12-1.44-0.63-1.76-0.06c-0.16,1.89,3.02,0.69,2.93,1.94
		c-2.01,0.58,0.54,1.58,0.62,2.18c-0.91-0.25-0.82,1.81-1.33,2.48c0.8,0.17,0.72,0.79,1.46,1c-0.53-0.65-0.75-1.89,0.62-1.74
		c-0.25,1.69,0.37,3.29,1.95,2.2c-0.08,1.62-1.39-0.18-1.47,1.43c2.35,0.44,0.5,1,1.02,1.95c0.94,0.49,1.5-0.15,2.1-0.64
		c-1.5,0.45-0.72-2.53-1.31-3.62c0.97,0.74,1.13-0.56,1.92-0.25c0.21,0.98,0.13,2.09,1.27,2.62c1.1-0.49,0.77-1.57,1.04-2.67
		c0.82,2.89-0.01,3.63-1.32,5.65c1.54,1.18-0.29,3.49-0.27,5c-0.88,0.33-2.07-0.26-2.9,0.21c0.7,1.28,0.45,2.97,1.38,4.15
		c0.9,0.09,2.33-0.64,1.94,0.92c-1,0.39-1.25-1.32-2.14,0.5c1.77-0.01,0.73,0.44,1.14,1.56c0.71-0.16,1.47-0.09,2.13-0.46
		c-0.25-0.31-0.55-2.19,0.43-1.86c0.2,0.84-0.59,2.02,0.69,2.46c1-0.67-0.17-2.09,0.84-1.67c-0.23,0.7,0.68,0.74,1.12,0.62
		c-0.47,1.47-1.18,2.03-2.03,2.09c0.47,0.74-0.18,1.86,0.63,2.47c-0.63,1.25-2.97,2.17-1.76,3.24c1.25,1.17,1.58-1.41,2.9,0.07
		c-0.55,1.71-2.05-0.56-2.6,1.14c0.26,2.44,0.36,4.85,2.54,6.77c-1.98,0.22,0.24,2.06,0.17,2.87c-0.36,1.2-2.45,1.37-1.77,2.65
		c1.33,0.75,3.39,1.7,4.12,2.32c-0.67,0.26-0.99,1.12-1.54,2.22c-1.45,0.69-0.32-2.08-1.76-1.24c0.17,1.45,0.27,4.54,1.95,4.69
		c0.45-0.95-0.85-2.09,0.6-2.33c0.88,1.28,0.86,3.06,0.83,4.7c-0.1,1.65-0.17,3.15,0.76,3.96c-0.81,3.55-3.02,5.6-0.44,7.29
		c-0.78,0.69-1.95,0.81-1.13,1.94c0.5-0.36,1.02-0.21,1.49-1.03l1.96,1.77c-2.91,0.51,1,4.11-1.16,4.46
		c0.76-0.98-0.41-1.5-1.22-1.21c0.6,1.03-1.38,2.1-0.03,3.11c1.62-0.63,0.58,1.08,1.52,2.18c-0.64,1.39-1.22-0.78-1.86,0.61
		c0.17,0.31,0.59,0.62,0.3,0.93c-1.43-0.14-0.75-3.39-3.04-2.47c1.59,1.64-1.9,4.49,1.44,5.22c-0.53,0.64-1.04,0.3-1.57,0.86
		c1.26,1-0.06,2.69,1.46,2.81c0.92-0.67-0.91-1.47,0.38-2.13c1.4,2.65,0.44,4.02,2.48,5.43c-0.99,0.68-1.8-0.55-2.8,0.08
		c1.87-1.34-0.36-3.21-1.63-2.56c0.95,1.48,0.24,2.86,0.84,4.35c0.63-0.05,1.27-0.3,1.96-1.07c1.54,1.28,0.6,2.35,1.2,3.56
		c-0.84,1.17-1.48,0.31-2.25,0.68c2.15,2.58-0.55,6.46,1.46,8.97c-0.97,0.13-1.75-0.76-2.69-0.79c-0.88,1.89,1.91,1.03,0.79,2.64
		c-0.34-0.41-0.7-0.77-1.22-0.23c0.31,0.68,0.64,1.95,1.49,2.18c0.16-0.91,0.34-1.82,0.8-2.68c0.53,0.58,1.19,0.4,1.93-0.28
		c0.22,2.18-0.78,4.12-1.14,6.18c0.66,2.08,1.89,1.15,2.91,1.31c-1.36,1.74-1.1,0.3-2.78,1.29c-1.81-3.21-0.36-4.22-0.65-6.55
		c-0.96,1.36-1.33,0.88-2.27,2.06c-1.51-0.62-1.29-1.67-3.17-1.6c0.83-0.47,0.22-2.78-0.17-2.47c-1.74,0.79-0.27,3.64,1.28,3.32
		c-1.54,0.52-0.86,3.08,0.03,3.11c1.38-0.41-0.31-1.52,0.71-2.02c0.34,0.38,0.83,0.03,1.32-0.34c0.56,2.56-0.85,5.86-1.66,8.56
		c-0.8,2.55-1.17,4.59,1.33,5.38c-0.54-0.44-0.02-1.8,0.75-1.07c-0.02,0.47-0.78,2.3,0.1,1.99c0.63-1.44,0.01-3.28-0.87-5.13
		c2.49-0.7,0.23-2.71,1.7-3.7c1.09,1.04-0.44,1.38-0.13,2.22c0.72,0.08,1.36,0.61,2.17,0.26c0.41,1.77,1.83,1.81,0.29,3.04
		c-1.24-0.32-0.77-3.06-2.7-2.08c1.49,2.04,1.78,4.05,3.18,3.89c1.02-0.19,0.22-2.54,1.69-1.51c-0.39,0.45-0.5,0.97-0.12,1.65
		c-2.36,0.18-1.6,3.64-4.41,1.95c1.44,1.57,1.96,6.84-0.31,7.91c0.47-0.12,0.82,0.17,1.17,0.45c-0.45,0.28-0.85,0.58-0.36,1.22
		c-0.94,0.24-1.71-0.07-2.33-0.91c0.97-1.41,1.02-3.19,1.41-4.83c-0.82,0.21-1.11-1.41-2.15-0.42c1.59,1.66-1.19,4.32,0.2,7.06
		c0.93-0.51,0.81-1.38,1.73-0.32c0.06,2.14-3,5.22-0.57,6.3c-1.48-0.12-3.14-0.28-1.87,2.29c-0.71,0.4-1.06-0.12-1.76,0.21
		c-1.05-1.18,1.16-0.84,0.1-2.02c-2.29,1.35-0.17-1.13-1.32-0.95c-1.15,0.38-0.5,1.58-0.88,2.31c2.03-0.28,1.05,1.86,3.01,1.78
		c-1.3,0-3.58,1.79-1.94,3.24c-0.78,0.18-0.69,0.81-1.42,1.01c-2.44-0.54,0.17-4.08-2.3-3.58c2.8-3.25,2.02-6.79,2.94-10.35
		c-2.41,0.48-0.05,3.36-2.42,2.91c0.05,1.44,0.39,1.71,1.47,2.32c-1.75,1.66-0.38,0.94-2.15,0.35c0.24,1.32-0.8,1.72,0.88,2.09
		c-0.95,1.81-2.19-1.42-3.41-1.62c0.4,1.73-1.84,2.16-1.52,3.85c0.66,0.02,1.24,0.29,1.91,0.3c-0.89-1.22,0.08-1.51-0.08-2.36
		c0.79-0.48,2.69,0.47,1.87,1.25c0.01-0.8-1.54-1.54-1.13-0.56c0.28,1.01,0.73,1.6,1.25,1.97c-0.45,0.93-2.39,2.8-1.35,3.37
		c1.38-0.41,0.32-2.1,1.69-2.52c1.09,1.5-0.79,2,0.6,2.71c-2.61-0.58-4.61,4.33-2.18,5.44c-1.32,0.79-2.46-0.54-2.3,1.11
		c0.3,0.59,0.91,0.55,1.23,1.09c-1.27,0.37-0.2,1.14,0.13,1.87c-0.77,0.73-1.82,1.27-2.44,2.05c-0.12-2.75-0.57-5.63-2.33-7.38
		c-0.58,1.11,0.51,1.37,1.11,2.04c-1.79,0.18-0.83,2.04-2.27,2.42c-0.36-0.94-1.31-0.69-2.28-0.41c1.11,2.16-1.26,2.08-1.32,2.58
		c0.26,0.64,0.34,1.64,0.93,1.67c0.43-0.23,0.3-2.53,1.33-1.21c-0.36,0.27-0.21,2.61,0.25,2.29c-0.36-0.88,0.83-2.45,1.75-1.32
		c1.11,2.55-1.29,2.71-0.04,4.67c-0.79,0.27-0.98-0.45-1.46-0.66c-0.46,1.29-2.46,2.88-1.14,4.32c-2.74,0.85-1.03,2.93-1.93,4.91
		c0.03-0.05-2.11,0.22-0.55,1.47c-1.08,0.53-1.18-0.51-2.13-0.22c1.31,1.79-1.56,2.91-1.74,4.7c-0.21-0.78-0.87-0.98-1.8-0.81
		c-1.53,0.69,0.62,1.25-0.15,1.82c-0.25-0.56-0.67-0.9-1.38-0.86c0.87,1.58-1.37,0.32-1.05,1.39c0.01,1.04,1.27,0.47,1.42,1.32
		c-1.67,1.08-1.26,4.18-3.11,5.09c-0.06-0.79-0.44-1.18-0.97-1.39c0.12,2.22-0.4,3.17-1.84,1.82c-0.57,2.28-1.46,5.14-3.84,4.25
		c0.26,1.72-1.21,1.5-1.52,2.59c0.58,1.01-0.15,1.33,0.51,2.8c-1.21-0.53-1.43-0.73-2.04,0.25c-0.89-1.07,0.43-1.74,0.73-2.67
		c-1.41-0.4-1.58-2.12-2.19-3.4c-1.05,0.56-1.93,1.31-1.06,3.03c-1.48,0.87-3.57,0.83-3.13,4.11c-1.03,0.4-1.26-2-1.63-0.75
		c-0.01,0.44,0.32,0.59,0.4,0.97c-3.08-0.17-4.66,5.02-7.92,6c1.81,0.37,1.57,0,3.18,0.76c-0.42-1.59,1.32-0.06,0.9-1.64
		c-0.45-0.15-0.66,0.52-0.8-0.18c1.57-2.51,3.53-1.72,5.03-3.97c-0.14,1.02-1.09,1.92,0.77,1.96c-0.23,1.56-0.93,1.77-2.09,0.97
		c-0.17,1.03-1.38,4.43-3.11,4.89c0.01-0.73,0.15-1.57-0.73-1.56c-1.03-0.19-0.74,1.56-1.34,2.01l1.2,0.29
		c-2.11,1.73-4.02,3.79-5.97,5.86c-1.19,0.02-0.96-0.96-1.94-1.08l-0.24,1.8c-0.8-0.12-0.71-0.86-1.06-1.29
		c-0.13,0.9-1.16,0.21-1.04,1.54c0.45,0.23,1.13,0.3,1.12,0.85c-0.94,0.04-1.13,1.45-2.24,1.15c0.08-0.73,0.29-1.55-0.57-1.63
		c-0.01,1.14-0.86,0.73-0.74,2.12c0.68,0.22,0.94,0.71,1.03,1.33c-2.6-1.53-2.49,2.07-4.19,2.25c-0.49-0.5,0.29-1.72-0.42-2.09
		c-3.82,0.03-6.61,6.35-11.95,4.66c-0.16,0.68,0.86,0.85,0.38,1.68c-1.3,0.57-0.1-0.85-1.36-1.25c-1.29,0.57,0.5,0.67-0.13,1.9
		c-0.95-0.33-0.58-1.23-1.72-1.47c-0.69,1.46-2.19,0.75-2.86,2.34c0.64,0.35,0.83,0.88,0.82,1.5c-0.45-0.18-0.61,0.44-0.78,1.07
		c-2.49-1.18-2.72,1.89-4.38,1.45c-0.56-2.03,1.45-1.36,2.08-2.34c-0.36-0.22-0.31-0.61-0.57-0.87c-1.76,0.92-3.6,1.58-5.48,2.1
		c1.38,0.63,2.63,0.72,3.56-0.2c-0.4,0.77,0.18,1.15,0.26,1.73c-2.45-1.19-1.09,0.77-2.54,0.93c-0.68-0.77-2.21-1.7-3.13-1.17
		c0.81,1.44,1.21,1.33,1.77,2.32c-1.07-0.81-1.53,0.58-2.77-0.93c0.21,1.3-1.34,2.4-2.05,0.62c-1.46,2.63-3.69,2.32-5.68,2.74
		c-1.06,0.85-0.35,3.06-1.37,2.75c0.15-2.07-1.17-0.26-2.1-2.39c-1.3,3.66-4.57,1.73-5.15,5.19c-0.97-1.05-1.54,0.74-2.36,0.78
		c0.28-2.13-1.05-2.07-2.62-1.44c-1.58,0.6-3.43,1.87-4.09,2.56c-0.77-2.2,1.82-1.52,1.65-2.58c-0.88-0.69-1.76-1.57-2.55-1.51
		c0.81,1.81-0.31,0.63-1,0.78c0.29,1.61,0.05,1.64-0.32,2.8c-1.18-0.83,0.4-1.88-0.21-2.76c-1.14-1.08-2.44-0.8-2.34-3.29
		c-0.51,1.55-0.42,3.04-1.05,4.59c-0.73-1.7-2.51-1.29-3.29-2.56c-0.2,1.52,1.87,2.89,2.04,4.38c-1.91,0.78-2.49-4.29-4.87-1.31
		c2.72,0.59,2.33,2.98,5.25,3.71c-1.1,0.02-3.61,0.75-3.84-0.58c0.28,0.19,0.55,0.12,0.81-0.33c-1.23-2.07-2.39-2.47-3.55-2.47
		c0.34-1.11,1.04-1.12-0.02-2.76c-0.61,0.27-1.23-0.61-1.84,0.3c0.4,0.99,1.59,0.16,0.53,1.4c-1.37-0.49-2.1-1.57-2.94,0.95
		c-1.09-2.37-3.88-1.65-3.48,0.22l-1-1.42c-0.53,1.85-1.12,0.75-2.19,1.15c-0.77-1.47-0.12-2.22-1.4-2.95
		c-1.2,1.17-2.53,2.47-4.07,1.2c0.66-1.03,2.45-0.01,2.28-1.78c-1.03,0.16-1.25-1.28-1.72-1.27c-1.82,1.24-2.35,0.8-3.48,3.01
		c-2.32-2.43-5.79,2.81-7.81-1.56c-0.24,0.88-0.56,1.17-1.27,1.11c-1.13-1.02,0.5-3.14-1.06-3.1c-0.9,0.61,0.51,1.78-0.7,2.31
		c-1.77-0.18-2.86-1.53-4.43,0.3c-1.18-1.02,1.01-1.16,0.44-2.02c-1.35-0.37-3.07-1.66-4.22,0.47c-1.06-0.6-1.93-1.82-3.4-0.84
		c-0.4-0.99,0.1-1.65-0.63-2.77c-1.42,1.78-1.43-1.44-2.69-0.26c-0.07,0.95-0.76,1.66-1.29,2.44c-0.55-1.79,1.93-2.44,1.03-4.37
		c-0.63,0.59-0.89-0.1-1.34-0.14c-0.09,0.82-0.05,1.69-0.96,2.2c-0.64-1.21,0.82-1.91-0.38-2.34c-1.12,0.77-0.97,2.06-1.04,3.26
		c-0.36-2.21-0.72,1.16-1.35-0.24c0.54-0.53-0.26-0.52-0.42-1.32c0.55-0.53,1.11,0.11,1.06-0.63c-0.36-1.76-1.57-0.94-2.44-1.15
		c0.14,1.51,1.38-0.18,1.38,1.78c-1.99,1.48-2.68-1.27-3.73,1.61c0.46-1.55-0.25-1.91-0.06-3.04c0.42-0.04,1.43-0.78,1.54-1.89
		c-0.89-0.49-2.56-2.73-3.5-0.57c1.06-0.6,1.95,0.92,1.47,2.23c-1.9,0.42-3.16-0.81-5.41,0.35c-0.64-2.22-3.14-0.39-2.03-2.96
		c-1.74,0.44-2.41-0.53-3.67,0.13c1.01-2.03-2.12-0.64-2.17-2.53c1.29-0.81,1.26,1.21,2.54,0.39c-0.92-3.17,1.78,0.23,2.05-1.9
		c-0.64-1.14-1.44-0.94-1.55-1.75c-2.05,1.37-4.05,0.59-6.23,1.64c0.08-1.14,1.63-1.36,1.6-2.56c0.91-0.75,2.05,1.02,2.34-0.51
		c-1.54-0.28-3.27-0.29-3.69-2.76c-1.46,0.13-3.42,1.05-3.39-1.58c-1.69-0.82-4.12,2.86-4.75,0.11c1.28,0.32,1.64-0.81,2.61-1.76
		c-2.78,0.12-5.07-3.79-6.96-2.11c-0.14,2.13,1.03-0.99,0.89,1.14l-1.98,0.55c0.74-1.99-0.5-2.56-1.42-3.34
		c-1.79,1.77-2.26-0.31-3.95-0.11c-0.49-1.48,0.23-2.02-0.45-2.7c-2.38,0.56,0.76,4.36-1.93,3.61c1.3-1.83-0.21-6.17-2.06-6.58
		c0.01,0.79-0.32,1.23-0.82,1.5c-0.33-1.24,0.58-1.28,0.42-2.35c-1.74-1.1-2.84,0.71-2.78-1.84c-0.82,0.22-0.84,1.34-1.65,1.56
		c-0.27-1.29,0.62-1.26,0.51-2.38c-1.75,0.06-3.02-0.51-3.02-2.5c-1.35-0.25-0.64,1.91-2.11,1.52c-0.35-0.9-1.44-0.97-1.9-1.75
		c0.92,0.09,1.54-0.18,1.7-1c-2.02-1.59-3.72-2.96-5.32-4.45c-1.53-1.58-2.93-3.34-4.43-5.59c-0.13,0.56-0.29,1.08-0.96,0.87
		c0.6-1.45-0.9-1.02-0.92-1.91c0.55-0.15,0.94-0.54,1.05-1.31c-1.34-0.62-1.33-2.39-3.27-2.53c0.07-0.85,0.66-0.94,0.76-1.74
		c-2.85,0.09-1.86-2.96-3.7-3.72c-0.11,0.45-0.46,0.49-0.62,0.83c0.83,0.48,0.87,1.55,1.07,2.52c-1.03-0.82-2.21-1.76-3.93-1.1
		c-0.17-2.01,2.11,0.28,2.35-1.03c-2.56-2.94-10.51-6.07-10.77-10.78c-1.51,0.27-1.11-0.44-1.7-1.47c1.94-1.28,3.15,2.88,4.52,0.8
		c-1.15-2.36-3.13-4.7-5.9-7.06c0.28-1.64,1.26-1.32,0.4,0.13c0.73-0.66,2.84,1.89,4.13,0.8c-1.05-1.69-3.92-3.63-4.94-3.46
		c0.5,0.08,0.69-0.53,0.89-1.14c-3.72-2.65-4.93-6.53-10.97-8.57c0.59-1.22,1.6-1.14,2.51-1.36c-0.18,0.78-1.07,0.8-0.57,1.24
		c0.34,0.73,0.74,0.89,1.35,0.11c-0.43-0.94-0.17-2.16-0.98-2.96c-0.37,0.54-1.07,0.07-1.55,0.28c-0.63-0.66,1.18-2.24,0.41-2.83
		c-0.47-0.16-1.02-0.63-1.32-0.18c0.6,1.57,0.72,1.21-0.64,2.27c0.84,0.69,0.97,1.65,1.18,2.59c-1.42-0.53,0.27,2.03-1.15,1.5
		c-0.64-1.21-0.18-0.74,0.56-2.28c-0.64-3.09-3.26-3.1-4.12-5.28c1.9,0.33,4.03,1.52,5.4-0.24c0.45-2.02-3.07-2.67-3.37-4.47
		c1.42-1.78-0.09-2.61-0.29-3.87c-1.31,0.54-3.95-2.49-2.66-3.18c0.18,0.96,1.32,2.47,2.08,0.74c-1.28-0.51-1.13-1.43-1.77-2.14
		c-0.41,0.59-1.11-0.29-1.44,0.7c-1.52-2.51-0.9-1.65-2.92-4.26c2.33-3.39-2.92-3.34-0.14-6.9c-1.24-0.66-0.78-1.61-2.2-2.25
		c2.25-0.17,3.72,0.22,5.77,0.96c-1.2-3.89-1.23-8.33-5.68-9.82c0.05-3.27-0.59-8.1-4.31-10.18c-3.15,4.1,4.73,8.72,2.56,11.68
		c0.39-0.84,2.43,0.18,1.94,1.09c-0.53-0.21-1.04-0.13-1.51,0.51c1.02,1.87,5.08,2.11,4.89,5.15c-2.43-0.86-6.92-3.16-7.45-6.18
		c0.78-0.51,1.8,1.98,2.51,0.38c-1.85-2.02-2.58-3.87-5.64-5.12c0.66-2.08,0.52-4.09,0.87-6.11c-2.58-1.97-1.64-3.91-4.66-4.29
		c0.83-1.43,1.64,0.94,2.47-0.71c0.09-2.31-0.26-1.12,1.56-1.69l-2.74-3.07c0.78-1.12,0.8-2.24,0.07-3.41
		c-1.34,0.63-0.29,1.36-0.66,2.03c-0.8-1.33-1.62-1.68-2.44-1.46c0.26-1.15-0.88-2.36,0.71-3.43c0.8,0.73,1.61,1.48,2.47,0.15
		c-1.74-1.46-3.34-3.17-4.94-4.87c2.67-1.37-2.71-3.59-0.17-4.97c1.34,0.35,0.65,1.68,2.06,1.29c-0.85,0.85,0.48,1.92,0.36,2.83
		c0.54-0.31,1.04-0.07,1.63-0.88L99,274.72c2.25-0.32,0.19-2.29,1.29-3.67c1.67,2.95,0.2,6.53,4.54,7.68
		c1.08-2.67-4.67-8.66,0.32-9.38c0.07-0.78-0.56-1.67-1.27-2.58c-0.45,0.27-0.93,0.88-1.3,0.47c1.29-4.76-0.65-10.32,1.31-15.01
		c-0.58,0.26-0.94-0.61-1.44-0.72c1.55-0.65-0.1-2.16,0.9-2.94c1.14,1.27,0.26,2.79,1.76,2.24c0.36-2,0.94-3.92,0.77-6.1
		c0.91-1.01,1.29-0.01,2.13-0.74c-0.4-0.49-0.94-0.47-1.22-1.45c0.9-0.55,1.49,0.05,2.52-0.93c-0.73-1.59-0.15-1.45-1.23-2.55
		c1.36-0.26,2.35,0.84,3.71,0.61c-0.17-1.45-0.9-3.13,0.51-4.01l0.4,0.85c0.24-0.09,0.48-0.17,0.58,0.22
		c-1.42,0.08-1.32,2.48-0.34,2.31c0.53-2.42,1-3.99-0.1-6.33c1.78,0.29,0.89-1.53,2.36-1.14c-0.75-0.32-1.18-1.35-0.3-1.89
		c0.71,1.69,1.87,2.16,3.45,1.48c-0.02,1.37-0.24,2.65-0.07,4.08c1-0.44,1.27,1.58,2.51,0.33c-1.99-2.33-1.39-4.3-0.97-6.54
		c-1.23-0.37-3.04-2.07-1.38-3.44c0.41,1.02-0.18,1.57,0.64,2.76c0.97,0.22,2.15-0.68,2.39-0.99c-0.32-0.45-2.26-0.96-1.26-1.98
		c0.1,0.57,1.74,1.02,1.37-0.05c-0.48-1.36-1.73-0.73-1.98-2.72c0.82-0.55,2.68,0.5,2.56-0.5c-0.94,0.03-2.75-2.08-2.11-3.22
		c1.3-0.01,0.8,1.37,1.45,1.47c-0.46-1.59,2.06,0.14,1.42-1.03c-2.64-0.36-2.11-4.8-0.65-6.15c-0.61-0.69-1.34-1.12-2.2-1.26
		c1.14-0.71,1.22-1.65-0.11-1.95c1.1-0.35,0.49-1.73,1.68-2.02c1.01,1.76,1.18,5.19,0.76,7.14c0.41-0.14,0.61,0.2,0.97,0.17
		c0.1-6,2.55-8.42,1.95-15.31c1.29,0.11,0.96-0.89,2.03-0.93c0.95,2.8-0.36,6.15,1.92,9.22l0.82-0.21c-0.52-4.43-2.09-10,2.04-11.37
		c0.5-3.35,1.15-8.52,3.97-8.76c-0.65-0.56-0.49-1.39,0.16-1.9c0.04,1.22,0.43,1.96,1.53,1.72c0.3-0.81,1.02-1.28,2.43-1.12
		c-0.1-1.15,0.63-1.49-0.66-1.81c0,0.55,0.24,1.3-0.25,1.41C137.89,184.64,139.75,183.24,139.11,181.04z M346.86,409.86
		c0.84,0.89,1.63-0.7,1.61,0.48c0.65,0.03-0.27-0.89,0.5-0.78C348.77,408.5,346.69,408.67,346.86,409.86z M366.31,386.81
		c-1.53,0.53-2.63,1.45-2.58,3.74C364.31,388.99,366.3,388.97,366.31,386.81z M367.97,386.94c-0.11-0.52,0.02-0.78,0.34-0.86
		c-0.14-0.48-0.85-0.36-0.9-0.93c-0.53,0.11-0.59,0.72-1.16,0.78C366.4,386.71,367.04,387,367.97,386.94z M382.57,369.87
		c-0.18-1.31-1.23-1.26-1.42-2.56c-1.49,0.91-2.55,2.09-2.35,4.33c0.4,0.35,1.16,0.16,1.4,0.78
		C381.33,371.85,381.53,370.52,382.57,369.87z M374.28,378.98c0.53-0.79,1.75-0.97,1.72-2.26
		C374.51,375.51,373.67,377.14,374.28,378.98z M368.38,386.97c1,1.3,2.42-0.44,2.26-1.7C369.21,385.15,369.51,386.79,368.38,386.97z
		 M366.96,389.96c-1.15,0.73-2.55,1.79-1.42,3.92C366.96,393.65,367.11,391.94,366.96,389.96z M374.08,383.48
		c-0.36-0.24-0.72-0.47-1.29-0.46c0.07,0.44,0.55,0.36,0.88,0.46c-0.27,0.81-1.58,0.57-0.95,2.27
		C373.76,385.58,373.74,384.34,374.08,383.48z M380.8,373.28l-1.22,0.12c0.1,0.64,0.19,1.28,0.68,1.31
		c0.04,0.54-0.66,0.45-1.15,0.54c0.08,1.16,0.21,2.22,1.54,1.7c-0.14-0.36-0.5-0.42-0.57-0.86c0.74-0.11,0.99,0.5,1.74,0.33
		C380.86,375.01,381.05,375.5,380.8,373.28z M384.95,367.26c-1.53,0.81-1.93,2.44-2.49,3.99c0.73,0.08,0.7-0.44,0.63-0.99
		c0.46-0.13,0.76,0.01,0.92,0.34C384.65,369.55,384.35,368.9,384.95,367.26z M383.95,361.55c1.03,0.68,0.73,2,0.77,3.02
		c0.75-0.06,0.74-0.67,1.54-0.69c-0.46,0.75-0.29,1.96-1.12,2.44c1.43,0.67,1.9-2.48,3.08-3.23
		C386.92,362.38,385.51,361.85,383.95,361.55z M379.93,365.67c0.88,1.2,1.92,2.15,3.78,1.77c-0.18-1.94-2.06-1.11-2.67-2.35
		C380.77,365.35,380.49,365.62,379.93,365.67z M358.63,392.13c-1.81-0.35-2.17,0.99-2.25,2.78c0.84-0.04,1.06,0.48,1.6,0.72
		C357.45,394.92,357.75,393.26,358.63,392.13z M389.07,353.15c-0.83,0.52-1.42,1.17-0.9,2.52c1.31-0.21,1.51-1.14,1.45-2.19
		C389.31,353.64,389.18,353.4,389.07,353.15z M390.99,348.52c0.69,1.74,2.43,2.12,2.87,0.57c-0.34-0.51-0.95-0.45-1.26-1.03
		c0.3-0.02,1-1.35,1.46-0.89c0.19-0.5-0.43-1.28-0.63-2.66C392.24,345.64,391.95,347.26,390.99,348.52z M403.69,336.22
		c0.15,0.51-0.57,0.66-1.01,0.92c0.41,0.69,1.09,0.67,1.94,0.15l-0.9-2.08C403.34,335.4,403.63,335.86,403.69,336.22z
		 M397.43,336.85c-0.86-1.34-1.93,0.51-1.6,1.57C397.57,338.45,396.09,337.01,397.43,336.85z M400.75,330.08
		c1.32,1.12,1.43,1.87,0.09,2.97c0.39,0.5,1.12-0.1,1.72-0.3C402.34,331.46,402.68,329.78,400.75,330.08z M403.31,322.27
		c-0.43,1.47-1,2.88-0.37,4.72C404.35,325.85,403.78,324.01,403.31,322.27z M400.08,323.44c-4.1-2.86-0.32,5-1.84,6.32
		c0.62,0.81,2.17-0.62,2.27-1.07c-0.27-0.91-0.82-0.93-1.21-1.41c1.69-0.97,2.04,2.65,3.73,1.69c-0.73-0.83-1.42-2.66-3.19-2.45
		c0.33-0.9,2.75-0.78,0.66-2.31c1.69-0.16,2.27-3.62,1.29-4.64C399.82,319.2,400.43,322.27,400.08,323.44z M316.67,428.46
		c1.18,1.27,1.46-0.19,2.22-0.19C318.72,426.82,316.86,427.25,316.67,428.46z M400.16,318.46c0.94-0.76,1.87-1.55,0.69-2.9
		C399.93,316.34,399.72,317.29,400.16,318.46z M375.77,312.23c0.15-1.3-1.99-1.72-0.98-2.54
		C372.35,308.93,373.66,313.08,375.77,312.23z M254.48,102.32c0.18-0.81,0.52-1.61-0.31-2.43c0.34,1.01-1.49,1.83-0.94,0.34
		c-0.88,0.12-1.43,0.98-1.84,2.07C253.39,102.91,253.09,101.95,254.48,102.32z M275.64,105.97c0.08-1.72-2.7-1.28-3.81-1.54
		C273.03,105.78,274.33,105.84,275.64,105.97z M279.89,108.32c0.54-1.16-1.39-2.9-2.1-2.41
		C277.26,107.23,279.35,107.69,279.89,108.32z M300.09,116.56c-0.7-1.62-2.21-0.2-3.5,0.59
		C297.48,117.97,298.75,117.35,300.09,116.56z M305.74,113.13c-0.34-3.03-2.93,0.02-4.96-0.32c0.84,1.46,1.73,0.96,1.73,2.79
		C303.67,114.49,303.94,113.06,305.74,113.13z M304.96,115.75c0.79,0.17,1.46,0.7,2.46,0.18c-0.76-1.25,0.05-1.92-0.91-3.24
		C305.46,113.51,305.82,114.85,304.96,115.75z M307.46,120.7c-0.47-0.8-0.46-1.4,0.25-1.74c-0.54-1.86-1.72-1.78-2.76-2.12
		c-0.88,1.66,1.66,0.58,1.83,2.14c0.1,1.44-1.66,0.83-2.26,1.36C305.31,121.06,306.28,121.2,307.46,120.7z M309.79,118.35
		c0.44-0.47-0.95-3.5-2.19-1.98C308.19,117.48,308.93,118.08,309.79,118.35z M319.49,125.59c0.26-2.22-2.94-2.84-5.04-1.7
		c-0.07,1.59,0.35,2.46,1.39,2.94c1.33-1.07-0.47-1.57,0.06-2.61c2.05-0.82,1.4,1.1,2.41,1.93
		C319.01,125.93,319.09,124.91,319.49,125.59z M323.28,127.99c-0.35-1.15-1.05-1.57-2.08-1.15c0.18,1.09,0.56,1.68,1.02,2.1
		C322.48,128.56,322.73,128.19,323.28,127.99z M328.79,123.85c-0.71-2.11-2.23-2.58-3.85-2.69
		C326.23,122.07,327.22,123.6,328.79,123.85z M325.13,133.82c-0.54-0.65-0.57-2.47-1.71-1.83
		C323.73,133.21,323.73,135.01,325.13,133.82z M334.44,132.91c-0.02-1.67-1.67-0.25-2.02-1.29c-0.4-1.18,2.39-0.34,1.34-1.94
		c-1.58,1.59-2.69,0.16-3.67,1.27C331.34,131.99,332.36,133.44,334.44,132.91z M331.92,137.68c-0.31-1.03-1.81,0.37-1.99,0.72
		C330.54,139.88,331.42,138.42,331.92,137.68z M338.59,137.11c-0.98-0.54-2.57,1.13-2.07,3.02
		C337.87,139.62,338.52,138.58,338.59,137.11z M338.61,146.77l-1.99,0.56c-0.03,0.78,0.46,0.69,0.55,1.27
		C337.91,148.19,338.87,147.96,338.61,146.77z M343.46,141.7c-0.38-0.34-0.57-0.94-0.65-1.77c-1.73,0.37-1.93-1.81-3.6-1.51
		c0.31,1.84,1.97,0.97,1.27,3.07C342.36,140.14,341.89,141.5,343.46,141.7z M346.12,146.79c-0.67-1.32-0.88-0.05-2.15-0.44
		c-0.08,1.01,0.4,1.16,0.59,1.75C345.71,148.17,345.3,146.99,346.12,146.79z M347.44,147.97c2.25-2.9-2.58-4.16-3.87-5.33
		C342.94,145.26,347.37,144.75,347.44,147.97z M355.13,155.28c0.28-1.48-1.16-0.74-0.88-2.22c-0.54,0.24-0.63,0.91-1.22,1.11
		C353.34,155.05,354.16,155.25,355.13,155.28z M364.09,167.66c0.49-1.8-1.74-0.69-1.04-2.74l-2.46,0.12
		C361.55,166.14,362.39,167.34,364.09,167.66z M203.03,131.78c-0.66-0.43-0.98,0.09-1.66-0.41c-0.48,0.82-0.14,1.3-0.22,1.95
		C202.25,134.18,202.66,133.07,203.03,131.78z M208.18,131.11c1.15-2.58-3.16-1.84-2.31,0.21
		C207.17,131.72,207.04,129.02,208.18,131.11z M218.27,131.08c-1.63,0.18-3.01-3.8-4.22-0.85c1.4-0.47,0.85,1.25,1.94,1.91
		C216.3,130.03,217.86,132.83,218.27,131.08z M226.86,132.35c-1.48-1.08-3.57,1.98-2.23,3.67c0.22-1.48,1-2.76,1.39-1.04
		C226.56,134.7,227.12,133.64,226.86,132.35z M214.63,148.39c0.08-2.19-1.08-0.68-1.81-0.74
		C212.97,149.59,213.98,147.55,214.63,148.39z M218.66,148.88c0.13-0.64-0.93-0.91-0.71-1.58c-1.09-0.3-0.98,1.28-1.96-0.47
		c-0.44,0.73-0.14,1.24-0.23,1.86l1.01,0.76C217.4,147.74,217.46,149.06,218.66,148.88z M172.2,194.01
		c-0.5,0.96-1.68-0.44-1.37,0.95C172.09,196.43,172.41,194.91,172.2,194.01z M175.94,195.97c-0.65,0.64-1.15,1.3-0.04,2.2
		C176.85,197.6,176.49,196.8,175.94,195.97z M169.19,214.28c-0.83,0.63,0.06,1.26,0.46,1.89l0.62-1.07L169.19,214.28z
		 M269.86,176.68c0.21-1.72-1.36-1.31-1.92-1.36C267.79,176.64,269.32,176.38,269.86,176.68z M302.61,189.43
		c-0.59-1.78-1.58-2.81-3.1-2.47C300.56,188.13,301.15,188.62,302.61,189.43z M308.23,193.38c0.5,0.32,0.99,0.64,1.49,0.97
		c0.11-0.41,0.16-0.87,0.13-1.39c-0.97,0.76-0.65-0.87-1.8,0.23C308.15,193.22,308.17,193.32,308.23,193.38z M341.63,229.28
		c0.11-0.14,0.2-0.29,0.25-0.48c-0.21-0.08-0.38-0.08-0.54-0.05C341.44,228.92,341.53,229.1,341.63,229.28z M342.19,230.34
		c0.37-0.2,0.64-0.38,0.13-0.44c-0.17-0.04-0.3-0.06-0.41-0.07C342.01,229.99,342.1,230.16,342.19,230.34z M344.81,234.29
		c-0.13,0.13-0.29,0.2-0.45,0.27c0.18,0.38,0.36,0.76,0.54,1.14c1.47,0.11-0.02,1.82,1.56,1.9c-0.1,0.25-0.25,0.44-0.4,0.62
		c0.06,0.15,0.12,0.3,0.19,0.44c0.64,0.05,0.55,0.46,0.38,0.9c0.15,0.35,0.3,0.7,0.45,1.06c0.11,0,0.18,0.02,0.32,0.01
		c0.21-1.62,0.07-3.11-0.38-4.43c-0.49-1.3-1.19-2.49-1.9-3.67C344.95,233.16,344.46,233.96,344.81,234.29z M368.32,218.01
		c-0.87,1.18,0.05,1.32-0.13,2.09c0.73,0.35,2.77-1.98,2.06,0.02c0.29,0.15,0.43-0.07,0.55-0.3l0.76,0.17
		c-0.14-0.41-0.01-0.97,0.32-1.65C370.63,218.08,369.71,218.59,368.32,218.01z M375.58,212.62c-1.49-0.07-0.6-1.49-2.02-2.25
		c-1.12,2.13,0.97,2.33,0.97,3.78C375.11,214.14,375.27,213.21,375.58,212.62z M373.69,216.15c-1.76,2.12-1,5.26,0.9,6.34
		c-0.81,0.2-1.7,0.91-1.36,1.83c1.91-0.2,1.14,0.33,1.39,2.19c1.52,0.09,1.6,1.3,2.58,0.83c0.65-1.08-0.13-2.52-1.07-1.24
		c-0.39-0.92,0.63-1.45-1.07-1.23c0.44-0.32,1.06-0.13,1.33-0.92c-0.46-1.04-0.59-1.08-1.84-0.57c0.59-0.87,1.22-1.57,2.09-1.62
		C375.14,220.81,373.3,218.93,373.69,216.15z M388.44,203.52c0.28-0.98-1.62-0.68-2.23-1.12
		C385.81,203.59,387.72,203.96,388.44,203.52z M377.17,246.55c0.74-1.63-0.7-2.6,0.29-4.33c-0.45,0.11-1.34,0.12-1.06-0.46
		C375.62,242.66,375.48,245.55,377.17,246.55z M372.5,242.8c-1.61,0.73-0.54,2.72-0.43,3.71C374.12,245.7,371.99,244,372.5,242.8z
		 M377.32,228.73c-1.99,0.03-0.84,1.56-0.3,2.12C378.8,230.53,376.1,229.76,377.32,228.73z M384.34,215.43
		c0.73,0.91,0.91,2.09,1.71,2.98C387.42,217.65,385.16,215.09,384.34,215.43z M378.13,221.32c-1.86-0.31-0.75,2.1-1.35,1.85
		c0.2,0.79,0.76,1.39,1.62,1.88C378.36,223.8,378.01,222.68,378.13,221.32z M292.27,182.78c0.63-1.6-0.85-1.79-1.67-0.82
		C290.81,183.34,292.07,181.37,292.27,182.78z M172.89,245.17c-0.1,0.01-0.14,0.02-0.22,0.03c0.04,0.07,0.07,0.14,0.11,0.22
		C172.82,245.33,172.84,245.25,172.89,245.17z M140.3,371.9l0.39-1.31l-1.58-0.41C139.26,370.91,138.86,372.01,140.3,371.9z
		 M143.24,375.3c0.12-1.88-1.25-2.72-1.87-4.09C140.67,373.43,141.46,374.74,143.24,375.3z M146.01,377.67
		c0.06-1.37-2.14-1.13-1.84-2.66C142.78,375.88,144.18,377.89,146.01,377.67z M182.15,412.95c-1.1-0.18-0.99-2.1-2.42-1.83
		C180.01,412.48,180.67,413.32,182.15,412.95z M208.88,426.57c-0.67-1.4-1.24,0.81-2.12-0.46
		C205.56,428.02,208.8,427.46,208.88,426.57z M211.35,429.71c-0.22-0.88,0.85-1.1,0.27-2.14c-1.23,1.11-2.14,0.27-2.57,1.37
		C209.72,429.44,210.27,430.26,211.35,429.71z M238.53,438.3c0.85-2.86-1.18-0.35-1.96-2.28
		C235.96,437.77,238.06,437.35,238.53,438.3z M246.88,437.82l-0.62-1.2c-1.06,0.03-2.1,0.01-3.38,1.33
		c0.49,1.39,1.24,1.17,1.85,1.85C245.6,438.01,245.33,438.26,246.88,437.82z M380.4,284.63c-0.63,0.26-1.22-0.62-1.87,0.42
		c2,0.4,2.02,1.16,1.06,2.53c1.17,0.08,0.31,0.62,1.41,1.35l1.34-0.92c-2.17-0.27-0.31-1.9-1.34-2.86c1.7-0.3,1.32-2.57,1.06-3.77
		c-0.45,2.01-1.34,0.75-3.15,1.94L380.4,284.63z M399.02,259.23c0.63,0.14,1.14-1.26,1.79-0.85c0.34-1.64-1.64-0.3-2.25-1.16
		C397.71,258.04,398.08,258.66,399.02,259.23z M402.95,262.34c0.85-0.8,0.48-1.48-0.46-2.07
		C401.65,261.08,402.01,261.73,402.95,262.34z M379.59,290.34c-2.4-1.29-0.02-0.62-0.05-2.25c-0.49-0.27-1.03-0.03-1.51-0.35
		C376.62,288.47,377.61,291.53,379.59,290.34z M373.6,296.26c-1.09,0.56-0.44,1.36,0.04,2.16
		C374.54,297.84,374.59,297.11,373.6,296.26z M378.59,290.99c-0.89,0.33,0.06,0.84-0.45,1.2c1.04,0.83,2.02,2.22,3.29,1.12
		C379.24,292.46,380.53,292.08,378.59,290.99z M401.64,254.63c-0.91,1.66,1.07,2.85,2,4.27c0.75-0.81,1.43-1.63,0.75-2.26
		c1.21-0.58,2.33,0.46,2.83,0.53C408.39,254.03,403.4,256.65,401.64,254.63z M403.65,253.37c1.48-1.08-0.38-1.58,0.26-2.53
		C402.59,250.72,402.62,252.91,403.65,253.37z M401.47,251.3c0.07,1.01-0.73,2.16,1.04,2.87
		C403.09,253.05,401.94,252.23,401.47,251.3z M257.57,438.28c-0.92,2.06,1.03,1,1.67,2.64C259.73,439.4,257.95,439.52,257.57,438.28
		z M375.16,284.19c1.29-0.52-0.12-1.12,0.37-1.67C374.36,282.14,373.82,283.72,375.16,284.19z M379.74,272.86
		c-0.35,0.77-0.29,1.51,0.94,2.22C382.3,274.22,380.89,272.82,379.74,272.86z M379.83,268.59c1.43,0.43,1.09-0.22,2.22,1.07
		c1.31-1.82-2.68-1.56-1.11-3.22C379.19,265.89,379.7,267.86,379.83,268.59z M377.8,265.3c0.06,1.65-1.36,4.52,0.59,5.17
		c1.01-1.51-1.21-2.69,1.3-4.4C379.02,265.23,378.45,265.92,377.8,265.3z M374.46,266.45c-0.22,0.67-0.43,1.33,0.72,1.86
		C375.8,267.54,375.44,266.33,374.46,266.45z M382.16,258.5c1.7-1.1-0.56-3.75,0.75-5.71C379.74,253.39,382.62,256.79,382.16,258.5z
		 M377.89,256.98c-0.3,0.74,0.18,1.32,0.88,1.87C379.67,257.94,378.8,256.79,377.89,256.98z M382.54,250.19
		c1.19-1.75-1.65-2.46-0.7-4.15C378.99,246.37,382.43,248.92,382.54,250.19z M381.38,241.24c-0.12,1.43-0.47,2.3-2.03,2.27
		l-0.48,0.68c0.5-0.12,1.06,0,1.66,0.32C381.69,243.04,383.1,242.28,381.38,241.24z M397.11,217.93l-0.77-0.34
		c-0.78,1.24,0.76,1.46-0.37,2.83c0.83,0.52,1.51,0.59,2.13,0.44C397.89,219.28,396.28,219.3,397.11,217.93z M397.23,213.45
		c1.08,0.89,1.49-0.17,2.31-0.03c0.77,1.07-1.84,0.35-1.88,2.23c0.6,1.26,2.3-0.08,3.11,1.37c0.98-2.26-0.86-3.32-1.08-5.07
		C398.78,212.22,397.78,212.21,397.23,213.45z M395.13,214.1c-0.12,1.19,0.1,2.19,1.58,2.66
		C397.06,215.47,395.77,214.92,395.13,214.1z M394,209.18c-0.68,1.26,0.62,1.52,0.31,2.59c0.6,0.13,0.67-1.23,1.3-0.98
		C395.95,209.8,395.04,209.45,394,209.18z M377.18,231.34c-0.68,1.89,1.41,1.88-0.95,3.17c0.91,0.46,1.4-0.41,1.96-1.05
		c0.89,1.87,1.43,4.43,2.71,5.71c0.62-2.92-2.71-4.95-0.11-7.88C378.87,232.53,378.62,231.78,377.18,231.34z M391.94,203.64
		c0.81,1.68,0.83,3.75,2.22,5.11c0.13-1.81-1.13-2.89-1.01-4.72L391.94,203.64z M391.12,199.47c-1.24,0.41,0.01,2.35-0.23,3.34
		c0.4-0.13,0.81-0.26,1.36-0.06C392.96,201.03,390.79,200.97,391.12,199.47z M389.83,195.15c-1.59,0.92,0.04,2.88,0.08,3.95
		c1.28-0.04,0.66-0.53,0.96-1.68c1.34,0.05,0.94,1.13,2.27,1.19C393.23,196.23,391.18,195.85,389.83,195.15z M386.63,192.46
		c0.71,0.26,2.2,0.03,1.42,1.27c1.81-0.42,2.47,1.48,3.26-0.63c-0.58-0.76-3.7-0.09-3.39-2.26
		C387.16,190.79,386.78,191.41,386.63,192.46z M370.53,212.83c0.14,1.35,1.18,0.73,2.48,0.97c-0.17-0.72-0.68-1.23-0.85-1.95
		C371.34,211.54,371.26,212.94,370.53,212.83z M371.39,206.37c0.36,1.15,0.29,2.55,1.74,3.01c0.7-0.9-0.64-2.07,0.41-2.16
		C373.23,206.52,371.99,205.94,371.39,206.37z M369.2,197.73c-1.53,0.84,0.4,1.9,0.93,2.34
		C370.48,198.81,369.31,198.65,369.2,197.73z M374.21,187.87c-0.4,1.18,0.19,1.55,1.28,1.57
		C375.89,188.28,375.28,187.88,374.21,187.87z M361.04,195.76c-0.56,1.87,2.5,0.43,0.62,2.14c0.6,0.27,1.94,0.15,3.29-0.62
		c1.48,1.4,2.77,3.01,2.19,5.91l1.94,0.24c0.08,1.23-2.77,4.38-0.5,5.09c0.26-0.69,0.08-1.09-0.35-1.32
		c1.58-1.86,2.18,1.16,2.47,2.13c0.89-0.66,0.36-4.52-1.66-3.31c0.77-1.94,3.75-1.54,3.67,0.11c1.61-1.18-1.29-2.14-0.88-3.63
		c-0.8,0.21-0.3,0.76-0.4,1.26c-1.33-0.29-1.51-1.36-2.73-1.69c0.22-0.92,1.44-0.01,2.08-0.16c-1.33-1.77-5.32-2.53-3.94-5.78
		C364.72,196.58,363.31,196,361.04,195.76z M357.26,203.67l-0.4,1.24l1.49,0.08C358.82,203.9,358.26,203.59,357.26,203.67z
		 M366.79,193.44c0-1.04-1.05-1.22-1.08-2.25C364.26,192.09,365.77,193.42,366.79,193.44z M364.24,186.73
		c-0.73,1.37,0.41,1.09,0.44,1.78C365.59,188.38,365.73,185.95,364.24,186.73z M360.46,189.74c1.2-0.01,1.33,0.94,2.07,1.34
		c-0.52,0.75-1.71,0.52-1.66,2.12c1.26,0.95,1.57-0.52,2.95-0.78c0.08-1.69-1.77-1.73-1.12-3.96
		C361.58,188.34,360.57,188.37,360.46,189.74z M359.55,197l0.42-1.68c-0.27,0.12-1.75,1.03-1.56-0.01
		C357.04,196.1,358.37,197.3,359.55,197z M359.79,194.47c-0.63-1.32,1.5-2.98-0.48-3C358.42,192.36,358.9,194.1,359.79,194.47z
		 M368.57,175.52c-0.27,1.42,1.12,2.14,1.83,1.49C370.15,176.18,369.88,175.36,368.57,175.52z M366.71,170.82
		c0.11-1.49-1.8-0.95-2.78-1.31C363.77,171.07,365.34,170.82,366.71,170.82z M368.64,175.06c-0.48-1.55-1.13-2.99-2.39-3.78
		C365.27,172.88,367.36,174.36,368.64,175.06z M361.34,183.11c-0.22-0.66-0.01-1.75-1.33-1.35l-0.23,1.35H361.34z M359.46,184.9
		c-1.17-0.37-1.55,0.4-2.1,0.91C357.22,187.26,359.58,186.65,359.46,184.9z M356.07,184.52c0.01,0.85-0.21,1.9,0.83,1.74
		c0.57-0.67,0.81-1.82,1.56-2.23C358.4,183.09,356.89,184.68,356.07,184.52z M356.17,188.03c1.04-0.9-1.48-1.41-0.95-3.04
		C352.97,186.27,355.54,187.39,356.17,188.03z M323.32,192.56c1.05-0.19,1.26,0.79,2.57,0.27c0.43-2.1-1.36-1.17-1.72-2.18
		C323.57,190.96,323.33,191.64,323.32,192.56z M335.48,170.53c0.95,2.31,0.45,2.74,0.22,4.33
		C337.32,173.7,337.84,169.98,335.48,170.53z M339.27,163.27c0.27,1.64-1.05,2.91,0.76,2.54
		C340.62,164.99,340.71,162.54,339.27,163.27z M336.26,167.65l1.87-0.48c0.62-1.93-1.62,0.25-1.49-0.97
		C336.2,166.38,336.32,167.1,336.26,167.65z M331.98,163.14c1.06,1.49,2.32,2.6,4.28,2.71
		C335.61,163.74,333.81,160.62,331.98,163.14z M332.13,166.66c0.04-1.59-0.63-2.12-1.95-1.57c0.26-2.33-1.94-0.61-2.01-2.44
		c-0.84,1.48,0.34,3.56,2.01,2.44c-0.27,0.5-0.35,1.14-0.3,1.89C331.28,165.57,330.5,167.42,332.13,166.66z M315.74,180.71
		c0.71,0.88,1.43,1.68,2.98,1.13C318,180.99,317.31,180.04,315.74,180.71z M332.16,159.45c-0.15,1-0.99,1.8-0.24,2.35
		c1.09-1.46,1.58-1.19,3.4-1.53c-0.12,0.9-1.05,1.14-0.66,2.45c0.81-0.06,1-0.62,1.51-0.91c-0.21-1.63-0.11-3.19-1.76-3.54
		c-0.66,0.54,0,0.83,0.09,1.34C333.68,159.61,333.33,158.85,332.16,159.45z M329.5,159.89c0.67,0.2,0.71,1.44,1.95,0.71
		C331.49,159.11,330.28,158.55,329.5,159.89z M326.95,156.64c0.01,1.57,1.67,0.17,2.34,0.56
		C328.87,156.37,328.07,156.21,326.95,156.64z M326.08,155.55c0.02-1.11-0.25-1.69-0.64-2.07
		C324.32,154.01,324.8,156.48,326.08,155.55z M317.22,153.42c-0.21,0.53-0.22,1.18-0.08,1.93c1.46-0.83,1.52-0.16,1.33,1.25
		c1.33-0.68,0.95-0.98,2.16-1.01c-0.43-0.64-1.17-0.65-1.12-2.31C318.72,153.38,318.31,152.66,317.22,153.42z M312.88,148.86
		c-0.86,0.32-1.34,0.83-1.67,1.42c0.23,1.11,0.37,0.37,0.8,0.02c1.78,0.6,2.67,2.47,4.39,0.63
		C315.44,149.76,313.58,150.67,312.88,148.86z M298.81,167.55c-0.55,1.1,0.57,0.74-0.06,1.48c0.83,0.37,2.42-1.29,2.57,0.93
		C301.82,168.03,300.12,166.62,298.81,167.55z M311.15,155.58c-0.12-1.16-0.5-1.76-1.38-1.09
		C309.91,155.67,310.26,156.25,311.15,155.58z M315.91,144.33c0.12,1.49,1.22,0.72,1.55,1.73
		C318.14,145.3,316.82,143.6,315.91,144.33z M314.71,144.46c0.69,0.93,1.95-0.96,1.16-2.08
		C314.6,142.63,315.71,144.08,314.71,144.46z M294.74,163.41c0.19,1.13,0.54,1.65,1.31,0.87
		C295.88,163.16,295.5,162.63,294.74,163.41z M306.31,139.18c0.44,1.69,1.51,1.51,2.75,0.94
		C308.23,139.6,307.53,138.65,306.31,139.18z M283.55,159.07c-0.74,1.15-1.06,0.15-1.79,1.31
		C282.23,161.46,284.36,160.96,283.55,159.07z M296.52,135.25c0.17,1.39,0.88,0.75,1.12,1.86c1.56-1.99,1.93,0.22,3.19-0.65
		c-0.51-1.37-1.55-0.93-1.92-2.9C297.62,134.76,297.96,134.52,296.52,135.25z M291.48,131.3c-1.24,1.88,3.09,3.78,3.54,2.33
		C294.22,131.36,292.35,133.42,291.48,131.3z M265.81,155.84c0.84,1.74,1.81,0.98,2.78,0.74c0.02-0.57-0.16-1.19-0.52-1.81
		C267.23,156.37,266.63,154.36,265.81,155.84z M268.24,146.44c0.76,1.37,1.65,0.81,2.46,1.39
		C270.87,146.7,269.06,145.21,268.24,146.44z M270.08,138.68l2.24-2.48c-1.08-1.11-3.29,0.09-3.16,1.66
		C269.44,138.56,269.79,138.21,270.08,138.68z M254.65,153.48c1.01,1.74,1.94,1.85,2.89,0.44
		C256.57,152.91,255.58,152.47,254.65,153.48z M267.9,131.08c2.36,1.49,0.27,5.4-1.2,6.46c2,1.43,1.73-2.61,3.88-4.36
		c1.15-0.28,2.09,1.4,3.26,0.81c-0.2-2.11-2.68-0.39-1.31-2.28c-1.1-0.94-2.68,0.31-2.97-1.8
		C268.83,130.33,267.96,129.82,267.9,131.08z M261.4,140.23c0.87,0.54,1.78-0.06,2.69-0.23
		C263.22,139.63,262.34,138.59,261.4,140.23z M258.5,137.35l-1,1.36c0.57,1.33,1.15-0.25,1.71,1.09
		C259.38,138.99,258.8,138.17,258.5,137.35z M251.89,146.21c-0.62,0.84-0.12-1.07-1-1.33c-0.18,1.28-1.64,2.65-0.5,3.85
		c0.61-0.74,0.01-1.39,0.82-2.13c0.5,0.43,0.3,0.91,0.07,1.38c0.57,0.69,1.06-0.22,1.58-1.09c-0.63-0.59-0.15-1.15,0.18-1.72
		l-1.01-1.39C251.64,144.6,252.26,145.37,251.89,146.21z M234.12,154.29c-0.61,0.01-1.21,0.11-1.82,0.15
		c-0.34,1.81,1.56,1.19,1,2.45c0.3,0.96,1.32-0.22,1.67,0.55c0.65-0.08,0.85-0.63,0.58-1.65c1.69-2,4.87,0.74,7.19,0.82
		c0.57,0.01,1.3-0.5,2.04-0.42c0.65-0.44,1.61-0.68,2.19-1.33c-0.33,1-0.31,1.2-0.53,2.3c0.6,0.58,1.14,1.19,2.5,1.46
		c3.26,0.6,6.12,2.36,8.06,5.13c0.67,0.17,0.57-0.92,1.37-0.54c2.21,2.94,4.09,6.07,5.66,9.47c0.06-0.11,0.13-0.21,0.16-0.37
		c0.04,0.35,0.03,0.57,0.01,0.73c0.23,0.52,0.49,1.01,0.7,1.54c0.28-0.05,0.51-0.33,0.55-1.03c0.63,1.78,0.99-0.18,1.19,1.93
		c0.83-0.36,1.67-0.81,1.68-2.52c0.97-0.3-0.18,2.32,0.78,1.87c0.03-1.26,0.51-2.23,1.61-1.14c0.24,0.62-0.52,1.08-0.36,1.69
		c0.74,0.11,0.36-0.78,0.73-1.63c0.23,0.78,0.58,0.47,0.81,1.18c0.04,1.75-1.24-0.2-1.1,1.57c0.92,1.02,2.27-0.29,2.15-2.44
		c0.36,1.9,1.33,3.89,1.74,1.13c0.73,0.22,0.16,0.9,0.3,1.86c2.49-0.51,3.4,1.41,5.96,0.22c0.56,0.99-0.05,1.65,0.05,2.51
		c1.38-0.41,2.56-2.47,2.57,0.17c1.07-1.19,1.52,0.27,2.05-0.66c-0.29,0.38-0.14,0.92,0.01,1.47c0.63-0.86,4.17-2.33,3.26,0.55
		c1.32-1.12,2.87-1.43,3.68-2.52c0.15,3.65,4.9,1.92,2.84,4.51c0.54,1.26,1.37-1.63,1.61,0.46c0.06,1.42-1.06-0.86-1.13,0.93
		c0.54,0.97,2,2.11,2.75-0.47c-0.5,0.2-1.6-0.6-1.09-1.33c1.04,1.09,2.8,1.42,2.82,3.47c0.96-0.16,0.13-1.51,1.11-1.66
		c0.23,1.95,0.74,0.49,1.29,1.26c-0.09-1-0.16-1.98,0.15-2.71c-0.96,0.28-1.76,0.26-1.71-1.89c0.98-0.51,0.82,1.69,1.95,0.84
		c0.52,1.51-0.7,3.92,0.52,3.55c0.89-0.49,0.88-1.56,1.77-2.04l0.04,0.83c0.19-0.1,0.37-0.17,0.32,0.21
		c-0.97,0.56-1.82,1.2-2.08,2.23c1.18,0.11,0,0.98-0.53,2.05c0.57,1.18,1.33-0.74,2.42-0.8c0.35,1.94,2.22,3.38,3.75,0.5
		c0.08,1.78-1.66,2.05-1.88,3.57c0.7-0.85,1.83-1.34,2.46-2.24c0.28,1.21,0.76,1.97,2.09,1.3c0.03,1.46-1.81,1.36-1.38,3.16
		l2.2-1.19c-1.14,1.91,0.22,1.75,0.38,3.32c0.41-0.23,0.48-0.75,0.99-0.89c0.36,1.64,1.57,2.89,3.58,1.01
		c-0.84,1.58,0.4,2.52,1.36,1.37c-1.06,3.34,1.73,1.26,1.69,3.12c0.89-1.09,0.35-0.04,0.93,0.02c0.07-0.54,0.3-0.94,0.53-1.33
		c0.76,0.04,1.89-0.35,1.76,0.86c-0.92,0.33-1.3-1.1-2.02,0.75c1.36,0.25,0.91,2.74,1.46,3.96c0.18,0.18,0.36,0.36,0.54,0.54
		c0.75,0.1,1.42-0.26,2.07-1.4c0.05-2.36-1.92,1.21-2.05-0.49c1.38-0.34,1.75-1.94,2.75-2.76c-1.13,1.92,0.03,2.22,0.22,3.35
		c-0.86,0.53-1.74,1.02-2.05,2.23c0.06,0.06,0.12,0.12,0.18,0.18c0.57-0.3,1.39-1.34,1.4-0.42c-0.35,0.25-0.66,0.55-0.95,0.87
		c0.22,0.23,0.46,0.45,0.68,0.69c0.46,0.2,0.91,0.41,1.27,0.73c-0.09,0.18-0.12,0.33-0.17,0.49c0.27,0.29,0.53,0.59,0.79,0.88
		c0.64-1.58,2.22-3.16,2.26-1.39c-0.43,0.16-0.96,0.18-1.14,0.65c1.62,0.32,2.57,1.37,3.41,2.53c-2.23,0.85-2.25-1.15-4.21-1.43
		c0.61,0.69,1.23,1.38,1.82,2.09c0.13-0.07,0.26-0.15,0.36-0.26c0.05,0.24,0.01,0.57,0.07,0.8c0.04,0.05,0.09,0.11,0.13,0.16
		c0.12,0.11,0.32,0.15,0.77-0.05c-0.15,0.24-0.23,0.43-0.31,0.62c0.46,0.56,0.93,1.12,1.37,1.69c0.23,0.06,0.45,0.14,0.62,0.28
		c-0.15,0.07-0.17,0.14-0.24,0.2c1.23,1.6,2.39,3.24,3.52,4.9c0.1-0.19,0.19-0.4,0.28-0.63l1.71-0.13
		c-0.27,0.93-0.97,1.06-1.49,1.52c0.5,0.76,1.02,1.5,1.51,2.27c0.43-0.79,0.23-1.75-0.14-1.98c1.78-0.54,0.22,2.18,1.94,0.96
		c-0.38,0.75-0.94,1.13-1.51,1.49c0.76,1.22,1.5,2.46,2.22,3.72c0.29-0.17,0.6-0.36,0.96-0.66c-1.24-0.26-1.82-0.93-2.31-1.69
		c1.28-0.86,0.61,1.01,1.93-0.41c-0.08,1.86,2.46,3.23,1.79,4.67c0.14-0.4-0.09-0.56-0.3-0.74c-0.57,0.81-0.27,1.29-0.68,1.41
		c0.23,0.43,0.47,0.85,0.69,1.29c0-0.29,0.04-0.59,0.05-0.89c1.75-0.66,0.27,0.54,1.88,0.46c0.04-1.18-0.91-1.75-0.87-2.94
		c0.43-0.04,0.95,0.11,1.22-0.3c-0.37-0.63-0.67-1.07-1.72-0.08c0.19-1.44-0.1-2.52-1.17-2.53c1.06-0.16,0.55-1.13-0.37-0.7
		c0.22-0.49,0.54-0.79,0.86-1.08c-0.27-0.3-0.73-0.46-1.6-0.32c1.32-2.18-0.11-2.39-1.14-2.84c0.67-0.08,0.76-1.28,1.34-1.53
		c-2.58,0.06-0.58-4.84-3.74-3.38c0.88-1.54-0.61-1.05-1.22-1.29c0.15-1.13,0.84-1.44,1.14-2.35c-2.41,1.31-0.91-3.1-2.13-3.8
		c-0.53,0.18-0.78,0.75-1.28,0.97c-0.34-1.1-0.5-1.34-1.27-2.38c0.73-0.88,1.31,0.36,1.97-1.16c-4.14,1.73-4.03-3.04-5.24-4.42
		c-0.42,0.67-0.79,1.41-1.62,1.58c0.18-1.32-0.98-1.07-1.17-1.96c0.87-0.3,1.65-0.69,2.19-1.39c-0.85-1.86-2.72-2.92-4.33-4.14
		c-1.6-1.23-2.95-2.62-3.12-5.08c0.23,0.5,0.36,1.13,1.21,0.75c-0.16-1.09,0.59-1.27,0.54-2.23c-2.22,1.39-0.88-1.64-1.46-1.91
		c-1.01,0.11-1.04,1.12-2.06,1.29c0.57-1.86-0.05-1.73-0.2-2.74c-0.66,0.18-0.69,0.86-1.05,1.29c-0.27-1.01-2.71-0.45-1.9-1.98
		c0.56,0.13,0.5,1.28,1.63,0.47c-1.14-1.47,0.29-1.58,0.75-3.66c-1.07,0.13-1.28,0.96-1.69,1.62c-1.26-0.18-2.39-2.27-3.6-3.77
		c-0.73,1.38-1.6,0.78-2.61,1.44c-0.3-1.28,1.31-1.28,0.89-2.63c-1.57,1.25-2.32,0.94-3.28,1.06c-0.08,0.79,0.53,0.78,0.07,1.25
		c-0.22-1.23-1.41,0.01-1.58,0.97c-0.26-1.01-1.35-0.22-1.39-1.72c0.94-1.1,0.8,0.17,1.3,0.05c-0.3-1.26,0.6-1.08,0.92-1
		c-0.73-0.53-1.13-1.34-0.94-2.54c0.05,0.7,1.21,0.05,1.05-0.58c-0.78-1.83-3.16-0.06-4.37-0.84c0.8-0.55,1.98-0.85,1.41-2.27
		c-1.27,1.46-3.71,3.02-3.65,0.7c-0.02,0.57,1.09,0.78,0.99-0.25c-0.93-0.45-1.71-1.31-2.89-1.11c-0.25-0.88-0.22-1.63-0.04-2.3
		c-1.04,0.24-0.7,0.47-1.81,1.36c-0.07-0.84-0.5-0.67-0.6-1.44c-0.1-0.56,0.45-0.79,0.44-1.3c-1.78-2.43-3.98-0.62-6.08-0.84
		c0.55-1.01,1.05-2.03,1.35-3.14c-0.84,0.09-1.34-1.04-2.47,0.15c0.33,1.05,2.29-0.35,1.11,1.52c-1.01,0.18-1.54-1.27-2.24-3.05
		c-1.59,1.18,0.38,1.46-0.29,2.8c-1.96-2.41-4.77-1.38-6.75-1.23c0.64-1.06,0.8,0.21,1.34-0.35c-0.6-1,0.5-1.53-0.11-2.53
		c-3.16,2.99-4.88-1.43-7.53-1.26c0.76-0.52,0.87-1.2,0.29-2.05c-0.97,1.18-1.86,2.04-2.62,1.88c0.25-0.43,0.21-0.91,0.17-1.38
		c-2.1,1.01-3.88-1.25-6.02,0.48c0.42-0.52,0.46-1.1,0.34-1.69c-3.24,0.59-2.75-0.49-5.3-1.72c0.58-0.67,0.82-1.35,0.52-2.06
		c-1.14,1.77-0.75-1.13-1.76-0.08c-0.6,0.67-0.84,1.35-0.92,2.04c-0.42-0.62-0.85-0.97-1.29-0.75c-0.36,0.56,0.47,1.17,0.2,1.74
		c-1.61-0.93-0.84-1.28-2.6-1.49c0.34,0.7,1.31,1.43,0.45,2.09c-1.75-2.85-5.66-1.28-4.49-4.98c-1.15-0.89-2.19,0.86-3.32,0.5
		c0.2-0.48,0.62-0.96,0.37-1.41c-1.22,1.12-1.3-1.67-2.56-0.87c-0.37,1.52,0.46,2.96,0.13,4.49c-0.58-2.04-3-3.35-3.15-0.48
		C241.18,153.92,237.68,154.17,234.12,154.29z M234.85,148.37c0.93,1.29,1.4-0.22,1.94-1.4
		C235.89,145.82,235.53,148.13,234.85,148.37z M255.46,131.74c-1.4-1.29-2.74,0.58-4.16-0.76c-0.21,0.46,0.37,0.93,0.05,1.39
		C252.76,133.92,254.06,131.4,255.46,131.74z M246.25,143.46c1.11,0.85,2.14-1.61,2.7,0.85
		C249.48,141.59,246.62,140.3,246.25,143.46z M244.23,139.8c-1.03,0.56-1.98,1.68-3.01,1.98c0.8,0.47,1.61,1.32,2.36,1.53l1.05-1.81
		C244.01,140.97,243.81,140.41,244.23,139.8z M250.01,141.81c1.42,0.9,1.79-0.11,2.11-1.85
		C250.47,139.75,251.63,141.78,250.01,141.81z M262.55,121.56c-0.59,0.79,0.04,1.62,0.71,2.45
		C264.14,123.09,263.1,121.55,262.55,121.56z M253.96,116.84c0.74-0.68-0.52-1.39-0.02-2.07
		C252.57,114.19,252.63,117.26,253.96,116.84z M254.31,123.41c0.33-0.57-0.73-1.16-0.3-1.73c1.37,0.02,1.93,0.43,2.74,2.13
		c1.1-1,2.15,1.44,3.27-0.6c0.29,1.31,1.91,0.48,1.31,1.78c1.48,0.57,0.57-1.79,0.35-2.42c-0.88-0.97-1.81-0.23-2.69-2.17
		c0.67-0.99,1.26,1.11,1.95-0.29c-0.4-0.99-1.67-0.17-0.52-1.4c-0.92-0.44-1.85-0.79-2.79-0.77c-0.28-0.68,0.47-0.29,0.86-1.02
		c-0.64-1.41-1.31-1.04-1.98-1.07c0.37,1.84-0.39,0.61-1.42,1.7c0.03,0.58,0.34,1.16,0.84,1.74c-0.46,0.41-0.93-0.93-1.4-0.37
		c-0.11-0.58,0.35-1.15-0.3-1.73C253.18,120.06,251.86,121.49,254.31,123.41z M232.94,135.04l0.81-1.56
		c-1.23-1.44-0.95,0.67-1.54,0.29C232.02,134.28,232.6,134.64,232.94,135.04z M237.35,132.85c0.34-2.01-3.46-0.06-1.7-2.86
		c-0.68-1.09-1.05,0.18-1.67-0.4c0.18,1.02,0.54,2.01,0.19,3.12l-0.62-0.58C234.12,134.69,236.17,132.02,237.35,132.85z
		 M241.95,131.67c-1.2,1.09-2.73-0.94-3.95,0.02c0.45,0.42,0.89,0.84,0.68,1.32C240.26,132.97,241.01,133.24,241.95,131.67z
		 M243.33,129.47c-0.7-0.86-1.28-0.43-1.95-0.87C240.75,130.19,242.7,130.77,243.33,129.47z M247.89,125.65
		c-1.89-0.94-2.92-0.47-4.27-2.79c-1.25,0.47-2.61-0.18-3.64,2.4c0.04-1.04,0.37-2.12-0.04-3.12c-0.77-0.22-1.5-0.16-2.21,0.22
		c-0.25,0.83-0.82,1.7-0.55,2.48c-1.24-0.15-0.72,1.08-2.16,0.36c1.54,3.06,5.19,1.48,6.41,0.98c-0.62,1.2-0.1,1.75,1.5,1.6
		c0.16-0.59,0.11-1.17-0.42-1.7C244.23,126.34,247.18,127.51,247.89,125.65z M243.97,133.92c0.11-1.55-1.91-2.13-2.41-0.83
		C242.43,134.05,243.13,133.23,243.97,133.92z M247.58,129.83c-0.53-0.54-0.3-1.14-0.89-1.67l-0.96,1.46
		C246.41,130.58,247.03,130.89,247.58,129.83z M249.37,128.67l1.25-1.81c-1.36-0.87-0.09-2.46-1.44-2.34
		c-1.19,1.01,0.97,1.79,0.66,2.74c-0.61,0.16-1.27-0.64-1.88-0.22C247.48,128.37,249.02,127.87,249.37,128.67z M249.05,132.85
		c-1.19-0.61,0.57-1.42-0.62-2.04c-0.69,0.01-1.51,1.27-1.43,2.18C247.73,133.78,248.41,133.74,249.05,132.85z M238.01,143.6
		c-0.53,0.79,0.61,1.3,0.28,2.05l-0.56,1.15l0.85,0.91c0.74-1.3,0.38-2.4,0.95-3.67C238.86,142.59,238.69,145.05,238.01,143.6z
		 M226.07,155.03c0.19,0.48,0.37,0.97,0.48,1.45c1.69,2.08,3.91,2.05,4.85,6.49c0.26-1.66-0.21-1.19,1-0.79
		c0.2-0.15,0.17-0.55,0.45-0.63c-1.27-1.64-0.82-5.25-2.71-6.94C228.8,154.75,227.43,154.86,226.07,155.03z M224.55,152.44
		c0.29,0.32,0.56,0.72,0.82,1.16c0.19-0.35,0.52-0.49-0.09-1.33C225.13,152.69,224.8,152.4,224.55,152.44z M227.12,147.47l0.91,0.81
		c0.22-0.52,0.44-1.04,0.66-1.56C228.09,146.62,227.36,145.94,227.12,147.47z M218.06,153.59c0.39,0.2,0.78,0.52,1.18,0.93
		c0.72-0.28,1.39-0.82,1.78-1.71C219.9,152.61,218.98,153.11,218.06,153.59z M219.36,150.46c1.17,1.16,1.59-0.29,2.33-0.7
		C220.6,148.79,219.68,148.59,219.36,150.46z M218.39,154.73c-0.11-0.35-0.21-0.71-0.36-1.12c-0.51,0.27-1.02,0.53-1.56,0.67
		C216.91,154.65,217.63,154.81,218.39,154.73z M222.52,162.15c0.71-3.16,2.8,1.19,4.64-0.23c-1.58-0.15-2.07-2.67-3.23-2.39
		c0.01-0.91,0.05-1.82,1.02-1.94c-0.27-0.83-0.55-1.63-0.84-2.35c-0.23,0.02-0.46,0.06-0.69,0.08c0.08-0.48,0.24-0.66,0.42-0.72
		c-0.44-0.89-0.95-1.53-1.6-1.67c0.05-0.18,0.13-0.27,0.19-0.41c-0.33-0.01-0.66-0.01-0.95,0.16c-0.01,0.6,0.03,1.18,0.23,1.72
		c1.5,0.89,1.84,2.1,2.54,3.19c-0.77-0.51-1.03,0.88-1.94-0.15c0.15-0.76,0.97-1.72-0.11-2.12c-0.56,0.56-1.35,0.41-2.15,0.21
		c0.2,0.28,0.4,0.57,0.61,0.9c0.02-0.12,0.06-0.16,0.07-0.31c0.6,0.5,0.72,1.04,0.61,1.5c0.45,0.87,0.89,1.82,1.3,2.93
		c-0.53-0.31-0.96-1.02-1.59-0.93C220.75,160.88,222.05,160.95,222.52,162.15z M179.11,205.98c0.88,0.78,1.75,1.58,2.19,0.87
		c-0.47-0.42-0.65-0.81-0.82-1.19C180.05,205.84,179.55,205.79,179.11,205.98z M175.3,208.99c1.13-1.12,0.86,0.34,1.38,1.2
		c0.08-0.71,0.89-2.7,0.18-2.63c-0.63,1.1-1.11,0.64-1.89-0.47c-0.21,0.42-0.78,0.82-0.36,1.3
		C175.39,207.39,174.87,208.54,175.3,208.99z M175.83,211.42c-0.34-0.51-0.65-3.09-1.4-1.98
		C175.53,210.02,174.19,211.67,175.83,211.42z M175.17,213.19c-0.73,0.44-0.78,0.9-1.23-0.61c-0.22,0.35-0.54,0.42-0.86,0.46
		c1.09,0.59,0.39,1.07,1.1,1.65C174.2,213.72,176.05,214.37,175.17,213.19z M180.09,210.08c0.15-1.1,0.95-0.08,1.35-0.32
		c-0.92-1.55-1.21-1.2-2.53-1.94c0.1-0.14-0.07-0.53-0.34-0.31C178.84,208.69,179.43,208.62,180.09,210.08z M176.87,219
		c0.29-0.45,0.03-0.74-0.57-0.8c0.34-0.67-0.14-1.39-0.33-2.1C175.32,217.02,175.68,217.99,176.87,219z M182.81,212.55
		c-1.85-0.97-2.4-2.54-3.73-1.81c0.48,0.41,0.67,0.78,0.86,1.15C180.51,211.39,181.64,212.69,182.81,212.55z M178.21,223.86
		c0.63-0.56-0.74-2.51-1.77-2.34c0.98,0.96,1.01,1.63-0.2,1.26c0.51,0.35,0.74,0.7,0.96,1.03
		C177.41,223.55,177.64,223.32,178.21,223.86z M178.17,228.52c-0.34-1.07-3.97-2.37-2.41-0.27
		C176.42,228.03,177.38,228.45,178.17,228.52z M178.02,233.85c0.23-1.43,1.6-1.92,0.39-2.92c-0.08,0.93-1.27-0.19-1.35,0.75
		c2.86,1.55-1.28,0.57,0.08,1.95C177.33,233.16,177.67,233.29,178.02,233.85z M175.4,238.55c-0.25,0.59-1.01,0.38-1.05,1.29
		C175.47,240.83,176,238.88,175.4,238.55z M172.11,244.04c0.6,0.17,1.11,0.2,1.46,0.01c0.04-0.24,0.04-0.49,0.06-0.74
		c-0.87,0.09-1.47-0.05-2.09-0.37C171.79,243.36,171.96,243.72,172.11,244.04z M172.91,254.35c0.01-0.02,0.01-0.04,0.01-0.06
		c-0.02,0-0.04-0.01-0.07,0C172.88,254.32,172.89,254.33,172.91,254.35z M168.34,268.29c-1.01,1.33,0.18,2.64,1.29,3.73
		c0.05-0.43,0.1-0.86,0.15-1.29C169.31,270,168.92,269.2,168.34,268.29z M116.59,319.06c0.55,1.18,0.58,2.47,2.39,3.36
		C119.44,321.1,117.83,319.07,116.59,319.06z M149.32,253.44c1.13-0.35,0.48-1.67-0.4-1.94
		C147.37,252.17,148.64,252.34,149.32,253.44z M144.28,252.91c0.52,0.53,2.51,1.61,1.96,2.18c0.77,0.28,1.92,0.16,2.06-0.42
		c-2.16-0.05-1.61-1.01-1.59-2.32c-0.46,0.12-0.6,0.33-0.51,0.63C145.53,253.07,145.18,252.04,144.28,252.91z M103.99,295.8
		c0.04,0.56,0.36,1.12,0.92,1.66c1.64-2.14,3.74-1.59,3.7,0.54c1.4-1.24-0.04-2.38-0.3-3.59
		C106.86,296.82,105.44,294.06,103.99,295.8z M114.5,261.13c1.37-0.46-0.31-1.58,0.71-2.11
		C114.13,258.29,113.26,260.29,114.5,261.13z M116.92,250.39c-1.32,1.26,0.15,3.29-0.03,4.84
		C118.15,253.95,117.56,252.21,116.92,250.39z M113.41,241.95c0.92,0.42,0.83,0.74-0.35,1.25c0.37,0.22,0.73,0.44,1.02,1.01
		C115.25,244.02,114.77,240.87,113.41,241.95z M118.48,246.95c1.42-0.42,1.04-1.41,0.67-2.4
		C118.21,245.11,117.98,245.92,118.48,246.95z M120.26,237.34c-1.13-2-3.87-3.32-5.24-1c1.3-0.03,2.8-0.67,3.51,1.34
		c-1.79,0.01-1.93,0.19-3.47,0.74c0.63,1.03,1.16,2-0.33,2.27c1.46,2.25,1.71,2.55,1.93,4.69c1.16,0.33,1.5-1.45,1.06-2.64
		c1.23-0.18,0.03,1.88,1.6,1.21C120.9,242.22,117.5,238.65,120.26,237.34z M145.15,201.69c0.48-0.68,0.63-2.39-0.29-3.13
		C143.67,198.69,144.45,201.16,145.15,201.69z M202.16,142.53c1.58,1.11,2.53,0.64,3.21-0.64
		C204.51,142.67,202.72,140.91,202.16,142.53z M258.69,121.43c0.97-0.67-1.48-1.42-0.52-2.09c-0.47-0.38-0.94,0.55-1.41,1
		C257.42,121.27,258.06,120.9,258.69,121.43z M230.53,155.47c-0.32-0.04-0.64-0.07-1.03-0.46c0.1,0.57-0.02,1.2-0.28,1.87
		C230.05,158.22,230.1,156.04,230.53,155.47z M251.56,158.01c0.33-0.83,0.05-1.62,0.09-2.43c-0.38-0.34-0.7,0.62-1.03,1.1
		C251.42,156.75,250.91,157.14,251.56,158.01z M181.22,141.93c1.91-0.42,1.32-1.39,1.82-2.27c-0.02-0.74-0.56-0.02-1.22-0.46
		C182.4,140.3,181.2,140.2,181.22,141.93z M338.5,154.31c1.23-1.79-1.93-0.38-1.96,0.56C337.17,156.54,338.3,153,338.5,154.31z
		 M372.92,162.02c-1.03-0.29-0.81-1.85-2.49-1.45c0.9,1.44,3.11,1.56,3.18,3.82c2.82-2.35,2.34,4.58,4.95,5.23
		c0.41-0.34,0.41-1.28,1.02-1.35c-1.03-0.94-3.02-0.93-2.18-3.61c-2.07-0.81-2.65-2.98-3.94-4.53
		C372.87,160.27,373.04,161.31,372.92,162.02z M343.61,173.44C343.61,173.44,343.6,173.44,343.61,173.44
		C343.6,173.44,343.6,173.44,343.61,173.44C343.6,173.44,343.61,173.44,343.61,173.44z M186.7,135.63
		c-0.82,1.28-2.03,1.75-2.34,4.04C185.31,139.58,186.03,138.06,186.7,135.63z M340.6,155.58c-0.42-0.85-1.27-1.06-2.46-0.71
		C338.55,155.75,339.21,156.19,340.6,155.58z M347.31,168.33c-0.46,0.15-0.7,0.03-0.77-0.3c-0.25-0.8-0.63,0.6-0.02,0.45
		c-0.28,0.64-0.87,0.99-1.6,1.19C345.29,170.57,347.54,169.52,347.31,168.33z M346.27,173.78c0.74-0.3,0.79-1.4,1.98-1.18
		C347.69,171.33,345.04,172.32,346.27,173.78z M343.61,173.44c0.35,0.37,0.69,0.76,1.08,1.08
		C345.76,173.92,344.61,172.77,343.61,173.44z M368.44,157.72c2-1.21,2.55,1.37,4.19,1.92c-0.27-0.15-1.78-4.96-3.27-3.85
		c0.08-1.95-0.8-2.88-2.06-3.35C367.07,154.93,368.4,155.61,368.44,157.72z M234.76,100.45c0.52,0.41,1.03,0.81,0.76,1.3
		c0.55,0.31,0.98-0.68,1.46-1.19c-0.88-0.43-1.71-0.22-2.57-0.42C234.17,100.63,234.61,100.66,234.76,100.45z M341.66,137.78
		l1.24-0.3c0-1.11,0.07-2.27,1.18-0.77c1.06-0.36-0.69-0.68-0.28-1.89c-0.71,0.99-0.54,0.08-1.67,0.4
		C342.67,136.59,340.8,136.14,341.66,137.78z M378.18,160.8c-1.71-2.54-5.59-4.69-4.86-8.38
		C371.31,155.34,376.18,160.61,378.18,160.8z M282.82,101.21c-1.07,0.1-2.01-0.78-3.17,0.08
		C280.53,102.46,281.57,102.41,282.82,101.21z M244.53,100.56c-1.18,0.44-3.52,0.2-3.63,1.7
		C242.19,103.01,243.35,102.11,244.53,100.56z M306.53,129.17c0.29,1.48,1.37,0.62,1.82,1.6
		C308.91,130.19,307.59,127.83,306.53,129.17z M304.04,129.64c0.44-0.44-0.09-1.25-0.28-1.93l-1.44,0.92
		C302.75,129.43,303.61,128.84,304.04,129.64z M308.72,127.94c-0.39,1.2,1.93,1.88,2.62,2.75c-0.96,1.78,0.6,4.1,1.09,5.05
		c0.62-1.83,0.6-3.98,0.78-6.03c-1.37,3.14-1.44-1.27-3.24-1.92C309.6,128.56,309.23,128.75,308.72,127.94z M296.18,123.53
		c-0.78-0.74-1.58-1.5-2.68-0.92C294.34,123.17,295,124.38,296.18,123.53z M284.59,114.66c-1.38-0.05-2.84,0.63-3.99-0.91
		C280.46,115.48,284.07,116.79,284.59,114.66z M267.84,108.82c-1.13-0.94-2.47,1.51-3.55-0.37c-0.51,0.79,3.68,3.05,5.26,1.27
		C269.14,109.36,267.19,110.4,267.84,108.82z M316.41,134.68c0.48-0.39,0.01-1.26-0.12-1.95c-0.98,0.43-1.65,0.1-2.03-1.01
		c-1.33,0.32-0.31,1.18,0.26,0.89c0.24,0.75,0.05,1.29-0.37,1.71c0.3,0.51,0.86,0.35,1.12,0.94
		C315.03,134.48,315.51,132.21,316.41,134.68z M279.46,113.51c-1.38,0.47,0.51,1.47-0.86,1.96c1.1,0.81,1.27,3.49,3.17,2.08
		C281.85,114.77,278.74,116.44,279.46,113.51z M269.38,111.78c-0.64-0.6-1.43,0.91-2.01-0.59c-0.67,2.41-2.19,0.18-3.6,1.74
		c1.19,1.15,2.52,0.04,3.62,2.09c0.57-0.74-0.08-1.63-0.12-2.45C268.13,112.02,269.28,113.42,269.38,111.78z M314.76,138.02
		c-0.19,1.49,2.48,2.02,3.31,3.3c1.2-0.71-1.41-1.53-0.13-2.43C317.34,139.03,315.47,139.56,314.76,138.02z M326.1,140.35
		c-0.26-0.54-0.83-0.44-1.05-1.05c-1.25,0.15-0.49,1.54-1.73,1.69C324.14,141.36,324.5,140.61,326.1,140.35z M320.95,139.54
		c-0.39,0.29-0.06,1.01-0.56,1.23c0.91,0.21,1.44,1.22,2.63,0.83C322.39,140.8,321.46,140.64,320.95,139.54z M318.29,135.24
		c1.1,1.18,2.45,3.21,4.06,1.21C320.85,136.38,320.49,133.62,318.29,135.24z M318.61,140.08c0.85,0.99,1.73-1.27,1.56-2.2
		C318.97,137.15,319.19,139.28,318.61,140.08z M324.33,146.39c-1.4,0.3-1.73,1.29-2.47,2.02
		C324.11,149.05,324.1,150.37,324.33,146.39z M151.8,234.42c0.41-0.97,1.76-3.92,1.6-5.59C152.73,230.23,151.11,232.96,151.8,234.42
		z M168.18,197.03c0.2,1.25-1.85,2.36-1.46,3.62C167.09,199.8,169.48,198.57,168.18,197.03z M150.76,234.7
		c0-0.29,0.21-0.64-0.18-0.83c0.11,1.34-1.52,4.7,0.81,4.42c-1.42-1.54,0.47-1.37,1.17-2.05
		C151.05,235.53,151.39,235.04,150.76,234.7z M161.33,220.02c0.97-1.36,1.46-0.98,2.57-1c-1.29-0.63-0.87-1.31-1.88-1.25
		C162.47,219.08,160.66,218.85,161.33,220.02z M148.97,235.79c0.41-0.1,1.87-1.77,0.28-2.14
		C149.28,234.32,148.09,235.35,148.97,235.79z M162.74,186.03l-0.9,1.13C162.92,188.61,164.17,187.06,162.74,186.03z M163.95,186.73
		c0.41,0.53,0.18,1,0.53,1.53c1.3-0.12,1.5-0.54,2.12-1.86C164.82,184.51,165.26,187.75,163.95,186.73z M206.69,160.19
		c1.41,0.28,1.29-0.06,2.57,0.26c-1.37-3.26-3.28-3.54-5.22-3.72C203.94,158.68,206.11,157.43,206.69,160.19z M193.83,163.29
		c1.07,1.04,2.06,3.09,3.23,2.39c-0.28-0.54,0.03-0.81-0.41-1.43C195.21,165.48,195.53,161.51,193.83,163.29z M199.49,161.82
		c0.93,0.2,1.84,0.63,2.74,1.06c-0.67-1.71-1.44-2.6-2.33-2.46C200.25,161.13,199.24,161.16,199.49,161.82z M180.63,173.47
		c1.57,0.83,1.51-0.34,2.83-0.73c-0.33-0.51-0.05-0.83-0.56-1.39C181.95,172.83,180.12,171.36,180.63,173.47z M172.51,217.53
		c-0.91,0.46-2.6,0.58-1.72,2.09c0.24-0.67,0.65-0.93,1.33-0.52c-0.12,2.05-2.48,2.59-1.09,4.67c0.73-2.11,1.37-1.52,2.55-1.81
		C173.01,220.5,173.36,219.04,172.51,217.53z M160.92,226.18c2.14,2.05-0.93,1.66-0.66,3.65c2.68,0.62,1.46-2.96,3-3.39
		C162.04,225.47,161.71,226.28,160.92,226.18z"/>
	<g>
		<path class="st2" d="M330,208.49c-16.47-19.05-38.37-29.54-61.71-29.55c-48.08,0-87.21,45.2-87.24,100.76
			c0,17.77,4.01,35.1,11.65,50.38l-12.37,52.22l46.25-14.02c12.74,8.03,27.09,12.26,41.69,12.27h0.04
			c48.08,0,87.22-45.21,87.23-100.78C355.54,252.86,346.48,227.54,330,208.49 M268.3,363.54h-0.03
			c-13.01-0.01-25.77-4.04-36.9-11.67l-2.65-1.82l-27.44,8.32l7.33-30.91l-1.72-3.16c-7.26-13.34-11.09-28.75-11.09-44.58
			c0.02-46.18,32.54-83.75,72.54-83.75c19.37,0.01,37.57,8.73,51.26,24.56c13.69,15.83,21.22,36.87,21.22,59.25
			C340.79,325.97,308.26,363.54,268.3,363.54"/>
		<path class="st2" d="M308.07,300.81c-2.18-1.26-12.89-7.35-14.89-8.2c-2-0.83-3.45-1.26-4.9,1.27c-1.46,2.52-5.63,8.19-6.91,9.87
			c-1.27,1.68-2.54,1.89-4.72,0.63c-2.18-1.26-9.2-3.92-17.53-12.49c-6.48-6.68-10.85-14.92-12.12-17.45
			c-1.28-2.52-0.14-3.88,0.95-5.14c0.98-1.13,2.18-2.94,3.27-4.41c1.09-1.47,1.45-2.52,2.18-4.2c0.73-1.68,0.36-3.15-0.18-4.41
			c-0.54-1.26-4.9-13.65-6.72-18.69c-1.77-4.91-3.56-4.25-4.9-4.32c-1.27-0.07-2.73-0.09-4.18-0.09c-1.45,0-3.82,0.63-5.81,3.15
			c-2,2.52-7.63,8.61-7.63,21c0,12.4,7.81,24.37,8.9,26.05c1.09,1.68,15.37,27.12,37.23,38.02c5.2,2.6,9.26,4.15,12.43,5.31
			c5.22,1.91,9.97,1.64,13.73,0.99c4.19-0.72,12.9-6.09,14.71-11.98c1.82-5.88,1.82-10.92,1.27-11.97
			C311.7,302.7,310.25,302.07,308.07,300.81"/>
	</g>
</g>
</svg>
