<?xml version="1.0" encoding="utf-8"?>
<!-- Generator: Adobe Illustrator 27.1.1, SVG Export Plug-In . SVG Version: 6.00 Build 0)  -->
<svg version="1.1" id="Layer_1" xmlns="http://www.w3.org/2000/svg" xmlns:xlink="http://www.w3.org/1999/xlink" x="0px" y="0px"
	 viewBox="0 0 566.93 566.93" style="enable-background:new 0 0 566.93 566.93;" xml:space="preserve">
<style type="text/css">
	.st0{fill-rule:evenodd;clip-rule:evenodd;fill:url(#SVGID_1_);}
	.st1{fill-rule:evenodd;clip-rule:evenodd;fill:url(#SVGID_00000101786399780780964010000000147184851446939564_);}
	.st2{fill-rule:evenodd;clip-rule:evenodd;fill:#FFFFFF;}
</style>
<g>
	
		<linearGradient id="SVGID_1_" gradientUnits="userSpaceOnUse" x1="-408.4096" y1="317.5623" x2="119.7185" y2="317.5623" gradientTransform="matrix(0.922 -0.3872 0.3872 0.922 240.3521 -104.6939)">
		<stop  offset="0" style="stop-color:#356137"/>
		<stop  offset="0.5363" style="stop-color:#42B767"/>
		<stop  offset="1" style="stop-color:#DCE23C"/>
	</linearGradient>
	<path class="st0" d="M247.11,22.68L46.75,480.03c-3.92,8.95,4.67,18.29,13.92,15.13l479.62-163.84
		c7.75-2.65,10.15-12.43,4.51-18.37L265.53,19.44C260,13.63,250.33,15.32,247.11,22.68z"/>
	
		<linearGradient id="SVGID_00000129917981528323495480000011555572922418022791_" gradientUnits="userSpaceOnUse" x1="-218.0779" y1="143.2603" x2="316.1027" y2="143.2603" gradientTransform="matrix(-0.956 0.2932 -0.2932 -0.956 422.3896 441.7982)">
		<stop  offset="0" style="stop-color:#356137"/>
		<stop  offset="0.5363" style="stop-color:#42B767"/>
		<stop  offset="1" style="stop-color:#DCE23C"/>
	</linearGradient>
	<path style="fill-rule:evenodd;clip-rule:evenodd;fill:url(#SVGID_00000129917981528323495480000011555572922418022791_);" d="
		M285.9,536.82L541.3,98.18c5-8.58-2.79-18.95-12.42-16.55L31.73,205.66c-7.85,1.96-11.11,11.32-6.19,17.74l241.75,314.62
		C272.16,544.34,281.89,543.72,285.9,536.82z"/>
	<path class="st2" d="M464.21,250.7c-2.32-70.64-73.8-127.18-161.71-127.18c-86.83,0-157.78,55.08-161.35,124.7
		c-0.36,1.74-0.36,3.78-0.36,5.67c0,24.57,8.57,47.68,23.23,67.44l-29.31,70.06l89.7-23.11c23.23,10.32,49.86,16.14,78.09,16.14
		c89.35,0,161.88-58.28,161.88-130.53C464.38,252.73,464.21,251.86,464.21,250.7L464.21,250.7z M376.65,280.35
		c-4.1-1.6-23.4-9.45-26.98-10.61c-3.94-0.87-6.43-1.6-9.11,1.74c-2.51,3.2-10.19,10.32-12.5,12.35c-2.33,2.33-4.66,2.47-8.4,1.01
		c-4.28-1.59-16.98-4.94-31.99-15.98c-11.97-8.58-20.01-18.9-22.15-21.95c-2.14-3.49-0.37-4.94,1.6-6.83
		c1.97-1.31,4.11-3.49,6.08-5.53c0.53-0.43,1.07-0.87,1.43-1.45c1.08-1.31,1.6-2.33,2.5-3.78c1.43-2.18,0.89-4.07-0.36-5.52
		c-0.71-1.6-8.75-17.59-12.16-23.84c-3.21-6.53-6.61-5.38-8.74-5.38c-2.51,0-5.01-0.29-7.69-0.29c-2.87,0-6.97,0.73-10.54,4.07
		c-3.94,3.2-14.12,10.76-14.12,26.74c0,3.63,0.89,7.41,2.32,10.76c3.75,11.48,12.68,20.64,13.94,22.24
		c1.97,2.17,27.33,35.46,67.71,48.25c40.57,12.79,40.57,8.43,47.71,8c7.15-0.44,23.41-7.56,26.81-15.26
		c3.21-7.41,3.21-13.81,2.14-15.26C383.26,282.82,380.58,281.8,376.65,280.35L376.65,280.35z M302.5,363.77
		c-27.52,0-53.24-6.69-74.69-18.17l-52.17,13.52l16.8-40.84c-16.25-18.02-25.91-40.41-25.91-64.39c0-3.63,0.18-6.98,0.71-10.61
		c6.79-55.66,64.86-99.12,135.27-99.12c71.47,0,130.26,44.62,135.62,101.16c0.36,2.91,0.36,5.81,0.36,8.57
		C438.48,314.36,377.54,363.77,302.5,363.77L302.5,363.77z"/>
</g>
</svg>
