<?xml version="1.0" encoding="utf-8"?>
<!-- Generator: Adobe Illustrator 27.1.1, SVG Export Plug-In . SVG Version: 6.00 Build 0)  -->
<svg version="1.1" id="Layer_1" xmlns="http://www.w3.org/2000/svg" xmlns:xlink="http://www.w3.org/1999/xlink" x="0px" y="0px"
	 viewBox="0 0 566.93 566.93" style="enable-background:new 0 0 566.93 566.93;" xml:space="preserve">
<style type="text/css">
	.st0{fill:#F37E7E;}
	.st1{fill:#D43332;}
	.st2{fill:#FFFFFF;}
</style>
<g>
	<g>
		<path class="st0" d="M300.78,463.24c-1.59-0.7-2.25-1.53-2.34,0.81c-1-1.74,0.22-0.86-0.61-2.4c1.11,0.64,0.91-1.26,1.8-1.03
			C299.84,461.29,300.17,462.1,300.78,463.24z M292.18,453.74c0.14-0.34,1.23-0.63,0.53-1.27
			C292.57,452.81,291.48,453.1,292.18,453.74z M295.6,463.85c1.13,2.57,1.7,1.78,0.83-0.06C296.22,464.08,296,464.32,295.6,463.85z
			 M118,111.63c0.12-0.65,0.72,0.59,0.83-0.07c-0.54-1.19-0.97-1.91-1.34-2.42C117.11,109.33,117.32,110.21,118,111.63z
			 M289.41,466.2c1.14,1.61,1.4,1.77,2.52,2.76c-1.07-2.11,0.05-0.56,0.29-0.29c-0.9-1.84-0.81-2.49-0.32-2.68
			c0.49,0.64,1.14,1.94,1.54,2.23c-1.65-3.21,0.77-0.95,0.22-2.46c-0.62,0.38-1.19-2.01-1.49-3.02
			C292.78,466.78,290.32,464.87,289.41,466.2z M290.4,468.21c-1.22-2.01-0.37,1.31-1.77-1.25c0.26,1.22-0.94,0.72-0.57,2.06
			c1.29,0.75,1.1-1.35,2.64,0.39C290.38,468.74,290.65,468.78,290.4,468.21z M287.03,469.28c0.17-0.17,1.24,0.8,0.68-0.67
			C287.15,468.11,286.43,467.57,287.03,469.28z M285.72,469.82c0.08-0.53,1.01-0.06,0.53-1.26
			C285.8,468.55,284.53,467.18,285.72,469.82z M269.97,477.06c-0.22-0.08-0.52-0.45-0.94-1.32c-0.57,0.89-2.55,0.43-0.6,4.33
			C267.53,476.53,270.07,478.57,269.97,477.06z M266.81,479.42c0.39,0.48,0.54-0.25,0.33-1.07
			C266.57,477.64,266.42,478.38,266.81,479.42z M265.8,481.17c-0.04,0.95-0.97,0.85-1.61,0.83
			C265.06,483.26,266.54,483.16,265.8,481.17z M254.07,487.47c-0.16-1.11,0.85,0.35,0.08-1.58c-0.62-0.99-0.93-0.81-1.18-0.34
			c0.58,0.99,1.52,3.43,1.84,3.43C254.57,488.47,254.32,487.97,254.07,487.47z M253.12,486.14c-0.7,2.1-2.2,1.51-2.37,3.08
			c1.44,0.21,1.93-0.82,3.02-1.47C253.46,487.11,253.56,486.94,253.12,486.14z M245.71,488.94c-0.19,3.86-3.24,3.73-4.5,5.18
			c0.91,3.06-0.95-0.76,0.57,3.19c0.6-0.48,1.57-0.68,2.1-1.29c-0.17,0.12-0.39,0.04-0.79-0.74c1.12-0.89,3.11-0.31,3.14-3.84
			c0.81,0.85,0.6-0.44,1.33,0.94c0.2-1.69,1.83-0.24,1.44-2.92c0.72,1.42,2.19,0.25,1.07-1.04c-1.36-0.55-1.01,3.46-3.42,0.37
			c-0.12-0.63-0.12-1.12-0.36-1.89C246.11,487.41,246.63,491.32,245.71,488.94z M72.32,163.29c-0.67-1.38-0.66-0.86-1-2.02
			c-0.23,0.21,0.15,1.15-0.33,1.08c0.61,1.28,0.82,1,1.28,1.72C72.01,163.47,72.16,163.38,72.32,163.29z M236.17,505.81
			c-0.33-0.68-0.67-1.35-1-2.02c-0.21,0.31-0.01,1.11,0.61,2.4C235.92,506.07,236.04,505.93,236.17,505.81z M46.03,194.37
			c0.14-0.23,0.48,0.28,0.94,1.32c0.1-0.09,0.2-0.19,0.29-0.29C46.63,193.91,45.47,192.74,46.03,194.37z M73.83,249.35
			c-0.57,0.02-1.61-0.88-1.07,1.05C73.48,251.12,74.04,250.07,73.83,249.35z M50.02,202.43c-1.05-2.22-1.38-1.59-2.08-2.45
			C48.88,201.79,49.51,202.33,50.02,202.43z M199.16,510.01c0.04-0.09,0.08-0.19-0.15-0.6c-0.26,0.12-0.1,0.72,0.46,1.8
			c0.84,1.1,1.25-0.78-0.07-2.18C200.23,510.44,199.15,509.96,199.16,510.01z M179.89,472.84c-0.48-0.59-1.41-1.3-0.58,0.57
			c0.18-0.4,1.05,1.88,1.14,1.13C180.51,474.27,180.01,473.33,179.89,472.84z M60.2,241.05c1.15,3.28-1.02,0.57-1.26,1.24
			c1.22,2.41,1.65-0.3,2.77,3.26c0.58-0.24-1.87-4.27-0.17-2.09C61.13,242.79,60.37,240.76,60.2,241.05z M59.12,240.62
			c-1.71-3.22-0.75-1.36-1.3-3.21c-0.13-0.04-0.32-0.31-0.6-0.91C56.62,236.73,58.57,240.71,59.12,240.62z M53.91,233.02
			c0.87,1,1.94,3.78,2.44,4.34c-0.21-1.09-0.84-2.67-1.95-4.82c-0.14,0.11-0.09,0.45-0.04,0.79
			C53.98,232.48,53.55,232.09,53.91,233.02z M180.81,488.39c-0.1,0.1-0.2,0.19-0.29,0.29c1.39,2.01-0.08,1.69,0.71,2.3
			c0.93,0.26,0.27-0.52-0.26-1.99C181.01,488.91,181.04,488.81,180.81,488.39z M178.93,485.76c0.44,0.86,0.75,1.58,0.9,2.1
			C180.35,487.84,179.35,485.2,178.93,485.76z M51.59,230.06c-0.85-1.93-0.96-0.93-1.48-1.54
			C51.08,230.95,51.02,229.25,51.59,230.06z M191.46,513.1c-0.46-0.57-0.86-0.31-0.24,0.98
			C191.53,514.01,192.17,514.74,191.46,513.1z M189.34,511.44c0.3,1.12,1.28,2.21,1.78,2.73c-0.49-0.99-0.05-0.89-0.8-2.19
			C190.32,513.06,189.45,510.77,189.34,511.44z M58.95,249.02c-0.62-0.18,0.65,1.88,0.61,2.39c-0.34-0.22-1.2-2.48-1.29-1.73
			c1.4,2.25,1.58,3.07,2.34,4.44c-0.28-0.63-0.05-0.42,0.19-0.19C60.11,252.47,59.72,251.07,58.95,249.02z M62.26,257.74
			c-0.28,0.16-0.28,0.65,0.01,1.48c0.13,0.04,0.32,0.3,0.59,0.91C63.29,260.06,63.08,259.26,62.26,257.74z M169.4,476.42
			c-0.63-0.17-0.67,1.42,0.42,2.59C168.89,476.84,170.38,478.74,169.4,476.42z M19.52,174.04c-1.11-0.89,0.24,1.77,0.9,2.1
			C20.11,175.44,20.08,175.06,19.52,174.04z M18.38,172.91c0.12-0.15,0.33,0.03,0.54,0.22c-0.42-0.84-0.83-1.67-1.24-2.51
			C17.34,170.71,17.94,171.91,18.38,172.91z M14.09,163.66c0.11,1.18-1.66-1.94-0.49,0.48c0.42,0.83,0.41,0.02,0.79,0.72
			c0.25,0.51,0.5,1.01,0.75,1.51C15.72,166.57,14.52,164.66,14.09,163.66z M171.67,489.16c-0.63,0.49-0.47,1.09-1.16,1.15
			C171.63,492,172.13,490.31,171.67,489.16z M168.95,486.58c-0.22,0.55-0.64,0.34-1.02,0.26
			C168.71,488.46,169.75,488.35,168.95,486.58z M147.99,451.82c0.38,0.39,0.6,0.15,0.98,0.53c-1.03-1.91-0.23-1.67-0.76-2.99
			C147.88,450.04,147.73,450.18,147.99,451.82z M186.48,530.71c0.67,0.98,0.61-0.67,0.18-1.67
			C186.8,530.22,185.68,529.13,186.48,530.71z M50.62,258.7c-0.15,0.24-0.16,0.65,0.11,1.39c0.3-0.07,1.05,1.57,1.23,1.03
			c-1.22-2.34-1.68-3.71-2.35-5.92c0.65,1.86,1.4,1.78,0.89,0.63c-0.19-0.05-1.23-1.11-1.19-1.82c0.31-0.06,0.99,1.35,1.39,1.64
			c-1.7-3.64-2.94-3.34-4.82-7.98c0.66,1.74,0.64,2.71,0.72,3.78c0.43-0.17,0.51-0.47,0.83-0.08c-0.14,0.82,0.93,2.09,1.65,3.62
			c-0.12,0.35,0.24,1.27,0.36,1.89C50.12,258.63,49.93,256.95,50.62,258.7z M52.25,260.84c0.6,0.8,1.19,0.83,0.33-1.07
			C52.55,260.66,52,259.81,52.25,260.84z M158.51,473.65c-0.18,1.24-1.5,0.34-1.9,1.12c0.6,1.26,1.19,2.44,1.6,2.93
			C157.64,475.52,159.93,477.19,158.51,473.65z M91.33,339.16c-0.33,0.1,0.03,1.01,0.71,2.3c0.03-0.45,0.27-0.66-0.01-1.48
			C91.87,340.03,91.72,340.04,91.33,339.16z M136.8,432.14c-0.58-0.19,0.63,1.72,1.05,2.71c0.52,0.27,0.7-0.57,0.03-2.28
			c-0.53-0.06-0.13,0.97-0.08,1.58C137.14,433.31,137.49,433.51,136.8,432.14z M146.13,452.16c1.64,2.58-0.28-0.63,0.58-0.58
			c-0.6-1.42-0.68-0.78-1.04-1.23C146.71,452,145.5,450.98,146.13,452.16z M145.94,452.35c-1.41-2.5-1.58-0.67-1.07,1.05
			c0.01-1.09,0.87,1.19,0.98,0.52C145.89,453.35,145,451.24,145.94,452.35z M136.24,435.68c-0.23,0.22-0.45,0.45-0.68,0.66
			c0.81,1.74,1.23,1.98,1.79,2.73C135.47,435.71,136.95,437.4,136.24,435.68z M142.82,453.91c-0.21,0.52-1.17,0.17-0.37,1.87
			C142.16,454.21,143.78,456.12,142.82,453.91z M137.45,444.23c-0.51-0.27-1.31-1.67-1.83-1.94c1.43,2.53,0.23,1.95,1.26,4
			C136.76,444.67,136.97,444.24,137.45,444.23z M154.5,479.84c-0.24-0.84,0.05-1.06-0.61-2.4
			C153.71,477.66,153.61,479.03,154.5,479.84z M142.1,455.37c-0.58-0.71-0.73,0.03-0.33,1.08c0.13-0.12,0.53,0.79,0.69,0.81
			C141.32,455.43,142.79,456.67,142.1,455.37z M131.24,434.61c-0.33-0.67-0.66-1.34-1-2.01c-0.15,0.45-0.41,0.78-0.18,1.67
			C130.68,435.27,131,435.09,131.24,434.61z M131.2,435.4c-0.24,0.95-0.96,0.04-1.62-0.65c0.45,0.98,0.66,1.01,1.09,1.92
			C130.61,435.53,132.36,437.83,131.2,435.4z M172.23,518.54c-0.06,0.72-0.01,0.97-0.73-0.03c1.47,2.8,0.06,1.04-0.39,0.38
			c0.5,1.01,0.99,2.01,1.49,3.02c0.26-0.25,0.94,1.16,1.39,1.64c-0.48-1.33,0.24-1.26-0.67-3.1C173,521,172.99,519.75,172.23,518.54
			z M141.24,457.71c-0.55-1.2-0.32-1.41,0.14-0.88c-0.25-0.5-0.5-1.01-0.75-1.51C139.97,454.98,140.51,457.11,141.24,457.71z
			 M153.3,481.78c-0.17,0.17-1.24-0.8-0.68,0.66C152.79,482.27,153.86,483.24,153.3,481.78z M140.86,459.58
			c0.24-0.41-0.32-1.78-0.41-2.59C140.19,457.38,140.05,457.91,140.86,459.58z M117.59,412.86c-0.47-1.1-0.77-2.06-1.34-2.42
			c0.53,1.11,0.29,1.32,0.01,1.49c0.39,0.74,0.88,1.89,1.09,1.91C116.71,412.19,116.84,411.96,117.59,412.86z M150.89,480.4
			c-0.56,0.45,1.43,3.34,1.84,3.43C151.99,482.19,151.67,482.22,150.89,480.4z M138.54,456.62c1.12,2.39,1.1,2.23,1.8,4.21
			c0.08-0.03,0.15-0.03,0.35,0.41c0.07-0.06,0.13-0.13,0.2-0.19C140.28,459.78,139.28,457.17,138.54,456.62z M111.19,403.44
			c-1.34-0.81,2.88,6.7,2.24,4.53C112.8,407.41,111.65,404.49,111.19,403.44z M129.49,441.57c-0.27-0.12-0.61-0.5-0.88-0.62
			c0.49,0.93,0.44,1.21,0.9,2.1C129.79,442.89,130.02,442.68,129.49,441.57z M142.97,470.23c-0.26-0.87,0.11-0.99-0.61-2.4
			c-0.51,0.19-1.06-0.16-0.87,0.86C141.93,469.01,142.74,470.77,142.97,470.23z M60.18,303.93c0.2-0.02,0.58,0.67,0.79,0.72
			c-1.44-2.38-0.48-1.26-1.3-3.21c0.14,1.46-1.01-0.06-1.42,0.64c1.01,1.99,3.23,5.02,2.27,2.26
			C60.43,304.46,60.16,304.35,60.18,303.93z M136.21,458.92c0.02-0.61,0.38-0.81-0.17-2.09
			C135.93,457.32,135.45,457.39,136.21,458.92z M107.31,402.02c0.85,2.04,1.98,2.76,1.58,1.44
			C108.59,403.88,107.73,402.07,107.31,402.02z M127.14,440.89c-0.91,1.17-3.43-1.41-4.01-0.53
			C124.75,441.99,126.95,443.33,127.14,440.89z M39.89,268.5c0.78,1.6,2.06,2.75,1.68,1.34C40.96,269.18,40.09,267.53,39.89,268.5z
			 M96.62,383.34c-1.13-2.1,0.34-1.14-1.01-3.49c0.01,1.31,0.33,3.52-1.26,1.24c0.25,0.89,1.04,2.2,1.49,3.02
			C95.77,383.03,96.18,383.51,96.62,383.34z M97.62,385.36c0.16,0.3,0.31,0.58,0.35,0.41c-0.17-0.34-0.33-0.67-0.5-1.01
			c-0.1,0.1-0.32-0.3-0.44-0.31c0.43,1,0.42,1.47,1.05,2.71C98.81,387.59,97.29,385.38,97.62,385.36z M37.91,265.95
			c0.4,1.45,0.05,1.63-0.83,0.07c1.17,3.05,1.96,3.34,2.68,3.36C39.52,268.44,38.45,266.66,37.91,265.95z M81.94,356.62
			c0.27,0.34,1.34,0.68,0.33-1.07C82.25,356,81.4,355.49,81.94,356.62z M117.4,430.26c0.09-0.52,0.29-0.92-0.51-2.49
			C116.34,427.14,116.36,428.37,117.4,430.26z M117.22,431.93c0.64,0.77,0.05-0.65,0.58-0.57c-0.25-0.5-0.5-1.01-0.75-1.51
			C116.65,430.01,117.24,431.33,117.22,431.93z M128.58,491.86c0.27,0.34,1.34,0.69,0.33-1.08
			C128.35,490.1,128.35,491.01,128.58,491.86z M123.73,486.15c-0.53,0.31-1.4-0.73-2.06-0.97c0.58,1.47,1.11,2.42,1.69,2.83
			c-0.16-0.6-0.31-1.2-0.46-1.8C123.36,487.13,124.67,487.72,123.73,486.15z M112.2,483.27c1.46,2.4,2.57,3.44,3.56,3.98
			c-0.43-1.16-1.14-2.22-1.55-3.71C113.89,484.49,111.95,481.63,112.2,483.27z M109.93,403.33c-0.01,0.26,0.03,0.59,0.19,1.16
			C110.12,404.13,110.05,403.74,109.93,403.33z M204.82,529.89c0-0.01,0-0.01,0-0.01c-0.01-0.01-0.01-0.02-0.02-0.03
			C204.81,529.86,204.82,529.88,204.82,529.89z M204.8,529.85c-0.21-0.37-0.48-0.95-0.57-0.88
			C204.45,529.36,204.62,529.6,204.8,529.85z M82.55,141.99c1.29,1.94,1.02,0.59,1.82,0.46c0.44,0.92,0.65,0.95,1.09,1.92
			c0.3-2.49,3.03,0.93,4.06-0.24c0.25,0.5,0.5,1,0.75,1.51c-0.24-2.32,1.2,0.73,0.92-1.65c0.87,1.41,1.34,1.26,1.27,0.24
			c0.62,1.5,0.78,1.18,1.35,2.43c0.48,0.08-0.5-1.57-0.01-1.48c0.81,0.89,1.66,1.68,2.45,2.27c1.81-1.49,3.61-2.99,5.67-4.63
			c3.56-2.82,6.87-5.96,10.67-8.73c6.12-4.45,14.28-8.63,20.65-13.54c11.95-6.06,24.39-13.71,39.58-22
			c1.24-0.78,1.59-1.35,3.55-2.31c6.56-1.54,15.84-7.61,23.89-10.93c2.17-0.89,3.86-0.88,6.03-1.66c0.39-0.14,0.8-0.31,1.2-0.47
			c0.02-0.16,0.02-0.29,0.06-0.49c0.4-0.17,0.65-0.05,0.86,0.12c4.25-1.67,8.62-3.76,11.86-5.13c9.16,0.42,26.16-6.07,37.75-7.78
			c0.28-0.04,0.21,0.61,0.94,0.49c4.6-0.7,8.1,0,13.1-0.65c6.82-2.45,6.67,0.07,10.09,1.18c1.17,0.37,2.29,0.26,3.42,1.17
			c1.52,1.22,5.53,0.89,7.39,1.84c1.6,0.82,1.09,2.65,1.14,4.24c8.65,0.45,17.16,0.96,25.93-0.17c2.91,3.27,9.49,0.56,13.7,0.07
			c1.38-0.16,1.29,2.83,3.86-0.13c5.57,0.45,11.23,3.06,17.34,0.15c2.08,3.47,6.93,0.96,10.51,1.45c1.46,0.2,2.22,1.6,3.83,1.27
			c0.63-0.13,1.69-1.18,2.34-1.25c2.57-0.28,3.44,3.36,6.17,2.72c1.64-0.39,3.52-2.06,4.72-1.81c3.87,0.82,7.89,4.23,13.8,1.87
			c1.53-0.61,1.92,1.33,3.21,1.07c0.71-0.14,2.06-1.68,2.77-1.78c2.38-0.33,4.45,1.81,7.13,1.01c1.37-0.41,1.78,1.44,2.95,1.65
			c2.49,0.44,6.32-2.41,6.98,0.96c4.09-2.83,8.05-1.54,10.04,1.98c0.34-0.38,0.72-0.99,1.12-1.65c1.4,2.64,6.04-1.75,7.55,0.48
			c0.34,0.22,0.98-1.19,1.42-1.56c0.62,1.41,1.81,0.74,3.45-0.2c2.65,4.86,8.54-0.29,10.61,4.19c4.03-3.9,5.29-0.98,7.9-1.43
			c0.71-0.12,2.32-2.23,3.03-2.37c0.68-0.13,0.38,1.35,0.84,1.63c0.35,0.22,1.26-0.85,1.76-0.76c0.68,0.11,0.55,2.14,1.19,2.41
			c0.63,0.29,2.01-1.28,2.64-1.14c0.76,0.15,0.56,2.17,1.19,2.41c1.66,0.65,6.26-5.74,5.75,0.56c2.07-1.25,3.42-0.66,5.63-1.51
			c1.3-0.49,3.17-2.17,3.95-2.06c0.47,0.06,0.46,1.39,0.84,1.62c0.47,0.28,1.13,0.16,1.85-0.11c-0.35-0.58-0.66-1.19-1.13-1.7
			c1.08,0.45,1.27-0.12,0.15-1.41c1.01,0.66,0.64-0.78,1.72,0c0.28,0.85,0.37,1.77,0.36,2.63c0.97-0.47,1.94-0.94,2.77-1.07
			c0.51-0.93,0.91-2.12,0.99-4.12c1.09,1.07,0.89,0.07,1.8,0.86c0.38,1.67,0.03,2.78-0.03,4.17c0.55-0.25,1.05-0.36,1.54-0.37
			c0.15-1.88,0.74-3.11,2.83-1.92c0.72-2.14,1.65-5.59,4.1-3.68c-0.52-0.91-0.33-1.43,0.23-1.41c-0.02,1.02,0.28,1.91,1.23,2.48
			c0.29-0.46,0.91-0.34,2.09,0.77c-0.05-1.02,0.58-0.8-0.5-1.95c-0.02,0.46,0.16,1.24-0.26,0.99c-1.13-2.24,0.48-2.11,0.01-4.38
			c1.03,1.46,1.91,2.18,2.73,2.56c1.4-2.7,2.63-4.39,3.34-4.66c1.05-0.4,0.18,2.47,0.8,3.64c0.78,1.48,3.34,3.59,5.82,1.93
			c0.95-0.63,3.1-3.9,3.84-4.12c1.61-0.49,0.63,4.89,2.48,4.19c1.24-0.47,3.69-4.06,4.15-4.02c1.32,0.11,0.37,5.7-0.59,8.57
			c0.27,0.58,0.91-0.86,1.19-0.28c-1.24,6.18,2.23,8.63,5.01,9.07c0.42,0.07,0.9,0.72,1.11,1.04c2.34,3.69,0.84,13.54,0.11,21.62
			c-0.78,1.8-0.88,2.75-1.43,4.25c0.07,2.92-0.68,6.89-0.67,9.89c-1.47,3.74-0.82,4.79-2.82,9.18c-1.25,4.34-1.91,7.76-2.98,12
			c0.01,0.06,0.02,0.1,0.04,0.16c0.67-0.49,1.24-1.13,1.62-2.06c0.54,0.25,2.14,2.06,1.96,1.25c-1.45-2.51,1.7,0.11,0.69-2.51
			c1.26,1.18,0.66-0.21,1.64,0.1c0.37,1.21-0.46,0.57-0.08,1.78c0.82,0.76,1.59,1.89,2.02,1.65c1.21,4.2,1.27,7.05,1.61,10.5
			c0.19,2.07,1.02,7.08-0.23,7.43c1.57,4.56,0.41,6.91-0.52,8.58c1.12,3.59,0.23,4.93-0.41,6.72c-0.24-0.46-0.62-0.85-1-1.24
			c0.5,1.38-0.9,1.58,0.91,3.47l-2.14-1.53c-0.14,2.73,0.44,6.27,3.25,11.56c-0.98-0.04-1.06,0.83,0.71,3.14
			c-4.07-1.99-6.05-0.55-5.28,2.43c0.67,0.41-0.32-1,0.58-0.34c1.19,1.63,0.74,1.59,2.11,3.29c-0.19,0.27-1.05-0.18-0.06,1.38
			c-1.35-0.93-2.09-1.19-2.06-0.62c1.06,0.9,1.69,2.03,2.35,3.15c-4.42-1.42-6.06,0.28-4.67,4.89c-2.55-1.74,0.31,1.98-0.4,2.07
			c3.37,3.11,0,2.99,4.19,6.12c-6.29-2.27-1.63,6.99-4.39,7.2c1.47,2.21,1.72,4.49,0.56,4.73c1.78,3.82,0.62,4.91-0.65,5.94
			c1.25,2.84,0.67,3.32,1.72,5.83c-0.58-0.16-2.28-1.8-1.99-1.01c2.74,2.37,1.74,3.29,1.64,4.06c-0.39-0.52-0.65-1.12-1.26-1.5
			c1.91,3.1,1.53,5.33-0.96,4.86c-0.19-0.57-2.18-4.35,1.02-1.62c-0.12-0.88-1.47-2.81-1.83-3.92c-0.81-0.45-0.64-0.08-1.38-0.48
			c-0.92-1.26,1.22-0.64-0.74-2.32c0.06,0.94-1.31,1.29,1.23,3.87c-4.74-1.81,0.24,4.97-3.54,4.25c1.14,1.43-0.36,0.97,1.55,2.25
			c-1.53-0.97-0.64,0.04-1.18-0.12c-0.32-0.4-0.56-0.88-1.07-1.15c1.29,2.04-0.82,1.31,0.26,3.16c0.41,0.13,0.71-0.62,1.63,0.76
			c-2.51-1.08-0.14,0.8-0.92,0.65c-0.74-1.23-0.78-0.28-2.27-1.27c0.52,1.46-0.29,1.52,0.87,3.2c0.9,0.06,2.82,2.09,1.45,0.88
			l-2.05-0.94c0.2,1.82-0.05,3.27,0.52,5.35c-0.78-0.98,0.5-0.82-1.37-1.89c-0.56,0.4-0.13,1.61,0.45,2.55
			c-0.32-0.41-0.66-0.81-1.28-1c1.24,1.39-0.2,0.69,0.13,1.36c0.37,0.21,0.82,0.37,1.06,0.68c-1.89-0.66,0.69,1.36,0.13,1.36
			c-0.46-0.47-1-0.88-1.71-1.18c-1.03,1-2.48,1.52-1.21,3.8c-0.94-0.3-2.74-1.18-0.51,0.86c-0.74-0.27-1.18-0.74-1.9-1.03
			c1.24,1.35,0.87,2.56-1.21,1.86l0.93,1.25c-6.22,0.49-4.85,6.81-9.42,8.61c0.7,1.56-0.42,1.85-1.18,2.41l0.95,1.25
			c-1.72-0.37-1.76,0.88-1.05,1.82c-2.16-1.41-0.19,0.45-0.1,1.07c-3.71,0.49-2.15,4.71-4.93,5.87l0.72,0.94
			c-10.95,15.51-17.62,34.34-32.67,49.86c1.05,0.71,0.97,1.34,0.28,1.3c-0.57-0.6,0.06-0.6-0.7-0.95c-1.82-0.21,0.71,1.1,0.51,1.63
			l-1.76-0.58c-0.87,2.92-2.58,4.27-3.64,7.15c-0.35-0.38-1.27-1.01-1.11-0.61l0.92,1.29c-4.82,3.42-6.39,9.08-11.45,12.6
			c-0.98,2.48-2.19,4.82-5.53,5.59c0.95,1.83-2.15,0.77-0.95,2.82c-3.25-0.38-1.24,3.1-4.54,2.68c-0.38,4.32-5.89,4.65-6.61,8.9
			l-1.76-0.6c-0.39,3.39-5.95,3.62-5.61,7c-3.01-1.05-0.81,2.33-3.64,0.87l0.78,1.39c-2.36-0.67-1.91,0.93-2.9,1.75
			c-1.82,1.53-6.54,2.42-5.21,4.54c-5.01,2.7-8.18,7.35-13.96,9.6c0.18,0.36,0.56,0.57,0.79,0.89c-3.32,1.18-6.94,2.12-8.14,5.36
			c0.77,1.22,1.41,2.54,1.65,4.09c-1.59-1.53-2.91-3.17-4.13-4.86l-0.19-0.08c0.23,2.02-1.52,2.08-2.91,2.09
			c0.22,0.49,0.9,0.65,1.18,1.09c-0.38,0.67-3.16-0.91-3.03,0.23c-1.27,3.01-4.66,4.09-8.37,4.92c0.57-0.38,0.91,0.52,1.57,1.31
			c-5.03,0.42-7.51,3.31-10.75,5.45c-0.94-0.31-1.17-1.12-2.22-1.36c1.18,2.24-0.86,1.18,0.1,3.24c-2.96-1.58-2.19,0.78-4.64-0.28
			c0.28,2.54-3.84,2.4-5.28,3.87c-2.64-2.65-2.3,2.24-5.16,0.96c0.04,0.91,1.05,1.2,1.3,1.99c-0.72-0.07-2.69-1.37-1.76,1.08
			c-3.11-0.8-4.34,0.54-5.78,1.67c-1.43-0.52-0.86-2.25-2.45-2.66c-0.18,2.69-0.73,4.27-2.68,5.28c-1.09-1.33,0.21-0.9-0.23-2.16
			c-1.14-0.38-1.06-1.51-2.2-1.9c0.15,0.9,0.11,1.73-0.17,2.22c0.22,0.09,0.43,0.18,0.68,0.24c-2.15,1.18-2.09,0.5-2.19-0.05
			c-0.02-0.01-0.02,0-0.04-0.01c0-0.01,0.03-0.02,0.03-0.03c-0.02-0.12-0.05-0.23-0.12-0.31c0.22-0.04,0.4-0.04,0.58-0.04
			c0.29-0.22,0.48-0.53-0.21-1.15c-0.05,0.03-0.11,0.05-0.16,0.07c-0.06,0.35-0.23,0.54-0.45,0.21c-0.79,0.36-1.52,0.8-1.41,2.3
			c-0.91-0.38-1.04-1.23-2.06-1.54c-0.26,1.14-1.62,0.43-0.35,2.9c-2.92-1.45-2.69,1.19-4.04,1.79c0.1,1,2.12,0.94,1.82,2.15
			c-1.41-0.16-2.2-2.92-2.82-2.04c0.8,0.93,1.96,3.43,0.12,2.19c-0.19-0.64-0.17-1.4-0.73-1.85c-2.36,0.16-4.12,1.09-5.62,2.38
			c-0.05-0.09-0.15-0.22-0.36-0.43c-1.52,0.07-4.61,0.18-4.05,2.08c5.07-0.92-0.64,5.15,5.24,3.93c0.68,1.24,0.25,4.32,4.98,3.95
			l-2.49,1.25c0.6,0.95,1.91,2.29-0.06,4.13c-2.3-0.31,0.83-5.06-3.5-3.92c0.56-0.54,0.39-0.92,0.95-1.45
			c-5.01-0.78-2.65-5.59-5.89-7.41c-0.03,0.02-0.05,0.05-0.09,0.05c-0.01-0.04-0.02-0.08-0.03-0.13c-0.08-0.04-0.12-0.1-0.21-0.14
			c0.06-0.02,0.11-0.02,0.17-0.04c-0.02-0.1-0.05-0.2-0.07-0.3c-0.05,0.06-0.11,0.14-0.15,0.17c-0.57,0.22-0.94,0.1-1.18-0.09
			c-0.02,0.14,0,0.35,0.16,0.76c0.52,0.16,0.85,0.02,1.38,0.17c0.25,2.36-2.94-2.3-2.7,0.05c-1.49-1.29-0.97,0.42-2.06-0.28
			c-0.66-1.28,0.72-0.89-0.26-1.64c-1.72,0.12-3.13,0.64-3.58,2.69c-0.25-0.61-0.53-1.21-0.92-1.75c0.01,0.76-0.88,0.11-0.86,0.87
			c0.17,0.65,0.7,1.12,0.91,1.76c-0.36-0.21-0.66-0.32-0.93-0.39c0.4,0.27,0.55,0.76,0.93,1.05c-1.46,0.31-1.65-0.45-2.24-0.87
			c-0.03,0.02-0.07,0.03-0.1,0.05c0.43,0.19,1.42,2.1,0.53,1.5c-1.42-3.16-1.37,0.25-2.74-0.84c-0.31-0.34-0.38-0.79-0.44-1.25
			c-0.32-0.13-0.37-0.39-0.14-0.65c-0.08-0.26-0.19-0.51-0.41-0.7c0.55,2.31-1.02,1.15-1.36,2c1.64,1.27,0.13,2.21-0.46,1.94
			c0.27-0.81,0.02-2.14-1.36-3.28c-0.13,0.44,0.66,2.44-0.13,1.79c-1.48-3.65-4.03-1.5-5.05-1.17c0.43,0.38,0.85,0.77,0.79,1.38
			c-1.7-1.5-0.34,0.21-0.94,0.43l-1.76-1.38c0.23-1.25-0.87-1.92-1.25-2.9c1.53,0.37,1.94,0.85,2.15-0.97
			c2.26,2.17,1.01,0.1,3.46,1.9c-1-1.05-0.75-2.43,0.07-2.2c0.14,0.67,0.05,1.42,0.55,1.92c-0.06-0.77,1.49,1.77,1.34,0.26
			c-0.4-1-1.08-1.87-1.48-2.85c-0.71-0.7-1.36-1.46-2-2.23c-0.42-0.56-1.88,1.09-2.59,0.92c-0.56-0.74,1.37-2.5,1.06-3.27
			c-0.38-0.94-2.69-0.19-3.84-0.61c-1.35-0.48-0.8-2.11-2.33-2.54c-1.48-0.42-5.28,0.65-4.07-1.27c-0.2,0.05-0.38,0.12-0.57,0.18
			c0.05,0.21,0.09,0.41,0.21,0.73c-0.13-0.11-0.29-0.36-0.46-0.65c-1.49,0.5-2.72,1.13-3.87,0.93c-0.1,0.04-0.17,0.1-0.26,0.15
			c0.02,0.11,0.02,0.18,0.05,0.3c-0.07-0.1-0.13-0.12-0.2-0.21c-0.63,0.33-1.17,0.69-1.64,1.05c0.19,0.28,0.38,0.59,0.63,1.1
			c-0.07,3.38-2.66,0.78-0.72,6.7c1.21,1.55-0.49-2.1,0.27-1.78c1.91,6.42-3.11,2.47-2.23,7.43c-2.61-3.21,0.23,4.48-2.15,0.62
			c-0.14,0.25-0.16,0.65,0.11,1.39c-0.47-0.41-0.98-0.99-1.48-1.53c-0.02,0.28,0.19,1.13,0.4,1.1c0.13,1.07-0.39,0.63-1.18-0.34
			c-1.06,1.4-1.18,3.6-3.11,3.05c0.55,3.42-2.01,2.32-3.26,2.45c-0.96,4.11-4.97,1.89-4.94,6.34c-0.56-1.25-0.72-0.92-1.34-2.42
			c-0.41,0.07,0.22,1.38,0.96,2.8c-0.64-0.29-0.9-1.29-1.54-2.23c0.86,2.2,0.31,1.36-0.33,1.07c0.95,2.3,0.77,0.17,1.63,2.13
			c-0.85-0.66-2.03-0.54-2.81-2.47c-0.57-0.19,0.03,1.01,0.71,2.3c-1.37,0.72-3.28-2.53-3.37,1.06c-0.21-0.78-0.35-0.83-0.75-1.51
			c-0.48,0.07-0.29,0.92,0.17,2.09c-0.19,0.54-0.93-1.11-1.23-1.03c-0.48,0.48,0.97,3.24,0.27,3.46c-1-2.95-1.16-0.28-2.12-1.66
			c-0.19,0.54,0.61,2.25,0.32,2.68c-0.6-1.13,0-0.84-0.46-1.8c-1.36,0.35-1.17,1.65-2.58,1.79c-0.65,0.07-0.88,1.49-1.36,1.34
			c-0.55-0.18-1.48-1.79-1.93-1.85c-0.78-0.1-0.74,2.76-2.05,0.51c-0.39,2.03-1.76,2.04-3.1,3.05c0.99,2.25-1.09,1.17-1.61,0.83
			c-0.07,0.72,0.26,0.86,0.9,2.11c-0.54-0.21-1.32-1.36-1.62-0.65c-0.13,0.65,0.54,1.47,1.15,2.62c-0.09,0.43-0.54-0.54-0.94-1.32
			c-1.83-0.86-0.52,4.82-3.06,2.26c0.5,2.08-2.22-0.42-0.65,3.64c-0.44-0.46-0.65-0.01-1.39-1.63c-0.31,0.19,0.46,1.66,0.61,2.39
			c-1.73-3.49-1.31,0.62-1.8,1.03c-0.41,0.33-2.25-2.09-1.16,1.15c-2.23-3.19-1.48,0.43-2.19,1.4c-0.07,0.2,0.37,0.99,0.65,1.6
			c-2.03-0.77-1.72,2.08-2.12,3.59c-0.38,0.25-1.06-0.68-1.83-1.94c-0.72-0.01,0.15,1.85-0.13,2.37c-1.1-2.42-0.71,1.03-1.78-1.25
			c0.53,2.17-0.47,1.87-1.11,1.84c0.42,0.02-1.18-1.01-1.43-0.84c-0.33,0.21,0,1.44-0.28,1.77c-0.3,0.35-1.51-1.1-1.97-1.06
			c-0.68,0.05-2.03,0.18-2.48,1.69c-0.73-1.05-0.67-0.74-1.34-2.43c1.09,4.44-1.48,0.61-1.94,1.91c0.74,1.31,1.03,0.86,1.88,2.64
			c-2.28-3.69-2.26,0.68-3.52,0.47c1.19,2.28,1.13-0.34,2.52,2.75c-1.04-3.28,0.93-1.07,1.06-2.53c-0.01,4.5-2.34,6.32-3.11,8.29
			c2.65,3.97,1.85-3.45,4.81,1.27c0.03-1.86,0.28-1.63,0.16-3.16c0.57,1.47,1.11,2.43,1.69,2.83c-1.31-4.44,2.36-0.96,0.74-5.21
			c1.55,2.47,0.88-0.37,1.47,0.06c0.34,0.75-0.21,0.46,0.21,1.29c1.4,2.66,1.74-0.63,1.01-1.74c1.84,2.34,1.45-0.54,1.59-2.32
			c1.33,1.47,4.02,1.6,2.87-2.07c0.23-0.05,0.65,0.64,1.19,1.82c0.9-1.31,1.16-2.62,3.21-1.67c-0.27,2.19-2.15,0.62-1.24,4.2
			c0.32,0.45,0.48,0.31,0.94,1.32c0.22-0.68,0.19-0.81,0.93-0.16c-0.28-1.57-0.17-3.17,1.01-1.74c-0.93-2.83,0.3-1.98-0.48-4.77
			c0.52,2.37,0.97,1.44,1.48,1.54c-0.01,4.78-2.4,5.1-2.82,8.01c-0.45-0.3-2.04-2.35-1.03,0.26c-0.51-0.26-1.31-1.67-1.83-1.94
			c0.59,0.82,0.29,0.93,0.61,2.39c-0.21,0.12-0.89-1.6-1.04-1.23c-0.6,0,1.02,2.6,0.42,2.59c-0.39-0.89-0.55-0.88-0.69-0.81
			c0.9,4.33-2.87,1.89-2.8,4.25c-2.04-1.81-1.19,2.59-3.31,1.76c0.13,1.64-0.2,3.21-1.36,1.34c-0.06,0.49,0.21,1.37,0.26,1.99
			c0.32,0.45,0.48,0.3,0.94,1.31c-1.11-1.78-0.62,0.02-0.93,0.17c-1.35,0.66-3.18,1.87-4.82,2.49c-0.91-1.87-0.49-1.4-0.11-1.39
			c-0.31-0.57-0.43-0.92-0.4-1.1c-0.34-0.61-0.44-0.32-0.2,0.19c-0.51-0.22-0.52-1.48-1.09-1.91c1.69,5.28-1.64,1.66-2.52,2.47
			c0.13,0.31,0.46,0.5,0.45,0.32c0.18,3.37-0.92,5.36-2.66,3.36c-0.43,0.06,1.2,2.53,0.61,2.39c-0.51-1.96-0.87-0.65-1.79-2.73
			c0.24,1.18-0.12,1.31-0.93,0.15c-0.21-1.35-1.19-1.86-1.54-2.22c0.64,2.06,0.33,2.45,0.03,2.97c-0.55-1.19-0.31-1.41,0.14-0.89
			c-0.63-1.49-0.76-2.08-1.99-4.02c0.83,2.38-0.74-0.59-0.43,1.17c-0.27-0.6-0.46-0.87-0.59-0.91c-0.84-2.35-1.82-4.46-1.66-5.1
			c-0.3-0.38-0.66-1.03-1.09-1.92c-0.21,0.11,0.1,0.82-0.14,0.89c-0.63-1.35-0.95-1.52-1.14-1.13c-0.28-1.41-1.2-2.96-1.99-4.02
			c0.43,0.44,0.53,0.34,0.39-0.38c-0.89-1.11-1.69-3.38-1.7-4.31c-0.82-1.4,0.08,0.89-0.49,0.47c-0.58-1.17-1.16-2.35-1.74-3.52
			c0.78,0.4-0.12-1.4,0.87-0.86c-0.4-1.17-0.81-2.36-1.11-3.41c0.65,0.77,0.27-0.18,0.49-0.47c0.79,1.53,1.4,0.88,1.27,0.24
			c-0.45-0.66-0.93-1.45-1.13-1.13c-0.9-2.7-1.58-3.12-2.48-3.55c0.11,0.62,0.47,1.53,0.71,2.3c-2.03-3.62-1.72-0.5-3.25-2.78
			c0.27,1.33,1.45,5.01,2.05,4.72c0.81,1.76-0.34,1.07-0.78,0.77c-0.89-1.54-0.03-1.02-0.36-1.9c-0.67-1.34-1.42-1.34-1.34-2.42
			c-0.39-0.25-0.91-1.03-1.23-1.03c-0.16-0.5-0.33-1.02-0.5-1.01c-0.23-0.85-0.19-2.44-0.76-2.99c-0.11-1.52,0.99-0.47,1.11-1.83
			c-0.88-1.61-0.73-0.37-0.83,0.07c-0.9-2.1-1.04-1.23-1.94-3.33c-0.15-0.52,0.93-0.67-0.17-2.08c0.64,0.35,1.01,0.56,1.56-0.04
			c-1.74-4.19-0.23-3.36-0.79-5.96c-1.06-0.98,0.09,1.6-0.97,0.95c-0.91-1.75,0.55-0.04-0.61-2.39c0.76,1.34,0.6,0.61-0.65-1.61
			c0.39,0.29,0.93,0.76,1.19,1.83c0.32-0.49,0.33-0.9-0.57-3.19c1.24,1.15,0.17-1.95,0.42-2.65c-1.09-1.48-3.65-4-3.11-2.19
			c-0.81-0.76-0.77-2.29-1.55-3.71c-0.88-1.23-1.99-3.38-2.57-3.45c-0.07,0.2,0.19,0.56,0.25,0.5c0.65,1.56-0.57-0.41-0.49,0.48
			c-0.27,0.04,0.74,1.43,0.84,1.41c0.24,0.81-0.86,0.4-1.52-0.75c0.44,2.62-1.25,3.84-0.33,6.32c0.41,1.18-1.04-0.96-1.48-1.54
			c-0.03,0.17,0.15,0.6,0.06,0.7c0.49,1.52,0.91,0.55,0.84,1.41c0.05,0.34,0.1,0.68-0.04,0.79c-2.08-4.14-2.15,0.83-2.23,2.19
			c-1.05-1.24-2.27-1.91-1.41,0.65c-0.33,0.46-0.24-0.38-0.84-1.41c0.26,1.36,0.08,0.92-0.18,1.67c1.16,0.99,1.72,2.57,3.07,4.46
			c-0.34-1.3,0.4-0.03,0.58-0.57c0.26,1.71-0.2,2.56-0.9,3.13c-0.62-1.06-1.54-2.24-1.84-3.43c-0.31,0.21,0.89,2.91,1.15,2.61
			c0.74,1.73-1.54-0.54-0.89-0.62c-0.77-1.29,0.05,1-0.58,0.57c-1.52-2.72-2.84-4.53-4.06-4.99c-0.78-2.18,2.11-0.08,2.15-0.62
			c-0.87-0.87-1.94-2.53-2.46-2.06c-0.84-1.88-0.36-2.22,0.03-2.27c-1.17-2.15-0.99-0.41-2.12-1.66c-0.34-1.21,0.52-1.76,1.37,0.15
			c0.41-0.65-1.43-3.78-0.12-2.87c-0.79-0.88-1.66-2.08-2.27-2.26c-0.16-0.5-0.33-1.02-0.5-1.01c-0.49-1.06,0.37-0.54-0.36-1.89
			c-0.98-1.78-1.58-2.09-2.48-3.55c-0.42,1.45-1.86,0.75-2.67,1.88c-0.32-1.25-1.07-1.77-1.54-2.23c1.23,1.66,0.35,0.78,1.75,3.53
			c-1.15-2.08-1.33-1.39-1.68-1.35c-0.75-1.13-0.75-2.37-1.24-2.51c-0.34-0.75,0.2-0.46-0.21-1.3c-0.83-2.14-0.51,0.23-1.14-1.14
			c-0.79-1.59-0.01-1.19,0.24-0.98c0.18-0.76-2.48-4.87-1.76-5.01c0.33,0.67,0.67,1.35,1,2.02c0.42-0.7-1.41-2.76-1.35-3.9
			c-0.82-1.41,0.43,1.31-0.14,0.88c-1.25-2.39,0.26-1.52-0.82-3.69c-0.62-0.87-1.13-1.27-1.58-1.44c-1.02-2.24-4.62-8.91-4.06-5
			c0.44,0.45,0.96,1.22,1.24,1.04c0.38,1.36-0.85,0.45-1.22,0.45c-0.22-1.5-2.06-4.01-2.55-5.73c0.44,0.3,0.89,0.65,1.33,0.94
			c0.31-0.27,0.27-0.94-0.17-2.09c-0.79-0.6-1.09,0.01-1.32,0.55c-1.02-3.01,0.56-1.03,1.02-1.74c-0.27-0.6-0.47-0.88-0.6-0.92
			c-0.71-1.19,1.48,1.59,1.92,1.85c-0.2-1.5-1.73-3.89-1.16-4.09c-0.72-0.91-1.4-1.69-1.77-1.25c-0.6-1.66,0.63,0,0.68-0.66
			c-0.25-1-1.02-2.6-1.11-3.4c-0.22-0.39-0.35-0.4-0.6-0.91c0.07,1.13-0.05,4.92-0.11,3.85c-0.38-0.84-0.52-0.78-0.85-1.42
			c-0.24,0.49,0.29,1.89-0.37,1.87c-0.83-1.47-0.56-1.64-1.4-3.11c-0.34-0.08,0.24,1.18,0.4,1.1c0.01,0.74-1.58-0.36-1.16,1.15
			c0.48,0.63,1.2,2.16,1.38,1.63c0.19-0.37-0.56-0.73-0.99-2.01c0.4-0.58,1.09,1.7,1.59,2.92c-0.16,0.09-0.32,0.18-0.04,0.79
			c-0.21,0.12-0.89-1.6-1.04-1.23c0.31,0.99,0.65,1.77,1.55,3.72c-0.21-0.03-0.7-1.18-1.09-1.92c-0.16,0.16-0.32,0.32-0.49,0.47
			c-0.07,0.68,1.66,4.16,0.32,2.68c-0.34-0.74,0.2-0.46-0.21-1.29c-0.43-0.12-1.15-1.33-1.58-1.44c0.07-1.03-0.23-0.83-0.07-2.18
			c0.67,1.38,0.67,0.86,1,2.02c0.06-0.07,0.13-0.13,0.19-0.19c0.04-0.09,0.07-0.19-0.15-0.6c-0.07,0.03-0.15,0.03-0.35-0.41
			c0.18-0.14,0.06-0.63-0.21-1.3c-0.26,0.19-0.77-0.64-0.48,0.48c-1.07-2.45-1.56-2.65-1.82-1.94c1.27,2.01,0.62,1.64-0.2,0.18
			c-0.42,0.49,0.46,2.5-0.32,2.56c-0.58-1.03-0.34-1.1-0.21-1.3c-0.36-0.63-0.56-0.62-0.94-1.31c0.33,2.68-1.17,2.34-0.54,5.02
			c-0.51-0.58-1.19-1.83-1.33-0.93c-0.59-1.31-0.82-2.65-0.26-1.99c-0.59-1.36-0.94-1.77-1.04-1.22c-0.6-0.27-0.02-0.82,0.14-0.88
			c-2.29-3.57-1.95,1.34,0.58,4.67c-0.1,0.09-0.2,0.19-0.29,0.28c0.3,0.4,0.56,0.59,0.79,0.72c1.19,2.84,0.02,2.08-0.07,3.06
			c-0.5-1.83-1.3-1.95-1.73-2.04c-0.22,0.3,0.77,2.03,0.96,2.8c-0.85-0.83-0.86-0.52-0.68,0.67c-1.3-2.31-1.87-3.6-2.23-3.05
			c-0.58-1.45-1.68-3.51-1.01-3.49c-0.82,0.6-3.07-1.58-5.64-6.43c-0.92-1.16-0.99-0.37-0.78,0.77c-1.43-3.73,0.86-1.64-2.12-6.9
			c-0.33,0.1,0.89,2.03,0.36,1.89c-1.53-3.69,0,1.77,0.69,0.81c1.09,2.85-2.06-1.63-2.13-3.14c-0.85-1.51-0.58-0.4-0.74-0.03
			c-0.51-1.25-0.54-2.5,0.18-1.68c-0.28-0.32-0.74-1.32-0.94-1.31c-0.38-1.74,0.96,0.62,1.47,0.05c-0.35-0.42-0.7-0.83-1.04-1.23
			c-0.59-1.73,1.1,0.03,1.23,1.04c-0.13-0.64,0.11-0.85-0.01-1.49c-0.43-0.91-0.64-0.94-1.09-1.92c0.77,0.8,0.86,1.12,1.23,1.03
			c0.89,2.08,1.39,3.09,1.89,2.64c0.61,1.06,0.17,0.9,0.55,1.7c0.37,0.65,0.45,0.18,0.64,0.12c0.34-0.09-1.49-2.73-0.71-2.3
			c0.47,1.48,0.79,1.48,1.4,3.12c-0.5,0.09-0.81-0.26-0.43,1.17c0.96,1.35,0.06-1.65,1.18,0.34c0.24-0.33-0.34-2.7-0.95-2.8
			c0.83-0.19,0.95-1.83,2.23-2.19c-0.07-0.58-0.4-0.73-0.9-2.11c0.31-0.29,1.22,0.57,0.88-0.85c-1.04-0.93-1.75-4.23-1.79-2.74
			c-0.74-1.07,0.18-0.66,0.09-1.57c-0.91-1.67-0.85-0.32-0.93,0.16c-0.47-1.04-0.8-1.55-0.94-1.31c0.21-0.37,0.28-1.08-0.57-3.19
			c-0.22-0.39-0.35-0.41-0.59-0.91c0.03,0.94,0.16,2.01,0.12,2.87c-1.34-2.4-3.71-3.88-1.76,0.23c-0.75-0.57-1.73-2.04-2.67-3.36
			c0.88,2.64-0.62,1.06-0.65,2.29c-0.71-2.53-3.27-5.84-3.02-7.65c-1.12-1.67-1.42-3.06-2.74-5.54c0.3-0.9,0.96-0.34,1.72,0.56
			c0.07-0.19-0.37-0.99-0.65-1.61c0.71-0.06,1.46,0.02,2.66,1.88c-0.36-1.26-0.98-2.83-0.22-2.78c-0.49-1.37-1.32-1.81-1.25-2.52
			c-0.7-0.77-1.13-1.11-1.87-1.15c-0.06-1.63-0.97-1.89-2.4-5.13c0.52,2.45-0.37,1.27-1.11,1.84c-0.59-2.22,1.5-0.02,0.17-3.16
			c0.58,0.68,0.77-0.15,1.12-0.36c-1.66-6.71-4.29-5.34-6.69-9.14c0.11,0.48,0.05,0.76-0.14,0.89c-0.27-0.6-0.46-0.87-0.6-0.92
			c-0.93-1.51,0.12-0.69-0.8-2.21c-0.34,0.15-0.58-0.61-1.54-2.23c-0.22,1.88-0.96,2.47-2.99-0.8c0.1,0.47,0.05,0.76-0.14,0.88
			c-1.04-2.17-1.38-1.62-2.23-3.05c-2.69-5.48-2.52-7.58-4.41-12.12c-1.78-0.94-0.52,2.56-1.73,3.2c1.15,1.95,1.94,2.86,2.48,3.56
			c0.06,0.66-1.07-1.19-0.39,0.38c-1.28-1.84-2.34-2.83-2.86-1.69c-0.82-1.14-0.71-1.56-1.59-2.93c-1.22,1.7-3.48,0.57-6.48-2.6
			c-2.29,1.13-9.87-12.34-11.38-19.49c0.63,1.04,1.18,1.77,1.94,3.34c0.38-0.72,1.27,0.53,1.81,0.46c-0.61-4.02,1.88-1.87,2.41-3.87
			c0.18,0.43,0.15,0.6,0.4,1.1c1.22-0.07,1.21-1.99,2.34-0.8c-0.05-0.62-0.32-1.5-0.26-1.99c0.23-0.35,0.95,1.19,1.39,1.63
			c-0.55-2.12,2.48-0.01,0.31-4.04c0.91,0.95,0.75,0.22,1.12-0.37c1.25,3.02,0.22,1.96,0.63,3.89c1.11,5.25,4.66,10.76,7.77,14.81
			c0.48-0.36,1.19,0.23,1.82,0.46c-0.03-0.66-0.44-1.78-1.2-3.31c0.83,4.41-3.18-2.1-4.46-6.1c0.13-0.43,0.67,0.72,0.73,0.03
			c0.04-0.3-0.28-1.03-0.21-1.29c-0.91-1.11-1.03-1.61-2.29-3.74c0.31,0.02,0.09-0.6,0.14-0.88c-2.52-2.08-2.51-5.96-3.75-9.03
			c0.52,0.63,0.75-0.01-0.01-1.48c-0.88-1.35-0.05,1.03-0.68,0.66c-0.46-0.89-0.41-1.18-0.9-2.11c0.53,0.64,0.72-0.05,1.03-0.26
			c-0.76-1.57-1.02-1.14-1.94-3.33c-0.11-0.47-0.05-0.75,0.14-0.88c-0.88-1.42-1.04-1.89-1.4-3.11c-0.71-1.2-1.04-0.9-1.58-1.44
			c-2.08-4.24-2.3-5.09-4.24-8.56c-0.13-0.64,0.11-0.84-0.02-1.48c-0.46-0.86-0.73-0.98-0.88-0.62c-0.68-1.3,0.18-0.77-0.71-2.3
			c0.44,0.14,0.82,0.31,0.33-1.08c0.31,1.7-3.63-5.71-2.3-5.22c1.05,2.1,1.08,3.16,2.49,5.03c-0.63-2.23-0.68-3.06-1.56-5.2
			c-0.87-0.21-2.82-3.8-2.15-4.63c-0.83-1.51-1.36-1.87-2.13-3.14c-0.28-0.61-0.03-0.6,0.04-0.79c-0.48-1.11-0.61-0.82-0.79-0.72
			c-0.72-1.41-0.29-1.46-0.95-2.8c-0.94-1.11,0.4,1.54-0.08,1.59c-0.7-2.72-2.98-7.29-4.31-10.74c0.23-0.21-0.15-1.15,0.33-1.08
			c-0.73-1.62-1.14-1.93-1.54-2.22c-0.5-2-2.01-4.14-2.26-6.02c0.53,0.24,1.03,2.16,1.49,3.02c0.42-0.06,0.09-1.02-0.26-1.99
			c1.24,1.68,1.16,3.6,1.66,5.11c0.93,0.54,3.38,4.99,4.37,7.67c0.71,0.71,1.12,0.26,1.72,0.56c-0.25-0.49-0.31-0.28-0.44-0.31
			c-0.92-1.92-0.69-2.49-1.61-4.41c0.09-0.29,0.4,0.31,0.54,0.22c-0.03-0.85-1.3-2.62-1.75-3.52c0.45,0.66,1.86,2.43,0.39-0.38
			c0.35-1.71,2.69,1.74,2-1.21c0.74,2.11,1.86,3.84,1.63,2.14c0.59,1.81,0.6,1.64,1.5,3.02c-0.1,0.94-1.43-0.86-0.53,1.26
			c0.75,1.35,0.43-1.48,1.58,1.45c0.4-0.37-0.17-1.88,0.12-2.37c-0.85-1.62-1.47-2.29-2.13-3.14c-0.36-0.95,1.46,1.08,0.87-0.86
			c-0.93-1.6-0.31-0.07-0.74-0.03c-0.59-0.75-0.91-2.03-1.69-2.83c-0.66-2.01,1.11,1.56,1.39,1.64c0.44,0.1-1.25-2.31-0.81-2.21
			c-1.18-1.68-1.02-1.07-2.07-2.44c0.09-0.65-1.38-3.97-0.16-2.08c0.09-0.79-0.42-0.99-1.15-2.62c-0.16,0.16-0.32,0.32-0.48,0.48
			c-1.25-3.45,1.41,0.96,1.57-0.04c-0.74-1.62-1.2-2.17-1.39-1.64c-0.26-1.06-0.84-1.35-1.15-2.61c0.25,0,0.68,1.64,1.19,1.82
			c0.63,0.18-0.78-2.04-0.26-1.99c0.58,1,1.08,1.35,1.34,2.42c0.43-1.02,2.04,2.61,2.41,1.37c-1.13-1.89-2.07-3.06-3.07-4.46
			c-0.05,0.29,0.54,1.34,0.9,2.1c-0.27-0.12-0.61-0.5-0.89-0.62c-0.49-1.07,0.37-0.54-0.36-1.89c-0.03,0.68-1.45-2.54-1.98-2.54
			c-0.74-2.01-0.84-2.19-2.15-4.62c0.63,0.89,1.01,0.79,1.58,1.43c0.63,1.31-0.02,1.1,0.61,2.4c0.57,0.48,0.93,0.64,1.09,1.92
			c0.57,0.86,0.81-0.63,1.38,1.63c0.23-0.55,0.64-0.34,1.03-0.25c1.15,2.61,3.06,6.57,4.37,7.67c-0.33,0.52-0.66,1.04,0.47,3.28
			c0.31,0.58,0.39,0.25,0.54,0.22c0.61,1.14,0.94,1.95,1.15,2.62c-0.76-0.47-0.43,0.55-1.02,0.26c-0.75-1.31-0.31-1.2-0.8-2.21
			c-1.65-2.23-0.67,1.73-0.61,2.85c0.58,0.22,1.55,1.62,2.31,1.47c1.04,2.02-0.18,0.05-0.14,0.88c0.82,1.77,1.04,1.23,1.64,2.14
			c0.1-0.78-0.55-1.14-0.8-2.2c0.99,0.72,2.26,2.52,3.76,5.27c-0.07-1.07,0.34-0.6,0.78-0.77c0.37,1.64,1.56,3.09,2.74,5.54
			c0.11-0.57-0.8-2.34-0.41-2.58c-1.11-1.93-1.61-4.2-2.34-4.43c-0.27-0.74-0.26-1.15-0.11-1.39c0.88,1.88,1.49,2.69,2.19,3.84
			c-0.02-0.98,0.02-2.12,0.81-1.56c-0.85-2.09-0.97-1.27-1.23-1.03c0.03-0.52-0.83-2.59-1.25-2.51c0.77,0.61,0.14-2.61,1.66-0.14
			c0.22,0.14-1.33-2.75-1.59-2.93c-0.33-1.3-0.14-1.98-0.12-2.87c-0.5-1-0.58-0.38-1.19-1.83c0.71,0.31,0.37-0.76,1.03-0.26
			c-0.37-2.09-1.64-2.4-2.78-4.75c-0.09,0.57-0.24,0.4-0.08,1.58c-0.98-0.88-0.29-1.93-1.15-2.61c-0.15-0.73-0.48-1.69-0.26-1.99
			c-0.4-0.31-1.08-1.7-1.23-1.04c-0.96-1.75-1.37-2.87-1.21-3.31c-1.71-1.84,0.36,1.73,0.22,2.78c0.08,0.18-2.38-3.77-1.55-3.72
			c-0.54,0.22-1.49,0.03-1.11,1.85c-1.09-2.29-1.22-1.88-2.23-3.05c0.41-0.24,0.72,0.33,0.68-0.67c0.25,0.51,0.5,1.01,0.75,1.52
			c0.53-0.57-0.24-1.85,0.87-0.86c-1.18-1.82-1.92-1.63-2.35-0.67c-0.1,0.07-0.38-0.55-0.6-0.91c-0.17-0.34-0.33-0.67-0.5-1.01
			c0.09-0.29,0.4,0.31,0.54,0.22c-0.61-1.28-0.82-1.01-1.29-1.72c-0.31-0.79-0.46-1.38-0.46-1.8c0.97,1.05,0.6-0.4,1.62,0.66
			c0.83,1.53-0.26,0.81,0.26,1.98c0.82,0.95,0.35-1.39,0.82-1.56c-0.42-0.84-0.83-1.67-1.24-2.51c-0.28-0.35-1.51-1.34-1.09-1.92
			c-1.12-1.89-0.13,0.33-0.49,0.47c-0.42-0.47-0.98-1.86-1.15-2.61c-1.56-2.19-0.62,1.63,0.87,4.38c-0.95-1.24-0.67-0.94-1.23-1.03
			c-0.93-1.59-0.08-1.08-0.01-1.48c-0.52-0.78-1.33-2.7-1.53-2.22c-0.91-2.73-2.23-5.52-3.89-8.15c0.62,0.71,1.35,1.83,1.98,2.55
			c0.22-0.92-0.63-1.74-1.4-3.12c0.31-0.39,0.94,0.53,1.43,0.84c1,1.73-0.16,0.93,0.26,1.99c0.36,0.63,0.56,0.62,0.94,1.32
			c0.01-0.76-0.69-2.35-1.01-3.5c0.67,0.54,0.99,2.4,2,4.03c0.48,0.08-0.5-1.56-0.02-1.49c1.09,2.61,2.64,3.99,3.62,4.68
			c0.44,1.01-0.18,0.77,0.71,2.3c1.09,2.08,1.64,1.98,2.42,2.86c1.02,2.13-0.64-0.21,0.02,1.49c-0.42-0.88-1.24-2.09-1.58-1.44
			c1.43,1.34,3.12,3.68,4.75,5.81c1.15,2.47,0.8,3.18,0.18,3.56c-0.04,0.23,0.43,1.07,0.31,1.2c0.6,1.08,0.77-0.04,0.24-0.98
			c1.12,1.88,1.59,1.97,1.93,1.85c0.26,0.66,0.39,1.15,0.21,1.29c0.3,0.4,0.56,0.59,0.79,0.72c0.03-0.76-0.81-1.2-0.9-2.11
			c1.62,1.84,1.38-0.09,1.55-1.52c0.32,1.28,1.32,2.78,1.69,2.83c0.69-0.23-0.92-4.96,1.16-1.14c0.75,2.29-1.58,2.04,0.29,4.95
			c0.22,0.95-1.16-0.21-0.12,2.37c0.52,0.93,0.57,0.03,1.28,1.72c0.34-0.43-0.4-2.14,0.13-2.36c0.27,1.52,1.6,3.66,1.88,2.64
			c0.16,0.54,0.2,0.93,0.21,1.29c0.64,0.78,1.42,2.08,1.98,2.54c-0.23-1.74-0.56-3.6-1.77-6.49c0.22-0.1,0.9,1.65,1.19,1.83
			c1.05-0.3-1.07-4.34-0.63-5.36c-0.31-0.58-0.39-0.26-0.54-0.22c-0.53-2.12-1.66-5.38-2.76-7.02c0.41-0.6,2.18,4.12,2.58,3.45
			c0.31,0.71-0.04,0.65-0.14,0.88c0.83,1.83,1.36,2.51,1.79,2.73c0.31,0.71-0.04,0.66-0.14,0.89c1.73,2.47,0.52,0.24,2.09,3.93
			c0.59,0.41,1.06,0.36,2.23,3.05c1.18,0.88,1.08-0.34,1.95-0.43c-0.62-1.5-0.78-1.16-1.34-2.42c0.9,0.43,1.61,2.91,2.73,4.06
			c0.14-0.25-0.79-1.77-0.81-2.21c0.36,0.28,0.84,1.06,1.44,2.33c0.14-0.33-1.07-2.24-1.05-2.71c0.54-0.03,0.35-0.33,0.83-0.07
			c-0.27-2.45-2.37-7.49-3.92-11.11c0.3-0.07,1.08,0.81-0.11-1.39c0.29-0.16,0.56-1.19,0.98,0.53c0.1-0.78-0.55-1.14-0.8-2.21
			c0.54,0.52,1.37,2.21,1.73,2.04c0.21-0.29-0.8-1.69-0.84-1.42c-0.03-0.63,0.14-0.84,0.78-0.76c-0.98-0.85-0.56-1.39,0.19-0.19
			c-0.16-0.69-0.53-1.61-0.01-1.49c-0.96-1.41-0.57-0.02-1.02,0.27c-0.34-1.37-0.87-1.39-1.29-1.73c-0.61-1.14,0-0.83-0.46-1.8
			c1.43,2.33,0-0.7,1.23,1.04c-0.99-2.35,0-0.64-1.11-3.4c-0.22-0.39-0.35-0.41-0.6-0.91c0.57,2.62-0.24,2.5-0.46,3.44
			c-0.19-0.43-0.15-0.6-0.4-1.1c-0.82,0.17-0.12,2.06-0.36,3.35c-0.82-1.65-1.23-1.65-1.58-1.45c-0.93-1.51,0.12-0.69-0.8-2.2
			c0.16-0.6,0.77,0.65,0.49-0.47c-0.79-1.25-0.5,0.5-0.68,0.66c-0.34-0.72-0.69-1.44-0.84-1.41c0.65-0.06-0.85-3.56-2.66-7.12
			c0.03-0.82-0.28-1.87-1.2-3.3c0.18-0.78,0.25-1.01,1.03-0.26c-0.5-1.29-0.08-1.71-0.31-2.8c-0.47,0.12-0.93,0.23-1.47,0.41
			c-3.34,1.88-6.01,3-7.61,3.37c0.06,0.32,0.11,0.63,0.36,1.18c0.93,1.22,0.22-1.27,0.97-0.95c1.17,2.77-1.16,0.26,0.97,4.28
			c-1.07-1.02-2.43-3.19-3.31-3.48c1.15,2.61,1.22,0.97,2.23,3.05c-0.4,0.33-0.96,0.03-2.08-2.45c-0.76,0.53-0.93,1.08-1.86,0.33
			c-0.6-2.1,0.74,0.32,0.28-1.77c-1.19-2.29-1.14-1.16-2.19-3.83c0.84,0.62,2.49,4.38,3.02,3.76c0.06-0.83-1.01-1.97-0.86-2.89
			c0.51,0.25,1.09,0.75,1.66,1.26c0.61-0.72,1.36-1.56,1.59-2.31c0.59-1.94,0.5-5.81-2.38-6.17c-1.1-0.14-4.94,1.2-5.59,0.84
			c-1.42-0.77,3.23-4.93,1.5-5.7c-1.17-0.52-5.45,0.9-5.72,0.52c-0.78-1.1,4.01-5.48,6.78-7.37c0.25-0.73-1.24,0.09-0.99-0.64
			c5.42-4.7,4.96-9.56,3.47-12.07c-0.23-0.38-0.06-1.33,0.04-1.79c0.6-2.57,2.99-5.83,6.04-9.3c-0.36-0.72-0.72-1.45-1.08-2.18
			c0.07-0.68,0.6,0.46,0.74,0.03c-1.36-1.57-2.07-4.21-1.76-5.01c0.75,1.3,0.31,1.2,0.8,2.21c1.01-2.95,3.91-1.38,6.14-0.28
			c0.17-0.18,0.34-0.36,0.51-0.53c-0.13-0.76-0.2-1.45,0.27-1.52c0.17,0.35,0.31,0.57,0.44,0.78c1.32-1.36,2.63-2.72,3.87-4.03
			c1.86-1.05,2.62-1.84,4.1-2.8c0.64-0.83,1.42-1.69,2.24-2.56c-1.16-3.82-0.38-5.35-1.62-9.26c0.25-0.47,1.18-0.15,0.03-2.27
			c0.22-0.11,0.49,0.01,0.89,0.63c0.24-0.48-1.15-1.19-1-2.02c0.24-0.78,0.42,1.08,0.69,0.82c-0.4-1.16-0.82-2.36-1.11-3.4
			c0.27-1.47,2.07-1.98,1.97-4.17c0.28,0.14,0.62,0.55,1.04,1.22C77.45,140.62,81.37,144.57,82.55,141.99z M72.49,236.45
			c0.03-0.46,0.87,0.04,0.33-1.08C72.23,234.58,71.64,234.54,72.49,236.45z M50.22,229.92c-0.27,0.59-1.24-0.67-0.18,1.67
			C50.18,230.7,51.47,232.46,50.22,229.92z M58.37,244.35c-0.54-1.26-1-2.43-1.9-4.12c-0.32,0.54-0.54,1.19,0.13,2.88
			C57.05,242.91,57.55,243.93,58.37,244.35z M134.26,427.9C133.66,428.88,136.15,431.81,134.26,427.9L134.26,427.9z M132.44,425.95
			c0.82,1.94,1.47,1.54,0.74,0.03C133.1,426.67,132.57,425.52,132.44,425.95z M169.15,481.15c0.72,1.83,1.52,1.6,1.08,0.44
			C169.83,481.31,169.29,480.43,169.15,481.15z M167.22,479.31c-0.54-0.54-1.23-1.63-1.58-1.44
			C165.9,479.08,168.29,481.87,167.22,479.31z M166.17,476.6c0.24,0.14,0.49,0.32,0.79,0.72c-0.09,0.18-0.15,0.38,0.31,1.2
			c0.36-0.2-0.65-2.03-0.86-2.89C165.94,475.05,165.55,475.31,166.17,476.6z M164.43,473.08c0.67,0.45-1.1-0.22-0.18,1.67
			c0.29,0.04,0.78,0.85,0.98,0.53c-0.28-0.61-0.73-1.41-0.65-1.61c0.71,1.48,1.15,1.14,0.98,0.53
			C165.13,473.35,163.91,471.75,164.43,473.08z M197.26,516.37c-0.21,0.03-0.42-0.81-0.4-1.11c0.96,0.87,0.71-0.06,0.63-1.35
			c-1.1-1.14-2.56-3.69-3.61-4.68c0.65,2.21,1.44,3.77,2.75,7.02C196.89,516.53,198.04,517.21,197.26,516.37z M199.52,517.15
			c0.9-0.29-1.43-3.07-1.51-4.51C197.42,512.85,198.41,514.93,199.52,517.15z M200.82,525.6c0.1-0.1,0.19-0.19,0.29-0.29
			c-0.63-1.25-0.95-1.37-1.24-2.51c-0.1,0.23-0.45,0.17-0.14,0.88C200.05,523.13,200.3,524.68,200.82,525.6z M206.42,522.34
			c0.33,1.16,0.32,0.63,1,2.01c0.73-0.85-2.28-3.57-1.19-1.82C206.29,522.46,206.36,522.4,206.42,522.34z M203.48,527.47
			c-1.08-1.76-0.21-1.23-1.05-2.71c-0.11,0.5,0.07,1.34,0.17,2.09C202.68,526.21,203.28,527.65,203.48,527.47z M204.34,525.13
			c-0.42,0-0.68,1.8,0.68,4.57c-0.26-0.91-0.36-2.96,0.12-2.37C204.24,526.29,204.97,526.43,204.34,525.13z M223.2,516.31
			c0.46,0.57,0.86,0.31,0.24-0.98C222.9,514.68,222.85,515.35,223.2,516.31z M208.47,521.82c-0.18,0.55-1.12-1.48-0.73-0.02
			C208.56,523.73,209.2,523.32,208.47,521.82z M225.97,509.1c0.75,1.14,0.73,1.63,1.09,1.92c-0.67-1.86,0.55,0.5,0.35,0.41
			c0.55,0.25,1.24-1.65-0.72-3.78C227.58,510.03,226.51,508.8,225.97,509.1z M223.81,513.47c1.01,0.5,0.87-2,1.35-2.81
			C223.69,508.85,222.95,510.76,223.81,513.47z M211.66,517.19c0.39,0.07,1.68,1.24,0.43-1.17
			C211.75,515.96,210.86,515.42,211.66,517.19z M210.83,517.25c0.13-0.13,0.26-0.25,0.39-0.38
			C210.33,514.86,209.79,515.39,210.83,517.25z M204.33,518.4c-0.25,0.26-0.71,0.29-0.08,1.58
			C204.77,520.26,204.86,519.85,204.33,518.4z M202.67,518.55c-0.65-0.13-0.62,1.63,0.31,2.67
			C202.36,519.72,203.66,520.48,202.67,518.55z M198.55,518.1c0.71,1.74,0.4,2.29,0.82,3.69c0.22-0.23,0.72,0.59,0.83-0.07
			C199.81,520.81,198.95,518.32,198.55,518.1z M210.52,510.82c0.02-1.97,2.08-0.38,1.1-3.32C210.63,507,209.23,507.53,210.52,510.82
			z M198.16,506.52c-0.19,0.77,0.84,4.3-0.61,2.84c1.05,2.71,1.43,3.86,2.51,6.52c0.01-0.93,0.88,1.56,0.89,0.63
			c-1.47-4.73,1.42-2.4,0.63-6.6c-0.91-0.92-0.12,2.33-1.97-1.06c-0.22-1.32,1.02,0.38-0.17-2.08
			C199.27,507.74,198.52,506.38,198.16,506.52z M193.5,505.85c0.33,0.67,0.66,1.34,1,2.02c0.14-0.25,0.16-0.65-0.11-1.39
			C194.38,507.41,193.51,504.93,193.5,505.85z M77.3,161.39c0.44-0.18-0.62-2.12-1.11-3.4C75.85,158.28,76.67,160.24,77.3,161.39z
			 M475.68,307.63c-0.53-0.75-1.43-1.2-2.07-1.86C472.13,305.48,474.5,307.17,475.68,307.63z M344.15,418.38
			c-1.28-0.24-3.65-0.75-2.12,1.35C342.27,418.76,344.19,419.64,344.15,418.38z M323.29,427.77c-0.72,0.01-2.27-1.03-1.74,0.56
			C322.64,428.78,323.59,429.06,323.29,427.77z M281.74,441.67c0.12,0.18,0.14,0.44,0.11,0.81c0.21-0.1,0.35-0.14,0.53-0.22
			c-0.13-0.2-0.28-0.45-0.49-0.85C281.86,441.52,281.79,441.58,281.74,441.67z M152.9,442.51c-1.32-2.14-0.96-1.87-0.36-1.89
			c-1.49-2.9-0.11,2.49-1.93-1.85c-0.29,0.43-0.01,1.52-0.03,2.28c0.44,0.31,1.25,2.07,1.48,1.53
			C151.26,440.35,152.45,442.44,152.9,442.51z M89.65,343.05c0.79,1.53,1.5,2.74,2.19,3.83c0.15-3.37,2.97,1.12,1.33-4.3
			c-0.16,0.03-0.23,0.35-0.54-0.22c1.18,0.34,1.09-0.9,2.28-1.51c-1.04-1.71-1.79-2.28-2.52-2.76c0.37,1.03,1.13,1.4,1,2.02
			c-0.69-0.84-0.97-0.79-0.93,0.15c-3.03-4.69-3.49-0.28-5.39-0.68c1.17,2.32,1.83,1.91,2.78,4.75
			C90.12,344.31,89.72,343.48,89.65,343.05z M73.7,305.6c-0.13,0.13-0.26,0.25-0.39,0.38C74.19,307.99,74.74,307.46,73.7,305.6z
			 M75.65,228.85c0,0.01,0,0.01,0.01,0.01c0.07-0.15,0.07-0.25,0.16-0.41c-0.59-0.05-1.04-0.21-1.44-0.41
			C74.78,228.72,75.25,229.67,75.65,228.85z M311.79,428.72c1.15,1.53,2.74,1.43,2.62,0.37
			C312.56,427.68,312.97,429.26,311.79,428.72z M310.14,430.94c-0.85-0.29-1.86-0.81-1.38,0.75
			C310.13,432.7,311.02,432.22,310.14,430.94z M335.94,420.76c-1.4-0.91-0.81,0.49-1.48,0.43
			C333.61,421.21,337.44,423.01,335.94,420.76z M70.83,226.11c0.15,0.53,0.46,1.24,0.9,2.11c0.2-1.3,2.06,1.58,2.8,0.99
			c0.17-0.4-0.61-1.16-0.71-1.51c-0.12-0.1-0.25-0.2-0.35-0.31c0.67,1.5-0.19,0.36-0.36,0.98c-0.63-1.36-0.85-1.1-1.13-1.13
			c-0.94-2.76-1.33-1.28-2.33-2.95c-0.31-0.93,0.14-0.95,0.08-1.58c0.93,1.96,3.16,5.27,3.41,4.24c-1.09-1.62-1.08-4.08-2.87-5.13
			c0.5,0.94,0.78,2.57,0.15,1.71c-0.6-1.13-0.08-0.95-0.51-1.88c-0.93-0.4-2.28-0.48-4.35,0.01c0.06,0.25,0.18,0.57,0.4,1.02
			c0.78,0.81,2.19,1.35,1.67-0.13c0.81,1.33,1.16,1.56,1.07,0.42c0.42,0.86,0.72,1.24,0.94,1.32c0.76,1.99-0.72-1.03-0.64-0.12
			C69.13,224.8,70.62,226.72,70.83,226.11z M71.22,230.97c-0.58-1.19-0.9-1.32-1.59-2.92c-0.22,0.23-0.71-0.58-0.83,0.06
			c1.11,1.86,0.51,1.73,0.26,1.99C71.13,233.98,70.45,230.64,71.22,230.97z M77.59,232.19c0.03-0.05,0.04-0.12,0.06-0.18
			c-0.06-0.02-0.13-0.04-0.2-0.06C77.5,232.03,77.54,232.08,77.59,232.19z M80.59,233.43c-0.32-0.41-0.84-0.71-1.48-0.94
			C79.81,233.38,80.23,233.49,80.59,233.43z M69.55,262.55c0.33-0.15,1.35,0.34,0.37-1.87C69.43,260.21,69.34,261.55,69.55,262.55z
			 M67.83,267.23c0.13-0.13,0.26-0.25,0.39-0.38c-1.3-2.3-1.91-2.25-2.68-4.84c-0.13,0.13-0.26,0.26-0.39,0.38
			C66.52,264.87,66.42,264.5,67.83,267.23z M70.47,278.1c0.15-0.8-1.02-2-1.74-3.52c-0.33,0.91-1.22-0.34-1.82-0.46
			c0.45,0.98,0.66,1.01,1.09,1.91c0.2-0.19,0.39-0.38,0.59-0.57C69.24,276.46,70.07,278.13,70.47,278.1z M71.7,284.37
			c0.1-0.09,0.19-0.19,0.29-0.29c-0.76-1.54-1.36-2.48-1.78-2.73C70.7,282.36,71.2,283.37,71.7,284.37z M71.57,302.46
			c-0.54-1.19-0.97-1.91-1.34-2.41c-0.14,0.47-0.1,1.14,0.16,2.08C70.67,301.78,71.45,303.43,71.57,302.46z M71.45,311.55
			c0.04-0.58,1.21,0.16,0.18-1.67c-0.7-1.21,0.58,2.14-0.64-0.13c-0.17-1.03-0.39-2.13-0.91-3.59c-0.22,0.24-0.72-0.59-0.83,0.07
			c0.89,1.81,0.38,1.98-0.03,2.27C70.21,310.49,70.41,309.35,71.45,311.55z M85.46,345.67c0.13-0.69-0.18-1.89-0.91-3.59
			c-0.47-0.58-0.58,0.25-1.23-1.03c-0.2-1.13,0.93,0.15-0.07-2.18c-1.01-1.28-0.62-0.17-0.68,0.67c-0.89-1.17-1.38-2.3-2-4.03
			c-0.82-0.26,0.8,2.34,0.07,2.18C82.86,340.7,83.41,342.93,85.46,345.67z M92.1,348.87c-0.92-2.32-1.74-1.78-2.04-3.24
			c0.61,1.14,0.83,0.9,0.64,0.12c-1.27-2.24-1.66-2.35-1.43-0.84c-0.81-1.43-1.64-2.96-2.13-3.14c0.48,1.49-0.88,0.21-0.32,2.56
			c-0.56-0.46-1.36-1.83-1.83-1.94c1.03,2.12,1.57,2.64,2.24,4.53c0.22-0.72,1.05,0.95,1.88,2.64
			C91.17,351.56,90.62,348.02,92.1,348.87z M121.15,422.09c-0.88-0.96-0.94-0.26-0.53,1.26
			C120.95,422.79,121.83,424.14,121.15,422.09z M123.25,422.26c-0.27,0.18-0.84-1.64-0.65-1.61c1.25,1.57,2.45,0.61,0.77-2.24
			c0.46,2.2-0.6,1.67-1.61,0.83c-0.13-0.79,0.33-0.87-0.16-2.08c0.85,2.09,0.97,1.27,1.23,1.03c-0.72-1.56-0.83-0.73-1.23-1.03
			c-2.04-2.82-2.32-1.06-2.84-0.21c1.8,3.55,1.4,0.76,2.32,1.47c0.43,1.9,0.66,1.31,1.59,2.92c-0.32-0.26-1.89-1.56-0.78,0.76
			C122.34,422.46,123.62,423.59,123.25,422.26z M127.49,425.58c-0.32-0.31-0.59-0.41-0.74-0.03
			C127.49,427.15,128.24,427.14,127.49,425.58z M142.82,420.99c0.46,0.54,0.57-0.39,0.08-1.58
			C142.5,419.28,141.71,418.86,142.82,420.99z M139.24,426c-0.17-0.42-0.21-0.67-0.05-0.69c-0.33-0.67-0.67-1.35-1-2.01
			C137.77,423.18,138.84,425.85,139.24,426z M149.18,437.93c-0.92-0.12-2.2-1.64-3.05-1.5c0.6,1.35,2,3.68,2.54,4.25
			c0.38-0.05-1.17-1.64-0.9-2.1c1.31,1.62,2.13,1.47,2.45,0.58c-0.12,0.78-0.75-1.2-0.75-1.51c0.38,0.07,0.8,0.29,1.02-0.26
			c-0.33-0.67-0.66-1.34-1-2.01c-0.23,0.05-0.24,0.98-0.89-0.62c0.22-0.24,0.72,0.59,0.83-0.07c-1.29-2.29,0.24-1.26-0.67-3.09
			c-0.73-1.12,0.14,1.39-0.73-0.03c-1.08-1.77-0.21-1.22-1.05-2.7c-0.13,0.29-0.5-0.35-0.64-0.12c0.39,0.9,0.78,1.15,0.75,1.51
			c-0.35-0.29-0.84-1.06-1.44-2.33c0.24-0.07-0.06-0.77,0.14-0.88c0.63,0.41,1.54,1.93,2.17,2.34c-1.01-2.09-0.9-0.52-1.69-2.83
			c-0.47,0.07-1.16-1.05-1.02,0.27c-0.5-1.01-1-2.02-1.5-3.03c-1.12-1.06-0.56,1.66-2.44,0.91c0.05-0.21-0.13-0.71-0.31-1.21
			c-0.11,0.57,0.31,1.76,1.11,3.41c0.86,1.25,0.45-0.57,1.04,1.22c0.77,0.07-0.42-3.28,0.67-2.15c0.52,2.47-0.18,2.37,0.48,4.76
			c-0.42,0.07-1.27-1.99-1.24-2.51c-0.31,0.47-1.13,0.35-0.13,2.36c0.29-0.32-0.06-1.24,0.59-0.56c1.04,1.78,0.47,1.67,1.3,3.21
			c-0.01-1.64,0.61-2.58,1.7-0.93c-0.21,0.96-1.48-0.01-0.42,2.65c0.61,0.54,0.55-0.31,1.29,1.73
			C147.9,436.71,148.33,436.46,149.18,437.93z M147.4,440.43c0.13-0.13,0.26-0.26,0.39-0.38c-0.74-1.63-1.2-2.17-1.38-1.63
			C146.73,439.09,147.06,439.76,147.4,440.43z M152.59,446.55c-1.07-2.5,0.35-0.81,0.03-2.28c-1.73-3-1.5,0.96-2.4,0.11
			c-0.23-1.46-0.24-2.66-0.08-3.66c-1.19-0.72-1.35,0.52-1.06,2.53c-0.48-1.05-0.22-1.24-0.7-2.3c-0.22,1.16-0.22,0.43-0.83,0.07
			c0.55,0.98,0.48,1.6,1.2,3.31c0.4-0.67,0.91-0.89,1.97,1.06c-0.12,0.28-0.74-0.03,0.11,1.39c0-0.48,0.78-0.62,0.82-1.56
			C152.24,445.75,152.25,447.01,152.59,446.55z M153.31,455.57c-0.29-0.03-0.78-0.85-0.98-0.53
			C153.08,456.69,154.16,457.52,153.31,455.57z M153.43,458.44c-0.54-1.17-0.96-1.87-1.19-1.82c0.46,0.96-0.15,0.66,0.46,1.79
			C153.02,458.73,153.29,458.83,153.43,458.44z M158.73,460.71c-0.62-1.6-1.48-1.75-0.98-0.53
			C158.04,460.21,158.64,461.45,158.73,460.71z M176.44,465.01c-0.37,0.48-0.38-0.78-0.75-1.51c-0.51-0.27-1.31-1.67-1.83-1.94
			c0.17,0.34,0.33,0.67,0.5,1.01c-0.04,0.09-0.08,0.19,0.15,0.6C174.41,462.83,177.37,469.51,176.44,465.01z M180.42,471.58
			c-0.75-1.14-0.4-1.95-0.9-2.11c0.59,1.46-0.84-1.16-0.73-0.02C179.52,470.91,179.93,471.09,180.42,471.58z M182.53,478.47
			c-0.76-0.82-0.56-0.52-0.83,0.07C182.57,480.61,183.28,479.99,182.53,478.47z M185.74,492.53c-0.81-1.32-1.55-3.6-1.74-3.53
			c0.52,1.18-0.57,0.45,0.26,1.99C184.7,491.27,185.44,492.77,185.74,492.53z M282.75,442.1c-0.2-0.37-0.4-0.72-0.56-0.98
			c0.2,0.43,0.34,0.78,0.43,1.04C282.65,442.14,282.7,442.12,282.75,442.1z M289.36,441.03c-0.43-0.98,0.41-2.24,1.68-3.58
			c-0.23,0-0.6,0.13-1.01,0.32c0.12,0.56,0.19,0.96-0.37,0.78c-0.14-0.19-0.23-0.32-0.31-0.44c-0.13,0.07-0.25,0.13-0.38,0.2
			c0.02,0.04,0.04,0.04,0.05,0.09c-0.04-0.03-0.05-0.04-0.09-0.07c-0.69,0.38-1.36,0.77-1.8,0.99c-0.03,0.42,0.05,0.99,0.38,1.81
			c-1.16-0.77-1.11,1.58-2.99-0.8c0.26,0.73,0.32,1.13,0.3,1.42C285.8,441.96,286.11,442.74,289.36,441.03z M300.14,450.22
			c1.19,1.08,1.32,1.05,2.34,2.77c-0.19-3.47,2.51-2.28,4.1-2.92c-0.31-0.29-0.48-0.64-0.5-1.08c-0.72-0.51-0.28,0.79-1.32-0.21
			c-0.13-1.95,2.25,1.39,2.73,0.84c-0.67-1.14-1.21-2.08-0.34-2.05c0.02,1.94,0.93,0.9,2.35,2.36c-0.02-2.06,4.8-1.37,3.05-5.07
			c1.09,0.33,1.03,1.24,1.65,1.81c0.95-0.72,2.72-0.18,2.86-1.98c0.09,0.85,0.41,1.58,1.09,2.11c0.19-0.5,0.84-0.35,0.25-1.94
			c-0.58-0.43-1.36-0.76-1.59-1.38c0.86,0.45,0.4-0.95,1.62,0.01c0.1,1.15,0.71,2.01,1.86,2.58c-0.65-3.18,4.52,0.85,2.59-3.22
			c0.46-0.11,0.86,0.14,1.53,0.96c-0.92-1.65,1.06-0.75-0.07-1.76c-0.44-0.22-0.71,0.17-1.15-0.72c0.95-0.39,2.98,0.66,4.08,0.45
			c-0.51-0.31-0.53-0.92-0.97-1.27c-0.75-0.53-0.75-0.07-1.45-0.55c0.58-2.81,5.77,0.19,5.29-3.88c1.62,0.72-0.1,0.6,0.99,1.24
			c1.08,0.21,1.7-0.14,2.31-0.51c-1.39-1.41-2.09-3.21-2.89-4.91c-0.03,0.79-1.37,0.08,0.17,1.55c-0.83-0.8-0.97,0.41-1.56-0.91
			c0.43,0.2,0.25-0.37,0.05-0.96c1.52,1.34-0.09-1.19,0.94-0.47c-0.55-1.03-1.19-1.99-2.17-2.73c-0.77-0.21-2.61,0.5-4.07,0.87
			c0.01-0.06-0.01-0.11,0-0.17c-1.28,0.37-3.18-0.03-3.24,1.94c-1.02-1.43-1.97-0.83-0.75,0.86c-0.72-0.35-0.89-1-1.35-1.5
			c-0.26,0.97-2.54-0.24-1.01,2.34c-0.85-0.07-1.42,0.22-2.17,0.29c-2.45-2.15-3.52-0.02-5.48,0.44c1.33,0.54,2.89,0.99,3.05,2.09
			c0.23,1.53-3.53,4.98-1.61,5.9c-4.2,1.41-2.2-0.94-2.83-1.9c-1.19-1.79-3.84-3.01-6.12-4.29c-0.13,0.33-0.18,0.79-0.08,1.47
			c-1.49-1.56-0.49,0.6-1.67-0.5c-0.01-0.82,0.29-1.26,0.71-1.58c-0.99-0.61-1.81-1.26-2.31-2c-0.15,0.32-0.27,0.62-0.95,0.01
			c1.61,1.64,0.86,1.71,1.91,3.45c-2.12-1.39-1.98,0.06-1.92,1.38c-0.92-0.42-0.87-1.33-1.57-1.86c-0.49,1.07-2.25,1.71-3.6,0.44
			c1.14,0.36,0.97-1.36,1.89-1.36c-0.15-0.1-0.24-0.23-0.36-0.35c-0.74,0.56-1.45,1.13-2.39,1.76c1.36,0.48,1.17,1.35,2.1,1.87
			c0.78,0.16,1.57-1.08,2.54-1.08c1.06,2.09,3.5,3.22,4.83,5.58c-2.2,1.42-1.91,2.03-5.42,3.32c0.38,0.21-0.27,0.65-0.4,0.98
			c0.05,0.78,0.85-0.46,2.55-1.09c-3.56,2.36,1.34,0.91-1.23,2.77C298.86,448.71,299.65,449.39,300.14,450.22z M363.82,421.09
			c1.14,0.63,0.75-0.28,0.64-0.91C362.86,419.16,362.73,420,363.82,421.09z M357.35,422.56c-0.6-0.01-1.18,0-0.55,1.28
			C357.98,424.47,357.66,423.5,357.35,422.56z M371.99,420.3c-1.52-2.16-1.48-3.01-3.26-5.4c-0.77-0.39-0.7,0.05-1.52-0.39
			c0.57,1.04,1.77,1.64,1.92,2.98c-1.21-0.28-1.09-1.48-1.87-2.06c-1.17,0.38-0.71,2.1-0.25,3.5
			C368.84,419.09,368.81,418.79,371.99,420.3z M376.8,411.69c0.42-0.16,1.74,0.5,1.02-0.73
			C376.41,410.22,376.08,410.46,376.8,411.69z M383.87,408.59c1.66,0.61,1.8-0.18,1.97-0.92
			C384.06,406.28,383.63,407.51,383.87,408.59z M370,413.09c0.28,0.44,0.94,0.62,1.16,1.12c0.08,0.44-0.93-0.17-1.53-0.39
			c1.54,2.06,0.68,1.37,1.51,2.78c1.43,0.14,2.6,0.02,2.55-1.26c-2.48-1.28-0.45-0.87-1.38-2.4
			C369.94,411.45,370.99,413.26,370,413.09z M317.78,453.89c0.02-0.01,0.02,0,0.05-0.01c-0.12-0.15-0.2-0.34-0.43-0.44
			c0.13,0.34,0.17,0.53,0.17,0.67C317.69,454.03,317.79,453.93,317.78,453.89z M302.14,453.87c0.13-0.15,0.17-0.46-0.02-1.15
			c-0.44-0.41-0.95-0.8-1.39-1.22C301.02,452.35,301.35,453.2,302.14,453.87z M300.11,454.59c-0.12-0.54-0.04-0.77,0.1-0.88
			c-0.55-0.31-1.06-0.67-1.52-1.06C298.93,453.4,299.18,454.15,300.11,454.59z M343.72,443.15c-1.24-0.52-2.15-0.67-1.35,1.28
			C343.75,445.17,344.79,444.58,343.72,443.15z M360.1,436.24c-1.52-1.09-0.24,0.88-0.18,1.52
			C361.29,438.83,361.15,437.01,360.1,436.24z M381.8,402.81c0.39-0.01,0.67-0.12,0.99-0.21c-0.8-0.79-1.63-1.56-2.56-2.29
			c0-0.1-0.01-0.23-0.01-0.34c-7.76,4.91-15.99,9.47-24.79,13.46c-1.78,1.01-3.73,2.89-5.92,2.48c0.31,1.91-1.59,1.48-1.44,3.24
			c-0.52-0.1-2.26-1.51-1.89-0.66c1.59,1.8-1.59,0.99-2.27,0.97c-1.66-0.04-0.89,3.12-2.67,1.68c0.26-0.41,0.23-1.13,0.93-1.05
			c-0.59-0.41-1.01-0.59-1.35-0.63c0.11,0.12,0.22,0.16,0.34,0.34c-0.32-0.09-0.71-0.08-1.14-0.04c-0.73,0.96-0.34,3.58-3.16,1.81
			c0.95,3.82-5.96,0.78-3.77,4.53c-1-0.7-0.64,0.22-1.85-0.73c0.99,1.66-0.66,2.46-2.54,0.13c-0.04,0.03-0.06,0.07-0.1,0.11
			c2.25,2.26,4.63,4.24,5.5,6.86c0.11,0.05,0.17,0.14,0.3,0.18c0.09,0.39,0.04,0.56-0.09,0.63c0.18,0.94,0.14,1.98-0.14,3.13
			c0.35-0.16,0.73-0.26,1.24-0.23c-1.16-3.56,5.39,0.92,3.06-3.19c2.28,2.06,0.96-1.5,3.82,0.47c-0.92-2.16,0.61-1.46,1.06-2.02
			c2.03,2.28,3.69,0.37,2.25-2.31c1.12,0.23,1.18,1.12,1.87,1.62c-0.41-1.18,1.9,0.69,1.5-0.49c-0.85-0.7-1.83-2.45-0.65-1.92
			c0.41,0.67,0.2,1.74,1.05,2.13c1.5,0.63-0.12-2.22,0.45-2.62c0.91,1.2,1.19,1.09,2.16,1.42c-0.79-2.06,0.47-1.87-0.38-3.97
			c-0.43,0.14-0.85-0.09-1.36-1c0.29,0.07,0.8,0.4,0.68,0.03c-0.44-0.66-1.58-0.86-1.9-1.59c2.63,0.68,0.26-1.63,3.53-0.39
			c0.36,0.91-2.02,0.52,0.69,1.9c0.77,1.39-1.89,0.29-0.42,1.66c0.72,0,0.41-1.13,2.47,0.3c-1.03-1.88,0.94-0.56,0.28-2.05
			c-1.22-0.83-0.55,0.35-1.37-0.06c-0.08-0.87-1.11-1.15-1.64-1.75c-0.56-1.29-0.18-1.58,0.95-1.07c0.28,0.6,0.37,1.32,0.97,1.72
			c-0.18-0.5,0.59,0.01,0.54-0.35c-0.12-1.01-1.39-1.28-1.52-2.29c2.81,0.66,2.31-2.85,6.79,0.26c-0.06-0.39,1.1-0.62-0.33-1.67
			c-1.04-0.74-0.63,1.09-1.91-0.63c1.57,0.36,1.98-2.79,4.61,0.7c0.44,0.14,0.48-0.11,0.53-0.36c-0.16-1-1.43-1.25-1.59-2.25
			c2.26-1.25,6.21-2.01,6.56-4.44c4.12,0.05,5.27-2.57,8.06-3.74c-0.36-0.22-0.83-0.37-1.01-0.73c4.27,1.39,4.93-2.65,7.96-3.26
			C382.83,403.69,382.18,403.34,381.8,402.81z M394.22,398.54c0.61,1.06,2.5,1.67,1.54,0.33C394.51,397.81,395,398.69,394.22,398.54
			z M430.61,366.02c-0.32,0.22,0.42,1.36,1.3,1.99c0.24-0.06,0.49-0.11,1.11,0.12C432.49,367.21,431.9,366.33,430.61,366.02z
			 M436.34,360.83c1.86,0.78,0.21-0.97,1.09-0.9C435.91,358.75,436.11,360.2,436.34,360.83z M462.22,330.09
			c-2.79-1.59-2.62,0.15-2.5,1.07c1.93,1.29,1.91,0.38,0.58-1c1.3,0.79,2.41,1.76,4.03,2.28
			C463.63,331.52,460.48,330.02,462.22,330.09z M460,332.46c-1.64-1.26-1.71-0.13-1.27,0.55c0.57,0.38,1.25,0.67,2,0.89
			C459.83,333.3,458.89,332.12,460,332.46z M461.71,328.97c0.97,0.25,0.25-0.65,0.82-0.68
			C461.22,326.85,459.53,327.59,461.71,328.97z M465,320.59c-0.64-0.67-1.19-1.42-2.28-1.7c-13.21,16.79-27.17,34.3-44.34,50.87
			c-10.42,10.05-22.21,19.81-35.49,28.5c1.12,0.81,2.09,1.78,2.95,2.87c0.4-0.17,0.82-0.3,1.37-0.34c-0.54-0.25-1.06-0.52-1.21-1.06
			c2.49,1.04,4.18,0.82,2.39-1.27c3.93,0.89,2.05-3.2,5.89-2.42c-1.6-1.2,0.29-1.63,1.35-0.03c-1.5-0.92-1.07,0.76,0.07,1.43
			c1.19-0.08,1.65,0.75,3.21,1.54c0.31-1.49-2.65-3.5-3.59-4.21c1.83-0.3,2.05-1.92,2.77-3.07c0.77,0.24,1.17,0.76,1.91,1.01
			c-0.35-4.82,6.62-4.65,6.91-8.3c1.6,0.37,1.38,0,2.66,0.44c-0.28-0.45-0.84-0.68-1.03-1.19c5.37-2.88,7.26-7.59,12.46-10.36
			c-1.41-1.48,0.53-1.76,2.67-1.14c-1.71-2.32,1.09-1.27,1.36-2.12c-1.26-1.43,2.28-3.56,2.73-5.25c0.45,0.48,1.01,0.87,1.75,1.11
			c-1.7-2.87,2.72-1.36,0.71-3.61c0.74,0.24,1.41,0.54,1.98,0.93c0.27-0.24-0.25-1.02-1.11-1.65c1.66,0.28-0.6-1.3,1.97,0.42
			c-0.23-1.35,1.67-1.14,0.63-3.07c0.32,0.42,0.66,0.82,1.33,0.95c-0.49-1.25,1.61-0.63,0.41-2.39c0.05,0.43,2.44,1.23,1.76,0.6
			c-0.18-0.88-1.59-0.73-1.77-1.6c2.54,0.48,3.25-0.36,2.6-2.15c2.2,0.84,0.6-1.36,1.51-2.26c0.55-0.54,3.71-0.18,1.7-1.92
			c4.96-0.34,2.41-5.01,6.78-5.64c-0.55-0.22-1.21-0.36-1.55-0.76c0.49-0.25,0.58,0.21,1.77,0.58c-1.56-2.93,3.31-3.59,2.96-6.58
			c0.29,0.28,0.64,0.49,1.11,0.61c-0.82-2.35,1.26-2.71,2.85-3.4c-0.5-2.55,0.03-4.86,4.35-3.63c-0.63-0.85-1.91-1.15-2.5-2.02
			c2.19,0.86,0.02-1.22,1.22-1.02c0.59,0.61-0.04,0.6,0.71,0.95c-0.05-0.63,0.25-0.63-0.98-1.75
			C462.25,326.52,460.37,321.34,465,320.59z M465.67,317.98c-2.62-1.63-0.55,1.26-1.86,1.04
			C466.54,320.64,465.01,318.24,465.67,317.98z M470.9,314.15l1.75,0.59C472.08,313.65,469.63,312.82,470.9,314.15z M467.82,315.67
			c0.74,0.15,0.11-0.63,1.71,0.11c-0.31-0.59-0.93-0.93-1.39-1.4C466.7,313.91,467.14,314.71,467.82,315.67z M474.74,308.92
			c1.11,0.14-1.14-1.01-1.4-1.4c-1.12-0.42-0.98,0.04-1.71-0.11c0.51,1.1,2.03,1.38,2.55,2.49c1.37,0.63,0.41-0.32,1.28-0.03
			c-0.59-0.53-1.27-1-2.04-1.39C472.99,307.79,474.05,308.14,474.74,308.92z M476.19,306.2c-1.22-0.49-1.1-0.06-0.35,0.8
			C477.06,307.48,476.94,307.05,476.19,306.2z M474.9,303.69c1.11,1.19,1.05-0.11,2.71,1.85c0.81,0.11,0.04-0.86,1.22-0.5
			c-1.14-0.59-1.89-1.49-2.54-2.48C475.24,302.54,476.65,304.19,474.9,303.69z M530.75,245.59c-0.73-1.24-2.04-2.07-3.27-2.96
			c-0.31,0.5,2.33,2.67,2.13,3.26c0.96,0.45,1.45,1.22,2.24,1.78c0.8,0.03-1.57-1.72-2.09-2.36
			C529.58,244.96,530.32,245.4,530.75,245.59z M531.67,244.97c-2.18-3.3-2.32-0.7-3.66-3.18c-1.34-0.49,0.7,1.5,1.49,2.29
			C530.03,243.89,530.05,244.04,531.67,244.97z M529.1,240.6c1.44,1.63,1.18,1.49,2.49,3.01c1.5,0.94-0.13-0.85,0.73-0.47
			C531.22,242.31,530.38,241.32,529.1,240.6z M529.69,240.69c0.54,0.26,1.08,0.53,1.39,0.94c0.25-0.06-0.19-0.58-0.84-1.3
			C529.34,239.83,529.16,239.95,529.69,240.69z M529.46,160.39c-0.34-0.43-0.58-0.91-0.86-1.38c-0.08,0.37-0.2,0.76-0.28,1.13
			C529.04,160.68,528.93,160.09,529.46,160.39z M54.23,279.1c-0.08,0.4-0.33,0.59,0.36,1.89c-0.12-0.91,1.01,0.94,0.39-0.38
			C54.71,280.57,54.68,279.94,54.23,279.1z M182.92,493.81c-0.32-0.61-0.62-1.16-0.69-0.82c1.45,2.81,1.1,0.84,1.08,0.43
			C182.87,492.99,182.77,493.09,182.92,493.81z M322.57,432.09c-0.33,2.05-2.72-1.47-2.69,0.39
			C321.43,434.16,322.83,434.14,322.57,432.09z M283.22,470.03c-1.59,1.17,1.82,0.93,0.58-0.58c0.8,0.47,1.64,1.36,1.31-0.55
			c-1.13-1.34-0.88-0.2-0.68,0.67c-0.34-0.55-0.67-1.04-0.94-1.32C283.77,469.46,282.83,468.42,283.22,470.03z M261.33,478.83
			c0.13,0.04,0.2-0.17,0.44,0.31c-0.59,0.95-1.52,1.56-2.04,2.01c0.13,0.04,0.32,0.31,0.6,0.91c-0.39,1.67-3.18-1.67-2.38,1.6
			c1.26,1.07,0.81-2.11,2.35,0.67c1.38,0.05,1.53-3.34,3.85-1.54c-0.81-3.43,1.35-2.3,2.39-1.59c-0.99-0.93-2.97-3.5-3.34-6.45
			C263,477.02,261.86,477.72,261.33,478.83z M258.4,485.45c0.16,0.31,0.31,0.58,0.35,0.41c-0.63-1.24-0.95-1.38-1.25-2.52
			c-0.54-0.71-0.63,0.37-1.18-0.34c1.94,3.69-1.56-0.84-0.12,2.37C256.78,484.55,257.93,485.35,258.4,485.45z M70.1,144.52
			c-0.35-0.68-0.5-1.15-0.65-1.6c0.01,0.92-0.19,0.75-0.83,0.06C69.31,144.28,69.71,144.43,70.1,144.52z M68.42,143.18
			c-0.33,0.1,0.27,1.3,0.71,2.3c0.16-0.07,1,0.42,0.29-0.28C68.96,145.14,68.98,144.02,68.42,143.18z M241.43,496.9
			c-0.26,0.24-0.38,1.06-1.23-1.04c-0.53,0.14,0.07,1.62-0.03,2.27c0.58,1.28,1.56,1.75,1.23,1.03c-0.39-0.29-1.18-1.58-1-2.01
			C240.91,497.6,242.84,499.79,241.43,496.9z M73.49,162.14c0.51-0.64-1.76-3.38-2.44-4.34C72.9,161.96,72.21,159.03,73.49,162.14z
			 M236.9,499.11c1.61,2.56,1.59,2.23,2.78,4.75c-2.14-4.78-0.05-4.91,0.79-4.52c-1.07-0.52-1.13-2.27-1.9-4.12
			c-0.15,1.79-1.24,2.06,0.05,5.93c-0.54-1.01-0.6-0.13-1.14-1.13c0.1-0.22,0.45-0.17,0.14-0.88
			C237.56,499.82,237.03,498.67,236.9,499.11z M234.91,507.05c-0.86-1.92-2.03-2.62-1.83-1.95
			C233.6,505.38,234.4,506.78,234.91,507.05z M72.08,251.07c-0.91-1.07-0.84,0.45-0.43,1.17C71.39,251.01,72.56,252.66,72.08,251.07
			z M179.38,475.59c-0.41,0.26-0.9-0.51-1.54-2.23c-0.24,0.34,0.34,2.71,0.96,2.81c-1.04-2.57,0.46,0.69,0.69,0.81
			C178.74,475.68,180.12,476.89,179.38,475.59z M179.97,481.74c0.74,1.18,0.46,2.18,1.15,2.62c-0.19-1.34,0.64-1.48-0.18-3.56
			C180.78,481.77,181.44,483.91,179.97,481.74z M68.69,254.41c-0.91,0.62-1.71-3.96-2.88-4.66c0.09,1.5,1.89,2.79,1.46,3.81
			c0.77,1.61,1.5,3.04,1.94,3.33C67.04,252.88,69.83,256.92,68.69,254.41z M206.13,533.1c-0.61-1.14-0.94-1.95-1.15-2.61
			c-0.49-0.09,0.5,1.56,0.01,1.48c-0.14-0.28-0.36-0.49-0.1,0.09c0.07-0.03,0.16-0.03,0.35,0.41c-0.02,0.19-0.19,0.2,0.05,0.69
			C205.41,532.51,206.01,533.76,206.13,533.1z M176.26,482.4c0.59-0.21,2.15,3.46,1.43,0.84c0.74,1.14,3.21,4.3,1.62,0.65
			C178.36,483.39,176.46,481.59,176.26,482.4z M174.51,484.12c-0.08-0.64-0.52-1.97-1-2.01c-0.25-0.92-0.15-1.43,0.18-1.67
			c-0.25-0.36-0.51-0.72-0.84-1.42c-0.23,0.06-0.23,0.99-0.89-0.63c-0.13,0.19-0.49,0.13-0.14,0.89c-0.59-0.88-1.19-1.82-1.79-2.73
			c-0.31-1.17,0.28-0.51,0.58-0.57c1,2.53,0.29,0.41,1.29,1.72c-0.62-1.5-0.78-1.17-1.34-2.42c0.22-0.41,0.8,0.62,1.23,1.03
			c0.27,0.66,0.39,1.16,0.21,1.29c0.91,1.51,1.59,2.14,2.18,2.35c-0.17-0.78-0.73-2.34-0.01-1.48c0.77,1.78-0.26,1.45,1.11,3.4
			c-0.09,0.3-0.4-0.31-0.54-0.22c0.15,0.98,0.46,1.38,1.15,2.62c-0.51-1.79,0.93-0.34-0.32-2.69c0.29,0.2,0.72,0.9,1.19,1.83
			c-0.16,0.09-0.32,0.19-0.04,0.79c0.48,0.92,0.48-0.01,0.89,0.63c0.15,0.73,0.92,2.21,0.61,2.39c-1.07-3.03-1.79-2.03-2.62-2.66
			c-0.05,0.31,0.43,0.89,0.59,0.91C176.64,487.13,174.86,484.05,174.51,484.12z M173.79,480.34c0.44,1.01-0.18,0.77,0.71,2.3
			C175.12,482.99,174.34,480.66,173.79,480.34z M201.85,530.58c-0.76-0.39-1.47-1.04-2.33-2.95c0.46,0.96-0.15,0.66,0.46,1.8
			c0.5,0.35,0.83,2.09,1.44,2.32C200.28,529.29,202.37,531.85,201.85,530.58z M58.65,242.58c0.05-0.08,0.08-0.19-0.15-0.6
			c-0.06,0.06-0.13,0.13-0.19,0.19c-0.04,0.09-0.08,0.19,0.15,0.6c0.5,0.16,0.48,0.65,1.09,1.92c0.07-0.06,0.13-0.13,0.19-0.19
			c-0.25-0.5-0.22-0.68-0.4-1.1C59.18,243.4,58.91,242.98,58.65,242.58z M145.24,429.08c-0.15-0.73-0.48-1.69-0.26-1.99
			c0.22,0.37,0.5,0.99,0.59,0.91c-0.75-1.14-0.73-1.62-1.09-1.92c0.26,1.36-0.2,1.86,0.27,3.46c0.2-0.32,2.12,2.09,1.03-0.26
			C145.03,427.7,146.13,430.86,145.24,429.08z M59.74,254.98c-1.11-1.93-0.93-0.88-1.93-1.85c0.45,0.95,0.77,1.75,0.8,2.2
			c-0.08,0.16-0.51-0.58-0.19,0.19c0.6-0.02,2.15,2.75,2.09,3.93c0.23-0.31,1.98,1.19,1.28,0.24c-0.74-0.27-0.99-1.55-2.04-3.24
			C60.43,256.7,58.95,255.09,59.74,254.98z M156.09,465.56c-0.26,0.94-1.43,0.65-0.32,2.56c-0.11-0.83,0.87-0.25,0.38-1.86
			c0.75,0.94,1.96,3.7,2.49,5.03c0.29-0.56,1.12-0.41,0.77-2.24C159.12,471.53,157.73,469.15,156.09,465.56z M140.28,437.71
			c-0.88-1.5-1.67-1.46-0.93,0.16C139.49,436.88,139.67,437.56,140.28,437.71z M142.52,442.23c-0.86-1.8-0.95-0.54-1.89-2.64
			c0.09-0.62,0.7,0.81,0.89,0.63c-0.33-0.67-0.67-1.34-1-2.01c-0.37,0.19,0.03,1.29-0.53,1.26c-0.32-0.14-1.17-2.39-1.44-2.33
			c0.36,0.79-0.12,0.23-0.45-0.31c0.28-0.16,0.28-0.65-0.01-1.48c-0.33,0.55-0.01,3.19-1.41,0.64c0.15,0.31,0.28,0.61,0.15,0.6
			c-0.05,0.08-0.08,0.18,0.15,0.59c0.76,1.12,0.87,0.93,1.14,1.13c0.33,0.67,0.06,0.63,0.31,1.2c0.25-0.14,0.84,1.06,1.44,2.33
			C140.71,442.11,141.26,441.55,142.52,442.23z M156.43,476.45c0.72,1.97-0.61,2.25,0.65,1.61c0.12-0.25-0.04-2.44-0.01-1.49
			C156.92,476.78,156.71,476.75,156.43,476.45z M132.34,436.53c0.96,1.75,0.74-2.4,2.12,1.66c0.34-0.38,0.39-1.58,0.33-1.08
			c-0.55-0.13-0.64-1.04-1-2.01c-1.07-1.08-0.3,2.2-1.57,0.04C132.08,435.39,132.06,435.79,132.34,436.53z M84.6,358.49
			c-0.25-0.83-0.5-1.33-0.84-1.41c0.41,0.83-0.13,0.55,0.21,1.29c0.63,0.74,1.45,0.37,0.68-0.67
			C84.54,357.86,84.83,358.48,84.6,358.49z M128.46,452.3c0.13,0.58,0.89,1.89,0.46,1.8c-0.14-0.28-0.36-0.5-0.1,0.09
			c0.5,0.16,0.48,0.65,1.09,1.91c0.73,0.44-0.79-1.76-0.45-1.79c0.46,0.84,0.01-0.99,1.04,1.22c0.63,1.3-0.02,1.09,0.61,2.39
			c0.55,0.72,0.63-0.37,1.18,0.34c-1.37-2.45,0.67-2.48-0.69-6.06C130.24,451.96,129.73,452.97,128.46,452.3z M126.49,449.77
			c-0.52-0.96-0.36-1.13-0.55-1.7c-0.83-0.99,0.13,1.04,0.01,1.48c-0.15-0.14-1.35-2.3-0.69-0.81c0.32,0.64,0.47,0.58,0.84,1.41
			C126.38,449.93,125.88,449.12,126.49,449.77z M126.97,492.69c-3.91-5.85-5.78-3.64-9.02-6.85c0.61,1.44,0.69,0.82,1.19,1.82
			c0.38,1.54-0.66,0.2-0.87,0.86c1.15,1.68,2.14,2.68,3.12,3.67c0.47,1.11,0.47,1.68,1.3,3.21
			C125.17,497.36,130.04,500.89,126.97,492.69z M116.28,484.5c0.05,0.62,0.89,2.16,0.26,1.99c-1.13-1.96-1.13-2.58-1.21-3.31
			c-0.12,0.66-0.72-0.59-0.83,0.07c1.21,2.52,1.9,3.02,2.88,4.65c-0.22-0.96,0.18-1.18,0.28-1.77
			C117.06,485.04,116.6,484.5,116.28,484.5z M66.79,146.28c-1.48,0.28-0.13,2.74,0.09,5.14c0.3-0.42,0.69-0.48,1.27,0.24
			c1.43,3.13-0.85,0.54-0.47,1.96c0.21,0.18,1.71,2.81,0.96,2.8c0.99,0.94,2.85,5.29,2.62,2.66c-0.28-0.15-0.63-0.56-1.04-1.22
			c-1.03-3.09,0.9-0.31,0.17-3.16c0.61,1.04,0.52,1.87,0.84,1.42c-0.19-0.78-0.49-1.06-1.25-2.52c1.07,1.02-0.4-1.73-0.4-1.1
			c-0.41-2.08,0.24-1.91-0.24-4.26c-1.06-0.89-1.32-1.73-2.46-2.06c-0.75-1.39,0.02-2.05-1.2-3.3
			C66.33,144.73,65.57,146.1,66.79,146.28z M95.96,380.25c0.73,1.94,0.48-0.02,1.04,1.22c-0.97,0.07,0.64,2-0.53,1.27
			c1.72,2.85,2.34,0.96,1.11-1.84c0.38,0.05,1.76,1.54,1.37,0.14c-0.88-1.26-0.61-2.94-0.28-3.47c0.39,0.74,0.89,1.9,1.1,1.92
			c-2.07-4.13,0.53-2.97-0.19-5.05C97.86,375.71,98.19,380.3,95.96,380.25z M110.95,435.86c-1.6-3.59,0.19-2.11-0.68-4.57
			c0.86,1.06,1.09,2.56,1.69,2.83c0.13-1.04-1.44-4.07-0.78-4.48c0.5,1,0.58,0.37,1.19,1.81c0.11-1.05,0.36-0.57,1.03-0.26
			c-1.34-3.56,1.88-1.31,0.29-5.53c-0.36,1.67-1.3,5.35-3.76,1.45c-0.21-0.79-0.8-2-1.09-1.92c0.28,0.81,0.89,2.02,0.36,1.89
			c-3.5-5.79-3.3,0.54-3.11,3.05c-0.31-0.58-0.69-1.44-0.84-1.41c0.81,2.07,0.51,2.84,1.22,4.79c0.68,0.81,0.76,0.52,0.83-0.07
			c0.41,0.84,0.83,1.67,1.24,2.51C110.64,438.49,109.51,433.62,110.95,435.86z M135.35,499.42c0.85-0.6,1.05-1.55,1-3.23
			c-0.49-0.81-0.44,0.49-0.98-0.53c-0.49-1-0.05-0.9-0.8-2.2c-0.09,0.6-0.7-0.85-1.04-1.23c-0.1,1.57-0.78,0.24-1.72-0.55
			c-0.12,0.34,0.49,1.55,0.36,1.89c-0.98-0.83-2.23-2.74-3.06-2.98c1.41,3.1,1.46,2.25,3.03,5.25c0.46,0.07,0.76-0.54,1.52,0.75
			c-0.53-0.06-0.2,0.88,0.27,1.99C134.19,498.03,134.55,497.85,135.35,499.42z M279.79,457.9c-1.19-1.14-1.71-0.94-1.57,0.62
			c0.43,0.39,0.88,0.78,1.33,1.18C279.23,458.27,279.98,459.03,279.79,457.9z M280.69,456.69l0.09,1.67
			c0.59-0.27,1.23,0.94,2.02,1.75C282.46,458.83,281.7,457.71,280.69,456.69z M291.64,454.52c-0.51,0.12-0.72,0.78-1.96-0.42
			c1.08,1.91,0.37,1.25,0.23,2.5c-0.3-0.45-0.6-0.89-1.07-1.26c0.05,1.02-0.36,1.21-1.23,0.55c0.04,0.99,0.12,1.97,0.55,2.79
			c0.3,0.02,0.43-0.74,0.65,0.15c0.75,0.67,0.04-1.36,0.17-1.82c0.97,1.21,1.78,1.52,2.73,1.81
			C290.14,456.02,291.32,455.78,291.64,454.52z M305.72,460.22c1.09,0.81,1.69,0.1,0.82-1.3
			C306.2,459.24,305.63,459.18,305.72,460.22z M309.54,446.37c1.19,2.13,1.12-0.1,1.65,0.05
			C310.25,444.68,310.03,446.46,309.54,446.37z M305.91,438.94c-1.19-1.09-0.18,1.07-1.68-0.48c0.33,1.01,0.92,1.89,1.77,2.64
			C305.3,439.25,307.03,440.57,305.91,438.94z M327.77,453.24c1.11,0.45,2.11,0.73,1.9-0.62
			C328.96,452.73,327.98,452.45,327.77,453.24z M314.62,437.93c-0.58-0.23-0.31-1.47,0.01-1.36c-0.93-1.84-0.34,0.57-1.4-0.58
			c-0.03,1.06,0.87,1.62,1.2,2.49c0.85,0.44,1.44,0.53,2.08,0.67C316.14,437.91,314.98,437.7,314.62,437.93z M318.61,437.11
			c-1.19-2.33-2.4-1.21-2.75-0.74C317.28,438.37,317.44,436.35,318.61,437.11z M320.61,434.67c0.73,0.97,2.81,2.34,2.11,0.64
			C321.93,434.28,320.19,433.34,320.61,434.67z M328.88,432.72c-1.16,0.97-4.64-2.28-2.68,2.02c0.28-0.04,0.58-0.06,0.78,0.47
			C326.74,433.27,329.18,434.72,328.88,432.72z M339.66,428.16c-0.92,0.74-3.58-0.57-3.59,1.23c1.73,1.05,1.29-0.45,2.2-0.39
			c0.89,0.53,1.16,1.44,1.39,2.37c1.69,0.22-0.97-2.76,0.69-3.16c-1.4-1.12-0.92-0.52-2.4-1.3
			C338.31,428.4,338.47,427.13,339.66,428.16z M531.02,258.54c1.54,0.14-0.61-2.69,0.93-2.51
			C529.24,254.35,530.64,257.2,531.02,258.54z M531.1,255.19c1.26,0.59,1.28,0.15,0.29-1.12
			C530.87,254.09,530.75,254.45,531.1,255.19z M322.82,453.7c0.2-0.2,0.43-0.38,0.64-0.56C323.09,453.07,322.39,452.83,322.82,453.7
			z M323.63,452.99c-0.06,0.05-0.11,0.1-0.16,0.14C323.63,453.16,323.71,453.14,323.63,452.99z M313.43,455.91
			c1.37,3.04-2.43,0.64-2.25,2.9c2.63-0.18,3.96-1.9,6.07-2.19c-0.44-1.39-0.74-0.14-1.51-1
			C315.61,456.68,315.02,457.06,313.43,455.91z M287.03,456.57c-0.6,0.07-1.43-0.32-1.16,1.38
			C286.85,458.63,286.5,456.77,287.03,456.57z M320.7,440.46c0.75,1.63,0.12,1.54,0.92,2.64c1.6,1.17-0.24-1.01-0.36-1.6
			c-0.14-0.97,0.79,0.97,1.53,0.96c-0.61-2.3,0.48-2.29,1.86-1.93l-1.15-2.06C323.62,439.81,322.51,440.91,320.7,440.46z
			 M340.84,447.65c-1.06,0.59-2.25,0.94-3.36,1.52C338.92,450.13,340.48,448.92,340.84,447.65z M322.61,433.57
			c0.01,0.75,0.88,1.01,1.07,1.65c0.77,0.38,0.51-0.58,0.76-0.87C323.98,433.27,324.15,435.16,322.61,433.57z M343.72,429.38
			c-0.41-0.97-0.92-0.13-1.48-0.47c-1.21-0.94,0.28-0.97-1.03-2.14c-1.08-0.68,0.17,1.33-1.23,0.29c1.22,1.17,0.97,2.23,3.14,3.62
			C342.97,429.83,343.02,429.23,343.72,429.38z M345.75,428.56c1.5,0.57,0.12-2.09,2.44-0.61c-0.58-1.4-1.08-0.54-1.47-1.4
			C346.43,427.26,345.69,427.46,345.75,428.56z M347.39,426.59c-0.93-1.82,0.4-1.13,1.9-0.27c0.38-0.97-0.27-1.68-0.4-3.02
			c-0.53-0.11-0.82,0.04-1.35-0.07c0.07,0.73,0.97,0.94,1.21,1.56c0.03,0.27-0.27,0.18-0.13,0.56c-0.7-0.5-0.77-1.38-1.89-1.61
			c-0.27,0.32-0.13,0.72,0.53,1.53c-0.71-0.33-1.01-0.91-1.74-1.22c-0.06,1.26-1.06,1.5-2.56,1.15
			C345.33,427.6,344.84,424.79,347.39,426.59z M528.09,264.87c0.75-0.17,0.75-0.95,1.87-0.83c-1.68-1.65-0.11-1.43,0.41-1.72
			c-0.26-0.29-0.63-0.51-0.85-0.82c-0.31-0.1-0.47-0.3-0.63-0.51C529.25,262.78,527.58,262.96,528.09,264.87z M205.64,80.25
			c0.52-0.35,1.39,0.77,1.68-0.57C207.14,78.86,205.89,78.51,205.64,80.25z M197.9,79.07c-1.07,0.45-2.41,0.01-3.04,1.89
			C196.15,81.27,197.16,80.68,197.9,79.07z M313.33,443.02c0.04-0.53-1.04-0.12-2.65,0.75l0.22,0.67
			C312,443.9,312.83,443.43,313.33,443.02z M310.67,460.78c-0.05-0.82,1.63-3.16-1.58-2.53
			C311.18,458.24,308.67,460.87,310.67,460.78z M333.25,450.23c0.52,0.21-0.37,1.6,1.08,1.03
			C334.41,450.53,334.96,449.83,333.25,450.23z M325.47,457.27c3.42-1.42,2.56-2.45,0.85-1.8c-0.36,0.73,1.02-0.01,0.9,0.53
			C326.25,456.51,325.06,457.06,325.47,457.27z M375.23,434.68C375.55,431.87,372.34,435.18,375.23,434.68L375.23,434.68z
			 M400.16,426.71c0.15-1.03,0.2-1.86-1.36-1.87C398.4,425.44,399.12,426.64,400.16,426.71z M402.69,423.47l0.29,0.84
			C404.98,423.61,404.52,422.26,402.69,423.47z M437.74,408.89c0.25-0.62-0.27-0.98-1.65-0.56
			C435.5,408.86,436.17,409.54,437.74,408.89z M435.21,414.3C435.96,416.14,438.68,414.18,435.21,414.3L435.21,414.3z
			 M324.46,458.56C324.46,458.56,324.46,458.56,324.46,458.56C324.46,458.56,324.46,458.56,324.46,458.56
			C324.46,458.56,324.46,458.56,324.46,458.56z M325.13,458.42c-0.25,0.07-0.45,0.1-0.67,0.14
			C324.5,458.75,324.89,458.83,325.13,458.42z M410.61,421.08c-1.13,0.24-1.61-0.08-2.83,0.24
			C406.25,422.5,410.56,421.29,410.61,421.08z"/>
	</g>
	<path class="st1" d="M150.53,357.97c0.12,0.14,0.23,0.25,0.34,0.39c-0.08,0.09-0.16,0.15-0.24,0.25
		C150.61,358.37,150.56,358.19,150.53,357.97z M141.44,345.96c2.45,3.88,5.89,8.22,8.93,11.83c0.05,0.06,0.1,0.11,0.15,0.17
		C149.75,351.8,146.11,350.55,141.44,345.96z M172.21,369.27c-4.57-1.58-8.22-6.69-11.55-10.04c-3.01-3.5-5.88-5.41-9.8-0.87
		c2.84,3.31,5.46,5.77,7.36,5.78l-1.37,0.27C156.86,364.4,165.1,368.5,172.21,369.27z M154.98,344.84c-4.53-8.73-1.55,7.7-6.4-0.25
		c-2.26-1.53,8.02,11.29,10.98,9.74C159.18,351.65,150.94,349.03,154.98,344.84z M139.22,328.88l6.7,0.11
		c-3.49-4.46-4.81-7.75-5.74-10.94C139.28,320.89,135.37,321.45,139.22,328.88z M138.55,312.29c-0.79-2.59-1.88-5.43-4.11-9.05
		l1.6,8.62c-5.38-0.76-3.74-9.92-8.38-9.84c-1.82,0.97-1.46,5.85-2.19,7.66C134.14,308.5,129.19,320.73,138.55,312.29z
		 M125.47,309.68c-0.48,0.07-0.99,0.15-1.56,0.3C124.74,310.67,125.18,310.39,125.47,309.68z M140.1,315.29
		c1.26,2.31,4.69,4.94,4.87,8.57c-0.76-3.74,1.08-11.5-5.36-10.23c-0.02,0.2,0.05,0.41,0.1,0.62c-0.26-0.62-0.57-1.29-1.03-2.07
		c-0.05,0.05-0.09,0.07-0.13,0.11c0.61,2.01,1.08,3.89,1.63,5.76C140.41,317.33,140.44,316.46,140.1,315.29z M125.68,275.88
		c-0.29,0.66-0.54,1.35-0.7,2.1C125.23,277.39,125.46,276.64,125.68,275.88z M127.62,289.67c0.59,1.99,1.19,3.99,1.73,5.98
		C129.13,291.97,128.48,290.31,127.62,289.67z M127.62,289.67c-0.83-2.84-1.64-5.69-2.23-8.58l-4.8,3.4
		C120.77,294.8,125.09,287.78,127.62,289.67z M176.93,370.56c0.2,0.03,0.31,0.12,0.5,0.17
		C176.63,370.29,176.15,370.17,176.93,370.56z M473.5,266.98l-0.3,0.21C473.33,267.21,473.43,267.13,473.5,266.98z M181.11,398.24
		l2.65,5.29l2.45-4.37l-9.6-5.36c-3.22-1.81-6.13-4.07-9.23-6.14c3.96-1.3-4.4-7.78,0.98-9.41c-2.96-0.67-5.67-1.69-8.51-2.68
		c1.33-3.85,5.19-2.46,9.29-0.87c4.26,1.47,8.66,3.33,10.68,1.57c1.9-2.64-0.85-4.69-2.39-5.53c4.95,1.11,6.11,4.62,7.02,8.82
		c0.99,4.05,1.88,8.57,5.44,11.48l6.06-0.94l-3.61,5.01c3.71,1.35,8.69-0.58,10.99-1.97c1.57,5.88,5.66,8.34,10.87,9.33
		c5.21,1.07,10.82,2.07,16.66,5.05c-11.56-0.63,4.53,8.12,2.35,9.02c1.45,0.56,3.65,0.72,6.15,0.64c2.51-0.26,5.36-0.55,8.08-0.84
		c5.41-0.36,10.27,0.03,12.22,4.04c3.08,3.53-8.32,3.17,0.03,5.95c5.79,0.18,9.92-2.5,6.78-6.02c12.2,0.15,26.45,1.61,39.72,0.4
		l-2.84,4.3c4.4,1.69,8.56,0.15,11.97-1.88c3.41-2.14,6.06-5.1,7.73-7.75c1.43,1.37,1.82-0.01,1.06,2.74
		c0.1,0.04,0.19,0.04,0.3,0.08c1.7-0.47,3.4-0.91,5.09-1.45c-0.37,0.54-0.37,1.16-0.24,1.81c2.08-0.46,3.76-1.75,5.36-3.42
		c-1.71,0.52-3.41,1.06-5.12,1.61c0.58-0.85,2.09-1.49,5.26-1.75c0.5-0.53,1-1.08,1.51-1.66c3.38-3.73,6.76-9.07,14.89-11.24
		c-3.12-5.06-9.95-3.05-13.98,1.5l-0.73-6.83c-13.02,3.96-27.62,8.44-38.82,12.54l4.82-5.19c-0.27-0.22-0.48-0.36-0.73-0.54
		c-1.38,0.12-2.78,0.14-4.17,0.22c-0.32,0.17-0.53,0.34-0.97,0.5c-0.95,0.34-1.66,0.24-2.22-0.09c0,0.01-0.01,0.01-0.01,0.02
		c-1.42,1.81-3,3.89-6.68-0.11c-0.92-0.01-1.82-0.11-2.73-0.14c-1.58,1.5,4.29,2.91,2.26,4.78c2.9,2.76,6.14,4.9,9.84,6.67
		c0.84,0.35,1.71,0.69,2.59,1c-3.66,0.08-7.16,0.81-9.92,2.72l0.63,0.8c-0.26,0.01-0.52-0.02-0.78-0.01
		c0.01-0.39-0.16-0.9-0.61-1.61c-5.45,2.57-9.71,1.28-13.77-0.07c-4.12-1.3-7.97-3.41-13.86-1.59c-0.75-3.85-5.73-5.89-6.13-10.02
		c-2.31,3.3-2.69,5.36-8.02,4.92c-1.21-1.37-3.01-2.68-4.97-3.95c-1.92-1.43-3.96-2.95-5.78-4.41c-1.61-1.31-2.94-2.62-3.86-3.93
		c-5.73-1.25-11.26-3.23-16.95-5.06c-0.32,1.43-0.05,3.02,1.17,4.65c-5.09-2.07-4.13-5.03-1.86-8.03
		c-3.63-3.36-6.89-6.61-10.53-9.57c-3.51-3.21-7.24-6.38-12.31-9.12c4.03,1.06,5.51,0.61,6.09-0.47c-2.85-2.29-5.6-4.68-8.28-7.17
		c-0.33,0.3-0.77,0.56-1.44,0.71c0.09-0.45,0.53-0.75,1.12-1.01c-0.63-0.59-1.26-1.18-1.88-1.78c-2.45-2.02-4.61-3.87-6.39-5.38
		c-1.58-0.15-2.93-0.94-3.81-3.05c-0.81-0.58-1.41-0.91-1.7-0.86l1.05-1.48c-0.07-0.37-0.17-0.66-0.22-1.08
		c-0.89-1.06-1.87-2.04-2.73-3.13c-3.49-1.51-6.83-2.95-9.96-4.31c-4.71-1.89-8.84-4.2-12.56-7.63l3.42-4.7
		c2.07,6.92,5.88,6.79,11.84,10.87c-4.01-4.45-5.19-7.95-6.32-10.98c-1.04-3.09-2.21-5.62-4.6-9.47c-5.91,3.54,0.49,8.98-7.95,0.01
		c0.86-3.2,6.42-2.2,7.14-4.82c-1.63-3.48-3.19-7-4.57-10.62c-1.21-1.38-2.58-2.16-4.19-2.82c-2.91-1.34-6.42-2.41-8.23-7.78
		c-0.31,2.76-0.05,5.38-0.06,8.13c-1.94-3.76-5.22-11.21-2.59-16.08c0.33,2.37,2.16,6.27,4.68,9.15c2.46,2.47,5.45,3.97,8.28,3.4
		c-0.9-2.66-1.78-5.33-2.54-8.05c-0.11-0.32-0.27-0.64-0.38-0.96c0.04-0.04,0.07-0.08,0.11-0.12c-1.58-5.8-2.79-11.75-3.72-17.81
		c-0.13-0.07-0.26-0.06-0.38-0.19c0.1-0.1,0.19-0.33,0.28-0.51c-0.68-4.56-1.17-9.16-1.46-13.84c-4.07,1.62-3.46,4.54-2.25,7.76
		c1.3,3.45,2.69,7.17-1.64,11.37l0.33-10.03c-4.63-2.11-4.83,0.49-4.22,4c1.86,1.02,1.96,3.02,1.79,5.51
		c-0.4,3.57-0.67,8.12,2.97,11.27c-3.44-2.66-7.22-5.44-10.32-8.55l0.86-0.86c-0.97-1.58-0.92-3.4-0.48-5.26
		c-0.58,0.6-1.1,1.42-1.51,2.37c0.58-1.93,1.07-4.32,1.45-6.95l1.9-1.1c0.83-2.63,1.18-5.07-1.11-7.28
		c-0.04,1.1-0.09,2.21-0.22,3.31c-0.14,1.73-0.34,3.43-0.58,5.07l-0.07,0.04c-0.72-3.07-0.32-6.02,0.43-8.81
		c-0.71-0.59-1.55-1.17-2.71-1.73c-2.72,5.03-0.41,20.74-4.28,19.38c3.01-6.19-5.1-9.09-6.6-17.18l4.21-9.82
		c-3.33-3.99-3.24-0.78-5.15,2.52c1.18-3.64,1.92-7.77,2.5-12.31c0.62-4.52,0.41-9.48,1.18-14.56c0.7-5.07,1.4-10.36,2.75-15.45
		c1.67-5.02,3.82-9.88,6.73-14.1c2.17-11.55-3.8-2.78-5.45-9.08c3.96-2.01,5.6-5.88,6.61-10.13c1.18-4.16,1.98-8.62,3.39-11.63
		c1.2-1.54-2.55-7.74-5.53-7.16c-1.3,5.91-2.79,11.62-3.68,17.46c-2.67-2.08-8.43-1.72-9.93,4.64c6.31,0.07,2.33,5.12-1.1,11.32
		c-3.27,6.25-6.49,13.61-0.14,15.63l-5.84-1.57c-0.13,7.81,0.21,15.58,0.68,23.15l0.54-0.37c-0.49,0.97,0.15,5.34,0.73,10.79
		c0.43,6.31,1.68,13.95,0.74,20.14c-1.07-1.7-1.27-7.74-1.91-11.82c-0.36-4.06-1.33-6.32-4.88-0.13c-1.58-4.7-0.78-11.35,0.26-18.82
		c1.51-7.45,3.23-15.73,3.8-24.41l-4.77,2.42c-0.63-9.61,2.11-20.38,7.06-30.3c1.18-2.49,2.37-4.99,3.56-7.5
		c1.36-2.4,2.72-4.8,4.07-7.16c2.75-4.69,4.91-9.55,7.3-14.01c0.63,2.71,1.18,5.3,2.03,8c5.15-5.17,13.3-10.01,12.84-18.12
		c-4.25,7.13-4.55,1.81-5.79-0.95c1.98-5.64,6.23-11.47,11.01-17.41c2.55-2.84,5.19-5.77,7.85-8.73c2.56-3.05,5.12-6.1,7.68-9.17
		c0,0,0.27,1.43,1.32,1.59c3.23-4.53,6.26-9.44,9.93-13.72c6.72-4.1,10.78-2.98,16.52-2.62c1.86-2.21,7.75-5.78,3.8-7.26
		c-1.43,0.53-2.87,1.08-3.53,1.9c3.72-9.79,5.72-1.52,12.59-10.27c-4.25,8.77,5.59,5.34,7.24,10.79c9.12-7.22-3.23-9.07-3.13-11.89
		c7.21-1.87,11.56-1.99,15.86-2.04c0.37,0.01,0.75,0,1.12,0c0.06-0.02,0.11-0.05,0.16-0.07c-0.02,0.02-0.03,0.04-0.06,0.07
		c1.9,0.02,3.83-0.03,5.99-0.28c-1.91-0.29-3.94-0.38-5.93,0.21c0.84-0.92,1.74-1.89,2.53-2.85c-0.42-0.17-0.81-0.37-1.07-0.7
		c0.62-0.1,1.24-0.28,1.86-0.43c0.21-0.31,0.52-0.64,0.65-0.94l-2.06,0.32c0.9-0.68,2.05-1.71,3.22-2.66l-4.07,0.3
		c1.57-0.18,3.04-0.47,4.56-0.69c1.66-1.29,3.31-2.27,4.29-1.64c-1.57,0.43-2.59,0.92-3.27,1.48c1.92-0.29,3.89-0.5,5.76-0.86
		c3.69-0.68,7.44-1.07,11.11-1.89c0.47-0.09,0.93-0.23,1.4-0.33c0.28-0.08,0.58-0.16,0.82-0.22c-0.01,0.01-0.02,0.02-0.03,0.03
		c2.96-0.69,5.9-1.54,8.96-2.19c3.81-0.85,7.68-1.92,11.71-3.21l-1.51-1.48c3.43-0.51,6.86-0.97,10.32-1.01l-3.13,6.42
		c5.35-1.93,11.35,3.3,14.07-1.8l-2.02-0.36c2.25-0.75,4.53-1.58,6.83-2.25c-1.94,1.7-3.8,3.5-5.64,5.28
		c1.7-0.2,3.44-0.39,4.93-0.64c3.9-0.37,6.07-1.38,0.12-5.08c4.35-1.58,10.46-0.86,17.31,0.16c0.4-0.11,0.78-0.26,1.18-0.35
		c3.38-0.69,6.92-0.64,10.47,0.15c0.22,1.1,0.01,1.89-0.53,2.47c3.9,0.74,7.94,1.35,12.09,1.69l-0.39-0.27
		c0.45,0.07,0.81,0.26,1.24,0.36c0.05,0,0.09,0.01,0.14,0.01l-2.33-4.97c9.23-0.66,19.57,2.19,29.1,7.35c2.39,1.23,4.8,2.47,7.2,3.7
		c2.31,1.42,4.61,2.84,6.88,4.24c4.51,2.87,9.18,5.11,13.46,7.6c-2.6,0.66-5.09,1.22-7.68,2.12c2.71,2.93,5.34,6.75,8.43,9.57
		l0.84-1.29c0.43,1.54,1.49,2.84,2.84,3.96c1.61,0.81,3.35,1.25,5.29,1.13c-6.85-4.42-1.74-4.74,0.92-6.03
		c5.41,2.06,11.01,6.49,16.72,11.47c2.72,2.66,5.54,5.41,8.38,8.18c2.93,2.66,5.86,5.33,8.8,8c0,0-1.37,0.28-1.53,1.37
		c4.35,3.36,9.07,6.52,13.18,10.34c3.94,6.99,2.86,11.22,2.52,17.21c2.12,1.93,5.56,8.07,6.98,3.96c-0.51-1.49-1.04-2.99-1.82-3.68
		c9.4,3.87,1.46,5.95,9.87,13.11c-8.42-4.42-5.13,5.82-10.36,7.54c6.94,9.49,8.71-3.36,11.41-3.26c1.8,7.51,1.91,12.04,1.96,16.51
		c-0.01,0.39,0,0.78,0,1.16c0.02,0.06,0.05,0.11,0.06,0.17c-0.02-0.02-0.04-0.03-0.06-0.06c-0.02,1.98,0.03,3.99,0.27,6.24
		c0.28-1.99,0.37-4.11-0.21-6.18c0.89,0.87,1.81,1.81,2.74,2.64c0.16-0.44,0.36-0.84,0.67-1.12c0.09,0.65,0.26,1.29,0.41,1.94
		c0.3,0.22,0.61,0.54,0.9,0.68l-0.31-2.15c0.66,0.94,1.65,2.14,2.55,3.36l-0.29-4.24c0.17,1.63,0.45,3.16,0.66,4.75
		c1.24,1.73,2.18,3.44,1.57,4.47c-0.42-1.64-0.89-2.69-1.42-3.4c0.27,2,0.48,4.05,0.83,6c0.65,3.84,1.02,7.75,1.81,11.57
		c0.08,0.49,0.22,0.97,0.32,1.46c0.07,0.29,0.16,0.61,0.21,0.86c-0.01-0.01-0.02-0.02-0.03-0.03c0.66,3.08,1.48,6.14,2.1,9.33
		c0.82,3.96,1.84,8,3.09,12.2l1.42-1.57c0.49,3.57,0.94,7.15,0.97,10.75l-6.17-3.26c1.85,5.57-3.17,11.82,1.73,14.65l0.34-2.1
		c0.72,2.35,1.51,4.72,2.16,7.11c-1.63-2.02-3.36-3.96-5.07-5.88c0.19,1.77,0.37,3.58,0.62,5.13c0.36,4.06,1.33,6.32,4.88,0.13
		c1.52,4.53,0.82,10.89-0.15,18.02c0.1,0.42,0.25,0.81,0.34,1.23c0.67,3.52,0.62,7.21-0.15,10.91c-1.05,0.23-1.81,0.01-2.38-0.55
		c-0.71,4.06-1.29,8.27-1.62,12.59l0.26-0.41c-0.07,0.47-0.25,0.85-0.35,1.29c0,0.05-0.01,0.1-0.01,0.15l4.77-2.43
		c0.63,9.61-2.11,20.38-7.06,30.3c-1.18,2.49-2.37,4.99-3.56,7.5c-1.36,2.4-2.72,4.8-4.07,7.16c-2.75,4.69-4.91,9.55-7.3,14.01
		c-0.63-2.71-1.18-5.3-2.03-8c-2.81,2.82-6.48,5.57-9.19,8.77l1.23,0.87c-1.48,0.45-2.73,1.55-3.8,2.96
		c-0.78,1.67-1.2,3.49-1.08,5.51c4.25-7.13,4.55-1.81,5.79,0.95c-1.98,5.64-6.23,11.47-11.01,17.41c-2.55,2.84-5.19,5.77-7.85,8.73
		c-2.56,3.05-5.12,6.1-7.69,9.17c0,0-0.27-1.43-1.31-1.59c-3.23,4.53-6.27,9.44-9.93,13.72c-6.72,4.1-10.78,2.98-16.52,2.62
		c-1.86,2.21-7.75,5.78-3.8,7.26c1.43-0.53,2.87-1.08,3.53-1.9c-3.72,9.79-5.72,1.52-12.59,10.27c4.25-8.77-5.59-5.34-7.24-10.79
		c-9.12,7.22,3.23,9.07,3.13,11.89c-7.21,1.87-11.56,1.99-15.86,2.04c-4.36-0.1-8.53,0-15.23,1.94c0.23,3.47,10.02-1.37,12.49,1.68
		c-4.13,0.65-8.49,2.65-8.82,4.09l9.21-0.68c-3.9,0.44-7.66,0.99-11.34,1.7c-3.69,0.68-7.44,1.07-11.11,1.89
		c-3.7,0.68-7.33,1.9-11.15,2.71c-3.81,0.85-7.68,1.92-11.71,3.21l1.51,1.48c-3.43,0.51-6.86,0.97-10.32,1.01l3.13-6.42
		c-5.35,1.93-11.35-3.3-14.07,1.8l2.02,0.36c-2.25,0.75-4.53,1.58-6.83,2.25c2.37-2.07,4.66-4.29,6.88-6.44
		c-2.14-0.58-4.44-0.1-6.95,0.72c-2.51,0.7-5.25,1.89-8.23,3.1c-2.98,1.21-6.2,2.45-9.59,3.25c-3.38,0.69-6.92,0.64-10.47-0.15
		c-0.9-4.49,5.28-3.98,12-4.41c6.75-0.63,14.01-1.65,14.9-7.05c-4.46-1.94-11.78-4.15-14.72-1.44c0.27,2.96,3.53,3.21,6.79,3.43
		c-3.06,1.21-6.51,1.67-10.01,1.31c-3.5-0.43-7.07-1.3-10.49-2.04c-6.91-1.24-12.97-3.16-17.96,0.51l8.32,5.8
		c-11.18-1.8-14.63-14.46-19.75-10.01c3.77-2.35,7.4-4.83,10.98-7.65c-11.51,2.08-23.94-4.19-34.56-5.45
		c-2.92,5.49,13.35,6.53,12.18,7.18c-2.07,0.78-4.1,1.36-6.2,2.02c-6.61-5.28-7.15-6.66-8.14-8.23c-0.98-1.51-2.37-3.29-9.52-10.04
		l-2.26,3.47C189.94,404.26,169.62,403.11,181.11,398.24z M225.53,66.62l4.32-1.32c-1.38,0.12-3.01,0.4-4.55,0.55
		C225.38,66.11,225.45,66.35,225.53,66.62z M375.12,77.03c0.02,0.03,0.05,0.07,0.07,0.1c0-0.09,0.03-0.19,0.02-0.29
		c-0.08-0.02-0.16-0.04-0.23-0.06C375.02,76.87,375.07,76.95,375.12,77.03z M242.87,82.86c-3.38,3.73-6.77,9.06-14.89,11.24
		c2.29,3.72,6.58,3.6,10.29,1.49c1.07-2.11,2.66-4.15,6.09-5.4c-2.65-0.32-5.16-0.05-7.81-0.06c3.61-2.02,10.77-5.43,15.44-2.7
		c-2.28,0.35-6.03,2.25-8.79,4.88c-0.42,0.46-0.76,0.95-1.12,1.44l0.61,5.69c8.35-2.54,17.28-5.29,25.62-8.02
		c-2.16,0.31-4.44-0.22-6.9-2.96l9.63,0.35c4.73-11.23-15.09,2.53-13.41-6.13c2.7-5.88,7.18-3.99,11.19-2.37
		c4.07,1.45,7.73,3.23,10.82-3.8c-0.94-0.55-2.27-0.9-3.78-1.14c-0.97,0.06-1.95,0.05-2.91,0.14l0.29-0.44
		c-3.96-0.34-8.37-0.32-10.68-1.07c-2.79,2.03-5.02,4.54-6.47,6.85c-1.43-1.37-1.82,0.01-1.06-2.74
		C249.16,76.06,246.17,79.07,242.87,82.86z M277.42,92.61c0.78-0.07,1.58-0.07,2.36-0.12c-0.38-1.03-0.83-1.79-1.34-2.3l-1.75,1.88
		C276.96,92.29,277.18,92.43,277.42,92.61z M438.89,235.43c0.06,0.81,0.07,1.64,0.12,2.46c0.99-0.39,1.72-0.86,2.21-1.39l-1.81-1.82
		C439.2,234.95,439.07,235.17,438.89,235.43z M456.8,219.95c-1.95-2.91-4.36-5.23-6.57-6.73c1.32-1.49-0.01-1.89,2.63-1.11
		c0.04-0.11,0.04-0.2,0.07-0.31c-0.45-1.77-0.88-3.55-1.39-5.3c0.52,0.39,1.12,0.39,1.74,0.25c-0.44-2.17-1.68-3.91-3.28-5.58
		c0.49,1.78,1.02,3.55,1.54,5.33c-0.81-0.61-1.43-2.18-1.68-5.48c-0.51-0.52-1.04-1.04-1.59-1.57c-3.58-3.52-8.71-7.04-10.79-15.5
		c-3.57,2.39-3.46,6.85-1.43,10.71c2.03,1.11,3.98,2.77,5.19,6.34c0.31-2.76,0.05-5.38,0.06-8.13c1.94,3.76,5.22,11.21,2.59,16.08
		c-0.33-2.37-2.16-6.27-4.68-9.15c-0.44-0.44-0.92-0.79-1.38-1.17l-5.47,0.63c2.44,8.7,5.08,17.99,7.7,26.67
		c-0.29-2.25,0.21-4.63,2.84-7.18l-0.34,10.03c4.63,2.12,4.83-0.49,4.22-4c-1.86-1.02-1.96-3.02-1.79-5.51
		c0.4-3.57,0.67-8.12-2.97-11.27c3.44,2.66,7.22,5.44,10.32,8.55l-0.86,0.86c0.97,1.58,0.92,3.4,0.47,5.26
		c0.58-0.6,1.1-1.42,1.51-2.37c-0.58,1.93-1.07,4.32-1.45,6.95l-1.9,1.1c-0.83,2.63-1.18,5.07,1.11,7.28
		c0.04-1.1,0.09-2.21,0.22-3.31c0.14-1.73,0.34-3.43,0.58-5.07l0.07-0.04c0.72,3.07,0.32,6.02-0.43,8.81
		c0.71,0.59,1.55,1.17,2.71,1.73c0.53-0.98,0.87-2.36,1.1-3.94c-0.06-1.01-0.05-2.03-0.13-3.03l0.42,0.3
		C456.1,226.95,456.08,222.36,456.8,219.95z M459.15,224.55c-0.28-0.76-0.6-1.47-0.95-2.18
		C458.39,223.12,458.72,223.84,459.15,224.55z M266.98,71.52c-0.73,0.29-1.41,0.62-2.09,0.99C265.6,72.31,266.29,71.97,266.98,71.52
		z M235.64,393.62c0.11,0.12,0.21,0.24,0.31,0.37l0.16-0.19C235.95,393.74,235.8,393.69,235.64,393.62z M454.03,337.25
		c0.02-0.08,0.04-0.16,0.06-0.24c-0.08,0.05-0.15,0.1-0.23,0.15c-0.03,0.02-0.07,0.05-0.1,0.07
		C453.85,337.23,453.94,337.27,454.03,337.25z M465.28,309.98c-2.19-3.79-4.5-7.46-7.12-11.06c0.49,2.96,0.49,5.98,0.2,9.02
		c0.04,0.14,0.1,0.24,0.14,0.39c-0.08,0.04-0.13,0.1-0.2,0.15c-0.98,9.07-4.48,18.26-5.37,26.43c0.58,0.33,1.09,0.39,1.57,0.3
		c1.18-5.19,2.43-10.26,3.21-15.42c2.67,2.08,8.43,1.72,9.93-4.64C463.64,315.1,463.78,313.05,465.28,309.98z M471.14,298.73
		c-3.69,4.91-8.04,7.77-5.83,11.2c0.87-1.77,2.18-3.86,3.43-6.11C469.61,302.16,470.46,300.42,471.14,298.73z M468.88,288.19
		l5.84,1.57c0.13-7.81-0.21-15.58-0.68-23.14l-0.54,0.37c0.49-0.97-0.15-5.34-0.73-10.79c-0.03-0.41-0.08-0.86-0.11-1.28
		c-0.98-2.5-2.44-4.34-4.81-4.76c-1.87,4.64-3.99,12.27-1.38,15.33c2.84-0.28,3.08-3.67,3.3-7.07c1.16,3.18,1.6,6.78,1.26,10.43
		c-0.42,3.64-1.25,7.36-1.96,10.92c-1.19,7.2-3.03,13.51,0.49,18.7l2.88-4.48C472.7,291.31,471.88,289.14,468.88,288.19z
		 M466.61,180.62c0.85,2.55,1.95,4.6,2.85,4.83l-0.29-4.31C468.46,180.52,467.62,180.44,466.61,180.62z M463.85,181.4l1.27,4.5
		c-0.11-1.44-0.39-3.13-0.53-4.74C464.35,181.24,464.11,181.31,463.85,181.4z M349.02,65.13c-3.64,2.29-7.16,4.69-10.62,7.42
		c2.85-0.51,5.75-0.51,8.66-0.21c0.13-0.05,0.23-0.1,0.38-0.14c0.04,0.08,0.1,0.13,0.14,0.21c8.71,1.02,17.54,4.66,25.38,5.59
		c0.32-0.6,0.37-1.14,0.28-1.64c-4.98-1.23-9.85-2.53-14.81-3.35c1.99-2.78,1.66-8.78-4.46-10.33
		C353.93,66.84,351.96,66.7,349.02,65.13z M338.21,59.04c4.71,3.84,7.46,8.37,10.75,6.07c-1.69-0.91-3.7-2.27-5.87-3.57
		C341.5,60.63,339.84,59.75,338.21,59.04z M328.09,61.39l1.51-6.08c-7.5-0.13-14.96,0.22-22.23,0.71l0.36,0.56
		c-0.93-0.51-5.13,0.16-10.36,0.76c-0.39,0.03-0.83,0.08-1.23,0.12c-2.4,1.02-4.17,2.54-4.57,5c4.46,1.94,11.78,4.15,14.72,1.44
		c-0.27-2.96-3.53-3.21-6.79-3.43c3.06-1.2,6.51-1.66,10.01-1.31c3.5,0.43,7.07,1.3,10.49,2.04c6.91,1.24,12.97,3.16,17.96-0.51
		l-4.3-3C331.09,57.41,329.01,58.26,328.09,61.39z M224.78,63.75c2.45-0.88,4.42-2.03,4.63-2.96l-4.14,0.31
		C224.69,61.82,224.61,62.7,224.78,63.75z M214.95,390.78c0.67-0.89,1.45-1.79,2.23-2.66c0.33-0.37,0.64-0.74,0.96-1.1
		c-3.01-0.88-5.81-1.9-8.05-3.33C212.47,387.22,213.62,387.53,214.95,390.78z M215.85,393.67c3.49,0.03,6.89,0,10.22-0.06
		c-0.22-1.29,0.42-2.48,2.24-3.14c-0.92-0.43-1.8-0.91-2.71-1.36c-0.01,0.19-0.05,0.43-0.03,0.56
		C222.85,387.41,217.18,389.8,215.85,393.67z M233.91,392.96c-1.82-0.76-3.62-1.56-5.4-2.39c-0.62,0.76-0.86,1.85-0.67,3.03
		c0.1,0,0.22,0,0.32,0c1.03,1.13,2.14,2.11,3.28,3.05c-0.08-0.76,0.04-1.52,0.46-2.28C232.69,393.48,233.34,393.09,233.91,392.96z
		 M284.43,403.94c-0.87-0.03-1.73-0.09-2.6-0.14c0.87,0.76,1.76,1.57,2.69,2.44C284.44,405.52,284.42,404.74,284.43,403.94z
		 M309.64,417.32l-0.04-0.08c-1.58-0.24-3.2-0.46-4.87-0.6c-1.7-0.21-3.41-0.27-5.08-0.23
		C302.75,417.51,306.12,418.21,309.64,417.32z M315.02,412.34l4.84,5.23c2.98-3.23,5.65-7.17,8.21-10.75
		c-3.03,3.79-7.4,3.51-10.83,3.1c-3.43-0.26-5.92-0.02-6,5.49l-4.33-3.2l2.68,5.04c2.52,0.39,4.82,0.9,6.67,1.5
		C313.03,417.22,311.33,414.28,315.02,412.34z M316.27,418.75c0.63,0.3,1.29,0.56,2.01,0.73
		C317.71,419.22,316.99,418.98,316.27,418.75z M289.58,419.92c-1.73,0.03-3.45-0.06-5.18-0.08
		C281.25,419.02,289.5,422.4,289.58,419.92z M307.72,56.58l0.2,0.32C307.94,56.75,307.87,56.65,307.72,56.58z M453.47,220.3
		c0.29-0.65,0.54-1.35,0.7-2.1C453.93,218.79,453.7,219.54,453.47,220.3z M118.93,323.11c-0.57-0.4-1.22-0.99-1.88-1.67
		c0.19,0.72,0.44,1.42,0.81,2.08L118.93,323.11z M121.62,322.06l-2.7,1.05C120.22,323.91,121.23,323.91,121.62,322.06z
		 M117.05,321.44c-2.22-8,5.46-16.82-4.19-15.37l2.45,8.71c-3.83,1.29-5.76,1.93-7.18-3.67c-1.09,1.85,2.81,5.93,4.49,8.34
		l-0.3-2.15C113.84,318.04,115.52,319.93,117.05,321.44z M113.94,302.2c-2.51-2.43-5.03-4.95-7.56-7.56
		C107.16,298.1,109.53,306.28,113.94,302.2z M116.02,289.35c-0.37-1.75-0.64-3.4-1.89-4.6c-1.49,5.75-2.54-2.99-4.32-4.86
		C108.06,290.74,113.46,283.91,116.02,289.35z M116.02,289.35c0.18,0.8,0.42,1.62,0.86,2.38
		C116.64,290.71,116.34,289.99,116.02,289.35z M174.56,354.93l1.25-1.82C175.06,353.28,174.52,353.72,174.56,354.93z M113.61,261.3
		l0.29-0.66c-0.19-0.83-0.36-1.7-0.4-2.65L113.61,261.3z M105.66,229.2l0.3-0.21C105.83,228.97,105.73,229.05,105.66,229.2z"/>
	<path class="st2" d="M407.03,193.83c0,0-2.13-16.09-8.65-23.18c-8.28-9.3-17.55-9.35-21.81-9.89c-30.46-2.36-76.16-2.36-76.16-2.36
		h-0.09c0,0-45.69,0-76.16,2.36c-4.25,0.54-13.53,0.59-21.81,9.89c-6.52,7.09-8.65,23.18-8.65,23.18s-2.18,18.9-2.18,37.8v17.72
		c0,18.9,2.18,37.8,2.18,37.8s2.12,16.09,8.65,23.19c8.28,9.3,19.16,9.01,24,9.98c17.42,1.79,74.01,2.35,74.01,2.35
		s45.74-0.07,76.2-2.43c4.26-0.55,13.53-0.6,21.81-9.9c6.52-7.09,8.65-23.19,8.65-23.19s2.17-18.9,2.17-37.8v-17.72
		C409.2,212.73,407.03,193.83,407.03,193.83z M277.88,270.83V205.2l58.82,32.93L277.88,270.83z"/>
</g>
</svg>
